<svg id="AppStore" xmlns="http://www.w3.org/2000/svg" width="161" height="47.573" viewBox="0 0 161 47.573">
  <path id="Path_1" d="M162.389,44.483a4.555,4.555,0,0,1-4.562,4.549H8.092A4.581,4.581,0,0,1,3.5,44.483V8.149A4.562,4.562,0,0,1,8.092,3.6H157.8a4.555,4.555,0,0,1,4.562,4.549h0l.03,36.334Z" transform="translate(-2.459 -2.53)" fill="#fff"/>
  <path id="Path_2" d="M155.365,47.573H5.635A5.623,5.623,0,0,1,0,41.953V5.62A5.642,5.642,0,0,1,5.635,0h149.7A5.648,5.648,0,0,1,161,5.62V41.953A5.642,5.642,0,0,1,155.365,47.573Z"/>
  <path id="Path_3" d="M162.389,44.483a4.555,4.555,0,0,1-4.562,4.549H8.092A4.581,4.581,0,0,1,3.5,44.483V8.149A4.562,4.562,0,0,1,8.092,3.6H157.8a4.555,4.555,0,0,1,4.562,4.549h0l.03,36.334Z" transform="translate(-2.459 -2.53)"/>
  <path id="Path_4" d="M71.821,40.975a7,7,0,0,1,3.271-5.8,7.044,7.044,0,0,0-5.56-3c-2.349-.238-4.609,1.4-5.8,1.4-1.219,0-3.062-1.368-5.025-1.338a7.4,7.4,0,0,0-6.244,3.806c-2.706,4.668-.684,11.536,1.9,15.312,1.279,1.843,2.795,3.925,4.787,3.836,1.933-.089,2.646-1.219,5-1.219,2.319,0,3,1.219,5,1.189,2.081-.03,3.39-1.843,4.638-3.717a15.3,15.3,0,0,0,2.111-4.311,6.78,6.78,0,0,1-4.073-6.155Zm-3.806-11.3A6.745,6.745,0,0,0,69.562,24.8a6.781,6.781,0,0,0-4.46,2.319,6.561,6.561,0,0,0-1.606,4.7A5.777,5.777,0,0,0,68.016,29.676Z" transform="translate(-35.964 -17.426)" fill="#fff"/>
  <g id="Group_30" transform="translate(50.959 21.375)">
    <path id="Path_6" d="M183.25,88.009h-2.706l-1.487-4.638h-5.144l-1.4,4.638H169.9l5.084-15.848h3.152l5.114,15.848Zm-4.638-6.6-1.338-4.133c-.149-.416-.416-1.427-.8-2.973h-.059c-.149.684-.416,1.665-.743,2.973l-1.308,4.133Zm17.721.743a6.563,6.563,0,0,1-1.576,4.609,4.614,4.614,0,0,1-3.508,1.516,3.572,3.572,0,0,1-3.271-1.606v5.976H185.45V80.368q0-1.829-.089-3.746h2.23l.149,1.814h.059a4.228,4.228,0,0,1,3.865-2.052,4.127,4.127,0,0,1,3.36,1.606,6.232,6.232,0,0,1,1.308,4.163Zm-2.587.089A4.861,4.861,0,0,0,193,79.506a2.629,2.629,0,0,0-2.2-1.13,2.543,2.543,0,0,0-1.695.624,2.955,2.955,0,0,0-1.011,1.635,3.232,3.232,0,0,0-.119.773v1.9a2.957,2.957,0,0,0,.773,2.111,2.531,2.531,0,0,0,1.992.862,2.617,2.617,0,0,0,2.23-1.1,5.281,5.281,0,0,0,.773-2.944Zm15.729-.089a6.563,6.563,0,0,1-1.576,4.609,4.66,4.66,0,0,1-3.508,1.516,3.572,3.572,0,0,1-3.271-1.606v5.976h-2.527V80.368q0-1.829-.089-3.746h2.23l.149,1.814h.059a4.228,4.228,0,0,1,3.865-2.052,4.127,4.127,0,0,1,3.36,1.606,6.394,6.394,0,0,1,1.308,4.163Zm-2.587.089a4.86,4.86,0,0,0-.743-2.735,2.629,2.629,0,0,0-2.2-1.13,2.543,2.543,0,0,0-1.695.624,2.955,2.955,0,0,0-1.011,1.635,3.232,3.232,0,0,0-.119.773v1.9a2.957,2.957,0,0,0,.773,2.111,2.531,2.531,0,0,0,1.992.862,2.618,2.618,0,0,0,2.23-1.1,5.281,5.281,0,0,0,.773-2.944Zm17.245,1.308a4.318,4.318,0,0,1-1.4,3.3,6.264,6.264,0,0,1-4.311,1.4,7.62,7.62,0,0,1-4.1-.981l.595-2.111a6.9,6.9,0,0,0,3.657.981,3.38,3.38,0,0,0,2.23-.654,2.047,2.047,0,0,0,.8-1.725,2.424,2.424,0,0,0-.654-1.635,5.615,5.615,0,0,0-2.17-1.219c-2.765-1.041-4.163-2.557-4.163-4.549a3.985,3.985,0,0,1,1.487-3.211,5.781,5.781,0,0,1,3.9-1.249,7.9,7.9,0,0,1,3.6.743l-.624,2.081a6.077,6.077,0,0,0-3.033-.714,3.036,3.036,0,0,0-2.111.654,1.775,1.775,0,0,0-.624,1.427,1.944,1.944,0,0,0,.743,1.546,8.115,8.115,0,0,0,2.289,1.219,7.389,7.389,0,0,1,3,1.933,4.176,4.176,0,0,1,.892,2.765Zm8.414-5.055h-2.795v5.53c0,1.4.505,2.111,1.487,2.111a4.866,4.866,0,0,0,1.13-.119l.059,1.933a5.5,5.5,0,0,1-1.962.268,3.028,3.028,0,0,1-2.349-.922,4.53,4.53,0,0,1-.833-3.092V78.465h-1.665v-1.9h1.665V74.481l2.5-.743v2.854h2.795l-.03,1.9Zm12.607,3.687a6.206,6.206,0,0,1-1.516,4.311,5.343,5.343,0,0,1-4.192,1.725,5.2,5.2,0,0,1-4.014-1.665,6.058,6.058,0,0,1-1.487-4.192,6.164,6.164,0,0,1,1.546-4.341,5.358,5.358,0,0,1,4.163-1.695,5.267,5.267,0,0,1,4.044,1.665,6.053,6.053,0,0,1,1.457,4.192Zm-2.646.059a5.1,5.1,0,0,0-.684-2.706,2.625,2.625,0,0,0-4.609,0,5.2,5.2,0,0,0-.684,2.735,5.1,5.1,0,0,0,.684,2.706,2.572,2.572,0,0,0,2.319,1.368,2.546,2.546,0,0,0,2.289-1.368A5.2,5.2,0,0,0,242.508,82.241Zm10.882-3.419a3.653,3.653,0,0,0-.8-.059,2.5,2.5,0,0,0-2.081,1.011,3.771,3.771,0,0,0-.624,2.26v5.976h-2.527V80.19c0-1.189-.03-2.408-.059-3.6h2.2l.089,2.171h.059a3.909,3.909,0,0,1,1.279-1.814,3.129,3.129,0,0,1,1.843-.624,2.226,2.226,0,0,1,.624.059v2.438Zm11.358,2.914a7.618,7.618,0,0,1-.089,1.16h-7.612a3.287,3.287,0,0,0,1.1,2.587,3.812,3.812,0,0,0,2.5.8,9.271,9.271,0,0,0,3.092-.535l.387,1.754a9.454,9.454,0,0,1-3.836.714,5.5,5.5,0,0,1-4.163-1.546,5.76,5.76,0,0,1-1.516-4.192,6.7,6.7,0,0,1,1.4-4.311,4.82,4.82,0,0,1,3.984-1.843,4.316,4.316,0,0,1,3.746,1.843,6.083,6.083,0,0,1,1.011,3.568Zm-2.408-.654a3.526,3.526,0,0,0-.505-1.962,2.208,2.208,0,0,0-2.022-1.07,2.453,2.453,0,0,0-2.022,1.041,3.622,3.622,0,0,0-.743,1.962l5.292.03Z" transform="translate(-169.9 -71.892)" fill="#fff"/>
  </g>
  <g id="Group_39" data-name="Group 39" transform="translate(51.077 9.098)">
    <path id="Path_22" data-name="Path 22" d="M175.028,35.774h-3.836v1.249H170.3V35h.565c.03,0,.059-.03.119-.059a.608.608,0,0,0,.238-.238.992.992,0,0,0,.149-.357q.045-.178.089-.446c.03-.149.03-.3.059-.446a1.7,1.7,0,0,0,.03-.387c0-.119.03-.268.03-.416V30.6h3.508v4.311h.833v2.022h-.892ZM171.995,35h2.171V31.433h-1.784c0,.327-.03.595-.03.833v.684c0,.208-.03.416-.03.595q-.045.268-.089.624a4.056,4.056,0,0,1-.119.505A1.065,1.065,0,0,1,171.995,35Z" transform="translate(-170.3 -30.6)" fill="#fff"/>
    <path id="Path_23" data-name="Path 23" d="M192.073,39.025a2.27,2.27,0,0,1-.8-.149,1.659,1.659,0,0,1-.595-.416,1.632,1.632,0,0,1-.357-.624,2.572,2.572,0,0,1,0-1.546,2.139,2.139,0,0,1,.357-.624,1.775,1.775,0,0,1,.595-.416,2.242,2.242,0,0,1,1.606,0,1.659,1.659,0,0,1,.595.416,2.139,2.139,0,0,1,.357.624,2.217,2.217,0,0,1,.119.773,2.112,2.112,0,0,1-.119.773,2.139,2.139,0,0,1-.357.624,1.817,1.817,0,0,1-1.4.565Zm0-.624a.872.872,0,0,0,.476-.119,1.558,1.558,0,0,0,.327-.3,1.043,1.043,0,0,0,.178-.416,1.933,1.933,0,0,0,0-.951,1.043,1.043,0,0,0-.178-.416,1.558,1.558,0,0,0-.327-.3.811.811,0,0,0-.476-.119.873.873,0,0,0-.476.119,1.559,1.559,0,0,0-.327.3,1.043,1.043,0,0,0-.178.416,1.933,1.933,0,0,0,0,.951,1.043,1.043,0,0,0,.178.416,1.029,1.029,0,0,0,.327.3A1.247,1.247,0,0,0,192.073,38.4Z" transform="translate(-184.283 -33.762)" fill="#fff"/>
    <path id="Path_24" data-name="Path 24" d="M207.146,36.819a.706.706,0,0,0-.268-.505.857.857,0,0,0-.565-.178,1.265,1.265,0,0,0-.327.059.565.565,0,0,0-.327.208,1.1,1.1,0,0,0-.238.416,2.116,2.116,0,0,0-.089.684,2.3,2.3,0,0,0,.059.446,1.042,1.042,0,0,0,.178.416,1.409,1.409,0,0,0,.3.3.985.985,0,0,0,.446.119.81.81,0,0,0,.595-.208,1.229,1.229,0,0,0,.3-.624h.8a1.924,1.924,0,0,1-.535,1.1,1.659,1.659,0,0,1-1.16.387,2.106,2.106,0,0,1-.773-.149,1.9,1.9,0,0,1-.565-.387,1.979,1.979,0,0,1-.357-.595,2.053,2.053,0,0,1-.119-.743,2.217,2.217,0,0,1,.119-.773,1.632,1.632,0,0,1,.357-.624,1.339,1.339,0,0,1,.565-.416,2.237,2.237,0,0,1,1.427-.059,2.635,2.635,0,0,1,.505.238,1.211,1.211,0,0,1,.357.416,1.745,1.745,0,0,1,.178.595h-.862Z" transform="translate(-194.331 -34.113)" fill="#fff"/>
    <path id="Path_25" data-name="Path 25" d="M220.5,36.195h-1.219v3.092h-.8V36.195H217.2V35.6h3.3Z" transform="translate(-203.255 -34.113)" fill="#fff"/>
    <path id="Path_26" data-name="Path 26" d="M228.6,35.6h.892l.951,2.765h0l.922-2.765h.862L230.8,39.5a2.3,2.3,0,0,1-.208.476,1.9,1.9,0,0,1-.238.416.812.812,0,0,1-.357.268,1.44,1.44,0,0,1-.535.089,3.6,3.6,0,0,1-.565-.03V40.03c.059,0,.119.03.178.03s.119.03.178.03a.58.58,0,0,0,.238-.03.65.65,0,0,0,.149-.089c.03-.059.089-.089.089-.149a1.448,1.448,0,0,0,.089-.208l.089-.3Z" transform="translate(-211.266 -34.113)" fill="#fff"/>
    <path id="Path_27" data-name="Path 27" d="M242.5,35.6h3.449v3.687h-.8V36.195H243.3v3.092h-.8Z" transform="translate(-221.033 -34.113)" fill="#fff"/>
    <path id="Path_28" data-name="Path 28" d="M257.1,35.6h.8v1.516h1.843V35.6h.8v3.687h-.8V37.741H257.9v1.546h-.8Z" transform="translate(-231.292 -34.113)" fill="#fff"/>
    <path id="Path_29" data-name="Path 29" d="M272.973,39.025a2.27,2.27,0,0,1-.8-.149,1.659,1.659,0,0,1-.595-.416,1.632,1.632,0,0,1-.357-.624,2.572,2.572,0,0,1,0-1.546,2.139,2.139,0,0,1,.357-.624,1.775,1.775,0,0,1,.595-.416,2.242,2.242,0,0,1,1.606,0,1.659,1.659,0,0,1,.595.416,2.14,2.14,0,0,1,.357.624,2.218,2.218,0,0,1,.119.773,2.113,2.113,0,0,1-.119.773,2.139,2.139,0,0,1-.357.624,1.817,1.817,0,0,1-1.4.565Zm0-.624a.872.872,0,0,0,.476-.119,1.06,1.06,0,0,0,.327-.3,1.042,1.042,0,0,0,.178-.416,1.933,1.933,0,0,0,0-.951,1.042,1.042,0,0,0-.178-.416,1.559,1.559,0,0,0-.327-.3.811.811,0,0,0-.476-.119.872.872,0,0,0-.476.119,1.06,1.06,0,0,0-.327.3,1.043,1.043,0,0,0-.178.416,1.933,1.933,0,0,0,0,.951,1.043,1.043,0,0,0,.178.416,1.028,1.028,0,0,0,.327.3A1.12,1.12,0,0,0,272.973,38.4Z" transform="translate(-241.129 -33.762)" fill="#fff"/>
    <path id="Path_30" data-name="Path 30" d="M292.243,40.487H291.5V38.762h.476a.745.745,0,0,0,.208-.119.592.592,0,0,0,.238-.357.868.868,0,0,0,.059-.268.823.823,0,0,0,.03-.268c0-.089.03-.208.03-.327V35.7H295.6v3.062h.654v1.725h-.743v-1.13h-3.271Zm2.557-4.222h-1.427v.8a4.188,4.188,0,0,1-.03.624,2.311,2.311,0,0,1-.059.476,3.086,3.086,0,0,1-.089.357c-.03.059-.03.149-.059.208H294.8Z" transform="translate(-255.464 -34.184)" fill="#fff"/>
    <path id="Path_31" data-name="Path 31" d="M308.027,38.762a.571.571,0,0,0,.357-.119.758.758,0,0,0,.238-.357.868.868,0,0,0,.059-.268.823.823,0,0,0,.03-.268c0-.089.03-.208.03-.327V35.7H311.8v3.657H311V36.265h-1.427v.8c0,.238-.03.446-.03.624a2.309,2.309,0,0,1-.059.476,3.087,3.087,0,0,1-.089.357c-.03.119-.089.238-.119.327a.819.819,0,0,1-.208.268,1.167,1.167,0,0,1-.387.178,3.786,3.786,0,0,1-.654.059h-.178a.223.223,0,0,1-.149-.03v-.565c.059,0,.089.03.149.03A.377.377,0,0,1,308.027,38.762Z" transform="translate(-266.847 -34.184)" fill="#fff"/>
    <path id="Path_32" data-name="Path 32" d="M326.579,39.357h-.832V37.93h-.8l-.862,1.427H323.1l1.07-1.487a1.167,1.167,0,0,1-.387-.178,1.922,1.922,0,0,1-.238-.268,1.242,1.242,0,0,1-.119-.3,1.115,1.115,0,0,1-.03-.3,1.493,1.493,0,0,1,.059-.357.81.81,0,0,1,.178-.357,1.334,1.334,0,0,1,.387-.3,1.431,1.431,0,0,1,.654-.119h1.9v3.657Zm-.832-3.092h-1.041a.474.474,0,0,0-.357.119.483.483,0,0,0-.149.416.469.469,0,0,0,.149.387.845.845,0,0,0,.357.119h1.041Z" transform="translate(-277.668 -34.184)" fill="#fff"/>
    <path id="Path_33" data-name="Path 33" d="M343.778,36.4a1.157,1.157,0,0,1,.505-.833,1.865,1.865,0,0,1,1.041-.268,3.66,3.66,0,0,1,.595.059,2.571,2.571,0,0,1,.505.208.86.86,0,0,1,.327.327.811.811,0,0,1,.119.476.85.85,0,0,1-.149.505.684.684,0,0,1-.416.268h0a.889.889,0,0,1,.505.3.81.81,0,0,1,.208.595,1.042,1.042,0,0,1-.505.892,1.464,1.464,0,0,1-.505.178,3.642,3.642,0,0,1-.565.059,2.158,2.158,0,0,1-1.249-.3,1.437,1.437,0,0,1-.595-.981h.8a.764.764,0,0,0,.327.505.48.48,0,0,0,.268.089,1.115,1.115,0,0,0,.327.03,1.208,1.208,0,0,0,.624-.149.489.489,0,0,0,.238-.446.514.514,0,0,0-.149-.387.8.8,0,0,0-.505-.119h-.595v-.654h.595a.787.787,0,0,0,.416-.089.384.384,0,0,0,.149-.327.337.337,0,0,0-.208-.357,1.5,1.5,0,0,0-.565-.089,1.242,1.242,0,0,0-.535.089.546.546,0,0,0-.238.357h-.773Z" transform="translate(-292.073 -33.903)" fill="#fff"/>
    <path id="Path_34" data-name="Path 34" d="M360,38.244c0,.089,0,.178.03.208a.227.227,0,0,0,.149.059h.208v.565c-.03,0-.059.03-.119.03s-.089.03-.149.03-.089.03-.149.03h-.119a.863.863,0,0,1-.416-.089.437.437,0,0,1-.208-.357,1.669,1.669,0,0,1-.595.357,3.007,3.007,0,0,1-.684.119,2.311,2.311,0,0,1-.476-.059,1.817,1.817,0,0,1-.416-.208.93.93,0,0,1-.268-.327,1.233,1.233,0,0,1-.089-.476,1.063,1.063,0,0,1,.119-.565.7.7,0,0,1,.327-.327,1.4,1.4,0,0,1,.446-.178c.178-.03.327-.059.505-.089a2.332,2.332,0,0,1,.416-.059,1.493,1.493,0,0,0,.357-.059.6.6,0,0,0,.238-.119.363.363,0,0,0,.089-.268.415.415,0,0,0-.089-.268.788.788,0,0,0-.178-.149.56.56,0,0,0-.238-.059c-.089,0-.178-.03-.268-.03a1.058,1.058,0,0,0-.565.149.489.489,0,0,0-.238.446h-.8a.944.944,0,0,1,.178-.595,1.2,1.2,0,0,1,.387-.387,2.234,2.234,0,0,1,.535-.208,2.023,2.023,0,0,1,.595-.059,3.276,3.276,0,0,1,.535.059,1.314,1.314,0,0,1,.476.178.86.86,0,0,1,.327.327.911.911,0,0,1,.119.505v1.873Zm-.833-1.011a.99.99,0,0,1-.446.149,3.351,3.351,0,0,0-.535.089.56.56,0,0,0-.238.059.479.479,0,0,0-.208.119.789.789,0,0,0-.149.178.594.594,0,0,0-.059.268.338.338,0,0,0,.089.238.789.789,0,0,0,.178.149,2.051,2.051,0,0,0,.238.089c.089,0,.178.03.238.03a1.116,1.116,0,0,0,.3-.03.89.89,0,0,0,.3-.119.8.8,0,0,0,.238-.208.6.6,0,0,0,.089-.327v-.684Z" transform="translate(-301.278 -33.903)" fill="#fff"/>
    <path id="Path_35" data-name="Path 35" d="M370.8,35.6h2.5v.595H371.6v3.092h-.8V35.6Z" transform="translate(-311.186 -34.113)" fill="#fff"/>
    <path id="Path_36" data-name="Path 36" d="M380.9,35.389h.773v.505h0a.987.987,0,0,1,.476-.446,1.62,1.62,0,0,1,.654-.149,2.106,2.106,0,0,1,.773.149,1.453,1.453,0,0,1,.535.416,2.077,2.077,0,0,1,.327.624,3.232,3.232,0,0,1,.119.773,2.933,2.933,0,0,1-.089.714,1.522,1.522,0,0,1-.3.624,1.161,1.161,0,0,1-.505.416,1.8,1.8,0,0,1-.714.149,1.448,1.448,0,0,1-.357-.03l-.357-.089a2.613,2.613,0,0,1-.3-.178.7.7,0,0,1-.238-.268h0v1.843h-.8Zm2.854,1.843a2.311,2.311,0,0,0-.059-.476,1.759,1.759,0,0,0-.178-.416,1.06,1.06,0,0,0-.327-.3.774.774,0,0,0-.446-.119.883.883,0,0,0-.773.357,1.568,1.568,0,0,0-.268.951,2.617,2.617,0,0,0,.059.505,1.1,1.1,0,0,0,.208.416.93.93,0,0,0,.327.268.993.993,0,0,0,.446.089.811.811,0,0,0,.476-.119,1.558,1.558,0,0,0,.327-.3,1.042,1.042,0,0,0,.178-.416C383.725,37.56,383.754,37.411,383.754,37.233Z" transform="translate(-318.283 -33.903)" fill="#fff"/>
    <path id="Path_37" data-name="Path 37" d="M394.2,35.6h.892l.951,2.765h0l.922-2.765h.862L396.4,39.5a2.3,2.3,0,0,1-.208.476,1.9,1.9,0,0,1-.238.416.812.812,0,0,1-.357.268,1.44,1.44,0,0,1-.535.089,3.6,3.6,0,0,1-.565-.03V40.03c.059,0,.119.03.178.03s.119.03.178.03a.58.58,0,0,0,.238-.03.65.65,0,0,0,.149-.089.253.253,0,0,0,.089-.149,1.446,1.446,0,0,0,.089-.208l.089-.3Z" transform="translate(-327.628 -34.113)" fill="#fff"/>
    <path id="Path_38" data-name="Path 38" d="M407.378,36.4a1.156,1.156,0,0,1,.505-.833,1.865,1.865,0,0,1,1.041-.268,3.66,3.66,0,0,1,.595.059,2.573,2.573,0,0,1,.505.208.86.86,0,0,1,.327.327.811.811,0,0,1,.119.476.85.85,0,0,1-.149.505.684.684,0,0,1-.416.268h0a.889.889,0,0,1,.505.3.81.81,0,0,1,.208.595,1.042,1.042,0,0,1-.505.892,1.464,1.464,0,0,1-.505.178,3.643,3.643,0,0,1-.565.059,2.158,2.158,0,0,1-1.249-.3,1.437,1.437,0,0,1-.595-.981h.8a.764.764,0,0,0,.327.505.479.479,0,0,0,.268.089,1.115,1.115,0,0,0,.327.03,1.208,1.208,0,0,0,.624-.149.489.489,0,0,0,.238-.446.514.514,0,0,0-.149-.387.8.8,0,0,0-.505-.119h-.595v-.654h.595a.787.787,0,0,0,.416-.089.384.384,0,0,0,.149-.327.337.337,0,0,0-.208-.357,1.5,1.5,0,0,0-.565-.089,1.242,1.242,0,0,0-.535.089.546.546,0,0,0-.238.357h-.773Z" transform="translate(-336.763 -33.903)" fill="#fff"/>
    <path id="Path_39" data-name="Path 39" d="M421,35.6h.8v1.487L423.26,35.6h1.011l-1.427,1.368,1.546,2.319h-.981l-1.13-1.784-.476.476v1.308H421Z" transform="translate(-346.46 -34.113)" fill="#fff"/>
    <path id="Path_40" data-name="Path 40" d="M433.83,35.6h.8v2.527h0l1.606-2.527h1.011v3.687h-.8V36.73h0l-1.665,2.557H433.8V35.6Z" transform="translate(-355.454 -34.113)" fill="#fff"/>
    <path id="Path_41" data-name="Path 41" d="M455.13,35.6h1.933a1.353,1.353,0,0,1,.8.238.786.786,0,0,1,.3.684.823.823,0,0,1-.149.476.8.8,0,0,1-.387.3h0a.764.764,0,0,1,.505.327,1.1,1.1,0,0,1,.178.624,1.05,1.05,0,0,1-.089.416.843.843,0,0,1-.238.327.918.918,0,0,1-.416.208,3.5,3.5,0,0,1-.624.089H455.1V35.6Zm.833,1.516h.862a.548.548,0,0,0,.387-.119.426.426,0,0,0,.149-.327.405.405,0,0,0-.149-.357.787.787,0,0,0-.416-.089h-.833Zm0,1.576h.951a.615.615,0,0,0,.446-.149.425.425,0,0,0,.149-.387.514.514,0,0,0-.149-.387.717.717,0,0,0-.446-.119h-.951Z" transform="translate(-370.421 -34.113)" fill="#fff"/>
  </g>
</svg>
