<svg id="Google" xmlns="http://www.w3.org/2000/svg" xmlns:xlink="http://www.w3.org/1999/xlink" width="161" height="47.704" viewBox="0 0 161 47.704">
  <defs>
    <linearGradient id="linear-gradient" x1="1.06" y1="0.704" x2="0.371" gradientUnits="objectBoundingBox">
      <stop offset="0" stop-color="#facf87"/>
      <stop offset="1" stop-color="#f3986d"/>
    </linearGradient>
    <linearGradient id="linear-gradient-2" x1="0.827" y1="0.177" x2="0.054" y2="0.97" gradientUnits="objectBoundingBox">
      <stop offset="0" stop-color="#de4246"/>
      <stop offset="1" stop-color="#7f50a3"/>
    </linearGradient>
    <linearGradient id="linear-gradient-3" x1="0.857" y1="0.903" x2="0.113" y2="0.104" gradientUnits="objectBoundingBox">
      <stop offset="0" stop-color="#e6ffab"/>
      <stop offset="1" stop-color="#58c0bb"/>
    </linearGradient>
    <linearGradient id="linear-gradient-4" x1="0.208" y1="0.98" x2="0.087" y2="0.029" gradientUnits="objectBoundingBox">
      <stop offset="0" stop-color="#8ae6d8"/>
      <stop offset="1" stop-color="#257595"/>
    </linearGradient>
  </defs>
  <path id="Path_1" d="M162.383,44.6a4.562,4.562,0,0,1-4.562,4.562H8.091A4.587,4.587,0,0,1,3.5,44.6V8.162A4.568,4.568,0,0,1,8.091,3.6h149.7a4.562,4.562,0,0,1,4.562,4.562h0l.03,36.434Z" transform="translate(-2.456 -2.527)" fill="#fff"/>
  <path id="Path_2" d="M155.365,47.7H5.635A5.63,5.63,0,0,1,0,42.069V5.635A5.65,5.65,0,0,1,5.635,0h149.7A5.656,5.656,0,0,1,161,5.635V42.069A5.65,5.65,0,0,1,155.365,47.7Z"/>
  <path id="Path_3" d="M162.383,44.6a4.562,4.562,0,0,1-4.562,4.562H8.091A4.587,4.587,0,0,1,3.5,44.6V8.162A4.568,4.568,0,0,1,8.091,3.6h149.7a4.562,4.562,0,0,1,4.562,4.562h0l.03,36.434Z" transform="translate(-2.456 -2.527)"/>
  <g id="Group_40" data-name="Group 40" transform="translate(50.775 9.123)">
    <path id="Path_42" data-name="Path 42" d="M175.041,35.788h-3.846V37.04H170.3V35.013h.566c.03,0,.06-.03.119-.06a.61.61,0,0,0,.239-.239,1,1,0,0,0,.149-.358q.045-.179.089-.447c.03-.149.03-.3.06-.447a1.7,1.7,0,0,0,.03-.388c0-.119.03-.268.03-.417V30.6H175.1v4.323h.835v2.027h-.894ZM172,35.013h2.176V31.435h-1.789c0,.328-.03.6-.03.835v.686c0,.209-.03.417-.03.6q-.045.268-.089.626a4.065,4.065,0,0,1-.119.507A1.068,1.068,0,0,1,172,35.013Z" transform="translate(-170.3 -30.6)" fill="#fff"/>
    <path id="Path_43" data-name="Path 43" d="M192.078,39.036a2.276,2.276,0,0,1-.8-.149,1.663,1.663,0,0,1-.6-.417,1.637,1.637,0,0,1-.358-.626,2.579,2.579,0,0,1,0-1.55,2.145,2.145,0,0,1,.358-.626,1.779,1.779,0,0,1,.6-.417,2.248,2.248,0,0,1,1.61,0,1.663,1.663,0,0,1,.6.417,2.145,2.145,0,0,1,.358.626,2.223,2.223,0,0,1,.119.775,2.118,2.118,0,0,1-.119.775,2.145,2.145,0,0,1-.358.626,1.822,1.822,0,0,1-1.4.566Zm0-.626a.875.875,0,0,0,.477-.119,1.563,1.563,0,0,0,.328-.3,1.045,1.045,0,0,0,.179-.417,1.938,1.938,0,0,0,0-.954,1.045,1.045,0,0,0-.179-.417,1.563,1.563,0,0,0-.328-.3.813.813,0,0,0-.477-.119.875.875,0,0,0-.477.119,1.563,1.563,0,0,0-.328.3,1.045,1.045,0,0,0-.179.417,1.938,1.938,0,0,0,0,.954,1.045,1.045,0,0,0,.179.417,1.031,1.031,0,0,0,.328.3A1.25,1.25,0,0,0,192.078,38.409Z" transform="translate(-184.267 -33.758)" fill="#fff"/>
    <path id="Path_44" data-name="Path 44" d="M207.154,36.822a.708.708,0,0,0-.268-.507.86.86,0,0,0-.566-.179,1.268,1.268,0,0,0-.328.06.567.567,0,0,0-.328.209,1.1,1.1,0,0,0-.239.417,2.122,2.122,0,0,0-.089.686,2.3,2.3,0,0,0,.06.447,1.045,1.045,0,0,0,.179.417,1.414,1.414,0,0,0,.3.3.988.988,0,0,0,.447.119.812.812,0,0,0,.6-.209,1.232,1.232,0,0,0,.3-.626h.8a1.929,1.929,0,0,1-.537,1.1,1.664,1.664,0,0,1-1.163.388,2.111,2.111,0,0,1-.775-.149,1.909,1.909,0,0,1-.566-.388,1.985,1.985,0,0,1-.358-.6,2.059,2.059,0,0,1-.119-.745,2.223,2.223,0,0,1,.119-.775,1.636,1.636,0,0,1,.358-.626,1.342,1.342,0,0,1,.566-.417,2.243,2.243,0,0,1,1.431-.06,2.643,2.643,0,0,1,.507.239,1.214,1.214,0,0,1,.358.417,1.75,1.75,0,0,1,.179.6h-.865Z" transform="translate(-194.303 -34.109)" fill="#fff"/>
    <path id="Path_45" data-name="Path 45" d="M220.509,36.2h-1.222v3.1h-.805V36.2H217.2v-.6h3.309Z" transform="translate(-203.217 -34.109)" fill="#fff"/>
    <path id="Path_46" data-name="Path 46" d="M228.6,35.6h.894l.954,2.773h0l.924-2.773h.865l-1.431,3.906a2.308,2.308,0,0,1-.209.477,1.9,1.9,0,0,1-.239.417.814.814,0,0,1-.358.268,1.444,1.444,0,0,1-.537.089,3.608,3.608,0,0,1-.566-.03v-.686c.06,0,.119.03.179.03s.119.03.179.03a.581.581,0,0,0,.239-.03.652.652,0,0,0,.149-.089c.03-.06.089-.089.089-.149a1.454,1.454,0,0,0,.089-.209l.089-.3Z" transform="translate(-211.218 -34.109)" fill="#fff"/>
    <path id="Path_47" data-name="Path 47" d="M242.5,35.6h3.459v3.7h-.8V36.2h-1.849v3.1H242.5V35.6Z" transform="translate(-220.974 -34.109)" fill="#fff"/>
    <path id="Path_48" data-name="Path 48" d="M257.1,35.6h.8v1.521h1.849V35.6h.8v3.7h-.8v-1.55H257.9V39.3h-.8Z" transform="translate(-231.221 -34.109)" fill="#fff"/>
    <path id="Path_49" data-name="Path 49" d="M272.978,39.036a2.276,2.276,0,0,1-.805-.149,1.664,1.664,0,0,1-.6-.417,1.636,1.636,0,0,1-.358-.626,2.579,2.579,0,0,1,0-1.55,2.145,2.145,0,0,1,.358-.626,1.779,1.779,0,0,1,.6-.417,2.248,2.248,0,0,1,1.61,0,1.663,1.663,0,0,1,.6.417,2.145,2.145,0,0,1,.358.626,2.223,2.223,0,0,1,.119.775,2.118,2.118,0,0,1-.119.775,2.145,2.145,0,0,1-.358.626,1.822,1.822,0,0,1-1.4.566Zm0-.626a.875.875,0,0,0,.477-.119,1.063,1.063,0,0,0,.328-.3,1.046,1.046,0,0,0,.179-.417,1.938,1.938,0,0,0,0-.954,1.045,1.045,0,0,0-.179-.417,1.563,1.563,0,0,0-.328-.3.813.813,0,0,0-.477-.119.875.875,0,0,0-.477.119,1.063,1.063,0,0,0-.328.3,1.045,1.045,0,0,0-.179.417,1.938,1.938,0,0,0,0,.954,1.045,1.045,0,0,0,.179.417,1.032,1.032,0,0,0,.328.3A1.123,1.123,0,0,0,272.978,38.409Z" transform="translate(-241.047 -33.758)" fill="#fff"/>
    <path id="Path_50" data-name="Path 50" d="M292.245,40.5H291.5V38.771h.477a.747.747,0,0,0,.209-.119.593.593,0,0,0,.239-.358.871.871,0,0,0,.06-.268.825.825,0,0,0,.03-.268c0-.089.03-.209.03-.328V35.7h3.071v3.071h.656V40.5h-.745V39.367h-3.28Zm2.564-4.234h-1.431v.805a4.194,4.194,0,0,1-.03.626,2.317,2.317,0,0,1-.06.477,3.1,3.1,0,0,1-.089.358c-.03.06-.03.149-.06.209h1.67Z" transform="translate(-255.364 -34.179)" fill="#fff"/>
    <path id="Path_51" data-name="Path 51" d="M308.028,38.771a.573.573,0,0,0,.358-.119.76.76,0,0,0,.239-.358.871.871,0,0,0,.06-.268.826.826,0,0,0,.03-.268c0-.089.03-.209.03-.328V35.7h3.071v3.667h-.805v-3.1h-1.431v.805c0,.239-.03.447-.03.626a2.319,2.319,0,0,1-.06.477,3.1,3.1,0,0,1-.089.358c-.03.119-.089.239-.119.328a.822.822,0,0,1-.209.268,1.171,1.171,0,0,1-.388.179,3.8,3.8,0,0,1-.656.06h-.179a.223.223,0,0,1-.149-.03v-.566c.06,0,.089.03.149.03A.378.378,0,0,1,308.028,38.771Z" transform="translate(-266.734 -34.179)" fill="#fff"/>
    <path id="Path_52" data-name="Path 52" d="M326.588,39.367h-.835V37.936h-.805l-.865,1.431H323.1l1.073-1.491a1.17,1.17,0,0,1-.388-.179,1.929,1.929,0,0,1-.239-.268,1.246,1.246,0,0,1-.119-.3,1.118,1.118,0,0,1-.03-.3,1.5,1.5,0,0,1,.06-.358.812.812,0,0,1,.179-.358,1.337,1.337,0,0,1,.388-.3,1.435,1.435,0,0,1,.656-.119h1.908Zm-.835-3.1H324.71a.475.475,0,0,0-.358.119.484.484,0,0,0-.149.417.47.47,0,0,0,.149.388.848.848,0,0,0,.358.119h1.044Z" transform="translate(-277.543 -34.179)" fill="#fff"/>
    <path id="Path_53" data-name="Path 53" d="M343.779,36.4a1.16,1.16,0,0,1,.507-.835,1.87,1.87,0,0,1,1.044-.268,3.67,3.67,0,0,1,.6.06,2.578,2.578,0,0,1,.507.209.862.862,0,0,1,.328.328.813.813,0,0,1,.119.477.853.853,0,0,1-.149.507.686.686,0,0,1-.417.268h0a.891.891,0,0,1,.507.3.812.812,0,0,1,.209.6,1.045,1.045,0,0,1-.507.894,1.468,1.468,0,0,1-.507.179,3.653,3.653,0,0,1-.566.06,2.163,2.163,0,0,1-1.252-.3,1.441,1.441,0,0,1-.6-.984h.8a.766.766,0,0,0,.328.507.481.481,0,0,0,.268.089,1.118,1.118,0,0,0,.328.03,1.212,1.212,0,0,0,.626-.149.49.49,0,0,0,.239-.447.515.515,0,0,0-.149-.388.8.8,0,0,0-.507-.119h-.6v-.656h.6a.79.79,0,0,0,.417-.089.385.385,0,0,0,.149-.328.338.338,0,0,0-.209-.358,1.5,1.5,0,0,0-.566-.089,1.246,1.246,0,0,0-.537.089.547.547,0,0,0-.238.358h-.775Z" transform="translate(-291.931 -33.899)" fill="#fff"/>
    <path id="Path_54" data-name="Path 54" d="M360.009,38.252c0,.089,0,.179.03.209a.228.228,0,0,0,.149.06h.209v.566c-.03,0-.06.03-.119.03s-.089.03-.149.03-.089.03-.149.03h-.119a.866.866,0,0,1-.417-.089.438.438,0,0,1-.209-.358,1.673,1.673,0,0,1-.6.358,3.015,3.015,0,0,1-.686.119,2.317,2.317,0,0,1-.477-.06,1.821,1.821,0,0,1-.417-.209.932.932,0,0,1-.268-.328,1.236,1.236,0,0,1-.089-.477,1.066,1.066,0,0,1,.119-.566.7.7,0,0,1,.328-.328,1.405,1.405,0,0,1,.447-.179c.179-.03.328-.06.507-.089a2.339,2.339,0,0,1,.417-.06,1.5,1.5,0,0,0,.358-.06.6.6,0,0,0,.238-.119.364.364,0,0,0,.089-.268.416.416,0,0,0-.089-.268.791.791,0,0,0-.179-.149.562.562,0,0,0-.238-.06c-.089,0-.179-.03-.268-.03a1.061,1.061,0,0,0-.566.149.49.49,0,0,0-.238.447h-.805a.946.946,0,0,1,.179-.6,1.2,1.2,0,0,1,.388-.388,2.239,2.239,0,0,1,.537-.209,2.029,2.029,0,0,1,.6-.06,3.285,3.285,0,0,1,.537.06,1.318,1.318,0,0,1,.477.179.863.863,0,0,1,.328.328.914.914,0,0,1,.119.507v1.878Zm-.835-1.014a.993.993,0,0,1-.447.149,3.359,3.359,0,0,0-.537.089.562.562,0,0,0-.239.06.481.481,0,0,0-.209.119.789.789,0,0,0-.149.179.6.6,0,0,0-.06.268.339.339,0,0,0,.089.239.79.79,0,0,0,.179.149,2.054,2.054,0,0,0,.239.089c.089,0,.179.03.239.03a1.118,1.118,0,0,0,.3-.03.893.893,0,0,0,.3-.119.8.8,0,0,0,.238-.209.6.6,0,0,0,.089-.328v-.686Z" transform="translate(-301.125 -33.899)" fill="#fff"/>
    <path id="Path_55" data-name="Path 55" d="M370.8,35.6h2.5v.6h-1.7v3.1H370.8V35.6Z" transform="translate(-311.021 -34.109)" fill="#fff"/>
    <path id="Path_56" data-name="Path 56" d="M380.9,35.389h.775V35.9h0a.989.989,0,0,1,.477-.447,1.625,1.625,0,0,1,.656-.149,2.111,2.111,0,0,1,.775.149,1.457,1.457,0,0,1,.537.417,2.083,2.083,0,0,1,.328.626,3.241,3.241,0,0,1,.119.775,2.94,2.94,0,0,1-.089.716,1.526,1.526,0,0,1-.3.626,1.165,1.165,0,0,1-.507.417,1.8,1.8,0,0,1-.716.149,1.452,1.452,0,0,1-.358-.03l-.358-.089a2.624,2.624,0,0,1-.3-.179.7.7,0,0,1-.239-.268h0v1.849h-.8Zm2.862,1.849a2.317,2.317,0,0,0-.06-.477,1.762,1.762,0,0,0-.179-.417,1.063,1.063,0,0,0-.328-.3.776.776,0,0,0-.447-.119.886.886,0,0,0-.775.358,1.573,1.573,0,0,0-.268.954,2.626,2.626,0,0,0,.06.507,1.1,1.1,0,0,0,.209.417.932.932,0,0,0,.328.268,1,1,0,0,0,.447.089.813.813,0,0,0,.477-.119,1.564,1.564,0,0,0,.328-.3,1.046,1.046,0,0,0,.179-.417C383.732,37.566,383.762,37.417,383.762,37.238Z" transform="translate(-318.11 -33.899)" fill="#fff"/>
    <path id="Path_57" data-name="Path 57" d="M394.2,35.6h.894l.954,2.773h0l.924-2.773h.865l-1.431,3.906a2.309,2.309,0,0,1-.209.477,1.9,1.9,0,0,1-.239.417.814.814,0,0,1-.358.268,1.444,1.444,0,0,1-.537.089,3.609,3.609,0,0,1-.566-.03v-.686c.06,0,.119.03.179.03s.119.03.179.03a.581.581,0,0,0,.239-.03.651.651,0,0,0,.149-.089.253.253,0,0,0,.089-.149,1.45,1.45,0,0,0,.089-.209l.089-.3Z" transform="translate(-327.445 -34.109)" fill="#fff"/>
    <path id="Path_58" data-name="Path 58" d="M407.379,36.4a1.16,1.16,0,0,1,.507-.835,1.87,1.87,0,0,1,1.044-.268,3.67,3.67,0,0,1,.6.06,2.58,2.58,0,0,1,.507.209.863.863,0,0,1,.328.328.813.813,0,0,1,.119.477.853.853,0,0,1-.149.507.686.686,0,0,1-.417.268h0a.891.891,0,0,1,.507.3.812.812,0,0,1,.209.6,1.045,1.045,0,0,1-.507.894,1.468,1.468,0,0,1-.507.179,3.653,3.653,0,0,1-.566.06,2.164,2.164,0,0,1-1.252-.3,1.441,1.441,0,0,1-.6-.984h.8a.766.766,0,0,0,.328.507.481.481,0,0,0,.268.089,1.118,1.118,0,0,0,.328.03,1.212,1.212,0,0,0,.626-.149.49.49,0,0,0,.239-.447.515.515,0,0,0-.149-.388.8.8,0,0,0-.507-.119h-.6v-.656h.6a.789.789,0,0,0,.417-.089.385.385,0,0,0,.149-.328.338.338,0,0,0-.209-.358,1.5,1.5,0,0,0-.566-.089,1.246,1.246,0,0,0-.537.089.548.548,0,0,0-.238.358h-.775Z" transform="translate(-336.569 -33.899)" fill="#fff"/>
    <path id="Path_59" data-name="Path 59" d="M421,35.6h.805v1.491l1.461-1.491h1.014l-1.431,1.371L424.4,39.3h-.984l-1.133-1.789-.477.477V39.3H421Z" transform="translate(-346.254 -34.109)" fill="#fff"/>
    <path id="Path_60" data-name="Path 60" d="M433.83,35.6h.805v2.534h0l1.61-2.534h1.014v3.7h-.8V36.733h0l-1.67,2.564H433.8V35.6Z" transform="translate(-355.238 -34.109)" fill="#fff"/>
    <path id="Path_61" data-name="Path 61" d="M455.13,35.6h1.938a1.357,1.357,0,0,1,.8.239.788.788,0,0,1,.3.686.825.825,0,0,1-.149.477.8.8,0,0,1-.388.3h0a.766.766,0,0,1,.507.328,1.1,1.1,0,0,1,.179.626,1.052,1.052,0,0,1-.089.417.845.845,0,0,1-.238.328.921.921,0,0,1-.417.209,3.507,3.507,0,0,1-.626.089H455.1V35.6Zm.835,1.521h.865a.55.55,0,0,0,.388-.119.427.427,0,0,0,.149-.328.407.407,0,0,0-.149-.358.79.79,0,0,0-.417-.089h-.835Zm0,1.58h.954a.617.617,0,0,0,.447-.149.426.426,0,0,0,.149-.388.515.515,0,0,0-.149-.388.719.719,0,0,0-.447-.119h-.954Z" transform="translate(-370.187 -34.109)" fill="#fff"/>
  </g>
  <g id="Group_38" transform="translate(50.655 21.526)">
    <path id="Path_20" d="M-7147.02-540.2a4.623,4.623,0,0,1-1.669-.328,3.363,3.363,0,0,1-1.282-1.044h-.09a13.421,13.421,0,0,1,.09,1.55v3.846h-1.431v-13.566h1.163l.209,1.282h.06a3.263,3.263,0,0,1,1.282-1.1,3.635,3.635,0,0,1,1.669-.328,3.457,3.457,0,0,1,2.892,1.282,5.557,5.557,0,0,1,1.014,3.578,5.5,5.5,0,0,1-1.043,3.578,3.483,3.483,0,0,1-2.863,1.252Zm-.208-8.5a2.549,2.549,0,0,0-2.087.805,3.91,3.91,0,0,0-.656,2.534v.328a4.663,4.663,0,0,0,.656,2.832,2.513,2.513,0,0,0,2.117.865,2.2,2.2,0,0,0,1.908-.984,4.737,4.737,0,0,0,.686-2.713,4.569,4.569,0,0,0-.686-2.683,2.15,2.15,0,0,0-1.938-.984Zm7.394,8.318h-1.431v-13.3h1.431Zm8.169,0-.268-1.342h-.06a3.62,3.62,0,0,1-1.4,1.193,3.857,3.857,0,0,1-1.729.3,3.014,3.014,0,0,1-2.177-.716,2.765,2.765,0,0,1-.8-2.057c0-1.878,1.521-2.892,4.532-2.981l1.58-.06v-.6a2.343,2.343,0,0,0-.477-1.64,1.967,1.967,0,0,0-1.521-.537,5.88,5.88,0,0,0-2.653.716l-.447-1.073a6.7,6.7,0,0,1,1.521-.6,6.253,6.253,0,0,1,1.67-.209,3.511,3.511,0,0,1,2.474.745,3.115,3.115,0,0,1,.805,2.385v6.41l-1.043.06Zm-3.22-.984a2.927,2.927,0,0,0,2.087-.716,2.579,2.579,0,0,0,.746-2.027v-.835l-1.431.06a4.86,4.86,0,0,0-2.445.537,1.577,1.577,0,0,0-.746,1.461,1.433,1.433,0,0,0,.478,1.163,2.3,2.3,0,0,0,1.312.358Zm5.1-8.378h1.521l2.057,5.337a21.06,21.06,0,0,1,.834,2.654h.06c.06-.3.239-.775.478-1.491s1.014-2.862,2.325-6.5h1.521l-4.024,10.674a5.071,5.071,0,0,1-1.4,2.236,2.966,2.966,0,0,1-1.968.656,6.257,6.257,0,0,1-1.282-.149v-1.133a4.116,4.116,0,0,0,1.043.089,2.15,2.15,0,0,0,2.087-1.64l.537-1.342Zm-43.53.865a3.3,3.3,0,0,1,1.4,2.654,3.289,3.289,0,0,1-1.64,2.773,1.359,1.359,0,0,0-.536.954,1.045,1.045,0,0,0,.507.835l.715.537a3.4,3.4,0,0,1,1.64,2.743c0,1.849-1.789,3.7-5.158,3.7-2.832,0-4.2-1.342-4.2-2.8a2.806,2.806,0,0,1,1.521-2.385,8.451,8.451,0,0,1,3.757-.894,2.064,2.064,0,0,1-.6-1.342,1.45,1.45,0,0,1,.208-.775,4.393,4.393,0,0,1-.626.03,3.09,3.09,0,0,1-3.25-3.071,3.564,3.564,0,0,1,1.253-2.624,5.343,5.343,0,0,1,3.518-1.073h4.025l-1.252.716-1.282.03Zm-1.4,8.706a2.257,2.257,0,0,0-.447-.03,6.905,6.905,0,0,0-2.058.328,2.221,2.221,0,0,0-1.7,2.027c0,1.4,1.342,2.385,3.458,2.385,1.879,0,2.893-.894,2.893-2.117,0-.984-.656-1.521-2.147-2.594Zm.567-3.727a1.905,1.905,0,0,0,.477-1.431c0-1.4-.834-3.608-2.475-3.608a1.739,1.739,0,0,0-1.371.656,2.275,2.275,0,0,0-.417,1.461c0,1.312.775,3.488,2.445,3.488a2.032,2.032,0,0,0,1.342-.567Zm-11.509,3.429a4.608,4.608,0,0,1-4.771-4.472v-.149a4.857,4.857,0,0,1,5.068-4.77,4.569,4.569,0,0,1,4.681,4.472v.149a4.791,4.791,0,0,1-4.979,4.77Zm2.445-1.58a3.754,3.754,0,0,0,.6-2.176c0-1.729-.835-5.009-3.25-5.009a2.675,2.675,0,0,0-1.759.656,2.921,2.921,0,0,0-.895,2.385c0,1.938.954,5.128,3.339,5.128a2.5,2.5,0,0,0,1.968-.984Zm-13.059,1.58a4.609,4.609,0,0,1-4.771-4.472v-.149a4.857,4.857,0,0,1,5.068-4.77,4.57,4.57,0,0,1,4.682,4.472v.149a4.791,4.791,0,0,1-4.979,4.77Zm2.445-1.58a3.75,3.75,0,0,0,.6-2.176c0-1.729-.834-5.009-3.25-5.009a2.677,2.677,0,0,0-1.759.656,2.921,2.921,0,0,0-.895,2.385c0,1.938.954,5.128,3.34,5.128a2.5,2.5,0,0,0,1.967-.984Zm-8.706,1.252-2.8.656a19.686,19.686,0,0,1-3.25.328c-5.426,0-7.514-4-7.514-7.126,0-3.816,2.922-7.364,7.961-7.364a11.473,11.473,0,0,1,3.012.417,7.682,7.682,0,0,1,2.594,1.222l-1.64,1.55-.686.149.477-.775a5.548,5.548,0,0,0-4.2-1.849c-3.1,0-5.456,2.355-5.456,5.814a6.97,6.97,0,0,0,6.977,7.185,5.63,5.63,0,0,0,2.5-.507v-3.16l-2.981.149,1.58-.835h4.174l-.507.507a.432.432,0,0,0-.209.328c-.029.179-.029.745-.029.954v2.355Z" transform="translate(7216.101 554.747)" fill="#f9f9f9"/>
    <path id="Path_21" d="M-7061.526-542.413c-.656-.06-.775-.179-.775-.954v-11.27c.089-.686.268-.8.894-1.163h-2.8l-1.491.716h1.491v12.164c0,.388-.089.447-.537,1.044h3.488l.716-.417C-7060.87-542.354-7061.2-542.354-7061.526-542.413Zm7.991.209a4.61,4.61,0,0,1-.656.358,4.192,4.192,0,0,1-1.908.358,4.223,4.223,0,0,1-2.594-.775,5.019,5.019,0,0,1-2-4.114,4.417,4.417,0,0,1,4.472-4.5,4.045,4.045,0,0,1,2.027.537,3.264,3.264,0,0,1,1.372,1.938l-4.591,1.849-1.491.119c.477,2.475,2.176,3.936,4.025,3.936a5.142,5.142,0,0,0,2.385-.686l-1.043.984Zm-1.819-5.844c.358-.149.566-.268.566-.537a1.924,1.924,0,0,0-1.937-1.67,2.4,2.4,0,0,0-2.236,2.713c0,.328.03.686.06,1.044Zm3.727-2.713v1.282h-.149v-1.282h-.418v-.119h1.014v.119Zm1.759,1.282v-1.312h0l-.388,1.312h-.119l-.388-1.312h0v1.312h-.149v-1.431h.239l.358,1.163h0l.357-1.163h.239v1.431Z" transform="translate(7110.542 555.8)" fill="#f9f9f9"/>
  </g>
  <g id="Google_Play_symbol" transform="translate(15.206 10.733)">
    <path id="path16" d="M73.2,52.443,78.932,49.3c.648-.355,1.328-1.26,0-1.984l-5.739-3.13-4.108,4.14L73.2,52.443Z" transform="translate(-54.947 -35.146)" fill="url(#linear-gradient)"/>
    <path id="path23" d="M18.016,64.418,4.876,77.658a1.785,1.785,0,0,0,1.064-.266l16.188-8.861-4.112-4.114Z" transform="translate(-3.878 -51.236)" fill="url(#linear-gradient-2)"/>
    <path id="path30" d="M17.979,13.183l4.108-4.14L5.9.214A1.559,1.559,0,0,0,4.83.03Z" transform="translate(-3.842 0)" fill="url(#linear-gradient-3)"/>
    <path id="path37" d="M14.138,13.3.988.149C.445.271,0,.741,0,1.685V24.964c0,.89.35,1.516,1,1.578Z" transform="translate(0 -0.119)" fill="url(#linear-gradient-4)"/>
  </g>
</svg>
