<svg width="203" height="48" viewBox="0 0 203 48" fill="none" xmlns="http://www.w3.org/2000/svg">
<path d="M89.1987 4C91.9807 4 94.4999 5.15619 96.3231 7.02533C98.1465 8.89434 99.2745 11.4765 99.2745 14.3282C99.2745 14.5533 99.2675 14.7769 99.2536 14.9986C99.2674 15.1098 99.2743 15.2231 99.2743 15.3381V22.9731C99.2743 24.4605 98.0978 25.6663 96.6468 25.6663C95.3315 25.6663 94.2419 24.6756 94.0494 23.3824C92.6105 24.1943 90.9571 24.6563 89.1987 24.6563C86.4166 24.6563 83.8974 23.5002 82.0745 21.631C80.251 19.7623 79.123 17.1801 79.123 14.3282C79.123 11.4766 80.251 8.89434 82.0745 7.02536C83.8974 5.15622 86.4166 4.00003 89.1987 4.00003L89.1987 4ZM118.98 7.7105C118.98 6.22315 120.157 5.01714 121.608 5.01714C123.059 5.01714 124.236 6.22315 124.236 7.7105V14.7528C124.276 14.9412 124.298 15.1374 124.298 15.3384C124.298 15.5594 124.291 15.7789 124.278 15.9965C124.421 17.0976 124.918 18.0848 125.647 18.8327C126.519 19.7267 127.725 20.28 129.056 20.28C130.375 20.28 131.562 19.7395 132.414 18.8159C133.324 17.8289 133.887 16.4014 133.887 14.6988L133.877 14.6985H133.887L133.887 7.88974C133.887 6.40815 135.059 5.20692 136.504 5.20692C137.949 5.20692 139.121 6.40815 139.121 7.88974L139.122 14.6985L139.132 14.6988H139.122C139.122 14.8164 139.12 14.9334 139.117 15.0496C139.127 15.1446 139.132 15.2408 139.132 15.3385V22.9733C139.132 24.4607 137.955 25.6667 136.504 25.6667C135.488 25.6667 134.607 25.0755 134.17 24.2103C132.665 25.1479 130.918 25.6667 129.056 25.6667C126.274 25.6667 123.755 24.5105 121.932 22.6413C121.832 22.5392 121.735 22.4348 121.639 22.3286C121.544 22.4348 121.447 22.5392 121.347 22.6413C119.524 24.5105 117.004 25.6667 114.222 25.6667C111.428 25.6667 108.89 24.4974 107.047 22.4982C105.261 20.5622 104.157 17.8518 104.157 14.6988H104.147L104.157 14.6986L104.157 7.88977C104.157 6.40818 105.329 5.20695 106.775 5.20695C108.22 5.20695 109.392 6.40818 109.392 7.88977L109.392 14.6986H109.402L109.392 14.6988C109.392 16.4014 109.955 17.829 110.865 18.816C111.717 19.7395 112.903 20.28 114.222 20.28C115.554 20.28 116.759 19.7267 117.631 18.8328C118.361 18.0849 118.858 17.0976 119.001 15.9966C118.988 15.7857 118.981 15.5731 118.98 15.3593V15.3487V15.3454V15.3385V7.71053L118.98 7.7105ZM61.3707 12.6447H71.0114V7.70365C71.0114 6.21603 72.1878 5.01003 73.6389 5.01003C75.0902 5.01003 76.2666 6.21603 76.2666 7.70365V15.0396C76.2771 15.1377 76.2827 15.2373 76.2827 15.3382C76.2827 15.4392 76.2771 15.5388 76.2666 15.6369V22.9731C76.2666 24.4605 75.0902 25.6664 73.6389 25.6664C72.1878 25.6664 71.0114 24.4605 71.0114 22.9731V18.0315H61.3707V22.9731C61.3707 24.4605 60.1945 25.6664 58.7433 25.6664C57.2921 25.6664 56.1157 24.4605 56.1157 22.9731V7.70365C56.1157 6.21603 57.2921 5.01003 58.7433 5.01003C60.1945 5.01003 61.3707 6.21603 61.3707 7.70365V12.6447ZM92.6076 10.8339C91.7354 9.93998 90.5299 9.38688 89.1987 9.38688C87.8674 9.38688 86.662 9.94001 85.79 10.8339C84.9178 11.728 84.3783 12.9639 84.3783 14.3282C84.3783 15.6929 84.9178 16.9287 85.79 17.8224C86.662 18.7164 87.8674 19.2697 89.1987 19.2697C90.53 19.2697 91.7354 18.7164 92.6076 17.8224C93.4798 16.9286 94.0196 15.6929 94.0196 14.3282C94.0196 12.9639 93.4798 11.728 92.6076 10.8339V10.8339Z" fill="#004881"/>
<path d="M177.059 4C179.841 4 182.36 5.15619 184.184 7.02533C186.007 8.89434 187.135 11.4765 187.135 14.3282C187.135 14.5533 187.128 14.7769 187.114 14.9986C187.128 15.1098 187.135 15.2231 187.135 15.3381V22.9731C187.135 24.4605 185.958 25.6663 184.507 25.6663C183.192 25.6663 182.102 24.6759 181.91 23.3826C180.471 24.1944 178.818 24.6563 177.059 24.6563C174.277 24.6563 171.758 23.5002 169.935 21.631C168.111 19.7623 166.984 17.1801 166.984 14.3282C166.984 11.4766 168.111 8.89434 169.935 7.02536C171.758 5.15622 174.277 4.00003 177.059 4.00003L177.059 4ZM158.616 7.70362C158.616 6.216 159.793 5.00999 161.244 5.00999C162.695 5.00999 163.872 6.216 163.872 7.70362V10.9154V22.9731C163.872 24.4605 162.695 25.6663 161.244 25.6663C159.793 25.6663 158.616 24.4605 158.616 22.9731V19.9869C157.184 20.7883 155.542 21.2436 153.796 21.2436C151.001 21.2436 148.463 20.0744 146.62 18.0751C144.835 16.1391 143.73 13.4287 143.73 10.2758H143.72L143.73 10.2756L143.731 7.69999C143.731 6.2184 144.903 5.01718 146.348 5.01718C147.793 5.01718 148.965 6.2184 148.965 7.69999L148.965 10.2756H148.975L148.965 10.2758C148.965 11.9783 149.528 13.4059 150.438 14.3929C151.29 15.3166 152.477 15.8571 153.795 15.8571C155.127 15.8571 156.333 15.3038 157.205 14.4097C158.07 13.5226 158.608 12.2989 158.616 10.9474V7.70362V7.70362ZM196.91 10.397V22.9731C196.91 24.4605 195.734 25.6663 194.282 25.6663C192.831 25.6663 191.655 24.4605 191.655 22.9731V10.397H188.563C187.111 10.397 185.935 9.19097 185.935 7.70335C185.935 6.216 187.111 5.00999 188.563 5.00999H194.282H200.002C201.453 5.00999 202.63 6.216 202.63 7.70335C202.63 9.19097 201.453 10.397 200.002 10.397H196.91V10.397ZM180.468 10.8339C179.596 9.93995 178.391 9.38685 177.059 9.38685C175.728 9.38685 174.522 9.93998 173.65 10.8339C172.778 11.728 172.238 12.9639 172.238 14.3282C172.238 15.6929 172.778 16.9286 173.65 17.8224C174.522 18.7164 175.728 19.2696 177.059 19.2696C178.391 19.2696 179.596 18.7164 180.468 17.8224C181.34 16.9286 181.88 15.6929 181.88 14.3282C181.88 12.9639 181.34 11.728 180.468 10.8339V10.8339Z" fill="#0064B1"/>
<path d="M62.0523 35.4131C61.8585 35.4131 61.7618 35.51 61.7618 35.7042V38.9529H57.0974V35.7042C57.0974 35.51 57.0006 35.4131 56.8068 35.4131H56.2905C56.0968 35.4131 56 35.51 56 35.7042V43.4306C56 43.6244 56.0968 43.7214 56.2905 43.7214H56.8068C57.0006 43.7214 57.0974 43.6244 57.0974 43.4306V39.9552H61.7618V43.4306C61.7618 43.6244 61.8585 43.7214 62.0523 43.7214H62.5686C62.7625 43.7214 62.8591 43.6244 62.8591 43.4306V35.7042C62.8591 35.51 62.7625 35.4131 62.5686 35.4131H62.0523ZM65.0452 36.868C64.9483 37.078 64.9967 37.2074 65.2064 37.2882L65.594 37.4499C65.7392 37.5306 65.8844 37.4822 65.9976 37.3205C66.4331 36.5286 67.1917 36.1406 68.2571 36.1406C69.8869 36.1406 70.4356 36.9488 70.4356 38.3549V39.0986C69.4674 38.9855 68.7574 38.9369 68.3214 38.9369C65.7553 38.9369 64.7708 39.6158 64.7708 41.4424C64.7708 42.299 65.0128 42.9295 65.5133 43.3335C66.0135 43.7537 66.9173 43.9479 68.2571 43.9479C69.4026 43.9479 70.2906 43.8022 70.9359 43.5275C71.388 43.3334 71.5171 43.1718 71.5171 42.6062V38.3711C71.5171 36.4154 70.6776 35.1706 68.2891 35.1706C66.7236 35.1706 65.6421 35.7364 65.0451 36.868L65.0452 36.868ZM70.4356 42.3152C70.4356 42.6223 70.3874 42.6709 70.1293 42.7839C69.6449 42.9617 68.9993 43.0425 68.1764 43.0425C66.3846 43.0425 65.8844 42.5253 65.8844 41.4262C65.8844 40.3108 66.5139 39.8421 68.2084 39.8421C68.7249 39.8421 69.4674 39.8905 70.4356 39.9876V42.3152H70.4356ZM83.1285 35.4131C82.9346 35.4131 82.8379 35.51 82.8379 35.7042V42.7192H79.3841V35.7042C79.3841 35.51 79.2873 35.4131 79.0936 35.4131H78.5932C78.3835 35.4131 78.3029 35.4939 78.3029 35.7042V42.7192H74.8491V35.7042C74.8491 35.51 74.752 35.4131 74.5584 35.4131H74.042C73.8482 35.4131 73.7514 35.51 73.7514 35.7042V43.4306C73.7514 43.6244 73.8482 43.7214 74.042 43.7214H83.6287C83.8385 43.7214 83.9194 43.6406 83.9194 43.4306V35.7042C83.9194 35.4939 83.8385 35.4131 83.6287 35.4131H83.1285H83.1285ZM86.6053 35.4131C86.4118 35.4131 86.3149 35.51 86.3149 35.7042V43.4306C86.3149 43.6244 86.4118 43.7214 86.6053 43.7214H87.1217C87.2511 43.7214 87.3478 43.6728 87.4124 43.5597L91.4148 38.2579C91.8508 37.6276 92.1572 37.175 92.3027 36.8841H92.351C92.2219 37.676 92.1572 38.3387 92.1572 38.8559V43.4306C92.1572 43.6244 92.2539 43.7214 92.4479 43.7214H92.9644C93.1578 43.7214 93.2549 43.6244 93.2549 43.4306V35.7042C93.2549 35.51 93.1578 35.4131 92.9644 35.4131H92.4479C92.3348 35.4131 92.2381 35.4616 92.1734 35.5586L88.1064 40.9412C87.7835 41.3776 87.5092 41.814 87.267 42.2668H87.2349C87.3478 41.6041 87.4124 40.9735 87.4124 40.3755V35.7042C87.4124 35.5101 87.3156 35.4131 87.1217 35.4131H86.6053L86.6053 35.4131ZM102.961 37.2882C102.881 37.4983 102.946 37.6438 103.155 37.7085L103.575 37.8538C103.785 37.9185 103.914 37.8539 103.995 37.6438C104.075 37.4013 104.188 37.2074 104.559 36.8033C104.931 36.4154 105.625 36.1406 106.48 36.1406C107.949 36.1406 108.61 36.7548 108.61 37.6761C108.61 38.5166 108.046 39.0178 107.061 39.0178H105.383C105.189 39.0178 105.092 39.1148 105.092 39.3249V39.6319C105.092 39.8421 105.189 39.9391 105.383 39.9391H107.142C108.223 39.9391 108.772 40.424 108.772 41.3937C108.772 42.3799 108.062 42.994 106.528 42.994C105.221 42.994 104.334 42.4607 103.881 41.3937C103.801 41.1998 103.672 41.1351 103.462 41.1838L103.042 41.3293C102.833 41.3937 102.752 41.5232 102.833 41.7331C103.01 42.1374 103.22 42.5092 103.785 43.0426C104.35 43.5759 105.318 43.9479 106.528 43.9479C108.836 43.9479 109.886 42.994 109.886 41.491C109.886 40.4079 109.45 39.729 108.562 39.4542V39.3896C109.337 39.1147 109.724 38.5004 109.724 37.5791C109.724 36.1406 108.675 35.1706 106.464 35.1706C104.027 35.1706 103.123 36.7872 102.961 37.2882V37.2882ZM111.587 36.868C111.49 37.078 111.539 37.2074 111.749 37.2882L112.136 37.4499C112.281 37.5306 112.426 37.4822 112.539 37.3205C112.975 36.5286 113.734 36.1406 114.799 36.1406C116.429 36.1406 116.977 36.9488 116.977 38.3549V39.0986C116.009 38.9855 115.299 38.9369 114.863 38.9369C112.297 38.9369 111.313 39.6158 111.313 41.4424C111.313 42.299 111.555 42.9295 112.055 43.3335C112.556 43.7537 113.459 43.9479 114.799 43.9479C115.945 43.9479 116.832 43.8022 117.478 43.5275C117.93 43.3334 118.059 43.1718 118.059 42.6062V38.3711C118.059 36.4154 117.22 35.1706 114.831 35.1706C113.266 35.1706 112.184 35.7364 111.587 36.868V36.868ZM116.977 42.3152C116.977 42.6223 116.929 42.6709 116.671 42.7839C116.187 42.9617 115.541 43.0425 114.718 43.0425C112.926 43.0425 112.426 42.5253 112.426 41.4262C112.426 40.3108 113.056 39.8421 114.75 39.8421C115.267 39.8421 116.009 39.8905 116.977 39.9876V42.3152H116.977ZM128.201 35.4131C128.008 35.4131 127.911 35.51 127.911 35.7042V43.4306C127.911 43.6244 128.008 43.7214 128.201 43.7214H128.718C128.912 43.7214 129.008 43.6244 129.008 43.4306V36.4153H133.172C133.366 36.4153 133.463 36.3183 133.463 36.1244V35.7042C133.463 35.4938 133.382 35.413 133.172 35.413H128.201V35.4131ZM135.633 35.6394C135.116 35.8495 134.987 36.0275 134.987 36.5447V46.9867C134.987 47.1806 135.084 47.2774 135.278 47.2774H135.794C135.988 47.2774 136.085 47.1806 136.085 46.9867V43.3981C137.005 43.7701 137.812 43.9479 138.506 43.9479C140.716 43.9479 141.814 42.8809 141.814 40.731V38.4036C141.814 36.2537 140.701 35.1706 138.457 35.1706C137.36 35.1706 136.423 35.3322 135.633 35.6394L135.633 35.6394ZM140.733 40.6988C140.733 42.2021 139.958 42.9618 138.425 42.9618C137.65 42.9618 136.876 42.7678 136.085 42.396V36.9164C136.085 36.6578 136.117 36.5931 136.391 36.4801C136.956 36.2697 137.602 36.1728 138.328 36.1728C139.926 36.1728 140.733 36.9325 140.733 38.4358V40.6988ZM143.742 36.868C143.645 37.0781 143.693 37.2075 143.903 37.2883L144.291 37.4499C144.436 37.5306 144.581 37.4822 144.694 37.3206C145.13 36.5286 145.889 36.1407 146.954 36.1407C148.584 36.1407 149.133 36.9489 149.133 38.355V39.0986C148.164 38.9855 147.454 38.937 147.018 38.937C144.452 38.937 143.468 39.6158 143.468 41.4424C143.468 42.2991 143.71 42.9295 144.21 43.3335C144.71 43.7537 145.614 43.9479 146.954 43.9479C148.1 43.9479 148.987 43.8023 149.633 43.5275C150.085 43.3335 150.214 43.1718 150.214 42.6062V38.3711C150.214 36.4154 149.375 35.1707 146.986 35.1707C145.42 35.1707 144.339 35.7364 143.742 36.8681V36.868ZM149.133 42.3152C149.133 42.6223 149.084 42.6709 148.826 42.784C148.342 42.9618 147.696 43.0426 146.873 43.0426C145.082 43.0426 144.581 42.5254 144.581 41.4263C144.581 40.3108 145.211 39.8421 146.905 39.8421C147.422 39.8421 148.164 39.8905 149.133 39.9876V42.3152V42.3152ZM158.501 35.4131C158.307 35.4131 158.21 35.5101 158.21 35.7042V38.953H153.546V35.7042C153.546 35.5101 153.449 35.4131 153.255 35.4131H152.739C152.545 35.4131 152.448 35.5101 152.448 35.7042V43.4307C152.448 43.6245 152.545 43.7214 152.739 43.7214H153.255C153.449 43.7214 153.546 43.6245 153.546 43.4307V39.9552H158.21V43.4307C158.21 43.6245 158.307 43.7214 158.501 43.7214H159.017C159.211 43.7214 159.307 43.6245 159.307 43.4307V35.7042C159.307 35.5101 159.211 35.4131 159.017 35.4131H158.501ZM161.977 35.4131C161.784 35.4131 161.687 35.5101 161.687 35.7042V43.4307C161.687 43.6245 161.784 43.7214 161.977 43.7214H162.494C162.623 43.7214 162.72 43.6728 162.785 43.5598L166.787 38.2579C167.223 37.6276 167.53 37.175 167.675 36.8841H167.723C167.594 37.6761 167.53 38.3388 167.53 38.856V43.4307C167.53 43.6245 167.626 43.7214 167.82 43.7214H168.336C168.53 43.7214 168.627 43.6245 168.627 43.4307V35.7042C168.627 35.5101 168.53 35.4131 168.336 35.4131H167.82C167.707 35.4131 167.61 35.4617 167.546 35.5586L163.479 40.9412C163.156 41.3776 162.881 41.814 162.639 42.2668H162.607C162.72 41.6041 162.785 40.9735 162.785 40.3755V35.7043C162.785 35.5101 162.688 35.4131 162.494 35.4131H161.977L161.977 35.4131ZM177.688 42.7193V35.7043C177.688 35.5101 177.592 35.4131 177.398 35.4131H176.898C176.656 35.4131 176.607 35.494 176.607 35.7043V42.7193H172.104V35.7043C172.104 35.5101 172.007 35.4131 171.814 35.4131H171.297C171.104 35.4131 171.007 35.5101 171.007 35.7043V43.4307C171.007 43.6245 171.104 43.7214 171.297 43.7214H177.818V45.6773C177.818 45.8714 177.914 45.9683 178.108 45.9683H178.576C178.818 45.9683 178.867 45.9197 178.867 45.6773V43.0104C178.867 42.8002 178.818 42.7193 178.576 42.7193H177.688V42.7193ZM180.181 40.6827C180.181 42.7032 181.343 43.9479 183.683 43.9479C185.346 43.9479 186.492 43.3659 187.137 42.2021C187.266 41.9918 187.234 41.8466 187.024 41.7332L186.685 41.5554C186.508 41.4585 186.346 41.491 186.217 41.6688C185.717 42.5577 184.878 43.0104 183.683 43.0104C182.118 43.0104 181.262 42.2021 181.262 40.7957V39.8583H186.846C187.169 39.8583 187.331 39.7128 187.331 39.4058V38.5166C187.331 36.4962 186.088 35.1707 183.748 35.1707C181.424 35.1707 180.181 36.4315 180.181 38.5814V40.6827V40.6827ZM186.25 39.0178H181.262V38.452C181.262 36.9812 182.134 36.1084 183.748 36.1084C185.378 36.1084 186.25 36.9812 186.25 38.452V39.0178V39.0178ZM195.263 32.439C195.311 32.3097 195.263 32.2127 195.133 32.1643L194.698 32.0188C194.585 31.9702 194.488 32.0188 194.439 32.1318C194.197 32.9723 193.665 33.3926 192.809 33.3926C191.954 33.3926 191.421 32.9723 191.195 32.1318C191.147 32.0188 191.034 31.9702 190.889 32.0188L190.501 32.1643C190.372 32.2127 190.324 32.3096 190.372 32.439C190.711 33.6191 191.518 34.201 192.809 34.201C194.084 34.201 194.907 33.6191 195.263 32.439V32.439ZM189.581 35.4131C189.388 35.4131 189.291 35.5101 189.291 35.7043V43.4307C189.291 43.6245 189.388 43.7214 189.581 43.7214H190.098C190.227 43.7214 190.324 43.6729 190.388 43.5598L194.391 38.258C194.827 37.6277 195.133 37.175 195.278 36.8842H195.327C195.198 37.6761 195.133 38.3388 195.133 38.856V43.4307C195.133 43.6245 195.23 43.7214 195.424 43.7214H195.94C196.134 43.7214 196.231 43.6245 196.231 43.4307V35.7043C196.231 35.5101 196.134 35.4131 195.94 35.4131H195.424C195.311 35.4131 195.214 35.4617 195.149 35.5587L191.082 40.9413C190.759 41.3777 190.485 41.814 190.243 42.2668H190.211C190.324 41.6041 190.388 40.9736 190.388 40.3755V35.7043C190.388 35.5101 190.292 35.4132 190.098 35.4132H189.581L189.581 35.4131Z" fill="#004881"/>
<path fill-rule="evenodd" clip-rule="evenodd" d="M25.037 1.34481C37.0956 2.37979 46.0357 13.039 45.0053 25.1536C45.0049 25.1592 45.004 25.17 45.0037 25.1755C44.7657 27.9731 43.9922 30.7036 42.7342 33.2091L43.4298 44.3278C42.0872 44.1068 36.5323 43.1704 33.9325 42.4568C30.1103 44.6276 25.7151 45.5928 21.3374 45.2171C21.3296 45.2164 21.3136 45.2151 21.3056 45.2143C9.24704 44.1793 0.307305 33.5204 1.33767 21.406C2.36803 9.29137 12.9783 0.309878 25.037 1.34485V1.34481Z" fill="url(#paint0_linear)"/>
<path d="M25.7972 0.528859C32.17 1.07575 37.7211 4.16899 41.5443 8.72747C45.3665 13.2849 47.4586 19.3023 46.9148 25.6993L46.9126 25.7213C46.7877 27.1954 46.5201 28.6556 46.1178 30.0803C45.7469 31.3936 45.2605 32.6749 44.6646 33.9072L45.3391 44.6911C45.3824 45.3857 44.8569 45.9846 44.1653 46.0282C44.0511 46.0353 43.9395 46.0268 43.8326 46.0046C42.9176 45.8536 40.4031 45.4301 38.0955 44.9752C36.9003 44.7399 35.717 44.487 34.7541 44.2426C32.8545 45.2669 30.8366 46.0135 28.7634 46.4679C26.5189 46.9598 24.2019 47.1155 21.8915 46.9172L21.8597 46.9146C15.4868 46.3677 9.93575 43.2745 6.11272 38.7163C2.29053 34.1589 0.19856 28.1414 0.742407 21.7447C1.28677 15.3421 4.36576 9.76533 8.90339 5.92444C13.4399 2.08439 19.4298 -0.017466 25.7972 0.528939V0.528859ZM39.6288 10.3457C36.2253 6.28727 31.2769 3.53321 25.5911 3.04512C19.9002 2.55671 14.5549 4.42807 10.5142 7.8485C6.47443 11.268 3.73291 16.2394 3.24707 21.9516C2.76091 27.6687 4.62364 33.0386 8.02799 37.0978C11.4317 41.1561 16.38 43.9101 22.0657 44.3982L22.0975 44.4009C24.163 44.5782 26.2315 44.4392 28.233 44.0009C30.2295 43.5635 32.1536 42.8328 33.9359 41.8258C34.2199 41.6515 34.5719 41.5903 34.9185 41.685C35.813 41.9304 37.1623 42.2199 38.5766 42.4984C40.0866 42.7959 41.6043 43.0678 42.7352 43.2637L42.1389 33.7302C42.1259 33.5138 42.1674 33.2911 42.2716 33.0838C42.864 31.9036 43.343 30.669 43.7016 29.3994C44.0582 28.1361 44.2959 26.8346 44.4082 25.5142L44.4101 25.4922C44.8962 19.7748 43.0333 14.4051 39.6288 10.3457L39.6288 10.3457Z" fill="black" fill-opacity="0.101961"/>
<path d="M25.5512 0.29843C31.9239 0.845317 37.475 3.9384 41.2982 8.49704C45.1204 13.0543 47.2125 19.0718 46.6687 25.4689L46.6665 25.4908C46.5417 26.965 46.274 28.4252 45.8717 29.8499C45.5009 31.1632 45.0144 32.4444 44.4186 33.6768L45.093 44.4604C45.1363 45.1552 44.6108 45.754 43.9192 45.7975C43.805 45.8047 43.6934 45.7964 43.5866 45.7741C42.6715 45.6232 40.157 45.1994 37.8494 44.7448C36.6542 44.5093 35.4709 44.2565 34.508 44.0121C32.6084 45.0364 30.5906 45.7831 28.5173 46.2374C26.2728 46.7292 23.9558 46.885 21.6454 46.6868L21.6136 46.6841C15.2407 46.1372 9.68966 43.044 5.86663 38.4859C2.04444 33.9284 -0.0475337 27.9109 0.496313 21.5142C1.04068 15.1117 4.11983 9.53486 8.65729 5.69397C13.1938 1.85392 19.1837 -0.247935 25.5512 0.298471V0.29843ZM39.3829 10.1153C35.9792 6.05684 31.0308 3.30278 25.3449 2.81469C19.654 2.32628 14.3087 4.19764 10.268 7.61807C6.2283 11.0375 3.48677 16.0089 3.00093 21.7212C2.51478 27.4382 4.37751 32.8081 7.78186 36.8674C11.1856 40.9255 16.1339 43.6797 21.8196 44.1678L21.8514 44.1704C23.9169 44.3476 25.9854 44.2088 27.9869 43.7703C29.9834 43.3329 31.9075 42.6024 33.6898 41.5953C33.9738 41.4209 34.3258 41.3599 34.6723 41.4546C35.5669 41.7 36.9162 41.9895 38.3305 42.268C39.8405 42.5654 41.3582 42.8373 42.4891 43.0333L41.8928 33.4998C41.8797 33.2834 41.9213 33.0607 42.0255 32.8533C42.6178 31.6731 43.0969 30.4384 43.4555 29.169C43.8121 27.9057 44.0498 26.6041 44.1621 25.2835L44.164 25.2618C44.6501 19.5444 42.7872 14.1747 39.3829 10.1152V10.1153Z" fill="black" fill-opacity="0.101961"/>
<path d="M25.1401 0.0854891C31.5128 0.632537 37.0639 3.72562 40.8871 8.2841C44.7093 12.8416 46.8014 18.8591 46.2576 25.2559L46.2554 25.2779C46.1305 26.7522 45.8629 28.2124 45.4606 29.6371C45.0897 30.9504 44.6032 32.2317 44.0074 33.4639L44.6818 44.2477C44.7252 44.9425 44.1997 45.5413 43.508 45.5848C43.3939 45.5919 43.2822 45.5835 43.1754 45.5614C42.2603 45.4103 39.7459 44.9867 37.4382 44.532C36.2431 44.2966 35.0598 44.0438 34.0969 43.7994C32.1973 44.8235 30.1794 45.5703 28.1061 46.0247C25.8616 46.5164 23.5447 46.6723 21.2342 46.474L21.2025 46.4714C14.8296 45.9243 9.27852 42.8313 5.45549 38.2729C1.6333 33.7157 -0.458666 27.6981 0.0851805 21.3013C0.629547 14.8989 3.7087 9.32192 8.24616 5.48103C12.7826 1.64098 18.7725 -0.460675 25.1401 0.0855293V0.0854891ZM38.9717 9.90252C35.568 5.8441 30.6197 3.08988 24.9338 2.60179C19.2429 2.11354 13.8978 3.9849 9.85689 7.40537C5.81717 10.8247 3.07564 15.7961 2.5898 21.5083C2.10364 27.2255 3.96638 32.5954 7.37072 36.6547C10.7744 40.7128 15.7227 43.467 21.4085 43.9551L21.4402 43.9577C23.5058 44.1349 25.5742 43.9961 27.5757 43.5576C29.5722 43.1202 31.4963 42.3897 33.2787 41.3826C33.5627 41.2082 33.9147 41.1472 34.2612 41.2419C35.1558 41.4873 36.505 41.7767 37.9193 42.0553C39.4294 42.3528 40.947 42.6245 42.078 42.8204L41.4817 33.2869C41.4686 33.0707 41.5101 32.848 41.6143 32.6406C42.2067 31.4605 42.6857 30.2257 43.0443 28.9563C43.401 27.693 43.6387 26.3915 43.751 25.0708L43.7528 25.0489C44.239 19.3316 42.3761 13.9618 38.9717 9.90252V9.90252Z" fill="white"/>
<path fill-rule="evenodd" clip-rule="evenodd" d="M38.9104 27.6299C38.9104 34.4783 33.1527 40.03 26.0503 40.03C24.7962 40.03 23.5557 40.03 22.3016 40.03C15.1992 40.03 9.44151 34.4783 9.44151 27.6299C9.44151 24.2314 10.5612 21.4962 12.3627 19.4228C10.6859 19.0798 9.45705 17.4682 9.39289 15.5334C9.14923 8.20379 19.533 6.24088 19.8193 13.8761C19.8356 14.3073 19.7815 14.7226 19.6691 15.1115C22.5868 14.366 25.7654 14.3665 28.6831 15.1133C28.5705 14.724 28.5162 14.3082 28.5324 13.8761C28.8186 6.24084 39.2026 8.20375 38.9589 15.5334C38.8945 17.4699 37.6637 19.0827 35.9848 19.4238C37.7878 21.4971 38.9103 24.2312 38.9103 27.6299H38.9104ZM36.2007 30.1247C36.2007 40.8423 12.1512 40.8846 12.1512 30.1247C12.1512 27.4991 13.8451 25.5706 16.3339 24.3389C16.1727 23.8997 16.0837 23.4238 16.0837 22.9089C16.0837 20.1519 19.2459 17.9171 23.1465 17.9171C23.8353 17.9171 24.5165 17.9171 25.2054 17.9171C29.1062 17.9171 32.2684 20.1519 32.2684 22.9089C32.2684 23.4239 32.1789 23.9 32.0176 24.3396C34.5066 25.5714 36.2008 27.4998 36.2008 30.1247H36.2007ZM18.2779 14.7216C18.2892 15.0178 18.2505 15.3026 18.1704 15.5681C16.3803 16.2091 14.7349 17.155 13.365 18.4013C12.2406 18.1858 11.414 17.1114 11.3711 15.8195C11.2096 10.964 18.0883 9.66344 18.2779 14.7216V14.7216ZM30.0738 14.7216C30.0628 15.0183 30.1016 15.3033 30.1818 15.5693C31.9714 16.2103 33.6158 17.156 34.9854 18.4017C36.1104 18.1868 36.938 17.112 36.9808 15.8196C37.1422 10.964 30.2635 9.66348 30.0738 14.7216Z" fill="black" fill-opacity="0.2"/>
<path fill-rule="evenodd" clip-rule="evenodd" d="M31.2144 29.567C31.2144 32.6884 28.4642 35.2186 25.0714 35.2186C24.4723 35.2186 23.8798 35.2186 23.2807 35.2186C19.8881 35.2186 17.1377 32.6884 17.1377 29.567C17.1377 21.6169 31.2143 21.6197 31.2143 29.567H31.2144ZM26.361 25.442C26.361 26.0618 25.6219 26.5723 24.6708 26.6405C24.3732 26.7943 24.1671 27.1287 24.1671 27.5165C24.1671 27.6975 24.0925 27.6782 24.0925 27.5165C24.0925 27.1197 23.8766 26.7791 23.5683 26.6301C22.6724 26.5313 21.9912 26.0371 21.9912 25.442C21.9912 23.7454 26.361 23.746 26.361 25.442V25.442ZM28.2015 26.5806C28.2847 26.6514 28.2946 26.7769 28.224 26.8605C28.1535 26.9439 28.0287 26.954 27.9454 26.8831C27.919 26.8605 27.8973 26.8372 27.873 26.8111L27.7744 26.7062C27.7329 26.7019 27.8452 26.738 27.8372 26.8129C27.727 27.8384 27.2856 28.6075 26.6833 29.1384C25.9762 29.7616 25.0478 30.0527 24.1759 30.0439C23.3042 30.0527 22.3759 29.7616 21.6688 29.1384C21.0665 28.6075 20.6249 27.8384 20.5148 26.8129C20.5067 26.738 20.6192 26.7019 20.5777 26.7062L20.4791 26.8111C20.4548 26.8372 20.4331 26.8605 20.4065 26.8831C20.3234 26.954 20.1985 26.9439 20.1279 26.8605C20.0574 26.7769 20.0674 26.6514 20.1504 26.5806L20.1888 26.5397C20.2718 26.4505 20.3868 26.3265 20.5358 26.3104C20.7173 26.2908 20.8684 26.3942 20.9088 26.7709C21.0071 27.6868 21.3976 28.3703 21.9296 28.839C22.5605 29.395 23.392 29.6546 24.1744 29.6464H24.1776C24.96 29.6546 25.7915 29.395 26.4224 28.839C26.9544 28.3703 27.3447 27.6868 27.4432 26.7709C27.4834 26.3942 27.6347 26.2908 27.8162 26.3104C27.9653 26.3265 28.0802 26.4505 28.1633 26.5397L28.2014 26.5806H28.2015Z" fill="black" fill-opacity="0.2"/>
<path fill-rule="evenodd" clip-rule="evenodd" d="M21.2536 23.2911C21.2536 23.6264 21.145 23.929 20.9706 24.1431C20.482 24.1625 19.9958 24.1859 19.5132 24.2142C19.302 23.9988 19.1665 23.6653 19.1665 23.2911C19.1665 21.6371 21.2537 21.6376 21.2537 23.2911H21.2536Z" fill="black" fill-opacity="0.2"/>
<path fill-rule="evenodd" clip-rule="evenodd" d="M21.137 24.5895C20.2458 24.6232 19.355 24.6711 18.4656 24.7366L18.1313 24.7612L18.012 24.4466C17.8757 24.0876 17.8096 23.7034 17.8096 23.3196C17.8096 19.6326 22.6095 19.6336 22.6095 23.3196C22.6095 23.5227 22.591 23.7255 22.5534 23.9251L22.4988 24.215L22.2127 24.2816C21.8949 24.3555 21.5816 24.4489 21.2754 24.5619L21.2084 24.5867L21.137 24.5895H21.137ZM21.0872 23.9688C21.3739 23.8638 21.6665 23.775 21.9627 23.7019C21.9813 23.5753 21.9904 23.4475 21.9904 23.3195C21.9904 20.4545 18.4288 20.4536 18.4288 23.3195C18.4288 23.5859 18.468 23.853 18.5493 24.1067C19.3944 24.0464 20.2404 24.0009 21.0872 23.9688L21.0872 23.9688ZM30.5426 23.3195C30.5426 23.7034 30.4763 24.0879 30.3399 24.4471L30.2207 24.7616L29.8864 24.7369C28.9966 24.6714 28.1057 24.6235 27.2141 24.5897L27.1428 24.587L27.0757 24.5622C26.7698 24.4494 26.457 24.3559 26.1396 24.2821L25.8534 24.2154L25.7988 23.9255C25.7613 23.7259 25.7426 23.5228 25.7426 23.3196C25.7426 19.6326 30.5425 19.6336 30.5425 23.3196L30.5426 23.3195ZM26.3896 23.7024C26.6855 23.7754 26.9777 23.8641 27.2641 23.969C28.1109 24.001 28.9575 24.0467 29.8027 24.1071C29.8842 23.8533 29.9235 23.5861 29.9235 23.3195C29.9235 20.4545 26.3619 20.4536 26.3619 23.3195C26.3619 23.4476 26.3711 23.5756 26.3896 23.7024V23.7024Z" fill="black" fill-opacity="0.2"/>
<path fill-rule="evenodd" clip-rule="evenodd" d="M29.1868 23.2911C29.1868 23.6655 29.0512 23.9991 28.8399 24.2145C28.3574 24.1861 27.8713 24.1627 27.3828 24.1432C27.2083 23.929 27.0996 23.6264 27.0996 23.2911C27.0996 21.6371 29.1868 21.6376 29.1868 23.2911V23.2911Z" fill="black" fill-opacity="0.2"/>
<path fill-rule="evenodd" clip-rule="evenodd" d="M38.186 26.8995C38.186 33.7479 32.4283 39.2994 25.3262 39.2994C24.0718 39.2994 22.8316 39.2994 21.5772 39.2994C14.4751 39.2994 8.71739 33.7479 8.71739 26.8995C8.71739 23.5008 9.83709 20.7658 11.6384 18.6924C9.96177 18.3493 8.73293 16.7378 8.66877 14.803C8.42511 7.47339 18.8089 5.51032 19.0951 13.1457C19.1113 13.5769 19.0574 13.9922 18.9451 14.3809C21.8628 13.6356 25.0413 13.6359 27.9591 14.3829C27.8464 13.9934 27.7921 13.5778 27.8084 13.1457C28.0945 5.51028 38.4783 7.47335 38.2347 14.803C38.1705 16.7395 36.9396 18.3523 35.2607 18.6933C37.0635 20.7667 38.186 23.5008 38.186 26.8995H38.186ZM35.4766 29.3943C35.4766 40.1119 11.4268 40.1542 11.427 29.3943C11.427 26.7686 13.121 24.8402 15.6098 23.6085C15.4485 23.1691 15.3595 22.6933 15.3595 22.1785C15.3595 19.4215 18.5216 17.1867 22.4224 17.1867C23.1111 17.1867 23.7923 17.1867 24.4812 17.1867C28.3819 17.1867 31.5441 19.4215 31.5441 22.1785C31.5441 22.6935 31.4547 23.1696 31.2933 23.6092C33.7823 24.841 35.4766 26.7694 35.4766 29.3943H35.4766ZM17.5537 13.9912C17.5648 14.2874 17.5261 14.5722 17.4462 14.8377C15.6561 15.4787 14.0108 16.4244 12.6407 17.6709C11.5163 17.4554 10.6898 16.3809 10.6468 15.0891C10.4853 10.2334 17.3642 8.93304 17.5537 13.9912V13.9912ZM29.3497 13.9912C29.3386 14.2879 29.3775 14.5729 29.4577 14.8389C31.2471 15.4799 32.8917 16.4256 34.2613 17.6713C35.3862 17.4564 36.2136 16.3816 36.2566 15.0892C36.4181 10.2334 29.5392 8.93308 29.3497 13.9912V13.9912Z" fill="white"/>
<path fill-rule="evenodd" clip-rule="evenodd" d="M30.4897 28.8366C30.4897 31.9578 27.7394 34.488 24.3468 34.488C23.7476 34.488 23.1551 34.488 22.556 34.488C19.1634 34.488 16.4131 31.9578 16.4131 28.8366C16.4131 20.8865 30.4897 20.8891 30.4897 28.8366H30.4897ZM27.223 26.3157C27.0885 27.1689 26.7082 27.9341 26.0509 28.5136C25.3408 29.1394 24.3901 29.4635 23.4527 29.4542C22.5127 29.4635 21.5621 29.1394 20.852 28.5136C20.1946 27.9341 19.8143 27.1689 19.6798 26.3157C19.5488 26.3682 19.3928 26.3345 19.2968 26.221C19.1768 26.0791 19.1912 25.8664 19.327 25.7509L19.3628 25.7127C19.4838 25.5842 19.612 25.4601 19.7965 25.4403C20.1572 25.4014 20.2904 25.7169 20.3234 26.0254C20.4058 26.7935 20.714 27.489 21.2972 28.0029C21.8835 28.5198 22.673 28.7835 23.4499 28.7755H23.4546C24.23 28.7835 25.0194 28.5196 25.6056 28.0029C26.1888 27.489 26.497 26.7935 26.5794 26.0254C26.6125 25.7168 26.7458 25.4014 27.1066 25.4403C27.291 25.4601 27.419 25.5842 27.5401 25.7127L27.573 25.7482C27.7088 25.8638 27.726 26.0791 27.6061 26.221C27.51 26.3345 27.354 26.3683 27.223 26.3158L27.223 26.3157ZM25.6362 24.7116C25.6362 25.3314 24.8971 25.8419 23.946 25.9099C23.6486 26.064 23.4425 26.3983 23.4425 26.7862C23.4425 26.9672 23.3677 26.9479 23.3677 26.7862C23.3677 26.3894 23.152 26.0487 22.8437 25.8996C21.9476 25.8007 21.2666 25.3066 21.2666 24.7116C21.2666 23.0151 25.6362 23.0156 25.6362 24.7116V24.7116Z" fill="white"/>
<path fill-rule="evenodd" clip-rule="evenodd" d="M20.5296 22.5626C20.5296 22.8977 20.4209 23.2004 20.2465 23.4146C19.7579 23.4338 19.2718 23.4574 18.7889 23.4857C18.5779 23.2703 18.4424 22.9368 18.4424 22.5626C18.4424 20.9086 20.5296 20.9091 20.5296 22.5626Z" fill="white"/>
<path fill-rule="evenodd" clip-rule="evenodd" d="M20.4129 23.8609C19.5216 23.8948 18.6309 23.9425 17.7415 24.0079L17.4072 24.0327L17.2879 23.7181C17.1514 23.3592 17.0854 22.975 17.0854 22.5911C17.0854 18.9041 21.8854 18.9049 21.8854 22.5911C21.8854 22.7942 21.8669 22.9971 21.8291 23.1967L21.7746 23.4865L21.4886 23.5531C21.1708 23.6271 20.8575 23.7204 20.5513 23.8335L20.4842 23.8582L20.4128 23.8609H20.4129ZM20.363 23.2402C20.6498 23.1353 20.9424 23.0464 21.2386 22.9735C21.2572 22.8469 21.2661 22.7191 21.2661 22.5911C21.2661 19.726 17.7047 19.7252 17.7047 22.5911C17.7047 22.8573 17.7438 23.1246 17.8251 23.3783C18.6702 23.3178 19.5163 23.2725 20.3629 23.2402H20.363ZM29.8184 22.5911C29.8184 22.9749 29.7521 23.3595 29.6158 23.7184L29.4964 24.033L29.1621 24.0084C28.2724 23.943 27.3816 23.8949 26.49 23.8612L26.4185 23.8584L26.3515 23.8336C26.0457 23.721 25.7329 23.6274 25.4155 23.5534L25.1293 23.4868L25.0747 23.197C25.0372 22.9972 25.0185 22.7942 25.0185 22.5911C25.0185 18.9041 29.8184 18.9049 29.8184 22.5911L29.8184 22.5911ZM25.6653 22.9738C25.9612 23.0469 26.2535 23.1356 26.5398 23.2405C27.3867 23.2725 28.2332 23.3181 29.0786 23.3786C29.1599 23.1248 29.1991 22.8576 29.1991 22.591C29.1991 19.726 25.6378 19.7251 25.6378 22.591C25.6378 22.719 25.6469 22.8471 25.6652 22.9737L25.6653 22.9738Z" fill="white"/>
<path fill-rule="evenodd" clip-rule="evenodd" d="M28.4627 22.5626C28.4627 22.9369 28.327 23.2705 28.1158 23.4858C27.6333 23.4576 27.1471 23.4341 26.6585 23.4146C26.4842 23.2004 26.3755 22.8977 26.3755 22.5626C26.3755 20.9086 28.4627 20.9091 28.4627 22.5626V22.5626Z" fill="white"/>
<defs>
<linearGradient id="paint0_linear" x1="14.182" y1="6.45949" x2="42.2169" y2="31.5657" gradientUnits="userSpaceOnUse">
<stop stop-color="#0064B2"/>
<stop offset="1" stop-color="#004881"/>
</linearGradient>
</defs>
</svg>
