<?xml version="1.0" standalone="no"?>
<!DOCTYPE svg PUBLIC "-//W3C//DTD SVG 20010904//EN"
 "http://www.w3.org/TR/2001/REC-SVG-20010904/DTD/svg10.dtd">
<svg version="1.0" xmlns="http://www.w3.org/2000/svg"
 width="1000.000000pt" height="1000.000000pt" viewBox="0 0 1000.000000 1000.000000"
 preserveAspectRatio="xMidYMid meet">
<metadata>
Created by potrace 1.11, written by Peter Selinger 2001-2013
</metadata>
<g transform="translate(0.000000,1000.000000) scale(0.100000,-0.100000)"
fill="#000000" stroke="none">
<path d="M4300 9110 c-826 -66 -1558 -372 -2173 -909 -360 -315 -701 -776
-907 -1230 -315 -693 -403 -1467 -254 -2233 134 -692 488 -1354 994 -1858 871
-869 2081 -1239 3300 -1009 408 77 870 261 1233 491 169 107 170 107 218 114
24 3 62 1 84 -5 22 -6 420 -222 885 -480 465 -258 846 -468 848 -466 2 2 -132
555 -297 1229 -166 673 -301 1240 -301 1259 0 19 25 102 55 185 170 468 243
946 216 1424 -17 315 -46 506 -116 773 -260 994 -931 1832 -1848 2310 -400
209 -818 336 -1282 390 -158 19 -511 27 -655 15z m-1020 -1784 c205 -43 367
-213 400 -416 6 -38 10 -263 10 -538 l0 -472 923 2 922 3 5 525 c5 516 5 526
27 578 101 236 337 367 573 318 99 -21 168 -56 240 -122 68 -63 111 -126 142
-210 l23 -59 3 -1508 c2 -1328 1 -1515 -13 -1574 -50 -213 -235 -371 -458
-389 -232 -19 -463 146 -521 372 -14 52 -16 138 -16 558 l0 496 -925 0 -925 0
0 -477 c0 -522 -4 -566 -57 -672 -56 -110 -169 -209 -289 -252 -91 -34 -246
-32 -337 4 -183 71 -305 227 -327 418 -13 112 -13 2888 0 2988 21 161 132 313
280 384 116 55 205 67 320 43z"/>
<path d="M8591 4648 c-13 -68 -25 -129 -28 -135 -7 -20 34 -15 42 5 9 19 19
208 14 235 -2 10 -15 -37 -28 -105z"/>
<path d="M8517 4335 c-4 -16 -31 -101 -59 -187 l-52 -157 16 -63 16 -63 1 88
c1 68 4 87 15 87 9 0 26 34 46 94 25 76 30 107 28 162 -2 55 -5 63 -11 39z"/>
<path d="M6630 1902 l-114 -67 46 -3 c40 -3 57 4 134 49 49 29 97 52 107 52 9
-1 17 0 17 2 0 6 -57 35 -67 34 -4 0 -60 -30 -123 -67z"/>
<path d="M6420 1785 l-85 -44 52 0 c73 -1 123 24 123 61 0 15 -1 28 -2 27 -2
0 -41 -20 -88 -44z"/>
<path d="M6225 1693 c-55 -25 -152 -65 -215 -89 l-115 -43 70 0 c88 0 178 33
183 67 3 19 10 22 50 22 25 0 66 7 89 16 37 14 43 21 43 45 0 16 -1 29 -2 28
-2 -1 -48 -21 -103 -46z"/>
<path d="M5730 1510 l-125 -39 74 0 c41 -1 101 6 133 15 50 14 58 20 58 40 0
13 -3 24 -7 23 -5 -1 -64 -18 -133 -39z"/>
<path d="M5383 1424 c-6 -3 -58 -13 -115 -24 l-103 -18 123 -1 122 -1 0 25 c0
25 -4 28 -27 19z"/>
</g>
</svg>
