<svg width="215" height="258" viewBox="0 0 215 258" fill="none" xmlns="http://www.w3.org/2000/svg">
<path d="M107.354 0.020874C66.1138 0.020874 32.2738 33.8608 32.2738 75.1015V85.8273H21.548C9.74966 85.8273 0.0964355 95.4806 0.0964355 107.279V235.989C0.0964355 247.787 9.74966 257.44 21.548 257.44H193.161C204.959 257.44 214.613 247.787 214.613 235.989V107.279C214.613 95.4806 204.959 85.8273 193.161 85.8273H182.435V75.1015C182.435 33.8608 148.595 0.020874 107.354 0.020874ZM107.354 21.4725C136.904 21.4725 160.984 45.5519 160.984 75.1015V85.8273H53.7255V75.1015C53.7255 45.5519 77.8049 21.4725 107.354 21.4725ZM107.354 118.005C137.387 118.005 160.984 141.602 160.984 171.634C160.984 201.666 137.387 225.263 107.354 225.263C77.3222 225.263 53.7255 201.666 53.7255 171.634C53.7255 141.602 77.3222 118.005 107.354 118.005ZM107.354 139.456C89.1206 139.456 75.1771 153.4 75.1771 171.634C75.1771 189.868 89.1206 203.811 107.354 203.811C125.588 203.811 139.532 189.868 139.532 171.634C139.532 168.416 138.524 165.134 138.524 161.916C135.306 167.279 129.879 171.634 123.443 171.634C114.863 171.634 107.354 164.126 107.354 155.545C107.354 149.11 111.709 143.682 117.072 140.465C113.854 140.465 110.572 139.456 107.354 139.456Z" fill="#00477F"/>
</svg>
