<svg width="231" height="86" viewBox="0 0 231 86" fill="none" xmlns="http://www.w3.org/2000/svg">
<rect x="15" y="16" width="200" height="54" rx="5" fill="black"/>
<path d="M84.28 37H85.33L82.15 30H81.16L77.99 37H79.02L79.79 35.25H83.51L84.28 37ZM80.14 34.45L81.65 31.02L83.16 34.45H80.14ZM89.957 31.7L88.097 35.95L86.277 31.7H85.277L87.597 37H88.577L90.897 31.7H89.957ZM93.8032 31.65C92.9532 31.65 92.1632 31.89 91.6132 32.33L92.0132 33.05C92.4232 32.7 93.0632 32.48 93.6932 32.48C94.6432 32.48 95.1132 32.95 95.1132 33.76V33.95H93.5932C92.0132 33.95 91.4632 34.65 91.4632 35.5C91.4632 36.42 92.2232 37.06 93.4232 37.06C94.2532 37.06 94.8432 36.78 95.1632 36.3V37H96.0732V33.8C96.0732 32.35 95.2532 31.65 93.8032 31.65ZM93.5832 36.32C92.8532 36.32 92.4132 35.99 92.4132 35.46C92.4132 35.01 92.6832 34.64 93.6332 34.64H95.1132V35.38C94.8732 35.99 94.3032 36.32 93.5832 36.32ZM98.576 30.68C98.956 30.68 99.226 30.4 99.226 30.04C99.226 29.7 98.946 29.43 98.576 29.43C98.206 29.43 97.926 29.71 97.926 30.06C97.926 30.41 98.206 30.68 98.576 30.68ZM98.096 37H99.056V31.7H98.096V37ZM101.135 37H102.095V29.58H101.135V37ZM106.104 31.65C105.254 31.65 104.464 31.89 103.914 32.33L104.314 33.05C104.724 32.7 105.364 32.48 105.994 32.48C106.944 32.48 107.414 32.95 107.414 33.76V33.95H105.894C104.314 33.95 103.764 34.65 103.764 35.5C103.764 36.42 104.524 37.06 105.724 37.06C106.554 37.06 107.144 36.78 107.464 36.3V37H108.374V33.8C108.374 32.35 107.554 31.65 106.104 31.65ZM105.884 36.32C105.154 36.32 104.714 35.99 104.714 35.46C104.714 35.01 104.984 34.64 105.934 34.64H107.414V35.38C107.174 35.99 106.604 36.32 105.884 36.32ZM113.207 31.65C112.457 31.65 111.797 31.93 111.357 32.5V29.58H110.397V37H111.317V36.16C111.747 36.76 112.427 37.06 113.207 37.06C114.757 37.06 115.887 35.97 115.887 34.35C115.887 32.73 114.757 31.65 113.207 31.65ZM113.127 36.22C112.117 36.22 111.347 35.48 111.347 34.35C111.347 33.22 112.117 32.49 113.127 32.49C114.147 32.49 114.917 33.22 114.917 34.35C114.917 35.48 114.147 36.22 113.127 36.22ZM117.46 37H118.42V29.58H117.46V37ZM125.289 34.38C125.289 32.75 124.199 31.65 122.669 31.65C121.139 31.65 120.009 32.78 120.009 34.35C120.009 35.93 121.149 37.06 122.859 37.06C123.739 37.06 124.469 36.76 124.949 36.2L124.419 35.58C124.029 36.01 123.509 36.22 122.889 36.22C121.839 36.22 121.089 35.6 120.969 34.67H125.269C125.279 34.58 125.289 34.46 125.289 34.38ZM122.669 32.46C123.599 32.46 124.269 33.09 124.369 33.98H120.969C121.069 33.08 121.749 32.46 122.669 32.46ZM132.07 37.06C133.66 37.06 134.82 35.93 134.82 34.35C134.82 32.77 133.66 31.65 132.07 31.65C130.48 31.65 129.31 32.77 129.31 34.35C129.31 35.93 130.48 37.06 132.07 37.06ZM132.07 36.22C131.05 36.22 130.28 35.48 130.28 34.35C130.28 33.22 131.05 32.49 132.07 32.49C133.09 32.49 133.85 33.22 133.85 34.35C133.85 35.48 133.09 36.22 132.07 36.22ZM139.224 31.65C138.384 31.65 137.704 31.96 137.314 32.5V31.7H136.394V37H137.354V34.27C137.354 33.12 138.014 32.51 139.034 32.51C139.944 32.51 140.464 33.02 140.464 34.06V37H141.424V33.95C141.424 32.39 140.514 31.65 139.224 31.65ZM149.059 36C148.859 36.16 148.589 36.25 148.309 36.25C147.779 36.25 147.479 35.93 147.479 35.36V32.49H148.999V31.7H147.479V30.54H146.519V31.7H145.619V32.49H146.519V35.4C146.519 36.47 147.129 37.06 148.199 37.06C148.629 37.06 149.069 36.94 149.359 36.69L149.059 36ZM153.596 31.65C152.786 31.65 152.126 31.94 151.726 32.45V29.58H150.766V37H151.726V34.27C151.726 33.12 152.386 32.51 153.406 32.51C154.316 32.51 154.836 33.02 154.836 34.06V37H155.796V33.95C155.796 32.39 154.886 31.65 153.596 31.65ZM162.638 34.38C162.638 32.75 161.548 31.65 160.018 31.65C158.488 31.65 157.358 32.78 157.358 34.35C157.358 35.93 158.498 37.06 160.208 37.06C161.088 37.06 161.818 36.76 162.298 36.2L161.768 35.58C161.378 36.01 160.858 36.22 160.238 36.22C159.188 36.22 158.438 35.6 158.318 34.67H162.618C162.628 34.58 162.638 34.46 162.638 34.38ZM160.018 32.46C160.948 32.46 161.618 33.09 161.718 33.98H158.318C158.418 33.08 159.098 32.46 160.018 32.46Z" fill="white"/>
<path d="M87.864 52.084H81.564L80.322 55H77.91L83.58 42.4H85.884L91.572 55H89.124L87.864 52.084ZM87.09 50.248L84.714 44.74L82.356 50.248H87.09ZM98.8264 45.28C99.7624 45.28 100.596 45.484 101.328 45.892C102.072 46.3 102.654 46.876 103.074 47.62C103.494 48.364 103.704 49.222 103.704 50.194C103.704 51.166 103.494 52.03 103.074 52.786C102.654 53.53 102.072 54.106 101.328 54.514C100.596 54.922 99.7624 55.126 98.8264 55.126C97.5304 55.126 96.5044 54.694 95.7484 53.83V58.492H93.4984V45.388H95.6404V46.648C96.0124 46.192 96.4684 45.85 97.0084 45.622C97.5604 45.394 98.1664 45.28 98.8264 45.28ZM98.5744 53.2C99.4024 53.2 100.08 52.924 100.608 52.372C101.148 51.82 101.418 51.094 101.418 50.194C101.418 49.294 101.148 48.568 100.608 48.016C100.08 47.464 99.4024 47.188 98.5744 47.188C98.0344 47.188 97.5484 47.314 97.1164 47.566C96.6844 47.806 96.3424 48.154 96.0904 48.61C95.8384 49.066 95.7124 49.594 95.7124 50.194C95.7124 50.794 95.8384 51.322 96.0904 51.778C96.3424 52.234 96.6844 52.588 97.1164 52.84C97.5484 53.08 98.0344 53.2 98.5744 53.2ZM111.706 45.28C112.642 45.28 113.476 45.484 114.208 45.892C114.952 46.3 115.534 46.876 115.954 47.62C116.374 48.364 116.584 49.222 116.584 50.194C116.584 51.166 116.374 52.03 115.954 52.786C115.534 53.53 114.952 54.106 114.208 54.514C113.476 54.922 112.642 55.126 111.706 55.126C110.41 55.126 109.384 54.694 108.628 53.83V58.492H106.378V45.388H108.52V46.648C108.892 46.192 109.348 45.85 109.888 45.622C110.44 45.394 111.046 45.28 111.706 45.28ZM111.454 53.2C112.282 53.2 112.96 52.924 113.488 52.372C114.028 51.82 114.298 51.094 114.298 50.194C114.298 49.294 114.028 48.568 113.488 48.016C112.96 47.464 112.282 47.188 111.454 47.188C110.914 47.188 110.428 47.314 109.996 47.566C109.564 47.806 109.222 48.154 108.97 48.61C108.718 49.066 108.592 49.594 108.592 50.194C108.592 50.794 108.718 51.322 108.97 51.778C109.222 52.234 109.564 52.588 109.996 52.84C110.428 53.08 110.914 53.2 111.454 53.2ZM119.258 41.644H121.508V55H119.258V41.644ZM134.037 50.248C134.037 50.404 134.025 50.626 134.001 50.914H126.459C126.591 51.622 126.933 52.186 127.485 52.606C128.049 53.014 128.745 53.218 129.573 53.218C130.629 53.218 131.499 52.87 132.183 52.174L133.389 53.56C132.957 54.076 132.411 54.466 131.751 54.73C131.091 54.994 130.347 55.126 129.519 55.126C128.463 55.126 127.533 54.916 126.729 54.496C125.925 54.076 125.301 53.494 124.857 52.75C124.425 51.994 124.209 51.142 124.209 50.194C124.209 49.258 124.419 48.418 124.839 47.674C125.271 46.918 125.865 46.33 126.621 45.91C127.377 45.49 128.229 45.28 129.177 45.28C130.113 45.28 130.947 45.49 131.679 45.91C132.423 46.318 132.999 46.9 133.407 47.656C133.827 48.4 134.037 49.264 134.037 50.248ZM129.177 47.08C128.457 47.08 127.845 47.296 127.341 47.728C126.849 48.148 126.549 48.712 126.441 49.42H131.895C131.799 48.724 131.505 48.16 131.013 47.728C130.521 47.296 129.909 47.08 129.177 47.08ZM146.375 55.18C145.403 55.18 144.461 55.042 143.549 54.766C142.649 54.49 141.935 54.124 141.407 53.668L142.217 51.85C142.733 52.258 143.363 52.594 144.107 52.858C144.863 53.11 145.619 53.236 146.375 53.236C147.311 53.236 148.007 53.086 148.463 52.786C148.931 52.486 149.165 52.09 149.165 51.598C149.165 51.238 149.033 50.944 148.769 50.716C148.517 50.476 148.193 50.29 147.797 50.158C147.401 50.026 146.861 49.876 146.177 49.708C145.217 49.48 144.437 49.252 143.837 49.024C143.249 48.796 142.739 48.442 142.307 47.962C141.887 47.47 141.677 46.81 141.677 45.982C141.677 45.286 141.863 44.656 142.235 44.092C142.619 43.516 143.189 43.06 143.945 42.724C144.713 42.388 145.649 42.22 146.753 42.22C147.521 42.22 148.277 42.316 149.021 42.508C149.765 42.7 150.407 42.976 150.947 43.336L150.209 45.154C149.657 44.83 149.081 44.584 148.481 44.416C147.881 44.248 147.299 44.164 146.735 44.164C145.811 44.164 145.121 44.32 144.665 44.632C144.221 44.944 143.999 45.358 143.999 45.874C143.999 46.234 144.125 46.528 144.377 46.756C144.641 46.984 144.971 47.164 145.367 47.296C145.763 47.428 146.303 47.578 146.987 47.746C147.923 47.962 148.691 48.19 149.291 48.43C149.891 48.658 150.401 49.012 150.821 49.492C151.253 49.972 151.469 50.62 151.469 51.436C151.469 52.132 151.277 52.762 150.893 53.326C150.521 53.89 149.951 54.34 149.183 54.676C148.415 55.012 147.479 55.18 146.375 55.18ZM159.891 54.478C159.627 54.694 159.303 54.856 158.919 54.964C158.547 55.072 158.151 55.126 157.731 55.126C156.675 55.126 155.859 54.85 155.283 54.298C154.707 53.746 154.419 52.942 154.419 51.886V47.26H152.835V45.46H154.419V43.264H156.669V45.46H159.243V47.26H156.669V51.832C156.669 52.3 156.783 52.66 157.011 52.912C157.239 53.152 157.569 53.272 158.001 53.272C158.505 53.272 158.925 53.14 159.261 52.876L159.891 54.478ZM166.286 55.126C165.314 55.126 164.438 54.916 163.658 54.496C162.878 54.076 162.266 53.494 161.822 52.75C161.39 51.994 161.174 51.142 161.174 50.194C161.174 49.246 161.39 48.4 161.822 47.656C162.266 46.912 162.878 46.33 163.658 45.91C164.438 45.49 165.314 45.28 166.286 45.28C167.27 45.28 168.152 45.49 168.932 45.91C169.712 46.33 170.318 46.912 170.75 47.656C171.194 48.4 171.416 49.246 171.416 50.194C171.416 51.142 171.194 51.994 170.75 52.75C170.318 53.494 169.712 54.076 168.932 54.496C168.152 54.916 167.27 55.126 166.286 55.126ZM166.286 53.2C167.114 53.2 167.798 52.924 168.338 52.372C168.878 51.82 169.148 51.094 169.148 50.194C169.148 49.294 168.878 48.568 168.338 48.016C167.798 47.464 167.114 47.188 166.286 47.188C165.458 47.188 164.774 47.464 164.234 48.016C163.706 48.568 163.442 49.294 163.442 50.194C163.442 51.094 163.706 51.82 164.234 52.372C164.774 52.924 165.458 53.2 166.286 53.2ZM176.249 46.792C176.897 45.784 178.037 45.28 179.669 45.28V47.422C179.477 47.386 179.303 47.368 179.147 47.368C178.271 47.368 177.587 47.626 177.095 48.142C176.603 48.646 176.357 49.378 176.357 50.338V55H174.107V45.388H176.249V46.792ZM191.066 50.248C191.066 50.404 191.054 50.626 191.03 50.914H183.488C183.62 51.622 183.962 52.186 184.514 52.606C185.078 53.014 185.774 53.218 186.602 53.218C187.658 53.218 188.528 52.87 189.212 52.174L190.418 53.56C189.986 54.076 189.44 54.466 188.78 54.73C188.12 54.994 187.376 55.126 186.548 55.126C185.492 55.126 184.562 54.916 183.758 54.496C182.954 54.076 182.33 53.494 181.886 52.75C181.454 51.994 181.238 51.142 181.238 50.194C181.238 49.258 181.448 48.418 181.868 47.674C182.3 46.918 182.894 46.33 183.65 45.91C184.406 45.49 185.258 45.28 186.206 45.28C187.142 45.28 187.976 45.49 188.708 45.91C189.452 46.318 190.028 46.9 190.436 47.656C190.856 48.4 191.066 49.264 191.066 50.248ZM186.206 47.08C185.486 47.08 184.874 47.296 184.37 47.728C183.878 48.148 183.578 48.712 183.47 49.42H188.924C188.828 48.724 188.534 48.16 188.042 47.728C187.55 47.296 186.938 47.08 186.206 47.08Z" fill="white"/>
<g clip-path="url(#clip0)">
<path fill-rule="evenodd" clip-rule="evenodd" d="M61.0005 49.4106C60.4647 51.1918 59.6197 52.973 58.4656 54.7542C56.6932 57.5472 54.9277 58.9437 53.1691 58.9437C52.4959 58.9437 51.5341 58.7157 50.2838 58.2597C49.1022 57.8037 48.0649 57.5757 47.1718 57.5757C46.3337 57.5757 45.3582 57.8108 44.2453 58.2811C43.1324 58.7656 42.2256 59.0078 41.5249 59.0078C39.4365 59.0078 37.3688 57.1625 35.3216 53.4718C33.3019 49.7526 32.2921 46.1688 32.2921 42.7203C32.2921 39.4714 33.0683 36.8067 34.6209 34.7262C36.1597 32.6742 38.1107 31.6482 40.4739 31.6482C41.4631 31.6482 42.679 31.862 44.1217 32.2895C45.5506 32.717 46.4986 32.9307 46.9657 32.9307C47.584 32.9307 48.5664 32.6885 49.9128 32.204C51.3143 31.7195 52.5027 31.4772 53.4782 31.4772C55.1132 31.4772 56.5765 31.9404 57.868 32.8666C58.5824 33.3796 59.2969 34.0921 60.0113 35.0041C58.9259 35.9588 58.1428 36.7995 57.6619 37.5263C56.7688 38.8657 56.3223 40.3406 56.3223 41.9508C56.3223 43.7178 56.7963 45.3066 57.7443 46.7174C58.6923 48.1281 59.7777 49.0258 61.0005 49.4106ZM53.2518 24.338C53.2518 25.2072 53.0526 26.1762 52.6541 27.2449C52.242 28.3137 51.6031 29.2969 50.7375 30.1946C49.9956 30.9641 49.2536 31.4771 48.5117 31.7336C48.0034 31.8904 47.2889 32.0115 46.3684 32.097C46.4096 29.9738 46.9454 28.1427 47.9759 26.6037C48.9926 25.079 50.71 24.0245 53.1282 23.4402C53.1419 23.483 53.1591 23.5614 53.1797 23.6754C53.2003 23.7894 53.2175 23.8677 53.2312 23.9105C53.2312 23.9675 53.2346 24.0387 53.2415 24.1242C53.2484 24.2097 53.2518 24.281 53.2518 24.338Z" fill="white"/>
</g>
<defs>
<clipPath id="clip0">
<rect width="28.7085" height="35.5674" fill="white" transform="translate(32.2915 23.4399)"/>
</clipPath>
</defs>
</svg>
