<svg width="33" height="33" viewBox="0 0 33 33" fill="none" xmlns="http://www.w3.org/2000/svg">
<g clip-path="url(#clip0)">
<path fill-rule="evenodd" clip-rule="evenodd" d="M17.2624 0.913407C25.5766 1.61704 31.7405 8.86376 31.0301 17.1C31.0298 17.1038 31.0292 17.1112 31.029 17.1149C30.8649 19.0169 30.3316 20.8732 29.4643 22.5766L29.8655 29.512C28.9398 29.3617 25.1882 29.3488 23.3957 28.8637C20.7603 30.3395 17.7299 30.9957 14.7116 30.7403C14.7063 30.7398 14.6952 30.7389 14.6897 30.7384C6.37565 30.0347 0.211898 22.7882 0.92231 14.5521C1.63272 6.31592 8.94822 0.209773 17.2624 0.913407Z" fill="url(#paint0_linear)"/>
<g filter="url(#filter0_d)">
<path d="M17.3341 0.0581469C21.728 0.430061 25.5553 2.53292 28.1913 5.63205C30.8266 8.73046 32.2691 12.8215 31.8941 17.1705L31.8926 17.1854C31.8065 18.1877 31.622 19.1805 31.3446 20.149C31.0889 21.0419 30.2224 22.7954 29.8115 23.6332L30.2313 29.1006C30.2611 29.5729 30.1977 29.9541 29.7208 29.9837C29.6421 29.9885 29.5651 29.9827 29.4915 29.9677C28.8606 29.865 27.6948 29.6411 26.1037 29.332C25.2797 29.1719 24.4771 29.059 23.9451 29.3419C22.6353 30.0382 20.8086 30.9814 19.3791 31.2903C17.8316 31.6246 16.2341 31.7305 14.6411 31.5957L14.6192 31.594C10.2253 31.222 6.39794 29.1192 3.76205 26.0202C1.12674 22.9219 -0.315629 18.8308 0.0593402 14.4818C0.434668 10.1291 2.55767 6.33763 5.68614 3.72635C8.81392 1.11566 12.9438 -0.313194 17.3341 0.0581469ZM26.8707 6.73234C24.5239 3.97318 21.1122 2.1007 17.1919 1.76887C13.2682 1.43693 9.58282 2.70919 6.79671 5.0346C4.01141 7.35929 2.12119 10.7391 1.78622 14.6226C1.45102 18.5095 2.73533 22.1603 5.08258 24.92C7.42931 27.6789 10.8411 29.5514 14.7612 29.8832L14.7831 29.885C16.2073 30.0055 17.6334 29.9111 19.0134 29.613C20.39 29.3156 21.7166 28.8189 22.9455 28.1343C23.1413 28.0157 23.9283 27.6113 24.1672 27.6758C24.784 27.8426 28.0925 28.3608 29.0676 28.5503L28.2874 23.2159C28.2784 23.0689 28.6209 22.332 28.6927 22.191C29.1011 21.3886 29.4314 20.5492 29.6787 19.6862C29.9246 18.8273 30.0884 17.9424 30.1659 17.0446L30.1672 17.0297C30.5023 13.1428 29.2179 9.49204 26.8707 6.73234Z" fill="white"/>
</g>
<path fill-rule="evenodd" clip-rule="evenodd" d="M26.8276 18.7854C26.8276 23.4414 22.8578 27.2158 17.9608 27.2158C17.0961 27.2158 16.2409 27.2158 15.3762 27.2158C10.4793 27.2158 6.50946 23.4414 6.50946 18.7854C6.50946 16.475 7.28147 14.6154 8.52356 13.2058C7.36741 12.9726 6.52017 11.877 6.47593 10.5616C6.30792 5.57846 13.4673 4.24396 13.6647 9.43482C13.6759 9.72799 13.6386 10.0103 13.5612 10.2747C15.5728 9.76788 17.7644 9.76822 19.7761 10.276C19.6985 10.0113 19.661 9.72862 19.6722 9.43482C19.8695 4.24394 27.029 5.57846 26.861 10.5616C26.8167 11.8781 25.968 12.9746 24.8104 13.2065C26.0535 14.616 26.8275 16.4749 26.8275 18.7854H26.8276ZM24.9593 20.4816C24.9593 27.768 8.37769 27.7968 8.37769 20.4816C8.37769 18.6965 9.54565 17.3854 11.2617 16.548C11.1505 16.2494 11.0891 15.9259 11.0891 15.5759C11.0891 13.7014 13.2693 12.1821 15.9587 12.1821C16.4337 12.1821 16.9033 12.1821 17.3783 12.1821C20.0678 12.1821 22.2481 13.7014 22.2481 15.5759C22.2481 15.926 22.1864 16.2497 22.0752 16.5485C23.7912 17.386 24.9593 18.697 24.9593 20.4816ZM12.6019 10.0097C12.6097 10.211 12.583 10.4046 12.5278 10.5852C11.2936 11.0209 10.1592 11.664 9.2146 12.5113C8.43939 12.3648 7.86939 11.6344 7.83984 10.7561C7.72855 7.45496 12.4712 6.5708 12.6019 10.0096V10.0097ZM20.7349 10.0097C20.7273 10.2114 20.7541 10.4051 20.8095 10.5859C22.0433 11.0217 23.1771 11.6647 24.1214 12.5116C24.897 12.3655 25.4676 11.6347 25.4971 10.7561C25.6085 7.45501 20.8658 6.57085 20.7349 10.0097Z" fill="black" fill-opacity="0.2"/>
<path fill-rule="evenodd" clip-rule="evenodd" d="M21.5213 20.1016C21.5213 22.2237 19.6252 23.9438 17.2859 23.9438C16.8728 23.9438 16.4643 23.9438 16.0512 23.9438C13.7121 23.9438 11.8158 22.2237 11.8158 20.1016C11.8158 14.6966 21.5213 14.6986 21.5213 20.1016H21.5213ZM18.175 17.2972C18.175 17.7185 17.6655 18.0656 17.0097 18.112C16.8045 18.2166 16.6624 18.4439 16.6624 18.7075C16.6624 18.8306 16.611 18.8175 16.611 18.7075C16.611 18.4378 16.4621 18.2062 16.2496 18.1049C15.6318 18.0377 15.1622 17.7017 15.1622 17.2972C15.1622 16.1437 18.175 16.1441 18.175 17.2972ZM19.4441 18.0713C19.5014 18.1194 19.5082 18.2047 19.4596 18.2615C19.411 18.3182 19.3249 18.3251 19.2675 18.2769C19.2493 18.2615 19.2343 18.2457 19.2175 18.228L19.1495 18.1567C19.1209 18.1537 19.1983 18.1782 19.1929 18.2292C19.1169 18.9264 18.8125 19.4492 18.3972 19.8102C17.9097 20.2339 17.2696 20.4318 16.6685 20.4258C16.0675 20.4318 15.4274 20.2339 14.9398 19.8102C14.5246 19.4492 14.2201 18.9263 14.1443 18.2292C14.1387 18.1782 14.2162 18.1537 14.1876 18.1567L14.1196 18.228C14.1028 18.2457 14.0879 18.2615 14.0695 18.2769C14.0123 18.3251 13.9262 18.3182 13.8774 18.2615C13.8288 18.2047 13.8357 18.1194 13.893 18.0713L13.9194 18.0435C13.9767 17.9828 14.0559 17.8985 14.1587 17.8876C14.2838 17.8742 14.3881 17.9445 14.4159 18.2006C14.4836 18.8233 14.7529 19.288 15.1197 19.6066C15.5547 19.9846 16.128 20.1611 16.6675 20.1556H16.6696C17.2091 20.1611 17.7824 19.9846 18.2174 19.6066C18.5842 19.288 18.8533 18.8233 18.9212 18.2006C18.9489 17.9445 19.0533 17.8742 19.1784 17.8876C19.2812 17.8985 19.3604 17.9828 19.4177 18.0435L19.444 18.0713H19.4441Z" fill="black" fill-opacity="0.2"/>
<path fill-rule="evenodd" clip-rule="evenodd" d="M14.6536 15.8349C14.6536 16.0628 14.5787 16.2686 14.4585 16.4141C14.1216 16.4273 13.7864 16.4433 13.4536 16.4624C13.308 16.316 13.2146 16.0893 13.2146 15.8349C13.2146 14.7104 14.6536 14.7108 14.6536 15.8349H14.6536Z" fill="black" fill-opacity="0.2"/>
<path fill-rule="evenodd" clip-rule="evenodd" d="M14.5731 16.7175C13.9586 16.7405 13.3445 16.773 12.7313 16.8175L12.5007 16.8342L12.4185 16.6203C12.3246 16.3763 12.2789 16.1151 12.2789 15.8542C12.2789 13.3475 15.5884 13.3482 15.5884 15.8542C15.5884 15.9922 15.5756 16.1302 15.5497 16.2659L15.5121 16.4629L15.3148 16.5082C15.0957 16.5585 14.8797 16.6219 14.6686 16.6988L14.6224 16.7156L14.5731 16.7175H14.5731ZM14.5388 16.2956C14.7365 16.2242 14.9382 16.1638 15.1425 16.1141C15.1552 16.028 15.1615 15.9411 15.1615 15.8541C15.1615 13.9063 12.7059 13.9057 12.7059 15.8541C12.7059 16.0352 12.7329 16.2168 12.7889 16.3893C13.3716 16.3483 13.955 16.3174 14.5388 16.2955V16.2956ZM21.0581 15.8541C21.0581 16.1151 21.0123 16.3765 20.9183 16.6207L20.8361 16.8346L20.6056 16.8177C19.9922 16.7732 19.3779 16.7407 18.7632 16.7176L18.714 16.7159L18.6677 16.699C18.4568 16.6223 18.2412 16.5587 18.0223 16.5085L17.825 16.4632L17.7873 16.2661C17.7615 16.1304 17.7486 15.9923 17.7486 15.8542C17.7486 13.3475 21.058 13.3482 21.058 15.8542L21.0581 15.8541ZM18.1946 16.1144C18.3987 16.164 18.6002 16.2244 18.7976 16.2957C19.3814 16.3175 19.9652 16.3485 20.5479 16.3895C20.6042 16.217 20.6312 16.0354 20.6312 15.8541C20.6312 13.9063 18.1756 13.9057 18.1756 15.8541C18.1756 15.9412 18.1819 16.0282 18.1946 16.1144Z" fill="black" fill-opacity="0.2"/>
<path fill-rule="evenodd" clip-rule="evenodd" d="M20.1233 15.8349C20.1233 16.0894 20.0297 16.3162 19.8841 16.4627C19.5514 16.4434 19.2163 16.4274 18.8795 16.4142C18.7591 16.2686 18.6842 16.0628 18.6842 15.8349C18.6842 14.7104 20.1233 14.7108 20.1233 15.8349Z" fill="black" fill-opacity="0.2"/>
<path fill-rule="evenodd" clip-rule="evenodd" d="M26.3285 18.2888C26.3285 22.9447 22.3587 26.719 17.4619 26.719C16.5971 26.719 15.7419 26.719 14.8771 26.719C9.98032 26.719 6.01056 22.9447 6.01056 18.2888C6.01056 15.9782 6.78257 14.1188 8.02452 12.7091C6.86851 12.4759 6.02127 11.3803 5.97703 10.0649C5.80902 5.08179 12.9684 3.7472 13.1657 8.93815C13.1769 9.23133 13.1397 9.51369 13.0623 9.77793C15.074 9.27121 17.2655 9.27145 19.2772 9.77932C19.1996 9.51451 19.1622 9.23195 19.1733 8.93815C19.3706 3.74717 26.53 5.08179 26.362 10.0649C26.3178 11.3814 25.4691 12.4779 24.3115 12.7097C25.5545 14.1193 26.3285 15.9782 26.3285 18.2888H26.3285ZM24.4604 19.9849C24.4604 27.2713 7.87865 27.3001 7.87874 19.9849C7.87874 18.1998 9.0467 16.8888 10.7627 16.0514C10.6515 15.7527 10.5901 15.4292 10.5901 15.0792C10.5901 13.2048 12.7703 11.6855 15.4598 11.6855C15.9347 11.6855 16.4043 11.6855 16.8794 11.6855C19.5687 11.6855 21.749 13.2048 21.749 15.0792C21.749 15.4293 21.6874 15.753 21.5761 16.0519C23.2922 16.8893 24.4604 18.2003 24.4604 19.9849ZM12.103 9.51302C12.1106 9.71432 12.0839 9.90797 12.0289 10.0885C10.7946 10.5243 9.66021 11.1672 8.71555 12.0147C7.94034 11.8681 7.37045 11.1376 7.34079 10.2594C7.2295 6.9582 11.9723 6.07418 12.103 9.51298V9.51302ZM20.236 9.51302C20.2284 9.71471 20.2552 9.90845 20.3105 10.0893C21.5443 10.5251 22.6781 11.168 23.6225 12.0149C24.3981 11.8688 24.9686 11.1381 24.9982 10.2594C25.1095 6.95825 20.3667 6.07418 20.236 9.51302Z" fill="white"/>
<path fill-rule="evenodd" clip-rule="evenodd" d="M21.0223 19.6052C21.0223 21.7272 19.126 23.4473 16.7869 23.4473C16.3738 23.4473 15.9653 23.4473 15.5522 23.4473C13.2131 23.4473 11.3168 21.7272 11.3168 19.6052C11.3168 14.2002 21.0223 14.202 21.0223 19.6052H21.0223ZM18.7699 17.8913C18.6773 18.4714 18.415 18.9916 17.9618 19.3856C17.4722 19.8111 16.8168 20.0313 16.1705 20.025C15.5223 20.0313 14.8669 19.8111 14.3773 19.3856C13.9241 18.9916 13.6618 18.4714 13.5691 17.8913C13.4788 17.927 13.3712 17.9041 13.305 17.8269C13.2223 17.7304 13.2322 17.5858 13.3259 17.5073L13.3505 17.4814C13.434 17.394 13.5224 17.3097 13.6495 17.2962C13.8983 17.2697 13.9901 17.4842 14.0129 17.694C14.0697 18.2162 14.2822 18.689 14.6843 19.0384C15.0885 19.3898 15.6328 19.5691 16.1685 19.5637H16.1717C16.7064 19.5691 17.2507 19.3897 17.6548 19.0384C18.0569 18.689 18.2694 18.2162 18.3262 17.694C18.349 17.4842 18.4409 17.2697 18.6897 17.2962C18.8169 17.3097 18.9051 17.394 18.9886 17.4814L19.0113 17.5055C19.1049 17.584 19.1168 17.7305 19.0341 17.8269C18.9678 17.9041 18.8603 17.927 18.77 17.8914L18.7699 17.8913ZM17.6759 16.8007C17.6759 17.2221 17.1663 17.5692 16.5105 17.6155C16.3055 17.7202 16.1634 17.9475 16.1634 18.2112C16.1634 18.3342 16.1118 18.3211 16.1118 18.2112C16.1118 17.9414 15.9631 17.7098 15.7505 17.6084C15.1327 17.5412 14.6632 17.2053 14.6632 16.8008C14.6632 15.6474 17.6759 15.6478 17.6759 16.8008V16.8007Z" fill="white"/>
<path fill-rule="evenodd" clip-rule="evenodd" d="M14.1546 15.3384C14.1546 15.5663 14.0797 15.772 13.9595 15.9176C13.6226 15.9307 13.2874 15.9468 12.9545 15.966C12.809 15.8196 12.7156 15.5928 12.7156 15.3384C12.7156 14.2139 14.1546 14.2143 14.1546 15.3384Z" fill="white"/>
<path fill-rule="evenodd" clip-rule="evenodd" d="M14.0742 16.221C13.4597 16.2441 12.8456 16.2765 12.2324 16.321L12.0018 16.3378L11.9196 16.1239C11.8256 15.8799 11.78 15.6187 11.78 15.3577C11.78 12.8511 15.0895 12.8517 15.0895 15.3577C15.0895 15.4958 15.0767 15.6338 15.0507 15.7694L15.0131 15.9665L14.8159 16.0118C14.5968 16.062 14.3808 16.1255 14.1697 16.2024L14.1234 16.2192L14.0742 16.221H14.0742ZM14.0398 15.799C14.2376 15.7277 14.4393 15.6673 14.6436 15.6177C14.6563 15.5316 14.6625 15.4447 14.6625 15.3577C14.6625 13.4099 12.207 13.4093 12.207 15.3577C12.207 15.5387 12.2339 15.7204 12.29 15.8929C12.8727 15.8518 13.4561 15.8209 14.0398 15.799H14.0398ZM20.5592 15.3577C20.5592 15.6187 20.5135 15.8801 20.4194 16.1242L20.3371 16.338L20.1066 16.3213C19.4932 16.2768 18.879 16.2442 18.2643 16.2212L18.215 16.2193L18.1688 16.2025C17.9579 16.1259 17.7423 16.0623 17.5234 16.012L17.3261 15.9667L17.2884 15.7697C17.2626 15.6338 17.2497 15.4958 17.2497 15.3577C17.2497 12.8511 20.5591 12.8517 20.5591 15.3577L20.5592 15.3577ZM17.6956 15.6179C17.8997 15.6676 18.1012 15.7279 18.2986 15.7992C18.8825 15.821 19.4662 15.852 20.049 15.8931C20.1051 15.7206 20.1321 15.5389 20.1321 15.3577C20.1321 13.4098 17.6767 13.4093 17.6767 15.3577C17.6767 15.4446 17.683 15.5318 17.6956 15.6179H17.6956Z" fill="white"/>
<path fill-rule="evenodd" clip-rule="evenodd" d="M19.6243 15.3384C19.6243 15.5929 19.5308 15.8197 19.3852 15.9661C19.0525 15.9469 18.7173 15.931 18.3804 15.9176C18.2602 15.772 18.1853 15.5663 18.1853 15.3384C18.1853 14.2139 19.6243 14.2143 19.6243 15.3384Z" fill="white"/>
</g>
<defs>
<filter id="filter0_d" x="0.000610352" y="0" width="33.5621" height="34.0674" filterUnits="userSpaceOnUse" color-interpolation-filters="sRGB">
<feFlood flood-opacity="0" result="BackgroundImageFix"/>
<feColorMatrix in="SourceAlpha" type="matrix" values="0 0 0 0 0 0 0 0 0 0 0 0 0 0 0 0 0 0 127 0"/>
<feOffset dx="0.804922" dy="1.60984"/>
<feGaussianBlur stdDeviation="0.402461"/>
<feColorMatrix type="matrix" values="0 0 0 0 0 0 0 0 0 0 0 0 0 0 0 0 0 0 0.25 0"/>
<feBlend mode="normal" in2="BackgroundImageFix" result="effect1_dropShadow"/>
<feBlend mode="normal" in="SourceGraphic" in2="effect1_dropShadow" result="shape"/>
</filter>
<linearGradient id="paint0_linear" x1="9.77814" y1="4.39065" x2="28.8655" y2="21.7259" gradientUnits="userSpaceOnUse">
<stop stop-color="#0064B2"/>
<stop offset="1" stop-color="#004881"/>
</linearGradient>
<clipPath id="clip0">
<rect width="33" height="33" fill="white"/>
</clipPath>
</defs>
</svg>
