<svg width="177" height="142" viewBox="0 0 177 142" fill="none" xmlns="http://www.w3.org/2000/svg">
<g clip-path="url(#clip0)">
<path fill-rule="evenodd" clip-rule="evenodd" d="M34.2889 0.815434C50.8029 2.21303 63.046 16.6068 61.635 32.966C61.6343 32.9736 61.6332 32.9882 61.6328 32.9957C61.3068 36.7734 60.2476 40.4606 58.5248 43.8439L59.3217 57.6193C57.483 57.3208 50.0314 57.2952 46.471 56.3317C41.2366 59.2631 35.2175 60.5664 29.2224 60.059C29.2118 60.0581 29.1898 60.0564 29.1789 60.0552C12.665 58.6577 0.422301 44.2643 1.83336 27.9054C3.24441 11.5462 17.7748 -0.582157 34.2889 0.815434Z" fill="url(#paint0_linear)"/>
<g filter="url(#filter0_d)">
<path d="M34.4294 -0.884506C43.1567 -0.145791 50.7587 4.031 55.9944 10.1867C61.2288 16.3409 64.0939 24.4667 63.3492 33.1048L63.3462 33.1345C63.1752 35.1254 62.8087 37.0972 62.2578 39.021C61.7499 40.7945 60.0286 44.2774 59.2126 45.9414L60.0464 56.801C60.1057 57.7392 59.9796 58.4962 59.0324 58.555C58.8762 58.5647 58.7232 58.5532 58.5769 58.5234C57.3238 58.3193 55.0083 57.8746 51.848 57.2606C50.2113 56.9426 48.6171 56.7185 47.5604 57.2803C44.9589 58.6633 41.3306 60.5367 38.4913 61.1503C35.4176 61.8143 32.2446 62.0247 29.0805 61.757L29.037 61.7535C20.3094 61.0147 12.7074 56.8379 7.47188 50.6825C2.2375 44.5286 -0.627398 36.4027 0.117384 27.7645C0.86288 19.119 5.07969 11.5881 11.2936 6.40145C17.5062 1.21598 25.7092 -1.62208 34.4294 -0.884506ZM53.3714 12.3721C48.7101 6.89173 41.9336 3.17252 34.1468 2.51342C26.3534 1.8541 19.0334 4.38113 13.4995 8.99998C7.96718 13.6174 4.21274 20.3305 3.54739 28.0442C2.88161 35.7645 5.43257 43.0158 10.0948 48.4973C14.756 53.9772 21.5326 57.6964 29.319 58.3555L29.3625 58.3591C32.1913 58.5983 35.0239 58.4109 37.7649 57.8187C40.4991 57.2281 43.1341 56.2416 45.5749 54.8818C45.9639 54.6462 47.5271 53.843 48.0017 53.971C49.2267 54.3024 55.7982 55.3317 57.735 55.7079L56.1854 45.1125C56.1675 44.8205 56.8477 43.3569 56.9904 43.0769C57.8016 41.4832 58.4576 39.8158 58.9487 38.1016C59.4372 36.3957 59.7627 34.6381 59.9165 32.8548L59.919 32.8252C60.5847 25.1049 58.0336 17.8536 53.3714 12.3721Z" fill="white"/>
</g>
<path fill-rule="evenodd" clip-rule="evenodd" d="M53.2861 36.3125C53.2861 45.5604 45.4011 53.0573 35.6746 53.0573C33.9571 53.0573 32.2583 53.0573 30.5408 53.0573C20.8143 53.0573 12.9293 45.5604 12.9293 36.3125C12.9293 31.7233 14.4627 28.0298 16.9298 25.2299C14.6334 24.7667 12.9506 22.5905 12.8627 19.9778C12.529 10.0801 26.7494 7.42948 27.1414 17.7398C27.1637 18.3221 27.0896 18.8829 26.9358 19.408C30.9314 18.4014 35.2845 18.402 39.2802 19.4106C39.1259 18.8848 39.0516 18.3234 39.0738 17.7398C39.4657 7.42943 53.6862 10.0801 53.3526 19.9778C53.2645 22.5928 51.5789 24.7706 49.2796 25.2313C51.7487 28.0309 53.286 31.7231 53.286 36.3125H53.2861ZM49.5753 39.6815C49.5753 54.1541 16.6401 54.2112 16.6401 39.6815C16.6401 36.1359 18.9599 33.5317 22.3683 31.8684C22.1475 31.2753 22.0256 30.6327 22.0256 29.9375C22.0256 26.2144 26.3561 23.1966 31.6979 23.1966C32.6412 23.1966 33.574 23.1966 34.5176 23.1966C39.8595 23.1966 44.1901 26.2144 44.1901 29.9375C44.1901 30.6328 44.0676 31.2758 43.8467 31.8693C47.2552 33.5328 49.5753 36.1368 49.5753 39.6815ZM25.0305 18.8816C25.046 19.2815 24.9929 19.6661 24.8832 20.0247C22.4318 20.8902 20.1785 22.1675 18.3024 23.8505C16.7626 23.5595 15.6305 22.1087 15.5718 20.3642C15.3507 13.8073 24.7708 12.0512 25.0305 18.8816V18.8816ZM41.1847 18.8816C41.1696 19.2822 41.2228 19.6671 41.3327 20.0262C43.7834 20.8918 46.0354 22.1688 47.9109 23.851C49.4516 23.5608 50.5849 22.1094 50.6436 20.3642C50.8647 13.8074 41.4445 12.0513 41.1847 18.8816Z" fill="black" fill-opacity="0.2"/>
<path fill-rule="evenodd" clip-rule="evenodd" d="M42.7471 38.9267C42.7471 43.1417 38.9808 46.5584 34.3345 46.5584C33.5139 46.5584 32.7026 46.5584 31.8821 46.5584C27.236 46.5584 23.4695 43.1417 23.4695 38.9267C23.4695 28.1911 42.747 28.195 42.747 38.9267H42.7471ZM36.1005 33.3564C36.1005 34.1934 35.0884 34.8828 33.7858 34.9748C33.3783 35.1826 33.096 35.6341 33.096 36.1578C33.096 36.4022 32.9939 36.3762 32.9939 36.1578C32.9939 35.6219 32.6983 35.162 32.276 34.9609C31.0491 34.8273 30.1162 34.16 30.1162 33.3564C30.1162 31.0654 36.1005 31.0662 36.1005 33.3564ZM38.6211 34.894C38.735 34.9896 38.7486 35.159 38.6519 35.2719C38.5554 35.3846 38.3844 35.3982 38.2704 35.3024C38.2342 35.2719 38.2045 35.2405 38.1711 35.2053L38.0361 35.0637C37.9792 35.0578 38.133 35.1065 38.1222 35.2077C37.9712 36.5925 37.3667 37.631 36.5419 38.348C35.5735 39.1895 34.3022 39.5827 33.1082 39.5707C31.9144 39.5826 30.6431 39.1895 29.6746 38.348C28.8499 37.631 28.245 36.5924 28.0944 35.2077C28.0833 35.1065 28.2374 35.0578 28.1804 35.0637L28.0454 35.2053C28.0121 35.2405 27.9825 35.2719 27.9459 35.3024C27.8322 35.3982 27.6612 35.3846 27.5644 35.2719C27.4679 35.159 27.4816 34.9896 27.5953 34.894L27.6478 34.8388C27.7615 34.7183 27.9189 34.5509 28.1231 34.5291C28.3716 34.5026 28.5787 34.6422 28.634 35.1509C28.7685 36.3878 29.3033 37.3108 30.0319 37.9436C30.8959 38.6945 32.0347 39.045 33.1061 39.034H33.1104C34.1819 39.045 35.3206 38.6945 36.1846 37.9436C36.9132 37.3108 37.4477 36.3878 37.5825 35.1509C37.6376 34.6422 37.8449 34.5026 38.0934 34.5291C38.2976 34.5509 38.455 34.7183 38.5687 34.8388L38.621 34.894H38.6211Z" fill="black" fill-opacity="0.2"/>
<path fill-rule="evenodd" clip-rule="evenodd" d="M29.1062 30.4524C29.1062 30.9053 28.9574 31.3141 28.7185 31.6031C28.0492 31.6293 27.3832 31.6611 26.7222 31.6992C26.4329 31.4083 26.2473 30.9578 26.2473 30.4524C26.2473 28.2183 29.1063 28.2191 29.1063 30.4524H29.1062Z" fill="black" fill-opacity="0.2"/>
<path fill-rule="evenodd" clip-rule="evenodd" d="M28.946 32.2053C27.7255 32.2509 26.5056 32.3155 25.2876 32.4039L24.8297 32.4371L24.6664 32.0123C24.4798 31.5276 24.3892 31.0088 24.3892 30.4905C24.3892 25.5116 30.9626 25.513 30.9626 30.4905C30.9626 30.7647 30.9372 31.0387 30.8857 31.3082L30.8111 31.6996L30.4191 31.7895C29.984 31.8894 29.5549 32.0154 29.1356 32.1681L29.0439 32.2015L28.946 32.2053H28.946ZM28.8778 31.3672C29.2705 31.2254 29.6711 31.1055 30.0769 31.0068C30.1022 30.8358 30.1147 30.6632 30.1147 30.4904C30.1147 26.6215 25.2373 26.6204 25.2373 30.4904C25.2373 30.8501 25.2909 31.2107 25.4022 31.5534C26.5595 31.472 27.7182 31.4105 28.8778 31.3671V31.3672ZM41.8267 30.4904C41.8267 31.0088 41.7358 31.528 41.5492 32.013L41.3859 32.4378L40.9281 32.4043C39.7096 32.3159 38.4895 32.2513 37.2685 32.2055L37.1709 32.202L37.0788 32.1686C36.66 32.0162 36.2316 31.8898 35.797 31.7902L35.405 31.7002L35.3302 31.3087C35.2789 31.0391 35.2532 30.7649 35.2532 30.4905C35.2532 25.5116 41.8266 25.513 41.8266 30.4905L41.8267 30.4904ZM36.1392 31.0074C36.5445 31.1059 36.9448 31.2258 37.3369 31.3674C38.4965 31.4107 39.6559 31.4724 40.8134 31.5538C40.9251 31.2112 40.9788 30.8504 40.9788 30.4904C40.9788 26.6215 36.1014 26.6204 36.1014 30.4904C36.1014 30.6634 36.114 30.8362 36.1392 31.0074Z" fill="black" fill-opacity="0.2"/>
<path fill-rule="evenodd" clip-rule="evenodd" d="M39.9709 30.4524C39.9709 30.958 39.785 31.4087 39.4957 31.6997C38.8348 31.6613 38.1689 31.6296 37.4998 31.6034C37.2607 31.3141 37.1118 30.9053 37.1118 30.4524C37.1118 28.2183 39.9709 28.2191 39.9709 30.4524Z" fill="black" fill-opacity="0.2"/>
<path fill-rule="evenodd" clip-rule="evenodd" d="M52.295 35.3262C52.295 44.574 44.41 52.0706 34.6838 52.0706C32.966 52.0706 31.2675 52.0706 29.5497 52.0706C19.8235 52.0706 11.9386 44.574 11.9386 35.3262C11.9386 30.7367 13.472 27.0434 15.9388 24.2436C13.6427 23.7802 11.9599 21.6041 11.872 18.9915C11.5383 9.09374 25.7586 6.44291 26.1505 16.7534C26.1728 17.3358 26.0988 17.8966 25.9451 18.4214C29.9408 17.415 34.2937 17.4155 38.2895 18.4242C38.1352 17.8982 38.0609 17.337 38.0831 16.7534C38.475 6.44286 52.6953 9.09374 52.3616 18.9915C52.2737 21.6064 50.5882 23.7843 48.2889 24.2447C50.7578 27.0446 52.2951 30.7367 52.2951 35.3262H52.295ZM48.5845 38.6951C48.5845 53.1677 15.6491 53.2249 15.6493 38.6951C15.6493 35.1493 17.9691 32.5453 21.3775 30.8821C21.1567 30.2887 21.0348 29.6463 21.0348 28.9511C21.0348 25.2281 25.3651 22.2103 30.7071 22.2103C31.6504 22.2103 32.5832 22.2103 33.5268 22.2103C38.8685 22.2103 43.1991 25.2281 43.1991 28.9511C43.1991 29.6465 43.0767 30.2895 42.8556 30.883C46.2642 32.5465 48.5845 35.1505 48.5845 38.6951ZM24.0396 17.8953C24.0548 18.2951 24.0018 18.6797 23.8925 19.0383C21.441 19.9038 19.1877 21.1809 17.3114 22.8642C15.7716 22.5731 14.6397 21.1221 14.5808 19.3779C14.3597 12.8208 23.7801 11.0649 24.0396 17.8952V17.8953ZM40.1938 17.8953C40.1787 18.2959 40.2319 18.6807 40.3418 19.04C42.7924 19.9055 45.0446 21.1826 46.9202 22.8646C48.4607 22.5745 49.5939 21.1231 49.6527 19.3779C49.8739 12.8209 40.4535 11.0649 40.1938 17.8953Z" fill="white"/>
<path fill-rule="evenodd" clip-rule="evenodd" d="M41.7556 37.9406C41.7556 42.1554 37.9891 45.5721 33.343 45.5721C32.5226 45.5721 31.7111 45.5721 30.8906 45.5721C26.2446 45.5721 22.478 42.1554 22.478 37.9406C22.478 27.205 41.7556 27.2086 41.7556 37.9406H41.7556ZM37.2819 34.5365C37.0978 35.6886 36.5769 36.7219 35.6768 37.5044C34.7042 38.3496 33.4024 38.7871 32.1186 38.7746C30.8313 38.7871 29.5295 38.3496 28.5569 37.5044C27.6567 36.7219 27.1359 35.6886 26.9518 34.5365C26.7724 34.6074 26.5587 34.5619 26.4271 34.4086C26.2629 34.2169 26.2826 33.9297 26.4687 33.7738L26.5176 33.7222C26.6833 33.5487 26.8589 33.3812 27.1115 33.3544C27.6055 33.3018 27.7878 33.7278 27.8332 34.1445C27.946 35.1817 28.3681 36.1208 29.1668 36.8148C29.9696 37.5128 31.0508 37.8689 32.1148 37.8582H32.1212C33.1832 37.8689 34.2642 37.5126 35.0669 36.8148C35.8656 36.1208 36.2877 35.1817 36.4005 34.1445C36.4458 33.7278 36.6284 33.3018 37.1225 33.3544C37.3751 33.3812 37.5503 33.5487 37.7162 33.7222L37.7613 33.7702C37.9472 33.9262 37.9708 34.217 37.8066 34.4086C37.675 34.5619 37.4613 34.6074 37.282 34.5366L37.2819 34.5365ZM35.1088 32.3703C35.1088 33.2073 34.0967 33.8967 32.7941 33.9886C32.3868 34.1965 32.1046 34.648 32.1046 35.1718C32.1046 35.4162 32.0022 35.3902 32.0022 35.1718C32.0022 34.6359 31.7068 34.1759 31.2846 33.9746C30.0575 33.8411 29.1249 33.1738 29.1249 32.3704C29.1249 30.0794 35.1088 30.0802 35.1088 32.3704V32.3703Z" fill="white"/>
<path fill-rule="evenodd" clip-rule="evenodd" d="M28.1153 29.4663C28.1153 29.919 27.9665 30.3277 27.7277 30.617C27.0584 30.6431 26.3925 30.675 25.7311 30.7131C25.4419 30.4222 25.2563 29.9718 25.2563 29.4663C25.2563 27.2322 28.1153 27.233 28.1153 29.4663Z" fill="white"/>
<path fill-rule="evenodd" clip-rule="evenodd" d="M27.9551 31.219C26.7345 31.2648 25.5147 31.3292 24.2967 31.4175L23.8388 31.451L23.6755 31.0262C23.4886 30.5415 23.3982 30.0226 23.3982 29.5043C23.3982 24.5255 29.9716 24.5266 29.9716 29.5043C29.9716 29.7786 29.9463 30.0526 29.8946 30.3221L29.8198 30.7134L29.4282 30.8034C28.993 30.9032 28.564 31.0293 28.1447 31.1819L28.0526 31.2154L27.955 31.219H27.9551ZM27.8867 30.3808C28.2795 30.2392 28.6802 30.1191 29.0859 30.0206C29.1113 29.8496 29.1235 29.6771 29.1235 29.5043C29.1235 25.6354 24.2463 25.6343 24.2463 29.5043C24.2463 29.8638 24.2998 30.2247 24.4112 30.5673C25.5685 30.4856 26.7273 30.4244 27.8866 30.3808H27.8867ZM40.8358 29.5042C40.8358 30.0226 40.7449 30.5419 40.5582 31.0266L40.3947 31.4514L39.9368 31.4182C38.7184 31.3298 37.4985 31.265 36.2775 31.2194L36.1796 31.2156L36.0878 31.1821C35.669 31.03 35.2407 30.9037 34.806 30.8038L34.414 30.7138L34.3393 30.3225C34.2879 30.0527 34.2622 29.7786 34.2622 29.5043C34.2622 24.5255 40.8357 24.5266 40.8357 29.5043L40.8358 29.5042ZM35.1481 30.021C35.5533 30.1198 35.9536 30.2396 36.3458 30.3811C37.5055 30.4245 38.6648 30.486 39.8225 30.5677C39.9339 30.2251 39.9876 29.8642 39.9876 29.5042C39.9876 25.6353 35.1104 25.6342 35.1104 29.5042C35.1104 29.6769 35.1229 29.85 35.148 30.021H35.1481Z" fill="white"/>
<path fill-rule="evenodd" clip-rule="evenodd" d="M38.9796 29.4663C38.9796 29.972 38.7938 30.4224 38.5044 30.7134C37.8435 30.6752 37.1776 30.6435 36.5083 30.617C36.2694 30.3277 36.1206 29.919 36.1206 29.4663C36.1206 27.2322 38.9796 27.233 38.9796 29.4663Z" fill="white"/>
</g>
<g clip-path="url(#clip1)">
<path fill-rule="evenodd" clip-rule="evenodd" d="M110.148 24.195C80.6135 26.6945 58.7171 52.4372 61.2407 81.695C61.2419 81.7086 61.2439 81.7348 61.2446 81.748C61.8277 88.5044 63.722 95.0988 66.8032 101.15L65.378 125.786C68.6664 125.253 81.9932 125.207 88.3609 123.484C97.7224 128.726 108.487 131.057 119.209 130.15C119.228 130.148 119.268 130.145 119.287 130.143C148.822 127.644 170.717 101.902 168.194 72.6443C165.67 43.3865 139.683 21.6954 110.148 24.195Z" fill="url(#paint1_linear)"/>
<g filter="url(#filter1_d)">
<path d="M109.895 21.1561C94.287 22.4773 80.691 29.9473 71.3272 40.9565C61.9657 51.9631 56.8415 66.4958 58.1735 81.9448L58.1787 81.9978C58.4845 85.5584 59.1402 89.0849 60.1254 92.5256C61.0338 95.6973 64.1121 101.926 65.5715 104.902L64.0803 124.324C63.9743 126.002 64.1998 127.356 65.8938 127.461C66.1733 127.479 66.4468 127.458 66.7084 127.405C68.9497 127.04 73.0908 126.244 78.7429 125.146C81.67 124.578 84.5211 124.177 86.411 125.182C91.0638 127.655 97.5529 131.006 102.631 132.103C108.128 133.29 113.803 133.667 119.462 133.188L119.54 133.182C135.148 131.86 148.744 124.39 158.108 113.382C167.469 102.376 172.593 87.8428 171.261 72.3938C169.928 56.9316 162.386 43.4629 151.273 34.1868C140.162 24.9128 125.491 19.837 109.895 21.1561ZM76.0183 44.8651C84.3548 35.0636 96.4744 28.412 110.401 27.2332C124.339 26.054 137.431 30.5735 147.328 38.8342C157.222 47.0922 163.937 59.0984 165.127 72.894C166.317 86.7015 161.755 99.6701 153.417 109.474C145.081 119.274 132.961 125.926 119.035 127.105L118.957 127.111C113.898 127.539 108.832 127.204 103.93 126.145C99.0399 125.088 94.3274 123.324 89.962 120.892C89.2665 120.471 86.4707 119.034 85.6219 119.263C83.4309 119.856 71.6782 121.697 68.2142 122.37L70.9857 103.42C71.0176 102.898 69.8012 100.28 69.5458 99.7794C68.0951 96.9291 66.9218 93.9471 66.0435 90.8814C65.1699 87.8304 64.5878 84.687 64.3128 81.4976L64.3082 81.4446C63.1176 67.6371 67.6802 54.6684 76.0183 44.8651Z" fill="white"/>
</g>
<path fill-rule="evenodd" clip-rule="evenodd" d="M76.1703 87.6817C76.1703 104.221 90.2723 117.629 107.668 117.629C110.739 117.629 113.778 117.629 116.849 117.629C134.245 117.629 148.347 104.221 148.347 87.6817C148.347 79.4741 145.604 72.8685 141.192 67.861C145.299 67.0326 148.309 63.1405 148.466 58.4678C149.063 40.7662 123.63 36.0256 122.929 54.4652C122.889 55.5067 123.022 56.5096 123.297 57.4487C116.151 55.6484 108.366 55.6496 101.219 57.4533C101.495 56.513 101.628 55.5089 101.588 54.4652C100.887 36.0255 75.4547 40.7662 76.0514 58.4678C76.209 63.1446 79.2236 67.0396 83.3357 67.8634C78.9199 72.8705 76.1705 79.4738 76.1705 87.6817H76.1703ZM82.8069 93.707C82.8069 119.591 141.71 119.693 141.71 93.707C141.71 87.3659 137.561 82.7084 131.466 79.7337C131.861 78.6729 132.079 77.5236 132.079 76.2803C132.079 69.6216 124.334 64.2244 114.78 64.2244C113.093 64.2244 111.425 64.2244 109.737 64.2244C100.183 64.2244 92.4382 69.6216 92.4382 76.2803C92.4382 77.5239 92.6573 78.6738 93.0523 79.7353C86.9564 82.7104 82.8069 87.3676 82.8069 93.707ZM126.704 56.5073C126.677 57.2224 126.772 57.9103 126.968 58.5517C131.352 60.0996 135.382 62.384 138.737 65.394C141.491 64.8734 143.516 62.2788 143.621 59.1589C144.016 47.4321 127.169 44.2913 126.704 56.5072V56.5073ZM97.8133 56.5073C97.8403 57.2238 97.7451 57.912 97.5486 58.5544C93.1655 60.1025 89.138 62.3864 85.7836 65.3948C83.0282 64.8758 81.0012 62.28 80.8964 59.1589C80.5009 47.4323 97.3486 44.2915 97.8133 56.5073Z" fill="black" fill-opacity="0.2"/>
<path fill-rule="evenodd" clip-rule="evenodd" d="M95.0198 92.357C95.0198 99.8954 101.756 106.006 110.065 106.006C111.533 106.006 112.984 106.006 114.451 106.006C122.761 106.006 129.497 99.8954 129.497 92.357C129.497 73.1568 95.02 73.1638 95.02 92.357H95.0198ZM106.907 82.3948C106.907 83.8917 108.717 85.1246 111.047 85.2893C111.776 85.6608 112.28 86.4683 112.28 87.405C112.28 87.8421 112.463 87.7955 112.463 87.405C112.463 86.4466 112.992 85.624 113.747 85.2643C115.941 85.0254 117.61 83.8319 117.61 82.3948C117.61 78.2975 106.907 78.2988 106.907 82.3948ZM102.399 85.1447C102.195 85.3156 102.171 85.6187 102.344 85.8205C102.517 86.022 102.822 86.0465 103.026 85.8751C103.091 85.8205 103.144 85.7643 103.204 85.7014L103.445 85.4481C103.547 85.4376 103.272 85.5247 103.291 85.7057C103.561 88.1824 104.642 90.0397 106.118 91.322C107.85 92.827 110.123 93.5302 112.259 93.5087C114.394 93.53 116.667 92.827 118.399 91.322C119.874 90.0397 120.956 88.1822 121.226 85.7057C121.245 85.5247 120.97 85.4376 121.072 85.4481L121.313 85.7014C121.373 85.7643 121.426 85.8205 121.491 85.8751C121.695 86.0465 122 86.022 122.173 85.8205C122.346 85.6187 122.322 85.3156 122.118 85.1447L122.024 85.046C121.821 84.8304 121.539 84.531 121.174 84.4921C120.73 84.4447 120.359 84.6943 120.261 85.6041C120.02 87.8163 119.064 89.467 117.76 90.5988C116.215 91.9416 114.179 92.5686 112.262 92.5488H112.255C110.338 92.5686 108.302 91.9416 106.757 90.5988C105.453 89.467 104.498 87.8163 104.256 85.6041C104.158 84.6943 103.787 84.4447 103.343 84.4921C102.978 84.531 102.696 84.8304 102.493 85.046L102.399 85.1447H102.399Z" fill="black" fill-opacity="0.2"/>
<path fill-rule="evenodd" clip-rule="evenodd" d="M119.416 77.2002C119.416 78.0101 119.682 78.741 120.109 79.2578C121.306 79.3047 122.497 79.3615 123.679 79.4296C124.196 78.9095 124.528 78.1041 124.528 77.2002C124.528 73.2057 119.416 73.207 119.416 77.2002H119.416Z" fill="black" fill-opacity="0.2"/>
<path fill-rule="evenodd" clip-rule="evenodd" d="M119.702 80.3357C121.885 80.4173 124.067 80.5328 126.245 80.6908L127.064 80.7502L127.356 79.9905C127.69 79.1237 127.852 78.1957 127.852 77.2688C127.852 68.3643 116.096 68.3667 116.096 77.2688C116.096 77.7593 116.141 78.2492 116.233 78.7312L116.367 79.4312L117.068 79.5921C117.846 79.7706 118.613 79.9961 119.363 80.2691L119.527 80.3289L119.702 80.3357H119.702ZM119.824 78.8367C119.122 78.5831 118.405 78.3687 117.68 78.1922C117.634 77.8863 117.612 77.5777 117.612 77.2686C117.612 70.3493 126.335 70.3473 126.335 77.2686C126.335 77.912 126.239 78.5569 126.04 79.1697C123.97 79.0241 121.898 78.9142 119.824 78.8366V78.8367ZM96.6656 77.2686C96.6656 78.1957 96.8282 79.1244 97.1621 79.9917L97.4541 80.7514L98.2728 80.6916C100.452 80.5335 102.634 80.4179 104.818 80.3361L104.992 80.3298L105.157 80.27C105.906 79.9974 106.672 79.7715 107.45 79.5933L108.151 79.4324L108.284 78.7321C108.376 78.2499 108.422 77.7596 108.422 77.2688C108.422 68.3643 96.6658 68.3667 96.6658 77.2688L96.6656 77.2686ZM106.838 78.1933C106.113 78.3695 105.397 78.5839 104.695 78.8371C102.622 78.9145 100.548 79.025 98.4779 79.1706C98.2781 78.5578 98.1821 77.9125 98.1821 77.2686C98.1821 70.3493 106.905 70.3473 106.905 77.2686C106.905 77.578 106.883 77.887 106.838 78.1933Z" fill="black" fill-opacity="0.2"/>
<path fill-rule="evenodd" clip-rule="evenodd" d="M99.9855 77.2002C99.9855 78.1044 100.318 78.9102 100.835 79.4304C102.017 79.3618 103.208 79.3052 104.404 79.2583C104.831 78.741 105.098 78.0101 105.098 77.2002C105.098 73.2057 99.9855 73.207 99.9855 77.2002Z" fill="black" fill-opacity="0.2"/>
<path fill-rule="evenodd" clip-rule="evenodd" d="M77.9429 85.9175C77.9429 102.457 92.045 115.864 109.44 115.864C112.512 115.864 115.55 115.864 118.622 115.864C136.017 115.864 150.119 102.457 150.119 85.9175C150.119 77.7094 147.376 71.1041 142.965 66.0966C147.071 65.2679 150.081 61.3761 150.238 56.7035C150.835 39.0018 125.402 34.2609 124.701 52.7008C124.662 53.7423 124.794 54.7453 125.069 55.684C117.923 53.884 110.138 53.8848 102.991 55.6889C103.267 54.7482 103.4 53.7445 103.36 52.7008C102.659 34.2608 77.227 39.0018 77.8238 56.7035C77.981 61.3802 80.9956 65.2752 85.1077 66.0987C80.6922 71.1061 77.9428 77.7094 77.9428 85.9175H77.9429ZM84.579 91.9426C84.579 117.826 143.483 117.929 143.482 91.9426C143.482 85.6012 139.333 80.944 133.238 77.9693C133.633 76.9082 133.851 75.7592 133.851 74.5159C133.851 67.8574 126.106 62.4602 116.552 62.4602C114.865 62.4602 113.197 62.4602 111.509 62.4602C101.956 62.4602 94.2106 67.8574 94.2106 74.5159C94.2106 75.7595 94.4295 76.9095 94.825 77.971C88.7288 80.9461 84.579 85.6032 84.579 91.9426ZM128.477 54.743C128.449 55.458 128.544 56.1459 128.74 56.7873C133.124 58.3352 137.154 60.6193 140.51 63.6296C143.264 63.1091 145.288 60.5141 145.393 57.3945C145.789 45.6674 128.941 42.5271 128.477 54.7428V54.743ZM99.5854 54.743C99.6124 55.4594 99.5173 56.1476 99.3207 56.7902C94.938 58.3381 90.9101 60.6221 87.5555 63.6305C84.8004 63.1116 82.7737 60.5158 82.6685 57.3945C82.273 45.6676 99.1211 42.5271 99.5854 54.743Z" fill="white"/>
<path fill-rule="evenodd" clip-rule="evenodd" d="M96.792 90.5936C96.792 98.1316 103.528 104.242 111.838 104.242C113.305 104.242 114.756 104.242 116.224 104.242C124.533 104.242 131.269 98.1316 131.269 90.5936C131.269 71.3933 96.7922 71.3998 96.7922 90.5936H96.792ZM104.793 84.5054C105.122 86.5659 106.054 88.414 107.664 89.8134C109.403 91.325 111.731 92.1075 114.027 92.0851C116.33 92.1075 118.658 91.325 120.397 89.8134C122.007 88.414 122.939 86.5659 123.268 84.5054C123.589 84.6321 123.971 84.5508 124.206 84.2767C124.5 83.9339 124.465 83.4201 124.132 83.1413L124.045 83.0491C123.748 82.7388 123.434 82.4392 122.983 82.3912C122.099 82.2973 121.773 83.0591 121.692 83.8044C121.49 85.6593 120.735 87.3389 119.307 88.5801C117.871 89.8284 115.937 90.4653 114.034 90.4461H114.023C112.124 90.4653 110.19 89.828 108.755 88.5801C107.326 87.3389 106.571 85.6593 106.369 83.8044C106.288 83.0591 105.962 82.2973 105.078 82.3912C104.626 82.4392 104.313 82.7388 104.016 83.0491L103.936 83.1349C103.603 83.4138 103.561 83.9341 103.855 84.2767C104.09 84.5509 104.472 84.6323 104.793 84.5056L104.793 84.5054ZM108.68 80.6313C108.68 82.1282 110.49 83.3612 112.819 83.5255C113.548 83.8974 114.053 84.7049 114.053 85.6417C114.053 86.0788 114.236 86.0322 114.236 85.6417C114.236 84.6833 114.764 83.8605 115.519 83.5005C117.714 83.2618 119.382 82.0683 119.382 80.6315C119.382 76.5341 108.68 76.5355 108.68 80.6315V80.6313Z" fill="white"/>
<path fill-rule="evenodd" clip-rule="evenodd" d="M121.19 75.4366C121.19 76.2461 121.456 76.9768 121.883 77.4942C123.079 77.5407 124.27 77.5978 125.453 77.6659C125.97 77.1459 126.302 76.3404 126.302 75.4366C126.302 71.442 121.19 71.4434 121.19 75.4366Z" fill="white"/>
<path fill-rule="evenodd" clip-rule="evenodd" d="M121.474 78.5721C123.657 78.654 125.839 78.7691 128.017 78.9271L128.836 78.987L129.128 78.2272C129.463 77.3604 129.624 76.4324 129.624 75.5055C129.624 66.601 117.868 66.603 117.868 75.5055C117.868 75.996 117.913 76.4859 118.006 76.9679L118.139 77.6679L118.84 77.8288C119.618 78.0073 120.385 78.2328 121.135 78.5058L121.3 78.5656L121.475 78.5721H121.474ZM121.597 77.0729C120.894 76.8198 120.178 76.605 119.452 76.4289C119.407 76.123 119.385 75.8145 119.385 75.5055C119.385 68.586 128.107 68.584 128.107 75.5055C128.107 76.1484 128.012 76.7938 127.813 77.4066C125.743 77.2605 123.67 77.1509 121.597 77.0729H121.597ZM98.4378 75.5053C98.4378 76.4324 98.6003 77.3611 98.9343 78.228L99.2267 78.9878L100.046 78.9283C102.225 78.7702 104.406 78.6543 106.59 78.5727L106.765 78.5659L106.929 78.5062C107.678 78.2341 108.444 78.0082 109.222 77.8295L109.923 77.6686L110.057 76.9688C110.148 76.4863 110.194 75.996 110.194 75.5055C110.194 66.601 98.438 66.603 98.438 75.5055L98.4378 75.5053ZM108.61 76.4295C107.885 76.6062 107.169 76.8205 106.468 77.0736C104.394 77.1511 102.321 77.2612 100.25 77.4073C100.051 76.7945 99.9548 76.149 99.9548 75.5053C99.9548 68.5859 108.677 68.5838 108.677 75.5053C108.677 75.8142 108.655 76.1237 108.61 76.4295H108.61Z" fill="white"/>
<path fill-rule="evenodd" clip-rule="evenodd" d="M101.758 75.4366C101.758 76.3407 102.09 77.1462 102.608 77.6664C103.79 77.5981 104.98 77.5415 106.177 77.4941C106.604 76.9768 106.87 76.2461 106.87 75.4366C106.87 71.442 101.758 71.4434 101.758 75.4366Z" fill="white"/>
</g>
<defs>
<filter id="filter0_d" x="0.000732422" y="-1" width="66.6626" height="67.6663" filterUnits="userSpaceOnUse" color-interpolation-filters="sRGB">
<feFlood flood-opacity="0" result="BackgroundImageFix"/>
<feColorMatrix in="SourceAlpha" type="matrix" values="0 0 0 0 0 0 0 0 0 0 0 0 0 0 0 0 0 0 127 0"/>
<feOffset dx="1.59878" dy="3.19754"/>
<feGaussianBlur stdDeviation="0.799388"/>
<feColorMatrix type="matrix" values="0 0 0 0 0 0 0 0 0 0 0 0 0 0 0 0 0 0 0.25 0"/>
<feBlend mode="normal" in2="BackgroundImageFix" result="effect1_dropShadow"/>
<feBlend mode="normal" in="SourceGraphic" in2="effect1_dropShadow" result="shape"/>
</filter>
<filter id="filter1_d" x="57.9648" y="20.9496" width="119.224" height="121.018" filterUnits="userSpaceOnUse" color-interpolation-filters="sRGB">
<feFlood flood-opacity="0" result="BackgroundImageFix"/>
<feColorMatrix in="SourceAlpha" type="matrix" values="0 0 0 0 0 0 0 0 0 0 0 0 0 0 0 0 0 0 127 0"/>
<feOffset dx="2.85935" dy="5.71868"/>
<feGaussianBlur stdDeviation="1.42967"/>
<feColorMatrix type="matrix" values="0 0 0 0 0 0 0 0 0 0 0 0 0 0 0 0 0 0 0.25 0"/>
<feBlend mode="normal" in2="BackgroundImageFix" result="effect1_dropShadow"/>
<feBlend mode="normal" in="SourceGraphic" in2="effect1_dropShadow" result="shape"/>
</filter>
<linearGradient id="paint0_linear" x1="19.4232" y1="7.72211" x2="57.3356" y2="42.1542" gradientUnits="userSpaceOnUse">
<stop stop-color="#0064B2"/>
<stop offset="1" stop-color="#004881"/>
</linearGradient>
<linearGradient id="paint1_linear" x1="136.735" y1="36.5473" x2="68.9301" y2="98.1277" gradientUnits="userSpaceOnUse">
<stop stop-color="#0064B2"/>
<stop offset="1" stop-color="#004881"/>
</linearGradient>
<clipPath id="clip0">
<rect width="65.5462" height="65.5462" fill="white"/>
</clipPath>
<clipPath id="clip1">
<rect width="117.227" height="117.227" fill="white" transform="matrix(-1 0 0 1 176.471 23.9496)"/>
</clipPath>
</defs>
</svg>
