<svg width="231" height="86" viewBox="0 0 231 86" fill="none" xmlns="http://www.w3.org/2000/svg">
<rect x="15" y="16" width="200" height="54" rx="5" fill="black"/>
<path d="M84.28 38H85.33L82.15 31H81.16L77.99 38H79.02L79.79 36.25H83.51L84.28 38ZM80.14 35.45L81.65 32.02L83.16 35.45H80.14ZM89.3105 32.65C88.4705 32.65 87.7905 32.96 87.4005 33.5V32.7H86.4805V38H87.4405V35.27C87.4405 34.12 88.1005 33.51 89.1205 33.51C90.0305 33.51 90.5505 34.02 90.5505 35.06V38H91.5105V34.95C91.5105 33.39 90.6005 32.65 89.3105 32.65ZM97.6026 30.58V33.5C97.1626 32.93 96.5026 32.65 95.7526 32.65C94.2026 32.65 93.0726 33.73 93.0726 35.35C93.0726 36.97 94.2026 38.06 95.7526 38.06C96.5326 38.06 97.2126 37.76 97.6426 37.16V38H98.5626V30.58H97.6026ZM95.8326 37.22C94.8126 37.22 94.0426 36.48 94.0426 35.35C94.0426 34.22 94.8126 33.49 95.8326 33.49C96.8426 33.49 97.6126 34.22 97.6126 35.35C97.6126 36.48 96.8426 37.22 95.8326 37.22ZM101.545 33.59V32.7H100.625V38H101.585V35.36C101.585 34.2 102.225 33.57 103.255 33.57C103.325 33.57 103.395 33.57 103.475 33.58V32.65C102.545 32.65 101.885 32.97 101.545 33.59ZM107.126 38.06C108.716 38.06 109.876 36.93 109.876 35.35C109.876 33.77 108.716 32.65 107.126 32.65C105.536 32.65 104.366 33.77 104.366 35.35C104.366 36.93 105.536 38.06 107.126 38.06ZM107.126 37.22C106.106 37.22 105.336 36.48 105.336 35.35C105.336 34.22 106.106 33.49 107.126 33.49C108.146 33.49 108.906 34.22 108.906 35.35C108.906 36.48 108.146 37.22 107.126 37.22ZM111.93 31.68C112.31 31.68 112.58 31.4 112.58 31.04C112.58 30.7 112.3 30.43 111.93 30.43C111.56 30.43 111.28 30.71 111.28 31.06C111.28 31.41 111.56 31.68 111.93 31.68ZM111.45 38H112.41V32.7H111.45V38ZM118.529 30.58V33.5C118.089 32.93 117.429 32.65 116.679 32.65C115.129 32.65 113.999 33.73 113.999 35.35C113.999 36.97 115.129 38.06 116.679 38.06C117.459 38.06 118.139 37.76 118.569 37.16V38H119.489V30.58H118.529ZM116.759 37.22C115.739 37.22 114.969 36.48 114.969 35.35C114.969 34.22 115.739 33.49 116.759 33.49C117.769 33.49 118.539 34.22 118.539 35.35C118.539 36.48 117.769 37.22 116.759 37.22ZM129.853 38H130.903L127.723 31H126.733L123.563 38H124.593L125.363 36.25H129.083L129.853 38ZM125.713 35.45L127.223 32.02L128.733 35.45H125.713ZM134.864 32.65C134.084 32.65 133.404 32.95 132.974 33.54V32.7H132.054V39.94H133.014V37.2C133.454 37.77 134.114 38.06 134.864 38.06C136.414 38.06 137.544 36.98 137.544 35.35C137.544 33.73 136.414 32.65 134.864 32.65ZM134.784 37.22C133.774 37.22 133.004 36.48 133.004 35.35C133.004 34.23 133.774 33.49 134.784 33.49C135.804 33.49 136.574 34.23 136.574 35.35C136.574 36.48 135.804 37.22 134.784 37.22ZM141.927 32.65C141.147 32.65 140.467 32.95 140.037 33.54V32.7H139.117V39.94H140.077V37.2C140.517 37.77 141.177 38.06 141.927 38.06C143.477 38.06 144.607 36.98 144.607 35.35C144.607 33.73 143.477 32.65 141.927 32.65ZM141.847 37.22C140.837 37.22 140.067 36.48 140.067 35.35C140.067 34.23 140.837 33.49 141.847 33.49C142.867 33.49 143.637 34.23 143.637 35.35C143.637 36.48 142.867 37.22 141.847 37.22ZM151.381 38.06C152.971 38.06 154.131 36.93 154.131 35.35C154.131 33.77 152.971 32.65 151.381 32.65C149.791 32.65 148.621 33.77 148.621 35.35C148.621 36.93 149.791 38.06 151.381 38.06ZM151.381 37.22C150.361 37.22 149.591 36.48 149.591 35.35C149.591 34.22 150.361 33.49 151.381 33.49C152.401 33.49 153.161 34.22 153.161 35.35C153.161 36.48 152.401 37.22 151.381 37.22ZM158.535 32.65C157.695 32.65 157.015 32.96 156.625 33.5V32.7H155.705V38H156.665V35.27C156.665 34.12 157.325 33.51 158.345 33.51C159.255 33.51 159.775 34.02 159.775 35.06V38H160.735V34.95C160.735 33.39 159.825 32.65 158.535 32.65Z" fill="white"/>
<path d="M88.296 49.156H90.51V54.178C89.862 54.694 89.106 55.09 88.242 55.366C87.378 55.642 86.49 55.78 85.578 55.78C84.294 55.78 83.136 55.504 82.104 54.952C81.072 54.388 80.262 53.614 79.674 52.63C79.086 51.646 78.792 50.536 78.792 49.3C78.792 48.064 79.086 46.954 79.674 45.97C80.262 44.986 81.072 44.218 82.104 43.666C83.148 43.102 84.318 42.82 85.614 42.82C86.67 42.82 87.63 42.994 88.494 43.342C89.358 43.69 90.084 44.2 90.672 44.872L89.196 46.312C88.236 45.352 87.078 44.872 85.722 44.872C84.834 44.872 84.042 45.058 83.346 45.43C82.662 45.802 82.122 46.324 81.726 46.996C81.342 47.668 81.15 48.436 81.15 49.3C81.15 50.14 81.342 50.896 81.726 51.568C82.122 52.24 82.662 52.768 83.346 53.152C84.042 53.536 84.828 53.728 85.704 53.728C86.688 53.728 87.552 53.512 88.296 53.08V49.156ZM98.1928 55.726C97.2208 55.726 96.3448 55.516 95.5648 55.096C94.7848 54.676 94.1728 54.094 93.7288 53.35C93.2968 52.594 93.0808 51.742 93.0808 50.794C93.0808 49.846 93.2968 49 93.7288 48.256C94.1728 47.512 94.7848 46.93 95.5648 46.51C96.3448 46.09 97.2208 45.88 98.1928 45.88C99.1768 45.88 100.059 46.09 100.839 46.51C101.619 46.93 102.225 47.512 102.657 48.256C103.101 49 103.323 49.846 103.323 50.794C103.323 51.742 103.101 52.594 102.657 53.35C102.225 54.094 101.619 54.676 100.839 55.096C100.059 55.516 99.1768 55.726 98.1928 55.726ZM98.1928 53.8C99.0208 53.8 99.7048 53.524 100.245 52.972C100.785 52.42 101.055 51.694 101.055 50.794C101.055 49.894 100.785 49.168 100.245 48.616C99.7048 48.064 99.0208 47.788 98.1928 47.788C97.3648 47.788 96.6808 48.064 96.1408 48.616C95.6128 49.168 95.3488 49.894 95.3488 50.794C95.3488 51.694 95.6128 52.42 96.1408 52.972C96.6808 53.524 97.3648 53.8 98.1928 53.8ZM110.287 55.726C109.315 55.726 108.439 55.516 107.659 55.096C106.879 54.676 106.267 54.094 105.823 53.35C105.391 52.594 105.175 51.742 105.175 50.794C105.175 49.846 105.391 49 105.823 48.256C106.267 47.512 106.879 46.93 107.659 46.51C108.439 46.09 109.315 45.88 110.287 45.88C111.271 45.88 112.153 46.09 112.933 46.51C113.713 46.93 114.319 47.512 114.751 48.256C115.195 49 115.417 49.846 115.417 50.794C115.417 51.742 115.195 52.594 114.751 53.35C114.319 54.094 113.713 54.676 112.933 55.096C112.153 55.516 111.271 55.726 110.287 55.726ZM110.287 53.8C111.115 53.8 111.799 53.524 112.339 52.972C112.879 52.42 113.149 51.694 113.149 50.794C113.149 49.894 112.879 49.168 112.339 48.616C111.799 48.064 111.115 47.788 110.287 47.788C109.459 47.788 108.775 48.064 108.235 48.616C107.707 49.168 107.443 49.894 107.443 50.794C107.443 51.694 107.707 52.42 108.235 52.972C108.775 53.524 109.459 53.8 110.287 53.8ZM127.601 45.988V54.142C127.601 57.526 125.873 59.218 122.417 59.218C121.493 59.218 120.617 59.098 119.789 58.858C118.961 58.63 118.277 58.294 117.737 57.85L118.745 56.158C119.165 56.506 119.693 56.782 120.329 56.986C120.977 57.202 121.631 57.31 122.291 57.31C123.347 57.31 124.121 57.07 124.613 56.59C125.105 56.11 125.351 55.378 125.351 54.394V53.89C124.967 54.31 124.499 54.628 123.947 54.844C123.395 55.06 122.789 55.168 122.129 55.168C121.217 55.168 120.389 54.976 119.645 54.592C118.913 54.196 118.331 53.644 117.899 52.936C117.479 52.228 117.269 51.418 117.269 50.506C117.269 49.594 117.479 48.79 117.899 48.094C118.331 47.386 118.913 46.84 119.645 46.456C120.389 46.072 121.217 45.88 122.129 45.88C122.825 45.88 123.455 45.994 124.019 46.222C124.595 46.45 125.075 46.798 125.459 47.266V45.988H127.601ZM122.471 53.26C123.323 53.26 124.019 53.008 124.559 52.504C125.111 51.988 125.387 51.322 125.387 50.506C125.387 49.702 125.111 49.048 124.559 48.544C124.019 48.04 123.323 47.788 122.471 47.788C121.607 47.788 120.899 48.04 120.347 48.544C119.807 49.048 119.537 49.702 119.537 50.506C119.537 51.322 119.807 51.988 120.347 52.504C120.899 53.008 121.607 53.26 122.471 53.26ZM131.051 42.244H133.301V55.6H131.051V42.244ZM145.783 50.848C145.783 51.004 145.771 51.226 145.747 51.514H138.205C138.337 52.222 138.679 52.786 139.231 53.206C139.795 53.614 140.491 53.818 141.319 53.818C142.375 53.818 143.245 53.47 143.929 52.774L145.135 54.16C144.703 54.676 144.157 55.066 143.497 55.33C142.837 55.594 142.093 55.726 141.265 55.726C140.209 55.726 139.279 55.516 138.475 55.096C137.671 54.676 137.047 54.094 136.603 53.35C136.171 52.594 135.955 51.742 135.955 50.794C135.955 49.858 136.165 49.018 136.585 48.274C137.017 47.518 137.611 46.93 138.367 46.51C139.123 46.09 139.975 45.88 140.923 45.88C141.859 45.88 142.693 46.09 143.425 46.51C144.169 46.918 144.745 47.5 145.153 48.256C145.573 49 145.783 49.864 145.783 50.848ZM140.923 47.68C140.203 47.68 139.591 47.896 139.087 48.328C138.595 48.748 138.295 49.312 138.187 50.02H143.641C143.545 49.324 143.251 48.76 142.759 48.328C142.267 47.896 141.655 47.68 140.923 47.68ZM159.304 43C160.396 43 161.344 43.18 162.148 43.54C162.964 43.9 163.588 44.416 164.02 45.088C164.452 45.76 164.668 46.558 164.668 47.482C164.668 48.394 164.452 49.192 164.02 49.876C163.588 50.548 162.964 51.064 162.148 51.424C161.344 51.784 160.396 51.964 159.304 51.964H156.46V55.6H154.12V43H159.304ZM159.196 49.984C160.216 49.984 160.99 49.768 161.518 49.336C162.046 48.904 162.31 48.286 162.31 47.482C162.31 46.678 162.046 46.06 161.518 45.628C160.99 45.196 160.216 44.98 159.196 44.98H156.46V49.984H159.196ZM167.457 42.244H169.707V55.6H167.457V42.244ZM176.824 45.88C178.24 45.88 179.32 46.222 180.064 46.906C180.82 47.578 181.198 48.598 181.198 49.966V55.6H179.074V54.43C178.798 54.85 178.402 55.174 177.886 55.402C177.382 55.618 176.77 55.726 176.05 55.726C175.33 55.726 174.7 55.606 174.16 55.366C173.62 55.114 173.2 54.772 172.9 54.34C172.612 53.896 172.468 53.398 172.468 52.846C172.468 51.982 172.786 51.292 173.422 50.776C174.07 50.248 175.084 49.984 176.464 49.984H178.948V49.84C178.948 49.168 178.744 48.652 178.336 48.292C177.94 47.932 177.346 47.752 176.554 47.752C176.014 47.752 175.48 47.836 174.952 48.004C174.436 48.172 173.998 48.406 173.638 48.706L172.756 47.068C173.26 46.684 173.866 46.39 174.574 46.186C175.282 45.982 176.032 45.88 176.824 45.88ZM176.518 54.088C177.082 54.088 177.58 53.962 178.012 53.71C178.456 53.446 178.768 53.074 178.948 52.594V51.478H176.626C175.33 51.478 174.682 51.904 174.682 52.756C174.682 53.164 174.844 53.488 175.168 53.728C175.492 53.968 175.942 54.088 176.518 54.088ZM193.403 45.988L188.903 56.374C188.483 57.418 187.973 58.15 187.373 58.57C186.773 59.002 186.047 59.218 185.195 59.218C184.715 59.218 184.241 59.14 183.773 58.984C183.305 58.828 182.921 58.612 182.621 58.336L183.521 56.68C183.737 56.884 183.989 57.046 184.277 57.166C184.577 57.286 184.877 57.346 185.177 57.346C185.573 57.346 185.897 57.244 186.149 57.04C186.413 56.836 186.653 56.494 186.869 56.014L187.031 55.636L182.837 45.988H185.177L188.201 53.098L191.243 45.988H193.403Z" fill="white"/>
<g clip-path="url(#clip0)">
<path fill-rule="evenodd" clip-rule="evenodd" d="M56.7304 37.7964L35.7763 26.3969C35.1821 26.0753 34.6341 26.0005 34.1902 26.1375L51.3536 43.1172L56.7304 37.7964Z" fill="url(#paint0_linear)"/>
<path fill-rule="evenodd" clip-rule="evenodd" d="M56.7579 48.4645L63.9112 44.573C65.3617 43.7811 65.3617 42.4926 63.9112 41.7027L56.7314 37.7966L51.3536 43.1174L56.7579 48.4645Z" fill="url(#paint1_linear)"/>
<path fill-rule="evenodd" clip-rule="evenodd" d="M34.1884 26.1376C33.5511 26.3348 33.1386 26.9732 33.1386 27.939L33.1425 58.3363C33.1425 59.2915 33.5422 59.9201 34.1609 60.13L51.3528 43.1202L34.1884 26.1376Z" fill="url(#paint2_linear)"/>
<path fill-rule="evenodd" clip-rule="evenodd" d="M34.1617 60.1302C34.6085 60.2798 35.1673 60.2099 35.7762 59.8795L56.7548 48.4645L51.3535 43.1204L34.1617 60.1302Z" fill="url(#paint3_linear)"/>
<mask id="mask0" mask-type="alpha" maskUnits="userSpaceOnUse" x="34" y="43" width="23" height="18">
<path fill-rule="evenodd" clip-rule="evenodd" d="M34.1617 60.1302C34.6085 60.2798 35.1673 60.2099 35.7762 59.8795L56.7548 48.4645L51.3535 43.1204L34.1617 60.1302Z" fill="white"/>
</mask>
<g mask="url(#mask0)">
</g>
</g>
<defs>
<linearGradient id="paint0_linear" x1="24.0174" y1="24.3483" x2="30.8588" y2="47.5935" gradientUnits="userSpaceOnUse">
<stop stop-color="#19A3B4"/>
<stop offset="0.348168" stop-color="#5BC3AF"/>
<stop offset="0.922336" stop-color="#C8F7A6"/>
<stop offset="1" stop-color="#D7FEA5"/>
</linearGradient>
<linearGradient id="paint1_linear" x1="33.7596" y1="30.3771" x2="41.6352" y2="56.0814" gradientUnits="userSpaceOnUse">
<stop stop-color="#FC227C"/>
<stop offset="1" stop-color="#FEEB7B"/>
</linearGradient>
<linearGradient id="paint2_linear" x1="29.3677" y1="24.5075" x2="40.9212" y2="54.696" gradientUnits="userSpaceOnUse">
<stop stop-color="#0E4DA0"/>
<stop offset="1" stop-color="#6BFED4"/>
</linearGradient>
<linearGradient id="paint3_linear" x1="51.6312" y1="35.1457" x2="30.057" y2="59.9613" gradientUnits="userSpaceOnUse">
<stop stop-color="#FC472E"/>
<stop offset="0.00331892" stop-color="#FC472F"/>
<stop offset="1" stop-color="#893CD8"/>
</linearGradient>
<clipPath id="clip0">
<rect width="32.32" height="34.6286" fill="white" transform="translate(32.68 26.0457)"/>
</clipPath>
</defs>
</svg>
