<svg width="46" height="46" viewBox="0 0 46 46" fill="none" xmlns="http://www.w3.org/2000/svg">
<g filter="url(#filter0_d)">
<path d="M4 0H27.314C35.4249 0 42 6.57514 42 14.686V38H18.686C10.5751 38 4 31.4249 4 23.314V0Z" fill="#F2F2F2"/>
<g clip-path="url(#clip0)">
<path d="M23 3.7998C18.8707 3.7998 18.3552 3.8188 16.7338 3.891C15.115 3.967 14.013 4.2216 13.044 4.5978C12.0446 4.9854 11.196 5.506 10.3511 6.35087C9.50625 7.19574 8.98438 8.04314 8.59805 9.0438C8.22185 10.0128 7.96598 11.1148 7.89125 12.7336C7.81525 14.3549 7.80005 14.8705 7.80005 18.9998C7.80005 23.1291 7.81905 23.6447 7.89125 25.266C7.96725 26.8835 8.22185 27.9868 8.59805 28.9558C8.97969 29.9702 9.57794 30.8892 10.3511 31.6487C11.1102 32.4225 12.0293 33.0208 13.044 33.4018C14.0143 33.7767 15.1163 34.0339 16.7338 34.1086C18.3552 34.1846 18.8707 34.1998 23 34.1998C27.1294 34.1998 27.6449 34.1808 29.2662 34.1086C30.8838 34.0326 31.987 33.7767 32.956 33.4018C33.9702 33.0197 34.8891 32.4215 35.649 31.6487C36.423 30.8899 37.0213 29.9707 37.4021 28.9558C37.777 27.9868 38.0341 26.8835 38.1088 25.266C38.1848 23.6447 38.2 23.1291 38.2 18.9998C38.2 14.8705 38.181 14.3549 38.1088 12.7336C38.0328 11.1161 37.777 10.0115 37.4021 9.0438C37.0202 8.02948 36.422 7.11053 35.649 6.35087C34.8904 5.57648 33.9712 4.97804 32.956 4.5978C31.987 4.2216 30.8838 3.96574 29.2662 3.891C27.6449 3.815 27.1294 3.7998 23 3.7998ZM23 6.5358C27.0572 6.5358 27.541 6.55607 29.1434 6.62574C30.6254 6.6954 31.4297 6.94114 31.9642 7.1514C32.6761 7.42627 33.1802 7.7556 33.7148 8.28634C34.2455 8.81834 34.5748 9.32374 34.8497 10.0356C35.0574 10.5701 35.3057 11.3745 35.3728 12.8565C35.445 14.4601 35.4615 14.9414 35.4615 18.9998C35.4615 23.0582 35.4425 23.5408 35.3678 25.1431C35.2905 26.6251 35.0435 27.4295 34.8345 27.964C34.5872 28.6236 34.1986 29.2211 33.6958 29.7145C33.2045 30.2178 32.6074 30.6055 31.9478 30.8495C31.4158 31.0572 30.5988 31.3055 29.1168 31.3726C27.503 31.4448 27.028 31.4613 22.962 31.4613C18.8948 31.4613 18.4198 31.4423 16.8073 31.3675C15.324 31.2903 14.507 31.0433 13.975 30.8343C13.315 30.5901 12.7181 30.2009 12.2283 29.6955C11.7199 29.2075 11.3299 28.6096 11.0883 27.9475C10.8793 27.4155 10.6336 26.5985 10.5563 25.1165C10.4993 23.5205 10.479 23.0278 10.479 18.9808C10.479 14.9325 10.4993 14.4385 10.5563 12.8235C10.6336 11.3415 10.8793 10.5258 11.0883 9.9938C11.3543 9.2718 11.695 8.7778 12.2283 8.24454C12.759 7.7138 13.2543 7.3718 13.975 7.10707C14.507 6.8968 15.3063 6.6498 16.7883 6.5738C18.4033 6.5168 18.8783 6.4978 22.943 6.4978L23 6.5358ZM23 11.1946C21.9751 11.1946 20.9601 11.3965 20.0131 11.7887C19.0662 12.181 18.2057 12.7559 17.4809 13.4807C16.7562 14.2055 16.1812 15.0659 15.789 16.0129C15.3967 16.9599 15.1948 17.9748 15.1948 18.9998C15.1948 20.0248 15.3967 21.0398 15.789 21.9867C16.1812 22.9337 16.7562 23.7941 17.4809 24.5189C18.2057 25.2437 19.0662 25.8186 20.0131 26.2109C20.9601 26.6031 21.9751 26.805 23 26.805C25.0701 26.805 27.0554 25.9827 28.5192 24.5189C29.9829 23.0552 30.8053 21.0699 30.8053 18.9998C30.8053 16.9297 29.9829 14.9445 28.5192 13.4807C27.0554 12.0169 25.0701 11.1946 23 11.1946ZM23 24.0665C20.2007 24.0665 17.9334 21.7991 17.9334 18.9998C17.9334 16.2005 20.2007 13.9331 23 13.9331C25.7994 13.9331 28.0667 16.2005 28.0667 18.9998C28.0667 21.7991 25.7994 24.0665 23 24.0665ZM32.9383 10.8868C32.9207 11.3588 32.7209 11.8056 32.3807 12.1333C32.0406 12.461 31.5866 12.6441 31.1143 12.6441C30.642 12.6441 30.1881 12.461 29.8479 12.1333C29.5078 11.8056 29.3079 11.3588 29.2903 10.8868C29.2903 10.403 29.4825 9.93911 29.8246 9.59704C30.1666 9.25498 30.6306 9.0628 31.1143 9.0628C31.5981 9.0628 32.062 9.25498 32.4041 9.59704C32.7461 9.93911 32.9383 10.403 32.9383 10.8868Z" fill="url(#paint0_linear)"/>
</g>
</g>
<defs>
<filter id="filter0_d" x="0" y="0" width="46" height="46" filterUnits="userSpaceOnUse" color-interpolation-filters="sRGB">
<feFlood flood-opacity="0" result="BackgroundImageFix"/>
<feColorMatrix in="SourceAlpha" type="matrix" values="0 0 0 0 0 0 0 0 0 0 0 0 0 0 0 0 0 0 127 0"/>
<feOffset dy="4"/>
<feGaussianBlur stdDeviation="2"/>
<feColorMatrix type="matrix" values="0 0 0 0 0 0 0 0 0 0 0 0 0 0 0 0 0 0 0.25 0"/>
<feBlend mode="normal" in2="BackgroundImageFix" result="effect1_dropShadow"/>
<feBlend mode="normal" in="SourceGraphic" in2="effect1_dropShadow" result="shape"/>
</filter>
<linearGradient id="paint0_linear" x1="7.39199" y1="11.4922" x2="11.727" y2="35.625" gradientUnits="userSpaceOnUse">
<stop offset="0.252" stop-color="#0064B2"/>
<stop offset="1" stop-color="#00477F"/>
</linearGradient>
<clipPath id="clip0">
<rect width="30.4" height="30.4" fill="white" transform="translate(7.80005 3.7998)"/>
</clipPath>
</defs>
</svg>
