<svg width="139" height="33" viewBox="0 0 139 33" fill="none" xmlns="http://www.w3.org/2000/svg">
<g clip-path="url(#clip0)">
<path fill-rule="evenodd" clip-rule="evenodd" d="M59.3333 4.5907C61.2735 4.5907 63.052 5.39177 64.2914 6.62014C65.5849 7.90187 66.3397 9.61084 66.3397 11.5335C66.3397 11.6937 66.3397 11.8539 66.3397 11.9607C66.3397 12.0141 66.3397 12.1209 66.3397 12.1743V17.3547C66.3397 18.3694 65.5313 19.1705 64.5072 19.1705C63.5911 19.1705 62.8363 18.4762 62.6746 17.6217C61.6509 18.1558 60.5191 18.4762 59.2792 18.4762C57.339 18.4762 55.5605 17.6751 54.3211 16.4468C53.0276 15.165 52.2732 13.4561 52.2732 11.5335C52.2732 9.61084 53.0816 7.84845 54.3211 6.62014C55.6145 5.39177 57.3931 4.5907 59.3333 4.5907ZM80.1364 7.10079C80.1364 6.08606 80.9449 5.28497 81.969 5.28497C82.9932 5.28497 83.8016 6.08606 83.8016 7.10079V11.8539C83.8552 11.9607 83.8552 12.1209 83.8552 12.2277C83.8552 12.388 83.8552 12.5482 83.8552 12.655C83.9633 13.4026 84.2867 14.0435 84.8253 14.5776C85.4185 15.165 86.2804 15.5389 87.197 15.5389C88.113 15.5389 88.9755 15.165 89.5682 14.5242C90.2149 13.8833 90.5923 12.8686 90.5923 11.7471V7.15416C90.5923 6.13948 91.4008 5.3384 92.4244 5.3384C93.4486 5.3384 94.257 6.13948 94.257 7.15416V11.7471C94.257 11.8005 94.257 11.9073 94.257 11.9607C94.257 12.0141 94.257 12.0675 94.257 12.1743V17.3547C94.257 18.3694 93.4486 19.1705 92.4244 19.1705C91.7241 19.1705 91.0774 18.7967 90.8076 18.2092C89.7299 18.85 88.544 19.1705 87.2505 19.1705C85.3103 19.1705 83.5318 18.3694 82.2924 17.1411C82.2383 17.0876 82.1307 16.9808 82.0767 16.9274C82.0231 16.9808 81.915 17.0876 81.8614 17.1411C80.5679 18.4228 78.843 19.1705 76.9028 19.1705C74.9626 19.1705 73.184 18.3694 71.8906 17.0343C70.6511 15.6991 69.8427 13.8833 69.8427 11.7471V7.15416C69.8427 6.13948 70.6511 5.3384 71.6753 5.3384C72.699 5.3384 73.5074 6.13948 73.5074 7.15416V11.7471C73.5074 12.922 73.8848 13.8833 74.5316 14.5242C75.1242 15.165 75.9327 15.5389 76.9028 15.5389C77.8193 15.5389 78.6813 15.165 79.2745 14.5776C79.7595 14.0969 80.1364 13.4026 80.2446 12.655C80.2446 12.4948 80.2446 12.388 80.2446 12.2277V7.10079H80.1364ZM39.8772 10.4654H46.6141V7.10079C46.6141 6.08606 47.4225 5.28497 48.4464 5.28497C49.4705 5.28497 50.279 6.08606 50.279 7.10079V12.0675C50.279 12.1209 50.279 12.2277 50.279 12.2811C50.279 12.3345 50.279 12.4413 50.279 12.4948V17.4615C50.279 18.4762 49.4705 19.2773 48.4464 19.2773C47.4225 19.2773 46.6141 18.4762 46.6141 17.4615V14.0969H39.8772V17.4615C39.8772 18.4762 39.0688 19.2773 38.0448 19.2773C37.0208 19.2773 36.2124 18.4762 36.2124 17.4615V7.10079C36.2124 6.08606 37.0208 5.28497 38.0448 5.28497C39.0688 5.28497 39.8772 6.08606 39.8772 7.10079V10.4654ZM61.7045 9.23699C61.1118 8.64954 60.2493 8.27568 59.3333 8.27568C58.4172 8.27568 57.5547 8.64954 56.9621 9.23699C56.3689 9.82448 55.992 10.6789 55.992 11.5869C55.992 12.4948 56.3689 13.3493 56.9621 13.9367C57.5547 14.5242 58.4172 14.898 59.3333 14.898C60.2493 14.898 61.1118 14.5242 61.7045 13.9367C62.2976 13.3493 62.6746 12.4948 62.6746 11.5869C62.7286 10.6789 62.3512 9.82448 61.7045 9.23699Z" fill="#00477F"/>
<path fill-rule="evenodd" clip-rule="evenodd" d="M120.773 4.5907C122.713 4.5907 124.492 5.39177 125.731 6.62014C127.025 7.90187 127.78 9.61084 127.78 11.5335C127.78 11.6937 127.78 11.8539 127.78 11.9607C127.78 12.0141 127.78 12.1209 127.78 12.1743V17.3547C127.78 18.3694 126.971 19.1705 125.947 19.1705C125.031 19.1705 124.276 18.4762 124.114 17.6217C123.091 18.1558 121.959 18.4762 120.719 18.4762C118.779 18.4762 117 17.6751 115.761 16.4468C114.467 15.165 113.713 13.4561 113.713 11.5335C113.713 9.61084 114.521 7.84845 115.761 6.62014C117.054 5.39177 118.833 4.5907 120.773 4.5907ZM107.892 7.10079C107.892 6.08606 108.701 5.28497 109.725 5.28497C110.749 5.28497 111.557 6.08606 111.557 7.10079V9.29041V17.4615C111.557 18.4762 110.749 19.2773 109.725 19.2773C108.701 19.2773 107.892 18.4762 107.892 17.4615V15.4321C106.868 15.9661 105.736 16.2866 104.497 16.2866C102.557 16.2866 100.778 15.4855 99.4849 14.1504C98.245 12.8152 97.4906 10.9994 97.4906 8.86318V7.10079C97.4906 6.08606 98.299 5.28497 99.3232 5.28497C100.347 5.28497 101.155 6.08606 101.155 7.10079V8.86318C101.155 10.0381 101.533 10.9994 102.179 11.6402C102.772 12.2811 103.581 12.655 104.551 12.655C105.467 12.655 106.329 12.2811 106.922 11.6937C107.515 11.1062 107.892 10.2517 107.892 9.34383V7.10079ZM134.678 8.91655H136.834C137.858 8.91655 138.666 8.11547 138.666 7.10079C138.666 6.08606 137.858 5.28497 136.834 5.28497H132.845H128.857C127.833 5.28497 127.025 6.08606 127.025 7.10079C127.025 8.11547 127.833 8.91655 128.857 8.91655H131.013V17.4081C131.013 18.4228 131.822 19.2239 132.845 19.2239C133.87 19.2239 134.678 18.4228 134.678 17.4081V8.91655ZM123.144 9.23699C122.552 8.64954 121.689 8.27568 120.773 8.27568C119.857 8.27568 118.995 8.64954 118.402 9.23699C117.809 9.82448 117.432 10.6789 117.432 11.5869C117.432 12.4948 117.809 13.3493 118.402 13.9367C118.995 14.5242 119.857 14.898 120.773 14.898C121.689 14.898 122.552 14.5242 123.144 13.9367C123.737 13.3493 124.114 12.4948 124.114 11.5869C124.168 10.6789 123.791 9.82448 123.144 9.23699Z" fill="#00477F"/>
<path fill-rule="evenodd" clip-rule="evenodd" d="M40.4163 24.2971C40.2546 24.2971 40.2007 24.3506 40.2007 24.5108V26.7004H36.9132V24.5108C36.9132 24.404 36.8592 24.2971 36.6976 24.2971H36.3203C36.1586 24.2971 36.1047 24.3506 36.1047 24.5108V29.7445C36.1047 29.8514 36.1586 29.9582 36.3203 29.9582H36.6976C36.8592 29.9582 36.9132 29.9047 36.9132 29.7445V27.3947H40.2007V29.7445C40.2007 29.8514 40.2546 29.9582 40.4163 29.9582H40.7936C40.9553 29.9582 41.0092 29.9047 41.0092 29.7445V24.5108C41.0092 24.404 40.9553 24.2971 40.7936 24.2971H40.4163ZM42.5182 25.3119C42.4643 25.4187 42.4643 25.5255 42.626 25.5789L42.8955 25.6857C43.0032 25.7391 43.1111 25.6857 43.1649 25.5789C43.4883 25.0448 43.9733 24.7778 44.7279 24.7778C45.8596 24.7778 46.2369 25.3119 46.2369 26.2732V26.7538C45.5363 26.7004 45.0513 26.647 44.7818 26.647C43.0032 26.647 42.3026 27.1277 42.3026 28.356C42.3026 28.9434 42.4643 29.3707 42.8416 29.6377C43.1649 29.9047 43.8117 30.065 44.7818 30.065C45.5902 30.065 46.1831 29.9582 46.6681 29.7979C46.9915 29.6911 47.0992 29.5309 47.0992 29.1571V26.2732C47.0992 24.938 46.5064 24.0835 44.8357 24.0835C43.7039 24.1369 42.9493 24.5108 42.5182 25.3119ZM46.2908 28.9969C46.2908 29.2105 46.2369 29.2639 46.0752 29.3173C45.7519 29.4241 45.2668 29.4775 44.7279 29.4775C43.4883 29.4775 43.111 29.1037 43.111 28.4094C43.111 27.6617 43.5422 27.3413 44.7279 27.3413C45.1051 27.3413 45.5902 27.3947 46.2908 27.4481V28.9969ZM55.1835 24.2971C55.0218 24.2971 54.9678 24.3506 54.9678 24.5108V29.2639H52.5425V24.5108C52.5425 24.404 52.4889 24.2971 52.3272 24.2971H52.0039C51.8422 24.2971 51.7881 24.3506 51.7881 24.5108V29.2639H49.3629V24.5108C49.3629 24.404 49.3088 24.2971 49.1471 24.2971H48.7702C48.6085 24.2971 48.5545 24.3506 48.5545 24.5108V29.7445C48.5545 29.8514 48.6085 29.9582 48.7702 29.9582H55.4528C55.6145 29.9582 55.6686 29.9047 55.6686 29.7445V24.5108C55.6686 24.3506 55.6145 24.2971 55.4528 24.2971H55.1835ZM57.6088 24.2971C57.4471 24.2971 57.393 24.3506 57.393 24.5108V29.7445C57.393 29.8514 57.4471 29.9582 57.6088 29.9582H57.9862C58.0938 29.9582 58.1479 29.9047 58.2014 29.8514L61.0041 26.2732C61.3275 25.8459 61.5432 25.5255 61.6509 25.3653H61.7049C61.5968 25.8993 61.5432 26.3266 61.5432 26.7004V29.7979C61.5432 29.9047 61.5968 30.0116 61.7585 30.0116H62.1359C62.2976 30.0116 62.3517 29.9582 62.3517 29.7979V24.5108C62.3517 24.404 62.2976 24.2971 62.1359 24.2971H61.7585C61.7049 24.2971 61.5968 24.3506 61.5432 24.404L58.6865 28.0356C58.4712 28.356 58.2555 28.623 58.0938 28.9434C58.1479 28.5162 58.2014 28.089 58.2014 27.6617V24.5108C58.2014 24.404 58.1479 24.2971 57.9862 24.2971H57.6088ZM69.0343 25.5789C68.9807 25.7391 69.0343 25.8459 69.196 25.8459L69.4658 25.9527C69.6274 26.0062 69.681 25.9527 69.7351 25.7925C69.7891 25.6323 69.8967 25.4721 70.1125 25.2051C70.3818 24.938 70.8668 24.7778 71.4595 24.7778C72.4837 24.7778 72.9687 25.2051 72.9687 25.7925C72.9687 26.38 72.5913 26.7004 71.891 26.7004H70.7052C70.5435 26.7004 70.4894 26.7538 70.4894 26.914V27.181C70.4894 27.3413 70.5435 27.3947 70.7052 27.3947H71.9446C72.6994 27.3947 73.0764 27.7151 73.0764 28.356C73.0764 28.9969 72.5913 29.4241 71.5136 29.4241C70.5975 29.4241 70.0044 29.0503 69.681 28.356C69.6274 28.2492 69.5193 28.1958 69.4117 28.1958L69.1424 28.3026C68.9807 28.356 68.9266 28.4094 68.9807 28.5696C69.0883 28.8366 69.25 29.1037 69.6274 29.4775C70.0044 29.8514 70.7052 30.065 71.5676 30.065C73.1845 30.065 73.9389 29.4241 73.9389 28.4094C73.9389 27.6617 73.6155 27.2345 73.0228 27.0208V26.9675C73.5614 26.8072 73.8312 26.38 73.8312 25.7391C73.8312 24.7778 73.0764 24.1369 71.5676 24.1369C69.7891 24.1369 69.1424 25.2584 69.0343 25.5789ZM75.0706 25.3119C75.0166 25.4721 75.0166 25.5255 75.1783 25.5789L75.4481 25.6857C75.5557 25.7391 75.6633 25.6857 75.7174 25.5789C76.0407 25.0448 76.5258 24.7778 77.2802 24.7778C78.4119 24.7778 78.7894 25.3119 78.7894 26.2732V26.7538C78.0886 26.7004 77.6035 26.647 77.3342 26.647C75.5557 26.647 74.8549 27.1277 74.8549 28.356C74.8549 28.9434 75.0166 29.3707 75.394 29.6377C75.7174 29.9047 76.3641 30.065 77.3342 30.065C78.1426 30.065 78.7353 29.9582 79.2204 29.7979C79.5437 29.6911 79.6518 29.5309 79.6518 29.1571V26.2732C79.6518 24.938 79.0587 24.0835 77.3883 24.0835C76.2565 24.1369 75.5016 24.5108 75.0706 25.3119ZM78.8434 28.9969C78.8434 29.2105 78.7894 29.2639 78.6277 29.3173C78.3043 29.4241 77.8193 29.4775 77.2802 29.4775C76.0407 29.4775 75.6633 29.1037 75.6633 28.4094C75.6633 27.6617 76.0948 27.3413 77.2802 27.3413C77.6576 27.3413 78.1426 27.3947 78.8434 27.4481V28.9969ZM86.7119 24.2971C86.5502 24.2971 86.4961 24.3506 86.4961 24.5108V29.7445C86.4961 29.8514 86.5502 29.9582 86.7119 29.9582H87.0893C87.251 29.9582 87.3046 29.9047 87.3046 29.7445V24.9914H90.2149C90.3766 24.9914 90.4306 24.938 90.4306 24.7778V24.5108C90.4306 24.3506 90.3766 24.2971 90.2149 24.2971H86.7119ZM91.8858 24.4574C91.5084 24.6176 91.4548 24.7244 91.4548 25.0448V32.0944C91.4548 32.2012 91.5084 32.308 91.67 32.308H92.0475C92.2091 32.308 92.2632 32.2546 92.2632 32.0944V29.6912C92.9099 29.9582 93.4486 30.065 93.9336 30.065C95.4969 30.065 96.2512 29.3173 96.2512 27.8753V26.3266C96.2512 24.8846 95.4969 24.1369 93.88 24.1369C93.0716 24.1369 92.4249 24.2438 91.8858 24.4574ZM95.4428 27.8753C95.4428 28.8901 94.9037 29.4241 93.826 29.4241C93.2869 29.4241 92.7483 29.3173 92.2091 29.0503V25.3653C92.2091 25.2051 92.2091 25.1516 92.4249 25.0448C92.8018 24.8846 93.2869 24.8312 93.7719 24.8312C94.9037 24.8312 95.4428 25.3653 95.4428 26.38V27.8753ZM97.5447 25.3119C97.4907 25.4721 97.4907 25.5255 97.6523 25.5789L97.9221 25.6857C98.0298 25.7391 98.1374 25.6857 98.1915 25.5789C98.5148 25.0448 98.9999 24.7778 99.7542 24.7778C100.886 24.7778 101.263 25.3119 101.263 26.2732V26.7538C100.563 26.7004 100.078 26.647 99.8083 26.647C98.0298 26.647 97.329 27.1277 97.329 28.356C97.329 28.9434 97.4907 29.3707 97.8681 29.6377C98.1914 29.9047 98.8382 30.065 99.8083 30.065C100.617 30.065 101.209 29.9582 101.694 29.7979C102.018 29.6911 102.126 29.5309 102.126 29.1571V26.2732C102.126 24.938 101.533 24.0835 99.8623 24.0835C98.7306 24.1369 97.9757 24.5108 97.5447 25.3119ZM101.318 28.9969C101.318 29.2105 101.263 29.2639 101.102 29.3173C100.778 29.4241 100.293 29.4775 99.7542 29.4775C98.5148 29.4775 98.1374 29.1037 98.1374 28.4094C98.1374 27.6617 98.5689 27.3413 99.7542 27.3413C100.132 27.3413 100.617 27.3947 101.318 27.4481V28.9969ZM107.892 24.2971C107.731 24.2971 107.677 24.3506 107.677 24.5108V26.7004H104.443V24.5108C104.443 24.404 104.389 24.2971 104.228 24.2971H103.85C103.689 24.2971 103.635 24.3506 103.635 24.5108V29.7445C103.635 29.8514 103.689 29.9582 103.85 29.9582H104.228C104.389 29.9582 104.443 29.9047 104.443 29.7445V27.3947H107.731V29.7445C107.731 29.8514 107.785 29.9582 107.947 29.9582H108.323C108.485 29.9582 108.539 29.9047 108.539 29.7445V24.5108C108.539 24.404 108.485 24.2971 108.323 24.2971H107.892ZM110.318 24.2971C110.156 24.2971 110.102 24.3506 110.102 24.5108V29.7445C110.102 29.8514 110.156 29.9582 110.318 29.9582H110.695C110.803 29.9582 110.857 29.9047 110.91 29.8514L113.713 26.2732C114.036 25.8459 114.252 25.5255 114.36 25.3653H114.414C114.306 25.8993 114.252 26.3266 114.252 26.7004V29.7979C114.252 29.9047 114.306 30.0116 114.467 30.0116H114.845C115.007 30.0116 115.061 29.9582 115.061 29.7979V24.5108C115.061 24.404 115.007 24.2971 114.845 24.2971H114.467C114.414 24.2971 114.306 24.3506 114.252 24.404L111.395 28.0356C111.18 28.356 110.964 28.623 110.803 28.9434C110.857 28.5162 110.91 28.089 110.91 27.6617V24.5108C110.91 24.404 110.857 24.2971 110.695 24.2971H110.318ZM121.312 29.2639V24.5108C121.312 24.404 121.258 24.2971 121.097 24.2971H120.773C120.611 24.2971 120.558 24.3506 120.558 24.5108V29.2639H117.378V24.5108C117.378 24.404 117.324 24.2971 117.163 24.2971H116.839C116.677 24.2971 116.623 24.3506 116.623 24.5108V29.7445C116.623 29.8514 116.677 29.9582 116.839 29.9582H121.42V31.2933C121.42 31.4001 121.474 31.5069 121.636 31.5069H121.959C122.121 31.5069 122.175 31.4535 122.175 31.2933V29.4775C122.175 29.3173 122.121 29.2639 121.959 29.2639H121.312ZM123.037 27.8753C123.037 29.2639 123.845 30.065 125.462 30.065C126.648 30.065 127.402 29.6912 127.887 28.8901C127.995 28.7298 127.941 28.623 127.834 28.5696L127.618 28.4628C127.51 28.4094 127.402 28.4094 127.295 28.5162C126.971 29.1037 126.379 29.4241 125.516 29.4241C124.438 29.4241 123.845 28.8901 123.845 27.9288V27.2879H127.726C127.941 27.2879 128.049 27.181 128.049 26.9675V26.38C128.049 24.9914 127.187 24.1369 125.57 24.1369C123.953 24.1369 123.091 24.9914 123.091 26.4334V27.8753H123.037ZM127.295 26.7538H123.792V26.38C123.792 25.3653 124.384 24.7778 125.516 24.7778C126.648 24.7778 127.241 25.3653 127.241 26.38V26.7538H127.295ZM133.6 22.3212C133.654 22.2143 133.6 22.1609 133.493 22.1609L133.169 22.0541C133.115 22.0007 133.008 22.0541 133.008 22.1075C132.846 22.695 132.468 22.962 131.876 22.962C131.283 22.962 130.906 22.695 130.744 22.1075C130.69 22.0541 130.636 22.0007 130.528 22.0541L130.259 22.1609C130.151 22.2143 130.151 22.2677 130.151 22.3212C130.367 23.1222 130.959 23.496 131.876 23.496C132.792 23.496 133.331 23.1222 133.6 22.3212ZM129.612 24.2971C129.451 24.2971 129.396 24.3506 129.396 24.5108V29.7445C129.396 29.8514 129.451 29.9582 129.612 29.9582H129.989C130.097 29.9582 130.151 29.9047 130.205 29.8514L133.008 26.2732C133.331 25.8459 133.546 25.5255 133.654 25.3653H133.708C133.6 25.8993 133.546 26.3266 133.546 26.7004V29.7979C133.546 29.9047 133.6 30.0116 133.762 30.0116H134.139C134.301 30.0116 134.355 29.9582 134.355 29.7979V24.5108C134.355 24.404 134.301 24.2971 134.139 24.2971H133.762C133.708 24.2971 133.6 24.3506 133.546 24.404L130.69 28.0356C130.474 28.356 130.259 28.623 130.097 28.9434C130.151 28.5162 130.205 28.089 130.205 27.6617V24.5108C130.205 24.404 130.151 24.2971 129.989 24.2971H129.612Z" fill="#00477F"/>
<path fill-rule="evenodd" clip-rule="evenodd" d="M17.4205 0.913346C25.8107 1.61698 32.0311 8.8637 31.3142 17.0999C31.3139 17.1038 31.3133 17.1111 31.3131 17.1148C31.1474 19.0168 30.6093 20.8732 29.734 22.5765L30.1389 29.5119C29.2047 29.3616 25.4188 29.3488 23.6098 28.8637C20.9504 30.3395 17.8922 30.9956 14.8463 30.7402C14.8409 30.7397 14.8298 30.7389 14.8242 30.7383C6.43402 30.0347 0.21384 22.7882 0.930755 14.5521C1.64767 6.31586 9.03013 0.209712 17.4205 0.913346Z" fill="url(#paint0_linear)"/>
<g filter="url(#filter0_d)">
<path d="M17.4928 0.0581469C21.9269 0.430061 25.7892 2.53292 28.4493 5.63205C31.1088 8.73046 32.5645 12.8215 32.1861 17.1705L32.1846 17.1854C32.0977 18.1877 31.9114 19.1805 31.6316 20.149C31.3735 21.0419 30.499 22.7954 30.0844 23.6332L30.508 29.1006C30.5381 29.5729 30.4741 29.9541 29.9929 29.9837C29.9135 29.9885 29.8358 29.9827 29.7614 29.9677C29.1247 29.865 27.9483 29.6411 26.3427 29.332C25.5111 29.1719 24.7012 29.059 24.1643 29.3419C22.8425 30.0382 20.9991 30.9814 19.5565 31.2903C17.9948 31.6246 16.3827 31.7305 14.7752 31.5957L14.7531 31.594C10.3189 31.222 6.4565 29.1192 3.79648 26.0202C1.13705 22.9219 -0.318524 18.8308 0.0598778 14.4818C0.438642 10.1291 2.58108 6.33763 5.73819 3.72635C8.8946 1.11566 13.0623 -0.313194 17.4928 0.0581469ZM27.1167 6.73234C24.7484 3.97318 21.3055 2.1007 17.3492 1.76887C13.3896 1.43693 9.67053 2.70919 6.85892 5.03461C4.04813 7.35929 2.14061 10.7391 1.80256 14.6226C1.4643 18.5095 2.76037 22.1603 5.1291 24.92C7.49731 27.6789 10.9403 29.5514 14.8964 29.8832L14.9185 29.885C16.3557 30.0055 17.7948 29.9111 19.1874 29.613C20.5766 29.3156 21.9154 28.819 23.1555 28.1343C23.3531 28.0157 24.1473 27.6113 24.3885 27.6758C25.0109 27.8426 28.3496 28.3608 29.3337 28.5503L28.5463 23.2159C28.5373 23.0689 28.8828 22.332 28.9554 22.191C29.3675 21.3886 29.7008 20.5492 29.9503 19.6862C30.1985 18.8273 30.3639 17.9424 30.442 17.0446L30.4433 17.0297C30.7815 13.1428 29.4854 9.49204 27.1167 6.73234Z" fill="white"/>
</g>
<path fill-rule="evenodd" clip-rule="evenodd" d="M27.0731 18.7854C27.0731 23.4413 23.0669 27.2157 18.1252 27.2157C17.2526 27.2157 16.3895 27.2157 15.5169 27.2157C10.5751 27.2157 6.569 23.4413 6.569 18.7854C6.569 16.4749 7.34807 14.6154 8.60153 13.2058C7.4348 12.9726 6.57981 11.8769 6.53516 10.5615C6.36561 5.5784 13.5906 4.2439 13.7898 9.43476C13.8011 9.72793 13.7634 10.0103 13.6853 10.2746C15.7153 9.76782 17.927 9.76815 19.9571 10.2759C19.8787 10.0112 19.8409 9.72855 19.8522 9.43476C20.0514 4.24388 27.2764 5.5784 27.1069 10.5615C27.0621 11.8781 26.2057 12.9745 25.0375 13.2064C26.292 14.616 27.073 16.4748 27.073 18.7854H27.0731ZM25.1878 20.4815C25.1878 27.7679 8.45433 27.7967 8.45433 20.4815C8.45433 18.6965 9.63298 17.3854 11.3647 16.548C11.2525 16.2494 11.1906 15.9258 11.1906 15.5758C11.1906 13.7014 13.3908 12.182 16.1048 12.182C16.584 12.182 17.0579 12.182 17.5374 12.182C20.2514 12.182 22.4517 13.7014 22.4517 15.5758C22.4517 15.9259 22.3894 16.2496 22.2772 16.5484C24.009 17.3859 25.1878 18.697 25.1878 20.4815ZM12.7172 10.0096C12.7251 10.2109 12.6982 10.4046 12.6424 10.5851C11.3969 11.0209 10.2521 11.6639 9.2989 12.5113C8.51659 12.3647 7.94138 11.6343 7.91155 10.7561C7.79924 7.4549 12.5853 6.57074 12.7172 10.0096V10.0096ZM20.9247 10.0096C20.917 10.2113 20.9441 10.4051 20.9999 10.5859C22.2451 11.0217 23.3892 11.6646 24.3421 12.5115C25.1249 12.3654 25.7007 11.6347 25.7305 10.7561C25.8428 7.45495 21.0567 6.57079 20.9247 10.0096Z" fill="black" fill-opacity="0.2"/>
<path fill-rule="evenodd" clip-rule="evenodd" d="M21.7183 20.1016C21.7183 22.2237 19.8048 23.9438 17.4441 23.9438C17.0272 23.9438 16.615 23.9438 16.1982 23.9438C13.8376 23.9438 11.924 22.2237 11.924 20.1016C11.924 14.6966 21.7183 14.6986 21.7183 20.1016H21.7183ZM18.3414 17.2971C18.3414 17.7185 17.8272 18.0656 17.1654 18.112C16.9583 18.2166 16.8149 18.4439 16.8149 18.7075C16.8149 18.8306 16.763 18.8175 16.763 18.7075C16.763 18.4378 16.6128 18.2062 16.3983 18.1049C15.7749 18.0377 15.301 17.7017 15.301 17.2971C15.301 16.1437 18.3414 16.1441 18.3414 17.2971ZM19.622 18.0713C19.6799 18.1194 19.6868 18.2047 19.6377 18.2615C19.5886 18.3182 19.5018 18.3251 19.4439 18.2769C19.4255 18.2615 19.4104 18.2457 19.3934 18.228L19.3248 18.1567C19.2959 18.1537 19.3741 18.1782 19.3686 18.2292C19.2919 18.9264 18.9847 19.4492 18.5656 19.8102C18.0736 20.2339 17.4277 20.4318 16.8211 20.4258C16.2146 20.4318 15.5686 20.2339 15.0766 19.8102C14.6576 19.4492 14.3503 18.9263 14.2737 18.2292C14.2681 18.1782 14.3464 18.1537 14.3175 18.1567L14.2488 18.228C14.2319 18.2457 14.2169 18.2615 14.1983 18.2769C14.1405 18.3251 14.0536 18.3182 14.0045 18.2615C13.9554 18.2047 13.9624 18.1194 14.0201 18.0713L14.0468 18.0435C14.1046 17.9828 14.1846 17.8985 14.2883 17.8876C14.4146 17.8742 14.5198 17.9445 14.5479 18.2006C14.6162 18.8233 14.8879 19.288 15.2581 19.6066C15.6971 19.9846 16.2757 20.1611 16.82 20.1556H16.8222C17.3666 20.1611 17.9452 19.9846 18.3841 19.6066C18.7543 19.288 19.0259 18.8233 19.0944 18.2006C19.1224 17.9445 19.2277 17.8742 19.3539 17.8876C19.4577 17.8985 19.5376 17.9828 19.5954 18.0435L19.622 18.0713H19.622Z" fill="black" fill-opacity="0.2"/>
<path fill-rule="evenodd" clip-rule="evenodd" d="M14.7877 15.8349C14.7877 16.0629 14.7122 16.2687 14.5908 16.4141C14.2508 16.4273 13.9126 16.4433 13.5768 16.4625C13.4298 16.3161 13.3356 16.0894 13.3356 15.8349C13.3356 14.7104 14.7878 14.7108 14.7878 15.8349H14.7877Z" fill="black" fill-opacity="0.2"/>
<path fill-rule="evenodd" clip-rule="evenodd" d="M14.7066 16.7175C14.0864 16.7404 13.4667 16.7729 12.8478 16.8174L12.6152 16.8342L12.5322 16.6203C12.4374 16.3763 12.3914 16.115 12.3914 15.8541C12.3914 13.3474 15.7311 13.3481 15.7311 15.8541C15.7311 15.9922 15.7182 16.1301 15.6921 16.2658L15.6541 16.4628L15.455 16.5081C15.2339 16.5584 15.0159 16.6219 14.8029 16.6987L14.7563 16.7156L14.7065 16.7175H14.7066ZM14.6719 16.2955C14.8714 16.2241 15.075 16.1637 15.2811 16.114C15.294 16.028 15.3003 15.9411 15.3003 15.8541C15.3003 13.9062 12.8223 13.9057 12.8223 15.8541C12.8223 16.0352 12.8495 16.2167 12.906 16.3892C13.494 16.3482 14.0828 16.3173 14.6719 16.2954V16.2955ZM21.2509 15.8541C21.2509 16.115 21.2047 16.3765 21.1098 16.6206L21.0269 16.8345L20.7943 16.8177C20.1752 16.7731 19.5553 16.7406 18.935 16.7176L18.8854 16.7158L18.8386 16.699C18.6258 16.6222 18.4082 16.5586 18.1873 16.5085L17.9882 16.4632L17.9502 16.266C17.9241 16.1303 17.9111 15.9923 17.9111 15.8541C17.9111 13.3474 21.2508 13.3481 21.2508 15.8541L21.2509 15.8541ZM18.3612 16.1144C18.5671 16.164 18.7705 16.2243 18.9697 16.2956C19.5589 16.3174 20.1479 16.3485 20.736 16.3895C20.7928 16.217 20.8201 16.0353 20.8201 15.8541C20.8201 13.9062 18.342 13.9057 18.342 15.8541C18.342 15.9412 18.3484 16.0281 18.3612 16.1144Z" fill="black" fill-opacity="0.2"/>
<path fill-rule="evenodd" clip-rule="evenodd" d="M20.3076 15.8349C20.3076 16.0895 20.2132 16.3163 20.0662 16.4627C19.7305 16.4434 19.3923 16.4275 19.0524 16.4143C18.931 16.2687 18.8553 16.0629 18.8553 15.8349C18.8553 14.7104 20.3076 14.7108 20.3076 15.8349Z" fill="black" fill-opacity="0.2"/>
<path fill-rule="evenodd" clip-rule="evenodd" d="M26.5695 18.2888C26.5695 22.9447 22.5633 26.7189 17.6217 26.7189C16.749 26.7189 15.886 26.7189 15.0133 26.7189C10.0717 26.7189 6.06558 22.9447 6.06558 18.2888C6.06558 15.9781 6.84466 14.1187 8.09797 12.7091C6.93139 12.4758 6.07639 11.3802 6.03175 10.0649C5.8622 5.08173 13.0871 3.74714 13.2862 8.93809C13.2975 9.23127 13.26 9.51363 13.1818 9.77787C15.212 9.27115 17.4236 9.27139 19.4537 9.77926C19.3753 9.51444 19.3376 9.23189 19.3488 8.93809C19.5479 3.74711 26.7729 5.08173 26.6033 10.0649C26.5587 11.3814 25.7023 12.4778 24.5341 12.7097C25.7885 14.1193 26.5695 15.9781 26.5695 18.2888H26.5695ZM24.6843 19.9849C24.6843 27.2713 7.95077 27.3001 7.95086 19.9849C7.95086 18.1997 9.12952 16.8887 10.8612 16.0513C10.749 15.7526 10.6871 15.4291 10.6871 15.0792C10.6871 13.2048 12.8872 11.6854 15.6013 11.6854C16.0806 11.6854 16.5545 11.6854 17.0339 11.6854C19.7479 11.6854 21.9481 13.2048 21.9481 15.0792C21.9481 15.4292 21.886 15.753 21.7736 16.0518C23.5054 16.8893 24.6843 18.2003 24.6843 19.9849ZM12.2138 9.51296C12.2215 9.71426 12.1946 9.90791 12.139 10.0885C10.8935 10.5242 9.74864 11.1672 8.79534 12.0146C8.01303 11.8681 7.43791 11.1376 7.40799 10.2594C7.29568 6.95814 12.0819 6.07412 12.2138 9.51291V9.51296ZM20.4212 9.51296C20.4136 9.71465 20.4406 9.90839 20.4964 10.0893C21.7415 10.525 22.8857 11.168 23.8387 12.0148C24.6214 11.8688 25.1971 11.138 25.227 10.2594C25.3394 6.95819 20.5531 6.07412 20.4212 9.51296Z" fill="white"/>
<path fill-rule="evenodd" clip-rule="evenodd" d="M21.2148 19.6052C21.2148 21.7272 19.3011 23.4473 16.9406 23.4473C16.5237 23.4473 16.1115 23.4473 15.6946 23.4473C13.3341 23.4473 11.4204 21.7272 11.4204 19.6052C11.4204 14.2002 21.2147 14.202 21.2147 19.6052H21.2148ZM18.9418 17.8913C18.8483 18.4714 18.5836 18.9916 18.1263 19.3856C17.6322 19.8111 16.9708 20.0313 16.3185 20.025C15.6644 20.0313 15.003 19.8111 14.5089 19.3856C14.0516 18.9916 13.7869 18.4714 13.6934 17.8913C13.6022 17.927 13.4937 17.9041 13.4268 17.8269C13.3434 17.7304 13.3534 17.5858 13.4479 17.5073L13.4728 17.4814C13.557 17.394 13.6462 17.3097 13.7745 17.2962C14.0256 17.2697 14.1182 17.4842 14.1412 17.694C14.1985 18.2162 14.413 18.689 14.8188 19.0384C15.2266 19.3898 15.776 19.5691 16.3166 19.5637H16.3198C16.8594 19.5691 17.4086 19.3897 17.8164 19.0384C18.2222 18.689 18.4367 18.2162 18.494 17.694C18.517 17.4842 18.6098 17.2697 18.8608 17.2962C18.9892 17.3097 19.0782 17.394 19.1625 17.4814L19.1854 17.5055C19.2798 17.584 19.2918 17.7305 19.2084 17.8269C19.1415 17.9041 19.033 17.927 18.9419 17.8914L18.9418 17.8913ZM17.8377 16.8007C17.8377 17.2221 17.3235 17.5692 16.6617 17.6155C16.4548 17.7202 16.3114 17.9475 16.3114 18.2112C16.3114 18.3342 16.2593 18.3211 16.2593 18.2112C16.2593 17.9414 16.1093 17.7098 15.8948 17.6084C15.2713 17.5412 14.7975 17.2053 14.7975 16.8008C14.7975 15.6474 17.8377 15.6478 17.8377 16.8008V16.8007Z" fill="white"/>
<path fill-rule="evenodd" clip-rule="evenodd" d="M14.2841 15.3383C14.2841 15.5662 14.2085 15.7719 14.0872 15.9176C13.7472 15.9307 13.409 15.9467 13.073 15.9659C12.9262 15.8195 12.8319 15.5928 12.8319 15.3383C12.8319 14.2139 14.2841 14.2142 14.2841 15.3383Z" fill="white"/>
<path fill-rule="evenodd" clip-rule="evenodd" d="M14.203 16.2209C13.5829 16.244 12.9631 16.2764 12.3443 16.3209L12.1117 16.3377L12.0287 16.1239C11.9338 15.8799 11.8878 15.6186 11.8878 15.3577C11.8878 12.851 15.2276 12.8516 15.2276 15.3577C15.2276 15.4958 15.2147 15.6337 15.1884 15.7694L15.1505 15.9664L14.9515 16.0117C14.7304 16.062 14.5124 16.1254 14.2994 16.2023L14.2526 16.2191L14.203 16.2209H14.203ZM14.1683 15.7989C14.3679 15.7277 14.5714 15.6672 14.7776 15.6176C14.7905 15.5315 14.7967 15.4447 14.7967 15.3577C14.7967 13.4098 12.3187 13.4093 12.3187 15.3577C12.3187 15.5387 12.3459 15.7203 12.4025 15.8929C12.9905 15.8517 13.5792 15.8209 14.1682 15.7989H14.1683ZM20.7473 15.3576C20.7473 15.6186 20.7012 15.88 20.6063 16.1241L20.5232 16.338L20.2906 16.3212C19.6716 16.2767 19.0518 16.2441 18.4314 16.2211L18.3817 16.2192L18.3351 16.2024C18.1223 16.1258 17.9046 16.0622 17.6838 16.0119L17.4846 15.9666L17.4467 15.7696C17.4205 15.6338 17.4075 15.4958 17.4075 15.3577C17.4075 12.851 20.7473 12.8516 20.7473 15.3577L20.7473 15.3576ZM17.8576 15.6178C18.0635 15.6675 18.2669 15.7279 18.4661 15.7991C19.0553 15.8209 19.6443 15.8519 20.2325 15.893C20.2891 15.7205 20.3164 15.5389 20.3164 15.3576C20.3164 13.4098 17.8385 13.4092 17.8385 15.3576C17.8385 15.4446 17.8448 15.5317 17.8575 15.6178H17.8576Z" fill="white"/>
<path fill-rule="evenodd" clip-rule="evenodd" d="M19.804 15.3383C19.804 15.5929 19.7097 15.8196 19.5626 15.9661C19.2269 15.9468 18.8887 15.9309 18.5487 15.9176C18.4274 15.7719 18.3518 15.5662 18.3518 15.3383C18.3518 14.2139 19.804 14.2142 19.804 15.3383Z" fill="white"/>
</g>
<defs>
<filter id="filter0_d" x="0.000610352" y="0" width="33.8546" height="34.0674" filterUnits="userSpaceOnUse" color-interpolation-filters="sRGB">
<feFlood flood-opacity="0" result="BackgroundImageFix"/>
<feColorMatrix in="SourceAlpha" type="matrix" values="0 0 0 0 0 0 0 0 0 0 0 0 0 0 0 0 0 0 127 0"/>
<feOffset dx="0.804922" dy="1.60984"/>
<feGaussianBlur stdDeviation="0.402461"/>
<feColorMatrix type="matrix" values="0 0 0 0 0 0 0 0 0 0 0 0 0 0 0 0 0 0 0.25 0"/>
<feBlend mode="normal" in2="BackgroundImageFix" result="effect1_dropShadow"/>
<feBlend mode="normal" in="SourceGraphic" in2="effect1_dropShadow" result="shape"/>
</filter>
<linearGradient id="paint0_linear" x1="9.86765" y1="4.39059" x2="28.971" y2="21.8991" gradientUnits="userSpaceOnUse">
<stop stop-color="#0064B2"/>
<stop offset="1" stop-color="#004881"/>
</linearGradient>
<clipPath id="clip0">
<rect width="139" height="33" fill="white"/>
</clipPath>
</defs>
</svg>
