<svg width="127" height="174" viewBox="0 0 127 174" fill="none" xmlns="http://www.w3.org/2000/svg">
<rect x="37.1809" y="18.5078" width="82.4238" height="118.575" transform="rotate(12.5326 37.1809 18.5078)" fill="white"/>
<g clip-path="url(#clip0)">
<path d="M80.5602 129.236C80.6734 128.727 80.9843 128.283 81.4245 128.003C81.8646 127.723 82.398 127.63 82.9073 127.743L98.9748 131.315C99.4841 131.428 99.9275 131.739 100.208 132.179C100.488 132.619 100.581 133.152 100.468 133.662L96.8965 149.729C96.7833 150.238 96.4724 150.682 96.0322 150.962C95.5921 151.242 95.0587 151.336 94.5494 151.222L78.4819 147.651C77.9726 147.538 77.5292 147.227 77.2491 146.787C76.9691 146.346 76.8753 145.813 76.9886 145.304L80.5602 129.236Z" fill="white" stroke="#C7D7E3" stroke-width="0.768639"/>
<path d="M91.0608 134.022C90.9263 134.627 90.3323 135.016 89.7503 134.886C89.2013 134.764 88.7994 134.133 88.9293 133.548C89.0441 133.032 89.6606 132.629 90.2241 132.754C90.791 132.881 91.1788 133.491 91.0608 134.022ZM88.0393 138.305C88.1168 137.956 88.2831 137.719 88.4753 137.584C88.6648 137.451 88.9051 137.397 89.178 137.458C89.4515 137.519 89.6465 137.669 89.7614 137.87C89.8781 138.074 89.9282 138.359 89.8506 138.708L88.5232 144.679C88.4457 145.028 88.2795 145.265 88.0876 145.4C87.8983 145.533 87.658 145.587 87.3846 145.526C87.1112 145.465 86.9161 145.315 86.8012 145.114C86.6845 144.91 86.6344 144.625 86.7119 144.277L88.0393 138.305Z" fill="white" stroke="#C7D7E3" stroke-width="0.768639"/>
</g>
<path fill-rule="evenodd" clip-rule="evenodd" d="M47.7836 3.08879L112.628 17.5031C120.27 19.202 125.133 26.8448 123.434 34.4871L95.7234 159.147C94.0246 166.789 86.3818 171.652 78.7395 169.953L13.8952 155.539C6.25282 153.84 1.38994 146.197 3.08877 138.555L30.7996 13.8952C32.4985 6.25284 40.1413 1.38996 47.7836 3.08879ZM97.1883 21.362L60.1344 13.1252L59.1048 17.7569L96.1587 25.9937L97.1883 21.362ZM13.3464 130.057L90.0318 147.104L114.43 37.3462L37.7447 20.2996L13.3464 130.057ZM47.3715 156.991C51.6423 157.94 55.8741 155.247 56.8235 150.977C57.7728 146.706 55.0803 142.474 50.8095 141.525C46.5387 140.575 42.3069 143.268 41.3575 147.539C40.4082 151.81 43.1007 156.041 47.3715 156.991Z" fill="url(#paint0_linear)"/>
<g clip-path="url(#clip1)">
<path d="M41.5735 41.2833C41.8347 40.1083 42.5519 39.0851 43.5675 38.4389C44.5831 37.7928 45.8137 37.5765 46.9888 37.8377L82.3086 45.689C83.4836 45.9502 84.5068 46.6675 85.1529 47.683C85.7991 48.6986 86.0154 49.9293 85.7542 51.1043L77.9029 86.4241C77.6417 87.5992 76.9244 88.6223 75.9088 89.2685C74.8933 89.9147 73.6626 90.1309 72.4876 89.8697L37.1677 82.0184C35.9927 81.7572 34.9696 81.0399 34.3234 80.0244C33.6772 79.0088 33.4609 77.7781 33.7221 76.6031L41.5735 41.2833Z" fill="white" stroke="#C7D7E3" stroke-width="1.2605"/>
<path d="M65.0761 51.8968C64.7561 53.3365 63.3409 54.2715 61.9392 53.9599C60.6118 53.6648 59.6615 52.1575 59.9717 50.7622C60.2504 49.5082 61.7227 48.554 63.0739 48.8542C64.4306 49.157 65.3623 50.6091 65.0761 51.8968ZM58.0152 61.2191C58.1953 60.4089 58.5867 59.838 59.0595 59.5051C59.5278 59.1754 60.1183 59.048 60.7744 59.1938C61.4314 59.3399 61.9123 59.7053 62.1965 60.202C62.4835 60.7034 62.596 61.3862 62.4157 62.1973L59.4978 75.3237C59.3177 76.134 58.9266 76.7046 58.4543 77.0371C57.9864 77.3664 57.3959 77.4937 56.7389 77.3477C56.082 77.2016 55.601 76.8362 55.3167 76.3396C55.0297 75.8383 54.9172 75.1558 55.0973 74.3455L58.0152 61.2191Z" fill="white" stroke="#C7D7E3" stroke-width="1.2605"/>
</g>
<g clip-path="url(#clip2)">
<path d="M98.6072 45.5295C98.6429 45.369 98.7408 45.2293 98.8795 45.1411C99.0181 45.0529 99.1862 45.0234 99.3466 45.059L103.581 46.0003C103.741 46.036 103.881 46.1339 103.969 46.2725C104.058 46.4112 104.087 46.5792 104.051 46.7397L103.11 50.974C103.074 51.1345 102.977 51.2742 102.838 51.3624C102.699 51.4506 102.531 51.4801 102.371 51.4445L98.1364 50.5032C97.976 50.4675 97.8363 50.3696 97.7481 50.231C97.6598 50.0923 97.6303 49.9243 97.666 49.7638L98.6072 45.5295Z" fill="#C7D7E3"/>
<path d="M101.573 46.835C101.526 47.0459 101.317 47.1866 101.106 47.1397C100.905 47.0949 100.767 46.8724 100.813 46.6662C100.856 46.474 101.074 46.3353 101.275 46.3801C101.477 46.425 101.616 46.6381 101.573 46.835ZM100.579 47.9198C100.629 47.6948 100.803 47.5759 101 47.6196C101.196 47.6634 101.304 47.8447 101.254 48.0699L100.904 49.6435C100.854 49.8686 100.68 49.9873 100.483 49.9436C100.286 49.8998 100.179 49.7185 100.229 49.4935L100.579 47.9198Z" fill="white"/>
</g>
<g clip-path="url(#clip3)">
<path d="M65.2683 85.7027C65.4093 85.0683 65.7965 84.516 66.3447 84.1672C66.893 83.8183 67.5574 83.7016 68.1917 83.8426L88.205 88.2914C88.8393 88.4324 89.3916 88.8196 89.7405 89.3678C90.0893 89.9161 90.2061 90.5805 90.0651 91.2148L85.6163 111.228C85.4753 111.862 85.088 112.415 84.5398 112.764C83.9916 113.112 83.3272 113.229 82.6929 113.088L62.6796 108.639C62.0452 108.498 61.4929 108.111 61.1441 107.563C60.7952 107.015 60.6785 106.35 60.8195 105.716L65.2683 85.7027Z" fill="white" stroke="#C7D7E3" stroke-width="0.957396"/>
<path d="M78.348 91.6635C78.1803 92.4175 77.4405 92.9013 76.7155 92.7402C76.0317 92.5882 75.5312 91.8012 75.693 91.0733C75.836 90.4302 76.6038 89.9286 77.3057 90.0845C78.0119 90.2421 78.4949 91.0022 78.348 91.6635ZM74.5844 96.9985C74.681 96.5642 74.8881 96.2689 75.1274 96.1004C75.3634 95.9342 75.6628 95.8677 76.0028 95.9432C76.3434 96.019 76.5862 96.206 76.7295 96.4562C76.8747 96.71 76.9372 97.0652 76.8405 97.5L75.1872 104.938C75.0906 105.372 74.8836 105.667 74.6445 105.836C74.4088 106.002 74.1095 106.068 73.7689 105.992C73.4284 105.917 73.1854 105.73 73.0422 105.479C72.8969 105.226 72.8345 104.871 72.931 104.436L74.5844 96.9985Z" fill="white" stroke="#C7D7E3" stroke-width="0.957396"/>
</g>
<g clip-path="url(#clip4)">
<path d="M43.4701 96.8412C43.5583 96.4443 43.8006 96.0987 44.1436 95.8805C44.4866 95.6622 44.9023 95.5892 45.2992 95.6774L55.7745 98.006C56.1714 98.0942 56.517 98.3365 56.7352 98.6795C56.9535 99.0225 57.0266 99.4382 56.9383 99.8351L54.6098 110.31C54.5215 110.707 54.2793 111.053 53.9362 111.271C53.5932 111.489 53.1775 111.562 52.7806 111.474L42.3053 109.146C41.9084 109.057 41.5628 108.815 41.3446 108.472C41.1263 108.129 41.0533 107.713 41.1415 107.317L43.4701 96.8412Z" fill="#C7D7E3"/>
<path d="M50.8054 100.071C50.6894 100.592 50.1743 100.94 49.6521 100.824C49.1534 100.713 48.8132 100.163 48.9266 99.6529C49.0323 99.1774 49.5711 98.8343 50.0698 98.9452C50.5684 99.0564 50.9137 99.5835 50.8054 100.071ZM48.3464 102.754C48.4701 102.198 48.901 101.904 49.3877 102.012C49.8748 102.12 50.1402 102.568 50.0164 103.126L49.151 107.019C49.0273 107.575 48.5968 107.869 48.1097 107.761C47.6226 107.653 47.3572 107.204 47.481 106.647L48.3464 102.754Z" fill="white"/>
</g>
<defs>
<linearGradient id="paint0_linear" x1="24.0698" y1="38.2997" x2="32.4948" y2="160.736" gradientUnits="userSpaceOnUse">
<stop offset="0.807292" stop-color="#0064B2"/>
<stop offset="1" stop-color="#00477F"/>
</linearGradient>
<clipPath id="clip0">
<rect width="21.1625" height="21.1625" fill="white" transform="translate(80.6953 126.857) rotate(12.5326)"/>
</clipPath>
<clipPath id="clip1">
<rect width="46.5197" height="46.5197" fill="white" transform="translate(42.0798 36.1008) rotate(12.5326)"/>
</clipPath>
<clipPath id="clip2">
<rect width="5.57707" height="5.57707" fill="white" transform="translate(98.7417 44.9246) rotate(12.5326)"/>
</clipPath>
<clipPath id="clip3">
<rect width="26.3595" height="26.3595" fill="white" transform="translate(65.4365 82.7397) rotate(12.5326)"/>
</clipPath>
<clipPath id="clip4">
<rect width="13.797" height="13.797" fill="white" transform="translate(43.8027 95.3447) rotate(12.5326)"/>
</clipPath>
</defs>
</svg>
