<svg width="176" height="176" viewBox="0 0 176 176" fill="none" xmlns="http://www.w3.org/2000/svg">
<mask id="path-1-inside-1" fill="white">
<path d="M154.431 153.692C154.608 157.977 153.078 162.158 150.175 165.315C147.272 168.472 143.235 170.348 138.95 170.531L58.6022 173.92C54.3175 174.097 50.1379 172.566 46.9808 169.664C43.8237 166.762 41.947 162.726 41.7628 158.442L36.5394 34.4805C36.448 32.3579 36.776 30.238 37.5047 28.2423C38.2334 26.2465 39.3486 24.414 40.7862 22.8497C42.2239 21.2854 43.956 20.0199 45.8833 19.1257C47.8106 18.2315 49.8953 17.7261 52.0181 17.6385L132.366 14.2465C136.651 14.0692 140.831 15.6001 143.989 18.5029C147.146 21.4056 149.022 25.4429 149.205 29.728L154.431 153.689"/>
</mask>
<path d="M154.431 153.692C154.608 157.977 153.078 162.158 150.175 165.315C147.272 168.472 143.235 170.348 138.95 170.531L58.6022 173.92C54.3175 174.097 50.1379 172.566 46.9808 169.664C43.8237 166.762 41.947 162.726 41.7628 158.442L36.5394 34.4805C36.448 32.3579 36.776 30.238 37.5047 28.2423C38.2334 26.2465 39.3486 24.414 40.7862 22.8497C42.2239 21.2854 43.956 20.0199 45.8833 19.1257C47.8106 18.2315 49.8953 17.7261 52.0181 17.6385L132.366 14.2465C136.651 14.0692 140.831 15.6001 143.989 18.5029C147.146 21.4056 149.022 25.4429 149.205 29.728L154.431 153.689" fill="white"/>
<path d="M138.95 170.531L139.003 171.791L139.003 171.791L138.95 170.531ZM58.6022 173.92L58.6541 175.18L58.6553 175.18L58.6022 173.92ZM41.7628 158.442L40.5034 158.495L40.5035 158.496L41.7628 158.442ZM36.5394 34.4805L37.7988 34.4275L37.7987 34.4263L36.5394 34.4805ZM52.0181 17.6385L52.0701 18.8979L52.0713 18.8979L52.0181 17.6385ZM132.366 14.2465L132.314 12.9871L132.312 12.9871L132.366 14.2465ZM149.205 29.728L150.464 29.6749L150.464 29.6742L149.205 29.728ZM153.172 153.744C153.335 157.695 151.924 161.55 149.247 164.462L151.103 166.168C154.232 162.765 155.882 158.259 155.691 153.64L153.172 153.744ZM149.247 164.462C146.57 167.373 142.847 169.103 138.896 169.272L139.003 171.791C143.622 171.594 147.974 169.571 151.103 166.168L149.247 164.462ZM138.897 169.272L58.549 172.661L58.6553 175.18L139.003 171.791L138.897 169.272ZM58.5503 172.661C54.5993 172.824 50.7451 171.412 47.8338 168.736L46.1278 170.592C49.5307 173.72 54.0358 175.37 58.6541 175.18L58.5503 172.661ZM47.8338 168.736C44.9225 166.06 43.192 162.338 43.0222 158.388L40.5035 158.496C40.702 163.114 42.7248 167.464 46.1278 170.592L47.8338 168.736ZM43.0222 158.389L37.7988 34.4275L35.28 34.5336L40.5034 158.495L43.0222 158.389ZM37.7987 34.4263C37.7144 32.4692 38.0169 30.5147 38.6888 28.6746L36.3207 27.8099C35.5351 29.9613 35.1815 32.2466 35.28 34.5348L37.7987 34.4263ZM38.6888 28.6746C39.3606 26.8345 40.3888 25.145 41.7143 23.7027L39.8582 21.9968C38.3083 23.6831 37.1062 25.6585 36.3207 27.8099L38.6888 28.6746ZM41.7143 23.7027C43.0399 22.2604 44.6368 21.0936 46.4138 20.2691L45.3528 17.9823C43.2751 18.9462 41.408 20.3104 39.8582 21.9968L41.7143 23.7027ZM46.4138 20.2691C48.1908 19.4447 50.1129 18.9787 52.0701 18.8979L51.9661 16.379C49.6777 16.4735 47.4304 17.0183 45.3528 17.9823L46.4138 20.2691ZM52.0713 18.8979L132.419 15.5059L132.312 12.9871L51.9649 16.3791L52.0713 18.8979ZM132.418 15.5059C136.369 15.3425 140.224 16.7541 143.136 19.4308L144.842 17.5749C141.439 14.4461 136.933 12.796 132.314 12.9871L132.418 15.5059ZM143.136 19.4308C146.047 22.1075 147.777 25.8304 147.946 29.7817L150.464 29.6742C150.267 25.0555 148.245 20.7038 144.842 17.5749L143.136 19.4308ZM147.946 29.7811L153.172 153.742L155.691 153.636L150.464 29.6749L147.946 29.7811Z" fill="#C7D7E3" mask="url(#path-1-inside-1)"/>
<mask id="path-3-inside-2" fill="white">
<path d="M141.162 128.15C141.754 130.093 141.958 132.134 141.761 134.157C141.563 136.179 140.97 138.142 140.013 139.935C139.057 141.727 137.756 143.314 136.186 144.603C134.616 145.893 132.807 146.86 130.863 147.45L57.2528 169.858C55.3092 170.45 53.2682 170.652 51.2462 170.455C49.2243 170.257 47.2611 169.664 45.4687 168.707C43.6764 167.751 42.09 166.451 40.8003 164.881C39.5106 163.311 38.5429 161.503 37.9523 159.559L3.39207 45.9817C2.80012 44.0381 2.59698 41.997 2.79427 39.975C2.99156 37.9529 3.58542 35.9895 4.54189 34.1971C5.49837 32.4047 6.79871 30.8183 8.36859 29.5287C9.93847 28.239 11.7471 27.2714 13.6911 26.6812L87.3013 4.27618C89.2452 3.68471 91.2865 3.4821 93.3088 3.67991C95.331 3.87773 97.2944 4.47211 99.0868 5.42908C100.879 6.38604 102.465 7.68684 103.755 9.25713C105.044 10.8274 106.012 12.6364 106.602 14.5807L141.156 128.155"/>
</mask>
<path d="M141.162 128.15C141.754 130.093 141.958 132.134 141.761 134.157C141.563 136.179 140.97 138.142 140.013 139.935C139.057 141.727 137.756 143.314 136.186 144.603C134.616 145.893 132.807 146.86 130.863 147.45L57.2528 169.858C55.3092 170.45 53.2682 170.652 51.2462 170.455C49.2243 170.257 47.2611 169.664 45.4687 168.707C43.6764 167.751 42.09 166.451 40.8003 164.881C39.5106 163.311 38.5429 161.503 37.9523 159.559L3.39207 45.9817C2.80012 44.0381 2.59698 41.997 2.79427 39.975C2.99156 37.9529 3.58542 35.9895 4.54189 34.1971C5.49837 32.4047 6.79871 30.8183 8.36859 29.5287C9.93847 28.239 11.7471 27.2714 13.6911 26.6812L87.3013 4.27618C89.2452 3.68471 91.2865 3.4821 93.3088 3.67991C95.331 3.87773 97.2944 4.47211 99.0868 5.42908C100.879 6.38604 102.465 7.68684 103.755 9.25713C105.044 10.8274 106.012 12.6364 106.602 14.5807L141.156 128.155" fill="white"/>
<path d="M130.863 147.45L130.497 146.244L130.496 146.244L130.863 147.45ZM57.2528 169.858L57.6198 171.064H57.6198L57.2528 169.858ZM37.9523 159.559L39.1583 159.192L39.1582 159.192L37.9523 159.559ZM3.39207 45.9817L4.59798 45.6147L4.59789 45.6144L3.39207 45.9817ZM13.6911 26.6812L14.0574 27.8873L14.0582 27.8871L13.6911 26.6812ZM87.3013 4.27618L86.9343 3.07027L86.9342 3.0703L87.3013 4.27618ZM106.602 14.5807L105.396 14.9468L105.396 14.9476L106.602 14.5807ZM139.956 128.517C140.5 130.302 140.687 132.177 140.506 134.034L143.015 134.279C143.228 132.092 143.008 129.884 142.368 127.782L139.956 128.517ZM140.506 134.034C140.325 135.892 139.78 137.695 138.901 139.341L141.125 140.528C142.16 138.59 142.802 136.466 143.015 134.279L140.506 134.034ZM138.901 139.341C138.023 140.988 136.828 142.445 135.386 143.629L136.986 145.577C138.684 144.183 140.091 142.467 141.125 140.528L138.901 139.341ZM135.386 143.629C133.944 144.814 132.283 145.702 130.497 146.244L131.229 148.656C133.332 148.018 135.288 146.972 136.986 145.577L135.386 143.629ZM130.496 146.244L56.8857 168.652L57.6198 171.064L131.23 148.656L130.496 146.244ZM56.8857 168.652C55.1006 169.195 53.2259 169.382 51.3688 169.2L51.1237 171.709C53.3105 171.923 55.5179 171.704 57.6198 171.064L56.8857 168.652ZM51.3688 169.2C49.5116 169.019 47.7084 168.474 46.0622 167.595L44.8753 169.819C46.8137 170.854 48.937 171.496 51.1237 171.709L51.3688 169.2ZM46.0622 167.595C44.4159 166.717 42.9589 165.522 41.7743 164.081L39.8264 165.681C41.2212 167.379 42.9369 168.785 44.8753 169.819L46.0622 167.595ZM41.7743 164.081C40.5897 162.639 39.7008 160.978 39.1583 159.192L36.7462 159.925C37.3849 162.028 38.4316 163.983 39.8264 165.681L41.7743 164.081ZM39.1582 159.192L4.59798 45.6147L2.18616 46.3486L36.7464 159.926L39.1582 159.192ZM4.59789 45.6144C4.05419 43.8293 3.86761 41.9546 4.04882 40.0974L1.53972 39.8526C1.32635 42.0395 1.54604 44.247 2.18626 46.3489L4.59789 45.6144ZM4.04882 40.0974C4.23003 38.2401 4.77547 36.4368 5.65397 34.7905L3.42981 33.6037C2.39537 35.5422 1.7531 37.6657 1.53972 39.8526L4.04882 40.0974ZM5.65397 34.7905C6.53247 33.1442 7.72681 31.6872 9.16871 30.5027L7.56847 28.5547C5.87061 29.9494 4.46426 31.6651 3.42981 33.6037L5.65397 34.7905ZM9.16871 30.5027C10.6106 29.3182 12.2718 28.4295 14.0574 27.8873L13.3249 25.475C11.2224 26.1134 9.26633 27.1599 7.56847 28.5547L9.16871 30.5027ZM14.0582 27.8871L87.6683 5.48207L86.9342 3.0703L13.3241 25.4753L14.0582 27.8871ZM87.6682 5.4821C89.4537 4.93884 91.3287 4.75273 93.186 4.93443L93.4315 2.4254C91.2444 2.21146 89.0367 2.43059 86.9343 3.07027L87.6682 5.4821ZM93.186 4.93443C95.0434 5.11613 96.8468 5.66206 98.4931 6.54102L99.6805 4.31713C97.742 3.28216 95.6185 2.63934 93.4315 2.4254L93.186 4.93443ZM98.4931 6.54102C100.139 7.41999 101.596 8.61476 102.781 10.0571L104.729 8.45719C103.335 6.75891 101.619 5.35209 99.6805 4.31713L98.4931 6.54102ZM102.781 10.0571C103.965 11.4994 104.854 13.1609 105.396 14.9468L107.808 14.2147C107.17 12.1119 106.124 10.1555 104.729 8.45719L102.781 10.0571ZM105.396 14.9476L139.951 128.522L142.362 127.788L107.808 14.2138L105.396 14.9476Z" fill="#C7D7E3" mask="url(#path-3-inside-2)"/>
<path d="M46.3734 52.1251C46.4665 52.44 44.583 53.2886 42.1629 54.0251L20.3492 60.6666C17.9291 61.3976 15.8896 61.748 15.791 61.4387L14.4824 57.1241C14.3839 56.8148 16.2783 55.9716 18.6984 55.2297L40.5121 48.5963C42.9294 47.8544 44.9717 47.5122 45.0648 47.8215L46.3734 52.1251Z" fill="#C7D7E3"/>
<path d="M49.9349 63.8066C50.028 64.1187 48.1445 64.9701 45.7135 65.6929L23.9053 72.3399C21.4852 73.0708 19.4456 73.424 19.3471 73.1092L18.0412 68.8056C17.9372 68.499 19.8262 67.6475 22.2517 66.9111L44.0599 60.2723C46.4882 59.5359 48.5168 59.1882 48.6209 59.4975L49.9349 63.8066Z" fill="#C7D7E3"/>
<path d="M53.7185 76.2467C53.8171 76.5616 51.9335 77.4048 49.5025 78.1467L27.6889 84.78C25.2715 85.5219 23.2292 85.8641 23.1389 85.5548L21.8275 81.2512C21.7344 80.9446 23.618 80.0877 26.038 79.3595L47.8517 72.7124C50.2773 71.976 52.3168 71.6311 52.4044 71.9431L53.7185 76.2467Z" fill="#C7D7E3"/>
<path d="M127.378 109.221C127.471 109.534 125.588 110.385 123.159 111.119L101.354 117.755C98.9338 118.497 96.8943 118.839 96.793 118.521L95.4816 114.22C95.3913 113.914 97.283 113.062 99.7031 112.329L121.511 105.687C123.937 104.951 125.971 104.603 126.069 104.912L127.378 109.221Z" fill="#C7D7E3"/>
<path d="M130.929 120.895C131.033 121.207 129.138 122.058 126.718 122.792L104.91 129.434C102.485 130.17 100.451 130.518 100.355 130.2L99.0434 125.894C98.9394 125.587 100.834 124.741 103.254 124.002L125.068 117.366C127.493 116.624 129.527 116.282 129.618 116.594L130.929 120.895Z" fill="#C7D7E3"/>
<path d="M134.72 133.349C134.819 133.652 132.93 134.504 130.504 135.238L108.691 141.879C106.271 142.616 104.231 142.963 104.141 142.651L102.827 138.35C102.734 138.041 104.623 137.187 107.043 136.445L128.856 129.811C131.282 129.078 133.311 128.727 133.406 129.037L134.72 133.349Z" fill="#C7D7E3"/>
<path d="M117.197 75.748C117.293 76.0628 111.667 78.0422 104.625 80.1857L41.276 99.4589C34.2457 101.597 28.461 103.084 28.3679 102.777L27.0484 98.4706C26.9608 98.1557 32.5894 96.1737 39.6252 94.0328L102.947 74.7597C109.983 72.6161 115.77 71.1323 115.861 71.4362L117.172 75.7425" fill="#C7D7E3"/>
<path d="M120.704 86.7347C120.8 87.044 115.174 89.0288 108.13 91.1724L44.7803 110.446C37.75 112.589 31.9708 114.07 31.875 113.758L30.5636 109.452C30.4706 109.142 36.0937 107.155 43.1295 105.014L106.479 85.7409C113.512 83.5973 119.288 82.1135 119.387 82.4229L120.701 86.7347" fill="#C7D7E3"/>
<path d="M124.208 98.2768C124.301 98.5834 118.678 100.571 111.631 102.715L48.2817 121.988C41.2541 124.129 35.4667 125.612 35.3764 125.311L34.065 121.002C33.9747 120.69 39.5951 118.702 46.6309 116.564L109.98 97.2913C117.024 95.1559 122.801 93.6666 122.897 93.976L124.208 98.2823" fill="#C7D7E3"/>
<path d="M96.2834 26.3939C96.9911 26.1774 97.7346 26.1028 98.4712 26.1742C99.2077 26.2457 99.923 26.4618 100.576 26.8102C101.229 27.1587 101.806 27.6326 102.276 28.2047C102.745 28.7769 103.097 29.4361 103.311 30.1445L111.475 56.9516C111.91 58.3831 111.759 59.9287 111.055 61.249C110.351 62.5693 109.152 63.5562 107.721 63.9929L66.3554 76.5806C64.9257 77.0141 63.3825 76.8626 62.0645 76.1595C60.7464 75.4563 59.7612 74.2589 59.3251 72.8301L51.1586 46.0119C50.9439 45.3033 50.8708 44.5594 50.9436 43.8225C51.0164 43.0857 51.2336 42.3704 51.583 41.7175C51.9323 41.0647 52.4068 40.487 52.9794 40.0176C53.552 39.5482 54.2115 39.1961 54.9202 38.9816L96.2862 26.3939" fill="url(#paint0_linear)"/>
<path d="M82.2392 115.803C85.1494 114.922 88.1471 116.321 88.9492 118.938L96.1192 142.52C96.9186 145.14 95.2048 147.976 92.2974 148.863L51.8841 161.158C48.974 162.045 45.968 160.638 45.1741 158.024L38.0042 134.444C37.1966 131.827 38.9185 128.991 41.8259 128.098L82.2392 115.803Z" fill="url(#paint1_linear)"/>
<defs>
<linearGradient id="paint0_linear" x1="50.1001" y1="38.9709" x2="56.1809" y2="79.5868" gradientUnits="userSpaceOnUse">
<stop offset="0.252" stop-color="#0064B2"/>
<stop offset="1" stop-color="#00477F"/>
</linearGradient>
<linearGradient id="paint1_linear" x1="37.0195" y1="127.15" x2="42.2132" y2="164.019" gradientUnits="userSpaceOnUse">
<stop offset="0.252" stop-color="#0064B2"/>
<stop offset="1" stop-color="#00477F"/>
</linearGradient>
</defs>
</svg>
