<svg width="200" height="200" viewBox="0 0 200 200" fill="none" xmlns="http://www.w3.org/2000/svg">
<path d="M25.5253 161.187V95.7022L99.5799 25.7617L173.635 95.7022V161.187H25.5253Z" fill="white" stroke="#C7D7E3" stroke-width="1.2605"/>
<path d="M141.702 66.1253V37.9725H161.187V85.6106L141.702 66.1253Z" fill="white" stroke="#C7D7E3" stroke-width="1.2605"/>
<path d="M25.8405 160.714H173.319V182.143H25.8405V160.714Z" fill="white" stroke="#C7D7E3" stroke-width="1.2605"/>
<path d="M99.5799 17.8416L16.5967 95.0159L24.895 104.144L99.5799 34.8531L174.265 104.144L182.563 95.0159L99.5799 17.8416Z" fill="url(#paint0_linear)"/>
<path d="M74.6851 116.177H124.475V182.563H74.6851V116.177Z" fill="url(#paint1_linear)"/>
<path d="M87.1323 70.5356H112.027V95.4306H87.1323V70.5356Z" fill="#01579B"/>
<path d="M114.102 147.295C112.857 147.295 112.027 148.125 112.027 149.37V157.668C112.027 158.913 112.857 159.743 114.102 159.743C115.347 159.743 116.176 158.913 116.176 157.668V149.37C116.176 148.125 115.347 147.295 114.102 147.295Z" fill="#C7D7E3"/>
<defs>
<linearGradient id="paint0_linear" x1="14.3689" y1="39.6796" x2="20.9178" y2="109.789" gradientUnits="userSpaceOnUse">
<stop offset="0.252" stop-color="#0064B2"/>
<stop offset="1" stop-color="#00477F"/>
</linearGradient>
<linearGradient id="paint1_linear" x1="74.0167" y1="132.975" x2="86.3395" y2="184.425" gradientUnits="userSpaceOnUse">
<stop offset="0.252" stop-color="#0064B2"/>
<stop offset="1" stop-color="#00477F"/>
</linearGradient>
</defs>
</svg>
