<svg width="193" height="137" viewBox="0 0 193 137" fill="none" xmlns="http://www.w3.org/2000/svg">
<rect x="5.04199" y="13.8656" width="70.5882" height="118.487" fill="white"/>
<path fill-rule="evenodd" clip-rule="evenodd" d="M12.4081 0H70.3125C77.137 0 82.7206 5.58364 82.7206 12.4081V123.726C82.7206 130.551 77.137 136.134 70.3125 136.134H12.4081C5.58364 136.134 0 130.551 0 123.726V12.4081C0 5.58364 5.58364 0 12.4081 0ZM57.9044 6.20404H24.8162V10.3401H57.9044V6.20404ZM7.12116 114.555H75.5994V16.5441H7.12116V114.555ZM41.1688 131.038C44.9825 131.038 48.0741 127.946 48.0741 124.132C48.0741 120.319 44.9825 117.227 41.1688 117.227C37.355 117.227 34.2634 120.319 34.2634 124.132C34.2634 127.946 37.355 131.038 41.1688 131.038Z" fill="url(#paint0_linear)"/>
<g clip-path="url(#clip0)">
<path d="M60.3501 26.4706C42.5812 26.4706 28.125 37.8296 28.125 51.7903C28.125 60.994 34.2413 69.245 44.2375 73.7361V89.7698L61.4457 77.0941C78.7087 76.6415 92.5751 65.4629 92.5751 51.7903C92.5751 37.8296 78.119 26.4706 60.3501 26.4706Z" fill="#F2F2F2"/>
<path d="M60.3501 24.1688C42.5812 24.1688 28.125 35.7344 28.125 49.9489C28.125 59.3199 34.2413 67.721 44.2375 72.2937V88.6189L61.4457 75.7128C78.7087 75.252 92.5751 63.8701 92.5751 49.9489C92.5751 35.7344 78.119 24.1688 60.3501 24.1688ZM60.3501 69.2839H59.277L50.6825 75.7289V67.9401L48.6169 67.1442C39.9516 63.8089 34.57 57.2188 34.57 49.9489C34.57 39.2856 46.1356 30.6138 60.3501 30.6138C74.5645 30.6138 86.1301 39.2856 86.1301 49.9489C86.1301 60.6121 74.5645 69.2839 60.3501 69.2839Z" fill="url(#paint1_linear)"/>
<path d="M46.9233 42.9669H73.7776V48.3378H46.9233V42.9669ZM46.9233 53.7086H65.7213V59.0795H46.9233V53.7086Z" fill="url(#paint2_linear)"/>
</g>
<rect x="114.706" y="15.126" width="71.8487" height="117.227" fill="white"/>
<path fill-rule="evenodd" clip-rule="evenodd" d="M121.744 0H179.648C186.472 0 192.056 5.58364 192.056 12.4081V123.726C192.056 130.551 186.472 136.134 179.648 136.134H121.744C114.919 136.134 109.335 130.551 109.335 123.726V12.4081C109.335 5.58364 114.919 0 121.744 0ZM167.24 6.20404H134.152V10.3401H167.24V6.20404ZM116.457 114.555H184.935V16.5441H116.457V114.555ZM150.832 131.038C154.646 131.038 157.738 127.946 157.738 124.132C157.738 120.319 154.646 117.227 150.832 117.227C147.019 117.227 143.927 120.319 143.927 124.132C143.927 127.946 147.019 131.038 150.832 131.038Z" fill="url(#paint3_linear)"/>
<g clip-path="url(#clip1)">
<path d="M128.828 41.8707C146.28 41.8707 160.478 53.4363 160.478 67.6508C160.478 77.0218 154.474 85.4229 144.653 89.9956V106.321L127.752 93.4179C110.798 92.9539 97.1788 81.572 97.1788 67.6508C97.1788 53.4363 111.377 41.8707 128.828 41.8707Z" fill="#F2F2F2"/>
<path d="M128.253 40.7197C146.022 40.7197 160.478 52.2853 160.478 66.4998C160.478 75.8708 154.365 84.2719 144.365 88.8446V105.17L127.157 92.2669C109.894 91.8029 96.0279 80.421 96.0279 66.4998C96.0279 52.2853 110.484 40.7197 128.253 40.7197ZM128.253 85.8348H129.326L137.92 92.2798V84.491L139.986 83.6951C148.648 80.3598 154.033 73.7698 154.033 66.4998C154.033 55.8365 142.467 47.1647 128.253 47.1647C114.038 47.1647 102.473 55.8365 102.473 66.4998C102.473 77.1631 114.038 85.8348 128.253 85.8348Z" fill="url(#paint4_linear)"/>
<path d="M134.966 70.2593C132.742 70.2593 130.938 68.4558 130.938 66.2311C130.938 64.0065 132.742 62.203 134.966 62.203C137.191 62.203 138.995 64.0065 138.995 66.2311C138.995 68.4558 137.191 70.2593 134.966 70.2593Z" fill="url(#paint5_linear)"/>
<path d="M121.54 70.2593C119.315 70.2593 117.512 68.4558 117.512 66.2311C117.512 64.0065 119.315 62.203 121.54 62.203C123.764 62.203 125.568 64.0065 125.568 66.2311C125.568 68.4558 123.764 70.2593 121.54 70.2593Z" fill="url(#paint6_linear)"/>
</g>
<defs>
<linearGradient id="paint0_linear" x1="-1.11036" y1="34.4476" x2="29.218" y2="137.038" gradientUnits="userSpaceOnUse">
<stop offset="0.807292" stop-color="#0064B2"/>
<stop offset="1" stop-color="#00477F"/>
</linearGradient>
<linearGradient id="paint1_linear" x1="27.2599" y1="40.4773" x2="36.4505" y2="91.6405" gradientUnits="userSpaceOnUse">
<stop offset="0.252" stop-color="#0064B2"/>
<stop offset="1" stop-color="#00477F"/>
</linearGradient>
<linearGradient id="paint2_linear" x1="46.5629" y1="47.044" x2="47.9696" y2="60.096" gradientUnits="userSpaceOnUse">
<stop offset="0.252" stop-color="#0064B2"/>
<stop offset="1" stop-color="#00477F"/>
</linearGradient>
<linearGradient id="paint3_linear" x1="108.225" y1="34.4476" x2="138.553" y2="137.038" gradientUnits="userSpaceOnUse">
<stop offset="0.807292" stop-color="#0064B2"/>
<stop offset="1" stop-color="#00477F"/>
</linearGradient>
<linearGradient id="paint4_linear" x1="161.343" y1="57.0282" x2="152.153" y2="108.191" gradientUnits="userSpaceOnUse">
<stop offset="0.252" stop-color="#0064B2"/>
<stop offset="1" stop-color="#00477F"/>
</linearGradient>
<linearGradient id="paint5_linear" x1="139.103" y1="64.2416" x2="137.954" y2="70.637" gradientUnits="userSpaceOnUse">
<stop offset="0.252" stop-color="#0064B2"/>
<stop offset="1" stop-color="#00477F"/>
</linearGradient>
<linearGradient id="paint6_linear" x1="125.676" y1="64.2416" x2="124.527" y2="70.637" gradientUnits="userSpaceOnUse">
<stop offset="0.252" stop-color="#0064B2"/>
<stop offset="1" stop-color="#00477F"/>
</linearGradient>
<clipPath id="clip0">
<rect width="64.4501" height="64.4501" fill="white" transform="translate(28.125 24.1688)"/>
</clipPath>
<clipPath id="clip1">
<rect width="64.4501" height="64.4501" fill="white" transform="matrix(-1 0 0 1 160.478 40.7197)"/>
</clipPath>
</defs>
</svg>
