<svg width="197" height="197" viewBox="0 0 197 197" fill="none" xmlns="http://www.w3.org/2000/svg">
<g clip-path="url(#clip0)">
<path d="M174.32 101.934C174.32 144.307 139.97 178.658 97.5964 178.658C55.2229 178.658 20.8724 144.307 20.8724 101.934C20.8724 59.5606 55.2229 25.2101 97.5964 25.2101C139.97 25.2101 174.32 59.5606 174.32 101.934Z" fill="white" stroke="#C7D7E3" stroke-width="1.2605"/>
<path d="M29.975 73.9394C32.7173 73.941 35.3469 75.0311 37.286 76.9702C39.2252 78.9094 40.3153 81.539 40.3169 84.2813C40.3169 89.9838 35.6775 94.6141 29.975 94.6141C24.2725 94.6141 19.6392 89.9808 19.6392 84.2783C19.6392 81.5365 20.7279 78.9069 22.6661 76.9675C24.6042 75.0282 27.2332 73.9379 29.975 73.9363V73.9394Z" fill="url(#paint0_linear)"/>
<path d="M98.5099 16.3853C100.296 16.3853 102.064 16.737 103.714 17.4205C105.365 18.104 106.864 19.1058 108.127 20.3687C109.39 21.6316 110.391 23.1309 111.075 24.781C111.758 26.431 112.11 28.1996 112.11 29.9856C112.11 31.7716 111.758 33.5401 111.075 35.1902C110.391 36.8403 109.39 38.3396 108.127 39.6025C106.864 40.8654 105.365 41.8672 103.714 42.5506C102.064 43.2341 100.296 43.5859 98.5099 43.5859C96.725 43.5863 94.9575 43.2351 93.3084 42.5524C91.6593 41.8696 90.1609 40.8687 88.8986 39.6067C87.6364 38.3448 86.6351 36.8465 85.952 35.1976C85.2688 33.5486 84.9172 31.7812 84.9172 29.9963C84.9156 26.3891 86.3466 22.929 88.8955 20.3766C91.4444 17.8242 94.9027 16.3885 98.5099 16.3853Z" fill="url(#paint1_linear)"/>
<path d="M165.078 95.9169C159.327 95.9169 154.663 91.2898 154.663 85.5872C154.663 79.8817 159.324 75.2576 165.078 75.2576C170.824 75.2576 175.494 79.8817 175.494 85.5872C175.494 91.2898 170.824 95.9169 165.078 95.9169Z" fill="url(#paint2_linear)"/>
<path d="M176.068 113.568L179.964 113.574L187.934 141.405C188.549 143.54 190.933 144.714 193.262 144.047C195.597 143.38 197.072 141.34 196.285 138.67L188.091 110.121C184.815 98.7063 175.26 99.0628 175.26 99.0628H154.899C154.899 99.0628 145.353 98.7063 142.068 110.121L133.868 138.67C133.087 141.34 134.562 143.38 136.897 144.047C139.226 144.714 141.61 143.54 142.216 141.405L150.192 113.574L154.081 113.568L143.435 150.696H186.727L176.074 113.568H176.068Z" fill="url(#paint3_linear)"/>
<path d="M47.617 114.324H43.8379V114.327V150.696H15.6786V114.324H11.9363V143.196C11.9363 145.697 9.90849 147.728 7.41363 147.728C4.91263 147.728 2.95239 145.697 2.95239 143.196V111.171C2.95239 103.865 9.46912 97.9412 16.7816 97.9412H21.2306C21.2306 107.656 25.4947 112.265 30.0419 112.265C34.3741 112.265 38.6269 108.004 38.6269 97.9412H43.3033C50.6096 97.9412 56.6009 103.865 56.6009 111.171V143.196C56.6074 143.788 56.4966 144.375 56.2749 144.925C56.0531 145.474 55.7248 145.974 55.3089 146.395C54.893 146.817 54.3978 147.152 53.8517 147.381C53.3057 147.61 52.7196 147.729 52.1274 147.731C49.6387 147.731 47.617 145.697 47.617 143.196V114.324Z" fill="url(#paint4_linear)"/>
<path d="M119.271 65.988H115.829V173.291C115.829 177.528 112.394 180.96 108.154 180.96C103.914 180.96 100.482 177.528 100.482 173.291V106.834H96.5496V173.291C96.4931 175.29 95.6593 177.188 94.2256 178.582C92.7918 179.976 90.8711 180.755 88.8715 180.755C86.8719 180.755 84.9512 179.976 83.5174 178.582C82.0837 177.188 81.2499 175.29 81.1934 173.291V65.988H77.7399L77.7338 105.558C77.7338 107.112 77.1168 108.601 76.0185 109.699C74.9203 110.798 73.4308 111.415 71.8776 111.415C70.3245 111.415 68.8349 110.798 67.7367 109.699C66.6385 108.601 66.0215 107.112 66.0215 105.558V61.8064C66.0215 52.1711 72.9161 46.7144 82.3579 46.7144H114.659C124.097 46.7144 130.995 52.1741 130.995 61.8064V105.558C130.995 107.112 130.378 108.601 129.28 109.699C128.182 110.798 126.692 111.415 125.139 111.415C123.586 111.415 122.096 110.798 120.998 109.699C119.9 108.601 119.283 107.112 119.283 105.558L119.264 65.988H119.271Z" fill="url(#paint5_linear)"/>
<path d="M154.468 46.7712L156.155 43.8553C156.263 43.6746 156.215 43.4457 156.058 43.3131L154.275 41.9154C154.311 41.6504 154.335 41.3732 154.335 41.0961C154.335 40.819 154.311 40.5419 154.275 40.2647L156.058 38.8671C156.215 38.7345 156.263 38.5056 156.155 38.3249L154.468 35.409C154.36 35.2283 154.143 35.156 153.95 35.2283L151.853 36.0717C151.42 35.7343 150.95 35.4572 150.432 35.2403L150.118 33.0113C150.098 32.9138 150.045 32.8262 149.969 32.7627C149.892 32.6992 149.796 32.6636 149.697 32.6619H146.323C146.118 32.6619 145.937 32.8185 145.901 33.0233L145.588 35.2524C145.082 35.4693 144.6 35.7464 144.166 36.0838L142.07 35.2403C141.877 35.168 141.66 35.2403 141.551 35.4211L139.865 38.3369C139.756 38.5176 139.804 38.7466 139.961 38.8791L141.744 40.2768C141.708 40.5419 141.684 40.819 141.684 41.0961C141.684 41.3732 141.708 41.6504 141.744 41.9275L139.961 43.3252C139.804 43.4577 139.756 43.6866 139.865 43.8674L141.551 46.7832C141.66 46.9639 141.877 47.0362 142.07 46.9639L144.166 46.1205C144.6 46.4579 145.07 46.735 145.588 46.9519L145.901 49.181C145.937 49.3737 146.118 49.5304 146.323 49.5304H149.697C149.901 49.5304 150.082 49.3737 150.118 49.1689L150.432 46.9399C150.938 46.723 151.42 46.4458 151.853 46.1085L153.95 46.9519C154.143 47.0242 154.36 46.9519 154.468 46.7712ZM148.01 43.5059C146.684 43.5059 145.6 42.4215 145.6 41.0961C145.6 39.7707 146.684 38.6863 148.01 38.6863C149.335 38.6863 150.42 39.7707 150.42 41.0961C150.42 42.4215 149.335 43.5059 148.01 43.5059ZM163.806 52.7474L162.649 51.8558C162.673 51.6871 162.697 51.5064 162.697 51.3257C162.697 51.1449 162.685 50.9642 162.649 50.7955L163.794 49.9039C163.89 49.8195 163.926 49.675 163.854 49.5545L162.77 47.6869C162.709 47.5664 162.565 47.5302 162.432 47.5664L161.095 48.1086C160.818 47.8917 160.517 47.711 160.179 47.5784L159.974 46.1567C159.97 46.0923 159.941 46.0319 159.894 45.9874C159.847 45.9429 159.786 45.9173 159.721 45.9157H157.565C157.432 45.9157 157.311 46.0121 157.299 46.1446L157.095 47.5664C156.769 47.711 156.456 47.8797 156.179 48.0965L154.841 47.5543C154.78 47.5313 154.712 47.5307 154.651 47.5527C154.589 47.5748 154.537 47.6181 154.504 47.6748L153.42 49.5424C153.359 49.6629 153.371 49.8075 153.48 49.8918L154.625 50.7835C154.575 51.1352 154.575 51.4921 154.625 51.8438L153.48 52.7354C153.384 52.8197 153.347 52.9643 153.42 53.0848L154.504 54.9524C154.564 55.0729 154.709 55.109 154.841 55.0729L156.179 54.5307C156.456 54.7476 156.757 54.9283 157.095 55.0608L157.299 56.4826C157.324 56.6151 157.432 56.7115 157.565 56.7115H159.721C159.854 56.7115 159.974 56.6151 159.986 56.4826L160.191 55.0608C160.517 54.9162 160.83 54.7476 161.095 54.5307L162.444 55.0729C162.565 55.1211 162.709 55.0729 162.782 54.9524L163.866 53.0848C163.938 52.9764 163.902 52.8318 163.806 52.7474ZM158.637 52.9402C158.205 52.9401 157.791 52.7685 157.486 52.4632C157.181 52.1579 157.01 51.744 157.01 51.3124C157.01 50.8808 157.182 50.467 157.487 50.162C157.793 49.8569 158.207 49.6856 158.638 49.6858C159.07 49.686 159.483 49.8576 159.789 50.1628C160.094 50.4681 160.265 50.8821 160.265 51.3136C160.265 51.7452 160.093 52.159 159.788 52.464C159.482 52.7691 159.068 52.9404 158.637 52.9402Z" fill="url(#paint6_linear)"/>
<g clip-path="url(#clip1)">
<path d="M47.5228 31.0809C47.5228 31.0809 44.6811 32.4396 44.122 35.1893L42.3636 42.9006C40.8617 43.0421 38.8118 43.4776 37.0662 44.2482L36.2547 43.3549C35.139 42.1266 33.2212 42.0346 31.9929 43.1503C30.7647 44.2661 30.6726 46.1839 31.7884 47.4121L33.3098 49.087C33.817 49.6453 34.3753 49.1381 34.3753 49.1381L36.6085 47.1095C38.8416 45.0809 42.038 45.2343 42.038 45.2343C42.038 45.2343 41.8846 48.4307 39.6514 50.4593L37.4182 52.4879C37.4182 52.4879 36.8599 52.995 37.3671 53.5533L38.8885 55.2282C40.0043 56.4565 41.9221 56.5485 43.1503 55.4328C44.3786 54.317 44.4706 52.3992 43.3549 51.171L42.5434 50.2777C43.4776 48.6139 44.1075 46.6151 44.3922 45.1337L52.2364 44.122C55.027 43.8287 56.6516 41.1302 56.6516 41.1302L44.8294 42.6986L47.5228 31.0809ZM36.1524 45.4858L33.9193 47.5144L32.905 46.3978C32.2964 45.7279 32.3373 44.8755 33.0072 44.2669C33.6772 43.6583 34.5296 43.6992 35.1381 44.3692L36.1524 45.4858ZM42.2383 52.1853C42.8469 52.8552 42.806 53.7076 42.136 54.3162C41.4661 54.9248 40.6137 54.8839 40.0051 54.2139L38.9908 53.0973L41.224 51.0687L42.2383 52.1853ZM43.9409 44.5247C43.7928 44.6592 43.5973 44.7294 43.3975 44.7198C43.1977 44.7102 43.0099 44.6217 42.8754 44.4736C42.7409 44.3255 42.6707 44.1301 42.6803 43.9303C42.6899 43.7305 42.7785 43.5427 42.9265 43.4081C43.0746 43.2736 43.27 43.2035 43.4699 43.2131C43.6697 43.2226 43.8575 43.3112 43.992 43.4593C44.1265 43.6074 44.1967 43.8028 44.1871 44.0026C44.1775 44.2024 44.0889 44.3902 43.9409 44.5247Z" fill="url(#paint7_linear)"/>
</g>
</g>
<defs>
<linearGradient id="paint0_linear" x1="19.3616" y1="79.1686" x2="22.3103" y2="95.5835" gradientUnits="userSpaceOnUse">
<stop offset="0.252" stop-color="#0064B2"/>
<stop offset="1" stop-color="#00477F"/>
</linearGradient>
<linearGradient id="paint1_linear" x1="84.5522" y1="23.2681" x2="88.4321" y2="44.8608" gradientUnits="userSpaceOnUse">
<stop offset="0.252" stop-color="#0064B2"/>
<stop offset="1" stop-color="#00477F"/>
</linearGradient>
<linearGradient id="paint2_linear" x1="154.383" y1="80.4852" x2="157.306" y2="96.8939" gradientUnits="userSpaceOnUse">
<stop offset="0.252" stop-color="#0064B2"/>
<stop offset="1" stop-color="#00477F"/>
</linearGradient>
<linearGradient id="paint3_linear" x1="132.814" y1="112.127" x2="138.926" y2="153.537" gradientUnits="userSpaceOnUse">
<stop offset="0.252" stop-color="#0064B2"/>
<stop offset="1" stop-color="#00477F"/>
</linearGradient>
<linearGradient id="paint4_linear" x1="2.23226" y1="111.29" x2="9.63732" y2="153.212" gradientUnits="userSpaceOnUse">
<stop offset="0.252" stop-color="#0064B2"/>
<stop offset="1" stop-color="#00477F"/>
</linearGradient>
<linearGradient id="paint5_linear" x1="65.1493" y1="80.6841" x2="101.036" y2="177.374" gradientUnits="userSpaceOnUse">
<stop offset="0.252" stop-color="#0064B2"/>
<stop offset="1" stop-color="#00477F"/>
</linearGradient>
<linearGradient id="paint6_linear" x1="139.483" y1="38.7474" x2="142.906" y2="57.8414" gradientUnits="userSpaceOnUse">
<stop offset="0.252" stop-color="#0064B2"/>
<stop offset="1" stop-color="#00477F"/>
</linearGradient>
<linearGradient id="paint7_linear" x1="32.3582" y1="48.4911" x2="42.6485" y2="57.2005" gradientUnits="userSpaceOnUse">
<stop offset="0.252" stop-color="#0064B2"/>
<stop offset="1" stop-color="#00477F"/>
</linearGradient>
<clipPath id="clip0">
<rect width="196.639" height="196.639" fill="white"/>
</clipPath>
<clipPath id="clip1">
<rect width="22.6275" height="22.6275" fill="white" transform="translate(27.731 42.9458) rotate(-42.2521)"/>
</clipPath>
</defs>
</svg>
