<svg width="187" height="72" viewBox="0 0 187 72" fill="none" xmlns="http://www.w3.org/2000/svg">
<g clip-path="url(#clip0)">
<path d="M172.923 54.3296C172.923 54.9332 172.803 55.5308 172.572 56.0881C172.341 56.6455 172.003 57.1517 171.576 57.5779C171.15 58.0042 170.644 58.342 170.088 58.5722C169.531 58.8023 168.935 58.9203 168.333 58.9194H17.668C16.4491 58.9224 15.2787 58.4411 14.4128 57.581C13.5469 56.7208 13.056 55.5518 13.0475 54.3296V17.6695C13.0492 17.0635 13.1702 16.4639 13.4035 15.905C13.6369 15.3461 13.978 14.8389 14.4072 14.4124C14.8365 13.986 15.3456 13.6488 15.9051 13.42C16.4647 13.1913 17.0638 13.0756 17.668 13.0796H168.306C168.908 13.0787 169.504 13.1967 170.061 13.4269C170.617 13.657 171.123 13.9949 171.549 14.4211C171.975 14.8473 172.314 15.3536 172.545 15.9109C172.776 16.4683 172.895 17.0658 172.896 17.6695L172.926 54.3296H172.923Z" fill="white"/>
<path d="M168.33 60H17.67C16.9262 60.0016 16.1894 59.8561 15.5018 59.5719C14.8141 59.2877 14.1891 58.8703 13.6625 58.3437C13.1359 57.817 12.718 57.1914 12.4327 56.5026C12.1474 55.8138 12.0004 55.0754 12 54.3296V17.6705C12.0059 16.1658 12.6056 14.7246 13.6681 13.662C14.7306 12.5994 16.1694 12.0019 17.67 12H168.3C169.805 11.9955 171.251 12.59 172.319 13.6531C173.388 14.7162 173.993 16.161 174 17.6705V54.3296C173.994 55.8343 173.394 57.2755 172.332 58.3381C171.269 59.4006 169.831 59.9982 168.33 60V60Z" fill="black"/>
<path d="M172.923 54.3296C172.923 54.9332 172.803 55.5308 172.572 56.0881C172.341 56.6455 172.003 57.1517 171.576 57.5779C171.15 58.0042 170.644 58.342 170.088 58.5722C169.531 58.8023 168.935 58.9203 168.333 58.9194H17.668C16.4491 58.9224 15.2787 58.4411 14.4128 57.581C13.5469 56.7208 13.056 55.5518 13.0475 54.3296V17.6695C13.0492 17.0635 13.1702 16.4639 13.4035 15.905C13.6369 15.3461 13.978 14.8389 14.4072 14.4124C14.8365 13.986 15.3456 13.6488 15.9051 13.42C16.4647 13.1913 17.0638 13.0756 17.668 13.0796H168.306C168.908 13.0787 169.504 13.1967 170.061 13.4269C170.617 13.657 171.123 13.9949 171.549 14.4211C171.975 14.8473 172.314 15.3536 172.545 15.9109C172.776 16.4683 172.895 17.0658 172.896 17.6695L172.926 54.3296H172.923Z" fill="black"/>
<path d="M48.0797 35.7604C48.1005 34.5876 48.4123 33.4385 48.9869 32.4168C49.5616 31.3951 50.3809 30.533 51.371 29.9083C50.7379 29.0018 49.9024 28.2562 48.9311 27.7306C47.9598 27.2051 46.8796 26.9143 45.7764 26.8814C43.4128 26.6412 41.1388 28.2939 39.9404 28.2939C38.7138 28.2939 36.8594 26.9137 34.8842 26.9439C33.595 26.9835 32.3381 27.3583 31.2367 28.0315C30.1353 28.7046 29.2273 29.6532 28.6014 30.7841C25.8786 35.494 27.9132 42.4236 30.5132 46.2335C31.8002 48.0931 33.3256 50.1938 35.33 50.104C37.275 50.0142 37.9924 48.874 40.361 48.874C42.6944 48.874 43.3796 50.104 45.3921 50.0737C47.486 50.0434 48.8031 48.2142 50.0589 46.3233C50.9907 44.9945 51.7076 43.5266 52.183 41.9736C50.9746 41.4461 49.9446 40.5788 49.2173 39.4767C48.49 38.3746 48.0966 37.0849 48.0847 35.7634L48.0797 35.7604ZM44.25 24.3589C45.3927 22.9878 45.9518 21.2211 45.8066 19.4402C44.067 19.6148 42.4606 20.4523 41.3189 21.78C40.1813 23.0873 39.6011 24.7902 39.7029 26.5222C40.5742 26.5266 41.4352 26.3346 42.2225 25.9603C43.0097 25.586 43.703 25.0391 44.251 24.36L44.25 24.3589Z" fill="white"/>
<path d="M76.7084 49.8285H73.9856L72.4894 45.1489H67.3134L65.9047 49.8285H63.2755L68.3911 33.8383H71.5627L76.7084 49.8285ZM72.0416 43.1693L70.6953 38.9992C70.5454 38.5795 70.2767 37.5594 69.8904 35.9995H69.831C69.6811 36.6897 69.4124 37.6795 69.0834 38.9992L67.7672 43.1693H72.0416ZM89.8727 43.919C89.9586 45.6157 89.3908 47.2806 88.2869 48.5693C87.8417 49.0623 87.2962 49.454 86.6874 49.7178C86.0785 49.9817 85.4203 50.1116 84.7571 50.0989C84.114 50.1499 83.469 50.0263 82.8899 49.7412C82.3108 49.4561 81.8189 49.02 81.4658 48.4785V54.5082H78.9221V42.1189C78.9221 40.8887 78.8922 39.6288 78.8325 38.3393H81.0764L81.2263 40.1696H81.2857C81.6839 39.5016 82.2568 38.9556 82.9423 38.5906C83.6278 38.2257 84.3998 38.0558 85.1747 38.0992C85.8255 38.0847 86.4705 38.2238 87.0578 38.5053C87.645 38.7867 88.1581 39.2027 88.5556 39.7196C89.4848 40.9149 89.9521 42.4066 89.8717 43.92L89.8727 43.919ZM87.2696 44.0088C87.2984 43.0346 87.0371 42.0738 86.519 41.2492C86.2716 40.8917 85.9403 40.6006 85.5542 40.4018C85.1682 40.203 84.7393 40.1024 84.3053 40.1091C83.6792 40.1026 83.0723 40.3266 82.5998 40.7387C82.0868 41.1595 81.7288 41.7401 81.5825 42.3883C81.5113 42.6425 81.4711 42.9044 81.4628 43.1683V45.0853C81.4323 45.8703 81.7118 46.6357 82.2406 47.2153C82.4895 47.5002 82.7984 47.7261 83.1451 47.8765C83.4918 48.027 83.8675 48.0982 84.245 48.085C84.6814 48.1011 85.115 48.0081 85.5067 47.8144C85.8984 47.6206 86.2359 47.3322 86.4888 46.9751C87.0332 46.083 87.3037 45.05 87.2666 44.0047L87.2696 44.0088ZM103.096 43.919C103.182 45.6157 102.614 47.2806 101.511 48.5693C101.063 49.06 100.518 49.45 99.9092 49.7137C99.3008 49.9773 98.6435 50.1086 97.9808 50.0989C97.3376 50.1499 96.6926 50.0263 96.1135 49.7412C95.5344 49.4561 95.0425 49.02 94.6894 48.4785V54.5082H92.1467V42.1189C92.1467 40.8887 92.1169 39.6288 92.0572 38.3393H94.301L94.451 40.1696H94.5103C94.9086 39.5016 95.4814 38.9556 96.1669 38.5906C96.8524 38.2257 97.6244 38.0558 98.3993 38.0992C99.0501 38.0847 99.6951 38.2238 100.282 38.5053C100.87 38.7867 101.383 39.2027 101.78 39.7196C102.697 40.9217 103.162 42.4084 103.096 43.92V43.919ZM100.493 44.0088C100.523 43.0349 100.263 42.0741 99.7457 41.2492C99.4982 40.8917 99.1669 40.6006 98.7809 40.4018C98.3948 40.203 97.9659 40.1024 97.532 40.1091C96.9058 40.1026 96.299 40.3266 95.8265 40.7387C95.3135 41.1595 94.9554 41.7401 94.8092 42.3883C94.7379 42.6425 94.6977 42.9044 94.6894 43.1683V45.0853C94.6589 45.8703 94.9384 46.6357 95.4672 47.2153C95.7161 47.5002 96.025 47.7261 96.3717 47.8765C96.7184 48.027 97.0941 48.0982 97.4716 48.085C97.9081 48.101 98.3416 48.008 98.7333 47.8143C99.125 47.6205 99.4625 47.3322 99.7155 46.9751C100.26 46.083 100.53 45.05 100.493 44.0047V44.0088ZM117.845 45.3285C117.862 45.9523 117.745 46.5724 117.502 47.1468C117.259 47.7213 116.896 48.2367 116.437 48.6581C115.217 49.6554 113.67 50.1593 112.099 50.0707C110.658 50.1364 109.228 49.7933 107.973 49.0809L108.572 46.9509C109.683 47.6185 110.957 47.9613 112.252 47.9407C113.054 47.9936 113.849 47.7599 114.496 47.2809C114.76 47.0777 114.972 46.8132 115.112 46.51C115.252 46.2069 115.317 45.8742 115.301 45.5404C115.295 44.9272 115.06 44.3384 114.643 43.8907C114.016 43.3221 113.27 42.9018 112.459 42.6608C109.677 41.6104 108.27 40.0808 108.27 38.0709C108.254 37.4518 108.381 36.8373 108.64 36.2754C108.9 35.7134 109.285 35.2191 109.767 34.8311C110.877 33.945 112.273 33.4968 113.691 33.5709C114.94 33.5317 116.181 33.7886 117.313 34.3206L116.685 36.4203C115.748 35.9182 114.696 35.6699 113.633 35.6998C112.868 35.6444 112.109 35.88 111.509 36.3597C111.302 36.5361 111.138 36.7574 111.029 37.0069C110.921 37.2564 110.87 37.5275 110.881 37.7995C110.879 38.0995 110.945 38.3962 111.074 38.6666C111.204 38.937 111.394 39.1741 111.629 39.3594C112.326 39.8905 113.104 40.3058 113.932 40.5893C115.082 40.9824 116.119 41.652 116.951 42.5397C117.573 43.3319 117.892 44.3218 117.848 45.3295L117.845 45.3285ZM126.312 40.2281H123.499V45.8078C123.499 47.2203 124.007 47.9377 124.996 47.9377C125.378 47.9424 125.76 47.9021 126.133 47.8176L126.192 49.768C125.556 49.9772 124.887 50.0688 124.218 50.0384C123.78 50.0629 123.343 49.9925 122.935 49.8319C122.527 49.6714 122.158 49.4245 121.854 49.1081C121.205 48.2052 120.907 47.0959 121.016 45.9884V40.1989H119.341V38.2818H121.016V36.1791L123.531 35.4294V38.3091H126.344L126.314 40.2261L126.312 40.2281ZM138.997 43.9482C139.059 45.5399 138.513 47.0953 137.472 48.2979C136.939 48.8803 136.285 49.3382 135.556 49.6389C134.827 49.9397 134.041 50.0761 133.253 50.0384C132.499 50.0671 131.748 49.9318 131.051 49.6418C130.353 49.3518 129.727 48.914 129.215 48.3585C128.199 47.1898 127.664 45.6779 127.718 44.1288C127.653 42.5221 128.21 40.9523 129.274 39.7489C129.807 39.1766 130.458 38.7273 131.181 38.432C131.904 38.1367 132.683 38.0025 133.463 38.0386C134.221 38.0101 134.977 38.1453 135.679 38.4351C136.381 38.725 137.013 39.1627 137.532 39.7186C138.537 40.8915 139.061 42.4031 138.998 43.9482H138.997ZM136.335 44.0077C136.363 43.0512 136.124 42.1057 135.646 41.2775C135.419 40.8597 135.084 40.5111 134.676 40.2682C134.268 40.0253 133.802 39.8971 133.327 39.8971C132.853 39.8971 132.387 40.0253 131.979 40.2682C131.571 40.5111 131.236 40.8597 131.009 41.2775C130.53 42.1162 130.292 43.0712 130.32 44.037C130.292 44.9936 130.53 45.9391 131.009 46.7673C131.232 47.1911 131.569 47.5444 131.981 47.7881C132.393 48.0317 132.864 48.1562 133.342 48.1476C133.816 48.1535 134.282 48.0277 134.688 47.784C135.095 47.5403 135.426 47.1884 135.645 46.7673C136.124 45.9289 136.362 44.9744 136.335 44.0088V44.0077ZM147.284 40.5581C147.019 40.5086 146.749 40.4887 146.479 40.4985C146.074 40.4868 145.672 40.5735 145.307 40.7511C144.943 40.9287 144.626 41.192 144.385 41.5186C143.94 42.1925 143.72 42.9912 143.757 43.7989V49.8285H141.215V41.9394C141.215 40.7397 141.184 39.5097 141.155 38.307H143.369L143.458 40.4975H143.518C143.761 39.7756 144.208 39.1398 144.805 38.6672C145.341 38.2651 145.99 38.0446 146.659 38.0376C146.87 38.0277 147.082 38.0477 147.287 38.0972V40.5571L147.284 40.5581ZM158.713 43.4982C158.713 43.8901 158.683 44.2813 158.623 44.6686H150.964C150.944 45.1587 151.034 45.647 151.225 46.0984C151.416 46.5497 151.705 46.9529 152.071 47.2789C152.787 47.838 153.679 48.1241 154.586 48.086C155.646 48.0847 156.698 47.9021 157.697 47.5462L158.087 49.316C156.864 49.8226 155.55 50.068 154.227 50.0364C153.459 50.0826 152.69 49.9678 151.969 49.6992C151.247 49.4306 150.59 49.0142 150.038 48.4765C149.516 47.9085 149.113 47.2419 148.851 46.5157C148.589 45.7894 148.474 45.0182 148.513 44.2469C148.464 42.6769 148.962 41.1389 149.921 39.8972C150.395 39.2911 151.005 38.8065 151.702 38.4833C152.399 38.16 153.163 38.0072 153.93 38.0376C154.664 38.0026 155.395 38.1548 156.054 38.48C156.713 38.8052 157.279 39.2928 157.699 39.8972C158.404 40.9618 158.76 42.2203 158.717 43.4972L158.713 43.4982ZM156.29 42.8383C156.317 42.1428 156.14 41.4546 155.782 40.8587C155.573 40.5096 155.273 40.2244 154.915 40.0341C154.556 39.8438 154.152 39.7556 153.747 39.7791C153.348 39.7765 152.955 39.8707 152.601 40.0536C152.247 40.2365 151.942 40.5027 151.712 40.8295C151.274 41.4009 151.014 42.0897 150.965 42.8091L156.29 42.8394V42.8383Z" fill="white"/>
<path d="M68.1517 26.4001H64.2918V27.6603H63.3943V25.6192H63.9628C63.993 25.6192 64.0222 25.5889 64.0825 25.5597C64.1833 25.5038 64.2663 25.4206 64.322 25.3195C64.3951 25.2105 64.446 25.0881 64.4719 24.9593C64.5021 24.8396 64.532 24.6896 64.5615 24.5093C64.5917 24.359 64.5917 24.2066 64.6209 24.0593C64.6457 23.9307 64.6559 23.7997 64.651 23.6688C64.651 23.5488 64.6812 23.3984 64.6812 23.2491V21.1797H68.211V25.5294H69.0492V27.5695H68.1517V26.4001ZM65.0998 25.6192H67.2843V22.0202H65.4892C65.4892 22.3501 65.459 22.6205 65.459 22.8606V23.5508C65.459 23.7606 65.4288 23.9705 65.4288 24.1511C65.3987 24.3314 65.3688 24.5413 65.3393 24.7807C65.3103 24.953 65.2703 25.1231 65.2195 25.2903C65.1978 25.4057 65.1574 25.5168 65.0998 25.6192V25.6192Z" fill="white"/>
<path d="M71.2326 26.4899C70.9575 26.4888 70.6848 26.4379 70.4277 26.3396C70.1996 26.2457 69.9952 26.1023 69.829 25.9198C69.664 25.7393 69.5413 25.5243 69.4697 25.2902C69.3102 24.7826 69.3102 24.238 69.4697 23.7304C69.5532 23.5017 69.6747 23.2888 69.829 23.1008C69.9976 22.921 70.2014 22.7781 70.4277 22.681C70.9478 22.4809 71.5235 22.4809 72.0436 22.681C72.2717 22.7749 72.4761 22.9182 72.6423 23.1008C72.7966 23.2888 72.9181 23.5017 73.0015 23.7304C73.0872 23.9812 73.1278 24.2452 73.1213 24.5103C73.1301 24.7755 73.0895 25.04 73.0015 25.2902C72.9181 25.5189 72.7966 25.7318 72.6423 25.9198C72.462 26.1105 72.2429 26.2602 71.9998 26.3585C71.7568 26.4569 71.4955 26.5017 71.2336 26.4899H71.2326ZM71.2326 25.8603C71.4005 25.8671 71.5667 25.8254 71.7116 25.7402C71.8351 25.6556 71.9459 25.5537 72.0406 25.4375C72.1302 25.3125 72.1914 25.1692 72.2197 25.0178C72.2994 24.703 72.2994 24.3731 72.2197 24.0583C72.1914 23.9069 72.1302 23.7636 72.0406 23.6385C71.9459 23.5224 71.8351 23.4205 71.7116 23.3358C71.5681 23.2472 71.4008 23.2052 71.2326 23.2158C71.0648 23.2091 70.8986 23.2507 70.7537 23.3358C70.6302 23.4205 70.5194 23.5224 70.4246 23.6385C70.335 23.7636 70.2739 23.9069 70.2455 24.0583C70.1658 24.3731 70.1658 24.703 70.2455 25.0178C70.2739 25.1692 70.335 25.3125 70.4246 25.4375C70.5111 25.5612 70.6233 25.6645 70.7537 25.7402C70.9039 25.8113 71.0667 25.8518 71.2326 25.8593V25.8603Z" fill="white"/>
<path d="M76.2889 23.91C76.2819 23.8109 76.2543 23.7144 76.2078 23.6266C76.1614 23.5389 76.0972 23.4618 76.0193 23.4004C75.8571 23.2747 75.6555 23.211 75.4508 23.2208C75.3389 23.2261 75.2283 23.2461 75.1217 23.2804C74.9908 23.3092 74.8743 23.3836 74.7927 23.4902C74.6831 23.6108 74.6013 23.7541 74.5532 23.91C74.4859 24.1336 74.4557 24.3667 74.4637 24.6001C74.4687 24.7517 74.4886 24.9024 74.523 25.0501C74.5514 25.2015 74.6125 25.3448 74.7021 25.4699C74.7869 25.5855 74.8887 25.6875 75.004 25.7725C75.142 25.8476 75.2958 25.8888 75.4528 25.8926C75.5615 25.8995 75.6705 25.8845 75.7733 25.8485C75.8761 25.8124 75.9707 25.7561 76.0515 25.6827C76.2102 25.5062 76.315 25.2877 76.3533 25.0531H77.1583C77.104 25.472 76.915 25.8616 76.62 26.163C76.2947 26.4375 75.8772 26.5771 75.4528 26.5535C75.1864 26.5528 74.9225 26.5018 74.675 26.4032C74.4634 26.3086 74.2708 26.1763 74.1065 26.0127C73.9524 25.8353 73.8308 25.6321 73.7472 25.4123C73.6616 25.172 73.621 24.9178 73.6275 24.6627C73.621 24.3976 73.6615 24.1335 73.7472 23.8827C73.8188 23.6487 73.9415 23.4336 74.1065 23.2531C74.2554 23.065 74.4516 22.9202 74.675 22.8334C75.1342 22.6568 75.6386 22.6359 76.1108 22.7739C76.2882 22.8356 76.4585 22.9161 76.619 23.014C76.7691 23.1245 76.892 23.2681 76.9782 23.4337C77.0732 23.6215 77.1339 23.8248 77.1573 24.0341H76.2899L76.2889 23.91Z" fill="white"/>
<path d="M80.7464 23.2804H79.5198V26.4001H78.7149V23.2804H77.4259V22.6801H80.7464V23.2804Z" fill="white"/>
<path d="M80.8359 22.6801H81.7335L82.6904 25.4699L83.6181 22.6801H84.4855L83.0496 26.6151C82.9981 26.7826 82.9279 26.9437 82.8403 27.0953C82.7785 27.2448 82.698 27.3859 82.6008 27.5151C82.5086 27.6371 82.3842 27.7308 82.2416 27.7855C82.0695 27.8493 81.8868 27.8798 81.7033 27.8753C81.5133 27.8802 81.3232 27.87 81.1348 27.845V27.1498C81.1941 27.1498 81.2545 27.1801 81.3139 27.1801C81.3732 27.1801 81.4336 27.2104 81.493 27.2104C81.5741 27.2171 81.6556 27.2068 81.7325 27.1801C81.7862 27.157 81.8366 27.1268 81.8824 27.0903C81.9126 27.0308 81.9719 27.0005 81.9719 26.9399C82.0072 26.8724 82.0371 26.8023 82.0615 26.7301L82.151 26.4274L80.8359 22.6801Z" fill="white"/>
<path d="M84.9946 22.6801H88.4651V26.4001H87.6601V23.2804H85.7996V26.4001H84.9946V22.6801Z" fill="white"/>
<path d="M89.3625 22.6801H90.1675V24.2097H92.022V22.6801H92.8269V26.4001H92.022V24.8403H90.1675V26.4001H89.3625V22.6801Z" fill="white"/>
<path d="M95.4361 26.4899C95.1609 26.4888 94.8882 26.4379 94.6311 26.3396C94.4031 26.2457 94.1987 26.1023 94.0324 25.9198C93.8675 25.7393 93.7448 25.5243 93.6732 25.2902C93.5137 24.7826 93.5137 24.238 93.6732 23.7304C93.7567 23.5017 93.8781 23.2888 94.0324 23.1008C94.201 22.921 94.4049 22.7781 94.6311 22.681C95.1513 22.4809 95.7269 22.4809 96.2471 22.681C96.4751 22.7749 96.6796 22.9182 96.8458 23.1008C97.0001 23.2888 97.1215 23.5017 97.205 23.7304C97.2907 23.9812 97.3312 24.2452 97.3248 24.5103C97.3336 24.7755 97.293 25.04 97.205 25.2902C97.1216 25.5189 97.0001 25.7318 96.8458 25.9198C96.6655 26.1105 96.4463 26.2602 96.2033 26.3585C95.9602 26.4569 95.6989 26.5017 95.4371 26.4899H95.4361ZM95.4361 25.8603C95.6039 25.8671 95.7702 25.8254 95.9151 25.7402C96.0448 25.6637 96.1569 25.5606 96.2441 25.4375C96.3337 25.3125 96.3949 25.1692 96.4232 25.0178C96.5029 24.703 96.5029 24.3731 96.4232 24.0583C96.3949 23.9069 96.3337 23.7636 96.2441 23.6385C96.1494 23.5224 96.0386 23.4205 95.9151 23.3358C95.7716 23.2472 95.6043 23.2052 95.4361 23.2158C95.2683 23.209 95.1021 23.2507 94.9572 23.3358C94.8274 23.4123 94.7153 23.5155 94.6281 23.6385C94.5385 23.7636 94.4774 23.9069 94.449 24.0583C94.3693 24.3731 94.3693 24.703 94.449 25.0178C94.4774 25.1692 94.5385 25.3125 94.6281 25.4375C94.7145 25.5613 94.8268 25.6646 94.9572 25.7402C95.1061 25.8149 95.2696 25.8556 95.4361 25.8593V25.8603Z" fill="white"/>
<path d="M100.402 27.5393H99.6541V25.7988H100.133C100.209 25.7703 100.279 25.7298 100.342 25.6787C100.464 25.5929 100.55 25.4644 100.582 25.3185C100.616 25.2321 100.636 25.1408 100.641 25.0481C100.666 24.9602 100.676 24.8689 100.671 24.7777C100.671 24.6879 100.702 24.5678 100.702 24.4478V22.7093H103.78V25.7988H104.438V27.5393H103.69V26.3991H100.399L100.402 27.5393ZM102.975 23.2794H101.539V24.0865C101.544 24.2969 101.534 24.5073 101.508 24.7161C101.505 24.8779 101.485 25.0388 101.449 25.1964C101.426 25.3182 101.397 25.4384 101.36 25.5566C101.329 25.6161 101.329 25.707 101.3 25.7665H102.975V23.2794Z" fill="white"/>
<path d="M104.83 25.7988C104.96 25.8006 105.087 25.7583 105.189 25.6787C105.302 25.5843 105.385 25.4592 105.429 25.3185C105.463 25.2321 105.483 25.1408 105.488 25.0481C105.513 24.9602 105.523 24.8689 105.518 24.7777C105.518 24.6879 105.549 24.5678 105.549 24.4478V22.7093H108.627V26.3991H107.822V23.2794H106.386V24.0865C106.386 24.3267 106.356 24.5365 106.356 24.7161C106.352 24.8779 106.333 25.0388 106.296 25.1964C106.273 25.3182 106.244 25.4384 106.207 25.5566C106.176 25.6767 106.117 25.7968 106.087 25.8866C106.037 25.9903 105.965 26.0825 105.878 26.157C105.76 26.2403 105.628 26.3012 105.488 26.3366C105.271 26.3755 105.051 26.3954 104.83 26.3961H104.651C104.599 26.4039 104.546 26.3932 104.501 26.3658V25.7957C104.56 25.7957 104.591 25.826 104.651 25.826C104.708 25.8026 104.769 25.7932 104.83 25.7988V25.7988Z" fill="white"/>
<path d="M112.609 26.3991H111.772V24.9593H110.967L110.1 26.3991H109.109L110.185 24.8988C110.045 24.8633 109.913 24.8025 109.796 24.7192C109.708 24.6367 109.628 24.5462 109.556 24.4487C109.503 24.3535 109.463 24.2517 109.437 24.1461C109.413 24.047 109.403 23.9452 109.406 23.8434C109.412 23.7213 109.431 23.6004 109.466 23.4832C109.495 23.35 109.556 23.2262 109.645 23.123C109.755 22.9988 109.887 22.8962 110.034 22.8203C110.241 22.729 110.467 22.6879 110.692 22.7002H112.604V26.39L112.609 26.3991ZM111.772 23.2793H110.724C110.66 23.2737 110.594 23.2815 110.533 23.3021C110.471 23.3228 110.414 23.3559 110.365 23.3994C110.309 23.4524 110.266 23.5181 110.24 23.5911C110.214 23.6641 110.205 23.7423 110.215 23.8191C110.209 23.8914 110.219 23.9642 110.245 24.0319C110.271 24.0996 110.312 24.1604 110.365 24.2096C110.474 24.2762 110.597 24.3173 110.724 24.3297H111.772V23.2793Z" fill="white"/>
<path d="M115.42 23.6991C115.439 23.5304 115.494 23.3678 115.582 23.2226C115.67 23.0775 115.788 22.9532 115.929 22.8586C116.244 22.6673 116.608 22.5733 116.976 22.5882C117.177 22.5916 117.377 22.6116 117.575 22.6477C117.751 22.6994 117.921 22.7698 118.083 22.8576C118.221 22.9354 118.334 23.0495 118.412 23.1875C118.5 23.3314 118.542 23.4992 118.532 23.6678C118.537 23.8493 118.484 24.0277 118.382 24.1773C118.281 24.3167 118.131 24.4132 117.963 24.4477V24.4477C118.162 24.488 118.341 24.5947 118.471 24.7504C118.544 24.8314 118.601 24.9262 118.637 25.0294C118.673 25.1325 118.687 25.2418 118.681 25.3508C118.68 25.532 118.634 25.7101 118.545 25.8678C118.456 26.0255 118.327 26.1574 118.172 26.2508C118.016 26.3415 117.843 26.4023 117.664 26.4304C117.477 26.465 117.287 26.4849 117.096 26.4899C116.656 26.5193 116.218 26.4137 115.839 26.1872C115.677 26.0723 115.54 25.9251 115.437 25.7548C115.334 25.5845 115.267 25.3948 115.24 25.1974H116.045C116.063 25.3003 116.101 25.3984 116.158 25.486C116.214 25.5736 116.288 25.6488 116.374 25.7069C116.453 25.7633 116.547 25.7946 116.644 25.7967C116.752 25.8231 116.863 25.8333 116.973 25.827C117.192 25.8346 117.409 25.7826 117.601 25.6767C117.678 25.6307 117.741 25.5644 117.783 25.4851C117.825 25.4058 117.845 25.3164 117.84 25.2267C117.844 25.1547 117.832 25.0828 117.806 25.0156C117.781 24.9484 117.741 24.8873 117.69 24.8362C117.539 24.7407 117.36 24.6984 117.182 24.7161H116.584V24.0563H117.182C117.327 24.0654 117.472 24.0344 117.601 23.9665C117.651 23.9279 117.691 23.8777 117.717 23.8202C117.743 23.7627 117.755 23.6996 117.751 23.6365C117.761 23.5617 117.746 23.4857 117.708 23.4205C117.67 23.3553 117.611 23.3046 117.542 23.2763C117.36 23.2101 117.167 23.1796 116.973 23.1865C116.789 23.1763 116.605 23.207 116.435 23.2763C116.373 23.317 116.319 23.3699 116.278 23.4319C116.237 23.4938 116.209 23.5634 116.195 23.6365H115.417L115.42 23.6991Z" fill="white"/>
<path d="M122.481 25.5597C122.481 25.6495 122.481 25.7392 122.511 25.7695C122.552 25.807 122.606 25.8281 122.661 25.8291H122.87V26.3991C122.84 26.3991 122.811 26.4294 122.751 26.4294C122.69 26.4294 122.661 26.4597 122.601 26.4597C122.54 26.4597 122.511 26.4899 122.451 26.4899H122.331C122.186 26.4955 122.042 26.4646 121.913 26.4001C121.851 26.3621 121.799 26.3092 121.763 26.2464C121.726 26.1835 121.706 26.1126 121.703 26.0399C121.531 26.2007 121.327 26.3234 121.105 26.4001C120.881 26.4667 120.65 26.507 120.416 26.5202C120.255 26.5171 120.094 26.4971 119.937 26.4607C119.789 26.409 119.649 26.3384 119.519 26.2508C119.405 26.163 119.313 26.0501 119.249 25.9209C119.188 25.7683 119.157 25.605 119.16 25.4406C119.146 25.2431 119.188 25.0458 119.279 24.8705C119.349 24.7263 119.465 24.61 119.608 24.5406C119.746 24.4553 119.898 24.3945 120.057 24.361C120.236 24.3307 120.386 24.3015 120.565 24.2712C120.703 24.2388 120.843 24.2188 120.984 24.2117C121.105 24.2065 121.226 24.1865 121.343 24.1521C121.431 24.1306 121.513 24.0896 121.582 24.0321C121.615 23.9953 121.639 23.9524 121.655 23.906C121.67 23.8595 121.676 23.8104 121.672 23.7617C121.675 23.6638 121.643 23.5681 121.582 23.4913C121.531 23.4325 121.47 23.3819 121.403 23.3409C121.329 23.3036 121.247 23.2832 121.164 23.2814C121.074 23.2814 120.985 23.2511 120.894 23.2511C120.694 23.2467 120.497 23.2988 120.326 23.4015C120.249 23.4475 120.186 23.5137 120.144 23.593C120.101 23.6723 120.081 23.7617 120.086 23.8515H119.281C119.272 23.6368 119.335 23.4252 119.46 23.2511C119.558 23.0926 119.692 22.959 119.85 22.8606C120.019 22.7678 120.2 22.6972 120.388 22.6508C120.584 22.6013 120.785 22.5812 120.987 22.5912C121.168 22.5962 121.348 22.6162 121.525 22.6508C121.695 22.6788 121.858 22.7398 122.004 22.8304C122.142 22.9082 122.256 23.0223 122.333 23.1603C122.421 23.3149 122.463 23.4919 122.453 23.6698V25.5597H122.481ZM121.643 24.5396C121.507 24.6251 121.354 24.6767 121.194 24.6899C121.013 24.7052 120.833 24.7352 120.656 24.7797C120.573 24.7816 120.491 24.8019 120.416 24.8392C120.338 24.8608 120.265 24.9022 120.207 24.9593C120.148 25.0114 120.098 25.072 120.057 25.1389C120.017 25.2232 119.996 25.3158 119.998 25.4093C119.995 25.498 120.027 25.5841 120.087 25.6495C120.139 25.7081 120.2 25.7588 120.266 25.7998C120.344 25.8347 120.424 25.8646 120.506 25.8896C120.595 25.8896 120.685 25.9199 120.745 25.9199C120.847 25.9235 120.948 25.9133 121.047 25.8896C121.154 25.8683 121.257 25.8277 121.349 25.7695C121.442 25.7162 121.523 25.6449 121.589 25.5597C121.649 25.4606 121.68 25.346 121.678 25.2297V24.5396H121.643Z" fill="white"/>
<path d="M123.379 22.6801H125.894V23.2804H124.184V26.4001H123.379V22.6801Z" fill="white"/>
<path d="M126.4 22.679H127.178V23.1885C127.282 22.9884 127.451 22.8298 127.657 22.7385C127.863 22.6429 128.088 22.5917 128.315 22.5882C128.581 22.5888 128.845 22.6398 129.093 22.7385C129.303 22.8339 129.487 22.9778 129.631 23.1583C129.776 23.3478 129.887 23.5607 129.96 23.7879C130.031 24.042 130.072 24.3039 130.08 24.5678C130.08 24.8107 130.05 25.0527 129.99 25.2882C129.939 25.5185 129.836 25.734 129.689 25.9178C129.563 26.1037 129.386 26.2494 129.18 26.3375C128.954 26.4363 128.709 26.4875 128.462 26.4879C128.341 26.4927 128.221 26.4826 128.103 26.4576L127.744 26.3678C127.639 26.3148 127.538 26.2548 127.442 26.1882C127.34 26.1205 127.257 26.0273 127.202 25.9178V25.9178V27.7774H126.397L126.4 22.679ZM129.272 24.5385C129.269 24.3768 129.249 24.2159 129.213 24.0583C129.171 23.9112 129.111 23.7701 129.033 23.6385C128.946 23.5155 128.834 23.4123 128.704 23.3358C128.571 23.251 128.414 23.2091 128.256 23.2158C128.106 23.2052 127.957 23.2327 127.821 23.2957C127.685 23.3586 127.567 23.4551 127.478 23.576C127.287 23.8583 127.193 24.1949 127.208 24.5355C127.211 24.7069 127.231 24.8775 127.268 25.0451C127.307 25.1983 127.378 25.3414 127.477 25.4648C127.564 25.5791 127.677 25.6716 127.806 25.7352C127.947 25.7995 128.1 25.8303 128.255 25.825C128.423 25.8355 128.59 25.7936 128.734 25.7049C128.857 25.6203 128.968 25.5184 129.063 25.4022C129.152 25.2772 129.213 25.1339 129.242 24.9825C129.243 24.8695 129.272 24.7192 129.272 24.5396V24.5385Z" fill="white"/>
<path d="M130.38 22.6801H131.277L132.234 25.4699L133.162 22.6801H134.029L132.593 26.6151C132.542 26.7826 132.472 26.9437 132.384 27.0953C132.322 27.2448 132.242 27.3859 132.145 27.5151C132.052 27.6371 131.928 27.7308 131.785 27.7855C131.613 27.8493 131.431 27.8798 131.247 27.8753C131.057 27.8802 130.867 27.87 130.679 27.845V27.1498C130.738 27.1498 130.798 27.1801 130.858 27.1801C130.917 27.1801 130.977 27.2104 131.037 27.2104C131.118 27.2171 131.199 27.2068 131.276 27.1801C131.33 27.157 131.38 27.1268 131.426 27.0903C131.473 27.0523 131.505 26.9991 131.516 26.9399C131.551 26.8724 131.581 26.8023 131.605 26.7301L131.695 26.4274L130.38 22.6801Z" fill="white"/>
<path d="M134.448 23.6991C134.467 23.5304 134.522 23.3677 134.609 23.2226C134.697 23.0774 134.815 22.9532 134.956 22.8586C135.271 22.6673 135.635 22.5733 136.004 22.5882C136.204 22.5916 136.405 22.6116 136.602 22.6477C136.779 22.6994 136.949 22.7698 137.11 22.8576C137.248 22.9354 137.362 23.0495 137.439 23.1875C137.528 23.3314 137.57 23.4992 137.559 23.6678C137.564 23.8493 137.512 24.0277 137.409 24.1773C137.308 24.3167 137.159 24.4132 136.991 24.4477V24.4477C137.189 24.488 137.368 24.5947 137.499 24.7504C137.572 24.8314 137.628 24.9262 137.664 25.0294C137.7 25.1325 137.715 25.2418 137.708 25.3508C137.708 25.532 137.661 25.7101 137.572 25.8678C137.483 26.0255 137.355 26.1574 137.2 26.2508C137.043 26.3415 136.871 26.4023 136.692 26.4304C136.504 26.465 136.314 26.4849 136.123 26.4899C135.683 26.5193 135.245 26.4137 134.867 26.1872C134.704 26.0723 134.567 25.9251 134.464 25.7548C134.361 25.5845 134.294 25.3948 134.268 25.1974H135.073C135.09 25.3003 135.129 25.3984 135.185 25.486C135.242 25.5736 135.315 25.6488 135.402 25.7069C135.481 25.7634 135.575 25.7947 135.671 25.7967C135.779 25.8231 135.89 25.8333 136.001 25.827C136.219 25.8346 136.436 25.7826 136.628 25.6767C136.705 25.6307 136.768 25.5644 136.811 25.4851C136.853 25.4058 136.873 25.3164 136.868 25.2267C136.871 25.1547 136.86 25.0828 136.834 25.0156C136.808 24.9484 136.769 24.8873 136.718 24.8362C136.567 24.7407 136.388 24.6984 136.21 24.7161H135.611V24.0563H136.21C136.355 24.0654 136.5 24.0344 136.628 23.9665C136.678 23.9279 136.718 23.8777 136.744 23.8202C136.77 23.7627 136.782 23.6996 136.778 23.6365C136.788 23.5617 136.773 23.4857 136.735 23.4205C136.697 23.3553 136.639 23.3046 136.569 23.2763C136.387 23.2101 136.194 23.1796 136.001 23.1865C135.817 23.1763 135.633 23.207 135.462 23.2763C135.4 23.317 135.347 23.3699 135.306 23.4319C135.265 23.4938 135.236 23.5634 135.223 23.6365H134.445L134.448 23.6991Z" fill="white"/>
<path d="M138.397 22.6801H139.202V24.1804L140.671 22.6801H141.689L140.253 24.0603L141.808 26.4001H140.821L139.684 24.6001L139.205 25.0804V26.4001H138.397V22.6801Z" fill="white"/>
<path d="M142.257 22.6801H143.062V25.2297L144.678 22.6801H145.695V26.4001H144.89V23.8202L143.215 26.4001H142.227V22.6801H142.257Z" fill="white"/>
<path d="M148.629 22.68H150.574C150.861 22.673 151.143 22.7571 151.379 22.9202C151.483 23.0011 151.565 23.1065 151.617 23.227C151.67 23.3475 151.692 23.4792 151.681 23.6103C151.682 23.7821 151.63 23.9499 151.531 24.0906C151.436 24.2298 151.3 24.3357 151.142 24.3933V24.3933C151.244 24.4109 151.342 24.4493 151.43 24.506C151.517 24.5627 151.592 24.6366 151.65 24.7232C151.772 24.9102 151.834 25.1297 151.829 25.3528C151.828 25.4974 151.798 25.6402 151.74 25.7725C151.688 25.9004 151.605 26.0136 151.5 26.1025C151.381 26.2073 151.237 26.2796 151.082 26.3123C150.875 26.3612 150.665 26.3912 150.454 26.4021H148.599V22.68H148.629ZM149.468 24.2096H150.335C150.475 24.2209 150.615 24.178 150.724 24.0896C150.772 24.0489 150.81 23.9982 150.836 23.9412C150.862 23.8842 150.875 23.8223 150.874 23.7596C150.881 23.6918 150.871 23.6233 150.845 23.5604C150.819 23.4975 150.777 23.4422 150.724 23.3994C150.596 23.3315 150.451 23.3005 150.306 23.3096H149.468V24.2096ZM149.468 25.7998H150.425C150.588 25.8113 150.749 25.7572 150.873 25.6494C150.929 25.6026 150.973 25.5421 150.999 25.4738C151.025 25.4054 151.034 25.3315 151.023 25.259C151.027 25.187 151.015 25.1151 150.989 25.0479C150.963 24.9807 150.924 24.9196 150.873 24.8685C150.741 24.78 150.583 24.7378 150.425 24.7484H149.468V25.7998Z" fill="white"/>
</g>
<defs>
<clipPath id="clip0">
<rect width="162" height="48" fill="white" transform="translate(12 12)"/>
</clipPath>
</defs>
</svg>
