<svg width="187" height="72" viewBox="0 0 187 72" fill="none" xmlns="http://www.w3.org/2000/svg">
<g clip-path="url(#clip0)">
<path d="M172.92 54.334C172.92 55.5515 172.437 56.719 171.576 57.5799C170.715 58.4407 169.547 58.9244 168.33 58.9244H17.6701C16.4496 58.9254 15.2784 58.4431 14.4127 57.5828C13.5469 56.7226 13.0572 55.5545 13.0505 54.334V17.67C13.0513 17.0649 13.1716 16.466 13.4044 15.9075C13.6371 15.349 13.9779 14.842 14.4071 14.4155C14.8363 13.9891 15.3454 13.6515 15.9054 13.4223C16.4653 13.193 17.065 13.0766 17.6701 13.0796H168.3C169.517 13.0796 170.685 13.5633 171.546 14.4241C172.407 15.285 172.89 16.4525 172.89 17.67V17.67L172.92 54.33V54.334Z" fill="white"/>
<path d="M168.33 59.996H17.67C16.9256 59.9966 16.1883 59.8506 15.5003 59.5661C14.8124 59.2817 14.1872 58.8644 13.6607 58.3382C13.1341 57.812 12.7164 57.1871 12.4314 56.4994C12.1465 55.8116 11.9999 55.0745 12 54.33V17.67C12.004 16.1674 12.6026 14.7276 13.6651 13.6651C14.7276 12.6026 16.1674 12.004 17.67 12H168.3C169.807 11.9976 171.254 12.5932 172.322 13.6562C173.391 14.7192 173.994 16.1627 174 17.67V54.33C173.995 55.8319 173.396 57.2707 172.333 58.3323C171.271 59.3939 169.832 59.992 168.33 59.996V59.996Z" fill="black"/>
<path d="M172.92 54.334C172.92 55.5515 172.437 56.719 171.576 57.5799C170.715 58.4407 169.547 58.9244 168.33 58.9244H17.6701C16.4496 58.9254 15.2784 58.4431 14.4127 57.5828C13.5469 56.7226 13.0572 55.5545 13.0505 54.334V17.67C13.0513 17.0649 13.1716 16.466 13.4044 15.9075C13.6371 15.349 13.9779 14.842 14.4071 14.4155C14.8363 13.9891 15.3454 13.6515 15.9054 13.4223C16.4653 13.193 17.065 13.0766 17.6701 13.0796H168.3C169.517 13.0796 170.685 13.5633 171.546 14.4241C172.407 15.285 172.89 16.4525 172.89 17.67V17.67L172.92 54.33V54.334Z" fill="black"/>
<path d="M67.8608 26.3998H63.9909V27.6596H63.0903V25.62H63.6598C63.69 25.62 63.7202 25.5898 63.7796 25.5596C63.8808 25.5037 63.9642 25.4204 64.0201 25.3192C64.0931 25.21 64.144 25.0876 64.17 24.9589C64.2002 24.8389 64.23 24.6889 64.2596 24.5092C64.2897 24.3592 64.2897 24.2073 64.3199 24.0594C64.3449 23.9308 64.355 23.7998 64.3501 23.669C64.3501 23.5492 64.3803 23.3993 64.3803 23.2494V21.1796H67.9201V25.5295H68.7603V27.569H67.8608V26.3998ZM64.8009 25.62H66.9904V22.0198H65.1903C65.1903 22.3498 65.1601 22.6235 65.1601 22.86V23.5502C65.1601 23.7605 65.1299 23.9698 65.1299 24.154C65.0997 24.3337 65.0699 24.5437 65.0404 24.7839C65.0114 24.9563 64.9714 25.1267 64.9206 25.294C64.8987 25.4084 64.8582 25.5186 64.8009 25.62V25.62Z" fill="white"/>
<path d="M70.9499 26.4903C70.6747 26.4891 70.4021 26.4384 70.1449 26.3404C69.9151 26.247 69.7088 26.1037 69.5412 25.9208C69.3758 25.7403 69.2527 25.5251 69.181 25.291C69.0211 24.7834 69.0211 24.2389 69.181 23.7313C69.2646 23.5025 69.3864 23.2896 69.5412 23.1014C69.7112 22.9213 69.9168 22.7784 70.1449 22.6819C70.6664 22.4819 71.2434 22.4819 71.7649 22.6819C71.9948 22.7752 72.201 22.9186 72.3687 23.1014C72.5234 23.2896 72.6452 23.5025 72.7289 23.7313C72.8147 23.9821 72.8552 24.2462 72.8486 24.5111C72.8576 24.7763 72.817 25.0407 72.7289 25.291C72.6452 25.5197 72.5234 25.7327 72.3687 25.9208C72.1882 26.111 71.9691 26.2602 71.7261 26.3584C71.4831 26.4566 71.2218 26.5016 70.9599 26.4903H70.9499ZM70.9499 25.8605C71.118 25.8672 71.2846 25.8257 71.4298 25.7407C71.5537 25.6563 71.6648 25.5547 71.7599 25.4389C71.8499 25.3139 71.9114 25.1706 71.94 25.0193C72.02 24.7043 72.02 24.3743 71.94 24.0594C71.9114 23.908 71.8499 23.7648 71.7599 23.6398C71.6648 23.5239 71.5537 23.4223 71.4298 23.3379C71.286 23.2494 71.1184 23.2076 70.9499 23.2182C70.7817 23.2114 70.6152 23.2529 70.4699 23.3379C70.3461 23.4223 70.235 23.5239 70.1399 23.6398C70.0498 23.7648 69.9883 23.908 69.9598 24.0594C69.8798 24.3743 69.8798 24.7043 69.9598 25.0193C69.9883 25.1706 70.0498 25.3139 70.1399 25.4389C70.2266 25.5623 70.3393 25.6653 70.4699 25.7407C70.6205 25.8117 70.7836 25.852 70.9499 25.8595V25.8605Z" fill="white"/>
<path d="M76.0212 23.9094C76.0143 23.8103 75.9867 23.7137 75.9403 23.6258C75.8938 23.538 75.8295 23.4608 75.7515 23.3993C75.5891 23.2736 75.3872 23.2097 75.182 23.2192C75.0698 23.2247 74.9588 23.245 74.852 23.2796C74.7206 23.3085 74.6037 23.383 74.5219 23.4898C74.4118 23.6103 74.3297 23.7536 74.2814 23.9094C74.214 24.1331 74.1838 24.3663 74.1919 24.5997C74.1972 24.7512 74.2174 24.9019 74.2522 25.0495C74.2808 25.2008 74.3423 25.3441 74.4324 25.4691C74.5172 25.5843 74.619 25.686 74.7342 25.7709C74.8726 25.8459 75.0267 25.8869 75.184 25.8907C75.2936 25.898 75.4036 25.8831 75.5073 25.847C75.611 25.8109 75.7064 25.7542 75.7877 25.6804C75.9466 25.5037 76.0514 25.285 76.0896 25.0505H76.8946C76.8394 25.4683 76.6497 25.8568 76.3542 26.1573C76.0281 26.4316 75.6095 26.5712 75.184 26.5477C74.917 26.5472 74.6524 26.4963 74.4042 26.3978C74.1923 26.3031 73.9994 26.1708 73.8347 26.0074C73.6798 25.829 73.5579 25.6246 73.4744 25.4036C73.3887 25.1633 73.3481 24.9091 73.3547 24.654C73.3481 24.389 73.3886 24.125 73.4744 23.8742C73.5462 23.6401 73.6692 23.4249 73.8347 23.2443C73.9838 23.0563 74.1804 22.9115 74.4042 22.8247C74.8646 22.6478 75.3704 22.6266 75.8441 22.7644C76.0222 22.8262 76.1932 22.9068 76.3542 23.0049C76.5048 23.1153 76.628 23.2589 76.7144 23.4244C76.8103 23.6132 76.8713 23.8177 76.8946 24.0282H76.0242L76.0212 23.9094Z" fill="white"/>
<path d="M80.4897 23.2836H79.2601V26.4028H78.4501V23.2836H77.1602V22.6799H80.4897V23.2836Z" fill="white"/>
<path d="M80.5803 22.6799H81.4799L82.4398 25.4701L83.3695 22.6799H84.2399L82.8 26.6101C82.7483 26.7775 82.6777 26.9385 82.5897 27.0901C82.5276 27.2395 82.4468 27.3805 82.3492 27.5097C82.2567 27.6314 82.1319 27.7248 81.989 27.7793C81.8162 27.8432 81.6328 27.8735 81.4487 27.8689C81.2583 27.8738 81.0679 27.8637 80.8792 27.8387V27.1484C80.9395 27.1484 80.9989 27.1786 81.0593 27.1786C81.1197 27.1786 81.179 27.2088 81.2394 27.2088C81.3208 27.2156 81.4027 27.2054 81.4799 27.1786C81.5336 27.1556 81.584 27.1255 81.6298 27.0891C81.66 27.0287 81.7193 26.9995 81.7193 26.9391C81.7546 26.8715 81.7846 26.8012 81.8089 26.7288L81.8985 26.427L80.5803 22.6799Z" fill="white"/>
<path d="M84.75 22.6799H88.2305V26.4028H87.4255V23.2836H85.565V26.4028H84.75V22.6799Z" fill="white"/>
<path d="M89.1301 22.6799H89.9351V24.2103H91.7956V22.6799H92.6006V26.4028H91.7956V24.8432H89.9351V26.4028H89.1301V22.6799Z" fill="white"/>
<path d="M95.2197 26.4903C94.9429 26.4897 94.6684 26.4389 94.4097 26.3404C94.1799 26.247 93.9736 26.1037 93.806 25.9208C93.6405 25.7403 93.5175 25.5251 93.4457 25.291C93.2858 24.7834 93.2858 24.2389 93.4457 23.7313C93.5294 23.5025 93.6512 23.2896 93.806 23.1014C93.976 22.9213 94.1816 22.7784 94.4097 22.6819C94.9312 22.4819 95.5082 22.4819 96.0297 22.6819C96.2595 22.7752 96.4658 22.9186 96.6334 23.1014C96.7882 23.2896 96.91 23.5025 96.9936 23.7313C97.0794 23.9821 97.12 24.2462 97.1134 24.5111C97.1223 24.7763 97.0817 25.0407 96.9936 25.291C96.91 25.5197 96.7882 25.7327 96.6334 25.9208C96.453 26.111 96.2339 26.2602 95.9908 26.3584C95.7478 26.4566 95.4866 26.5016 95.2247 26.4903H95.2197ZM95.2197 25.8605C95.3878 25.8672 95.5544 25.8257 95.6996 25.7407C95.8297 25.6645 95.9422 25.5616 96.0297 25.4389C96.1197 25.3139 96.1812 25.1706 96.2098 25.0193C96.2898 24.7043 96.2898 24.3743 96.2098 24.0594C96.1812 23.908 96.1197 23.7648 96.0297 23.6398C95.9346 23.5239 95.8235 23.4223 95.6996 23.3379C95.5559 23.2494 95.3882 23.2076 95.2197 23.2182C95.0516 23.2114 94.885 23.2529 94.7397 23.3379C94.6097 23.4141 94.4972 23.517 94.4097 23.6398C94.3197 23.7648 94.2582 23.908 94.2296 24.0594C94.1496 24.3743 94.1496 24.7043 94.2296 25.0193C94.2582 25.1706 94.3197 25.3139 94.4097 25.4389C94.4965 25.5623 94.6091 25.6653 94.7397 25.7407C94.889 25.8152 95.0529 25.8558 95.2197 25.8595V25.8605Z" fill="white"/>
<path d="M100.2 27.5399H99.4508V25.8001H99.9308C100.007 25.7718 100.078 25.7314 100.141 25.6804C100.264 25.5947 100.349 25.4661 100.382 25.3202C100.416 25.234 100.436 25.143 100.442 25.0505C100.467 24.9629 100.477 24.8718 100.472 24.7809C100.472 24.6913 100.502 24.5706 100.502 24.4508V22.7101H103.592V25.8001H104.252V27.5399H103.503V26.3998H100.202L100.2 27.5399ZM102.78 23.2796H101.34V24.0896C101.346 24.3 101.336 24.5106 101.31 24.7195C101.307 24.8811 101.287 25.042 101.25 25.1994C101.227 25.3212 101.197 25.4415 101.16 25.5597C101.13 25.62 101.13 25.7096 101.1 25.77H102.78V23.2796Z" fill="white"/>
<path d="M104.641 25.8001C104.771 25.802 104.898 25.7598 105.001 25.6804C105.114 25.586 105.198 25.4609 105.242 25.3202C105.276 25.234 105.296 25.143 105.302 25.0505C105.327 24.9629 105.337 24.8718 105.332 24.7809C105.332 24.6913 105.362 24.5706 105.362 24.4508V22.7101H108.452V26.3998H107.642V23.2806H106.202V24.0906C106.202 24.3311 106.172 24.5404 106.172 24.7205C106.169 24.8821 106.149 25.043 106.112 25.2004C106.089 25.3222 106.059 25.4425 106.022 25.5607C105.992 25.6804 105.933 25.8011 105.903 25.8907C105.852 25.9943 105.78 26.0861 105.692 26.1604C105.574 26.2438 105.442 26.3049 105.302 26.3405C105.084 26.3797 104.863 26.3999 104.642 26.4008H104.462C104.41 26.4086 104.357 26.398 104.312 26.3707V25.8011C104.372 25.8011 104.401 25.8313 104.462 25.8313C104.518 25.8066 104.579 25.7959 104.641 25.8001V25.8001Z" fill="white"/>
<path d="M112.44 26.3998H111.6V24.9599H110.79L109.919 26.3998H108.93L110.01 24.8996C109.87 24.864 109.738 24.8029 109.62 24.7195C109.531 24.6372 109.451 24.547 109.379 24.4498C109.326 24.3548 109.286 24.2533 109.259 24.1479C109.236 24.0491 109.226 23.9476 109.229 23.8461C109.235 23.724 109.255 23.603 109.29 23.4858C109.319 23.3526 109.38 23.2288 109.47 23.1256C109.58 23.0018 109.712 22.8995 109.86 22.8238C110.068 22.7326 110.294 22.6916 110.52 22.704H112.44V26.3998ZM111.6 23.2806H110.55C110.485 23.2749 110.42 23.2826 110.358 23.3032C110.296 23.3237 110.239 23.3568 110.19 23.4003C110.133 23.4533 110.09 23.519 110.064 23.592C110.038 23.6649 110.03 23.7431 110.04 23.8199C110.034 23.8921 110.044 23.9649 110.07 24.0326C110.096 24.1003 110.137 24.1611 110.19 24.2103C110.3 24.2768 110.423 24.3177 110.55 24.3301H111.601L111.6 23.2806Z" fill="white"/>
<path d="M115.26 23.6961C115.279 23.5274 115.335 23.3648 115.423 23.2197C115.511 23.0746 115.63 22.9505 115.771 22.856C116.087 22.6649 116.452 22.5711 116.821 22.5863C117.024 22.5898 117.225 22.61 117.425 22.6467C117.602 22.6984 117.773 22.7689 117.935 22.857C118.073 22.9348 118.187 23.0489 118.265 23.187C118.353 23.3308 118.395 23.4985 118.385 23.667C118.39 23.8486 118.337 24.0272 118.235 24.1771C118.133 24.3162 117.984 24.4123 117.815 24.4468V24.4468C118.015 24.4866 118.194 24.5931 118.325 24.7486C118.399 24.83 118.456 24.9253 118.492 25.0291C118.528 25.1328 118.543 25.2428 118.536 25.3524C118.535 25.5335 118.488 25.7116 118.399 25.8692C118.309 26.0268 118.181 26.1586 118.025 26.2519C117.868 26.3428 117.695 26.4039 117.515 26.432C117.327 26.4669 117.137 26.4871 116.946 26.4924C116.505 26.522 116.066 26.4167 115.686 26.1905C115.523 26.0759 115.385 25.9288 115.281 25.7585C115.177 25.5881 115.109 25.3981 115.082 25.2004H115.887C115.905 25.3034 115.943 25.4017 116 25.4894C116.057 25.5771 116.131 25.6523 116.217 25.7106C116.296 25.7667 116.39 25.7979 116.487 25.8001C116.595 25.8264 116.706 25.8366 116.817 25.8303C117.037 25.838 117.254 25.7862 117.447 25.6804C117.524 25.6345 117.587 25.5683 117.63 25.489C117.672 25.4097 117.692 25.3204 117.687 25.2306C117.691 25.1587 117.679 25.0868 117.654 25.0196C117.628 24.9524 117.588 24.8913 117.537 24.8402C117.385 24.7445 117.206 24.7024 117.027 24.7205H116.424V24.0604H117.027C117.173 24.0696 117.318 24.0386 117.447 23.9708C117.497 23.9322 117.537 23.882 117.563 23.8244C117.589 23.7669 117.601 23.7039 117.597 23.6408C117.607 23.5659 117.591 23.4899 117.553 23.4247C117.515 23.3594 117.457 23.3088 117.387 23.2806C117.204 23.2144 117.011 23.184 116.817 23.191C116.632 23.1807 116.448 23.2113 116.277 23.2806C116.214 23.3213 116.161 23.3743 116.12 23.4362C116.079 23.4981 116.051 23.5677 116.037 23.6408H115.257L115.26 23.6961Z" fill="white"/>
<path d="M122.34 25.5597C122.34 25.6492 122.34 25.7398 122.37 25.77C122.411 25.8076 122.465 25.8291 122.52 25.8303H122.731V26.3998C122.7 26.3998 122.67 26.43 122.611 26.43C122.551 26.43 122.521 26.4602 122.461 26.4602C122.4 26.4602 122.371 26.4904 122.311 26.4904H122.191C122.046 26.496 121.902 26.4652 121.772 26.4009C121.71 26.3628 121.658 26.3101 121.621 26.2472C121.584 26.1843 121.564 26.1134 121.561 26.0406C121.388 26.2019 121.182 26.3246 120.958 26.4009C120.733 26.4673 120.501 26.5075 120.267 26.5206C120.106 26.5172 119.945 26.4969 119.787 26.4602C119.639 26.4084 119.498 26.3377 119.368 26.2499C119.254 26.1621 119.161 26.0491 119.098 25.9199C119.037 25.7674 119.006 25.6043 119.009 25.4399C118.995 25.2427 119.037 25.0456 119.128 24.8704C119.198 24.7261 119.314 24.6097 119.458 24.5404C119.597 24.4549 119.749 24.394 119.908 24.3603C120.088 24.3301 120.238 24.2999 120.418 24.2707C120.556 24.238 120.696 24.2178 120.838 24.2103C120.96 24.2049 121.081 24.1846 121.198 24.15C121.286 24.1285 121.368 24.0876 121.438 24.0302C121.47 23.9935 121.494 23.9507 121.51 23.9044C121.525 23.8581 121.531 23.8092 121.527 23.7606C121.53 23.663 121.498 23.5676 121.438 23.4909C121.385 23.4323 121.325 23.3818 121.257 23.341C121.183 23.3035 121.101 23.2828 121.018 23.2806C120.928 23.2806 120.838 23.2504 120.748 23.2504C120.548 23.246 120.351 23.298 120.179 23.4003C120.102 23.4464 120.039 23.5126 119.996 23.5919C119.954 23.6712 119.934 23.7605 119.939 23.8501H119.129C119.119 23.6343 119.183 23.4214 119.309 23.2464C119.408 23.0879 119.541 22.9542 119.7 22.856C119.87 22.7629 120.052 22.6922 120.24 22.6457C120.437 22.5956 120.641 22.5753 120.844 22.5853C121.025 22.5906 121.206 22.6108 121.384 22.6457C121.554 22.6739 121.717 22.7351 121.864 22.8258C122.002 22.9036 122.116 23.0178 122.194 23.1558C122.283 23.3107 122.324 23.4879 122.314 23.666V25.5556L122.34 25.5597ZM121.5 24.5394C121.364 24.6247 121.21 24.6761 121.05 24.6893C120.868 24.7045 120.687 24.7344 120.51 24.7789C120.426 24.7809 120.344 24.8016 120.269 24.8392C120.19 24.8607 120.118 24.9019 120.059 24.959C120 25.0112 119.95 25.0719 119.909 25.1391C119.868 25.2231 119.848 25.3154 119.849 25.4087C119.846 25.4975 119.878 25.5838 119.938 25.6492C119.991 25.7078 120.051 25.7583 120.118 25.7991C120.197 25.8339 120.277 25.8639 120.359 25.8887C120.448 25.8887 120.539 25.9189 120.599 25.9189C120.701 25.9225 120.802 25.9123 120.901 25.8887C121.008 25.8674 121.111 25.8269 121.203 25.769C121.296 25.7155 121.378 25.644 121.443 25.5587C121.504 25.4596 121.535 25.345 121.532 25.2286V24.5384L121.5 24.5394Z" fill="white"/>
<path d="M123.241 22.6799H125.756V23.2836H124.046V26.4028H123.241V22.6799Z" fill="white"/>
<path d="M126.27 22.6788H127.05V23.193C127.154 22.993 127.324 22.8344 127.53 22.7432C127.737 22.6478 127.962 22.5967 128.19 22.5933C128.457 22.5938 128.722 22.6447 128.97 22.7432C129.181 22.8385 129.366 22.9823 129.51 23.1628C129.655 23.3525 129.767 23.5655 129.84 23.7927C129.912 24.0468 129.952 24.3087 129.96 24.5725C129.96 24.8154 129.93 25.0574 129.87 25.293C129.82 25.5233 129.716 25.7389 129.569 25.9229C129.442 26.1087 129.265 26.2544 129.058 26.3424C128.831 26.4412 128.586 26.4922 128.338 26.4924C128.217 26.4973 128.096 26.4871 127.978 26.4622L127.618 26.3726C127.513 26.3194 127.412 26.2592 127.316 26.1925C127.213 26.1251 127.131 26.0321 127.075 25.9229V25.9229V27.7833H126.27V22.6788ZM129.15 24.5393C129.147 24.3777 129.126 24.2168 129.09 24.0594C129.048 23.9123 128.987 23.7713 128.91 23.6398C128.822 23.517 128.71 23.4142 128.58 23.3379C128.445 23.2532 128.288 23.2114 128.13 23.2182C127.98 23.2077 127.83 23.2352 127.694 23.2982C127.557 23.3611 127.439 23.4575 127.35 23.5784C127.159 23.861 127.064 24.1976 127.08 24.5383C127.084 24.7099 127.104 24.8808 127.141 25.0485C127.18 25.2017 127.252 25.3448 127.351 25.468C127.439 25.5821 127.552 25.6743 127.681 25.7377C127.822 25.8018 127.976 25.8324 128.131 25.8273C128.299 25.8378 128.467 25.796 128.611 25.7075C128.735 25.6231 128.846 25.5215 128.941 25.4057C129.031 25.2807 129.092 25.1374 129.121 24.9861C129.12 24.8694 129.15 24.7194 129.15 24.5393Z" fill="white"/>
<path d="M130.26 22.6799H131.16L132.119 25.4701L133.049 22.6799H133.92L132.48 26.6101C132.428 26.7775 132.357 26.9385 132.269 27.0901C132.207 27.2395 132.127 27.3805 132.029 27.5097C131.936 27.6314 131.812 27.7248 131.669 27.7793C131.496 27.8432 131.313 27.8735 131.128 27.8689C130.938 27.8738 130.748 27.8637 130.559 27.8387V27.1484C130.619 27.1484 130.679 27.1786 130.739 27.1786C130.799 27.1786 130.859 27.2088 130.919 27.2088C131 27.2157 131.082 27.2054 131.16 27.1786C131.213 27.1556 131.264 27.1255 131.309 27.0891C131.356 27.0512 131.388 26.9981 131.399 26.9391C131.434 26.8715 131.464 26.8012 131.489 26.7288L131.578 26.427L130.26 22.6799Z" fill="white"/>
<path d="M134.34 23.6961C134.359 23.5274 134.414 23.3648 134.503 23.2197C134.591 23.0746 134.709 22.9505 134.85 22.856C135.166 22.6649 135.532 22.5711 135.901 22.5863C136.103 22.5898 136.305 22.61 136.505 22.6467C136.682 22.6984 136.853 22.769 137.015 22.857C137.153 22.9348 137.267 23.0489 137.345 23.187C137.433 23.3308 137.475 23.4985 137.465 23.667C137.47 23.8486 137.417 24.0272 137.315 24.1771C137.213 24.3162 137.064 24.4123 136.895 24.4468V24.4468C137.094 24.4866 137.274 24.5931 137.405 24.7486C137.479 24.83 137.536 24.9253 137.572 25.0291C137.608 25.1328 137.623 25.2428 137.615 25.3524C137.615 25.5335 137.568 25.7116 137.479 25.8692C137.389 26.0268 137.261 26.1586 137.105 26.2519C136.948 26.3428 136.775 26.4039 136.595 26.432C136.407 26.4669 136.217 26.4871 136.026 26.4924C135.585 26.5219 135.145 26.4166 134.766 26.1905C134.602 26.0759 134.465 25.9288 134.361 25.7585C134.257 25.5881 134.189 25.3981 134.162 25.2004H134.967C134.985 25.3034 135.023 25.4017 135.08 25.4894C135.136 25.5771 135.21 25.6523 135.297 25.7106C135.376 25.7667 135.47 25.7979 135.567 25.8001C135.675 25.8264 135.786 25.8366 135.897 25.8303C136.116 25.838 136.334 25.7862 136.527 25.6804C136.604 25.6345 136.667 25.5683 136.71 25.489C136.752 25.4097 136.772 25.3204 136.767 25.2306C136.771 25.1587 136.759 25.0868 136.733 25.0196C136.708 24.9524 136.668 24.8913 136.617 24.8402C136.465 24.7445 136.286 24.7024 136.107 24.7205H135.503V24.0604H136.107C136.253 24.0696 136.398 24.0386 136.527 23.9708C136.577 23.9322 136.617 23.882 136.643 23.8244C136.669 23.7669 136.68 23.7039 136.677 23.6408C136.687 23.5659 136.671 23.4899 136.633 23.4247C136.595 23.3594 136.536 23.3088 136.466 23.2806C136.284 23.2144 136.091 23.184 135.897 23.191C135.712 23.1807 135.528 23.2113 135.356 23.2806C135.294 23.3214 135.241 23.3743 135.2 23.4362C135.159 23.4981 135.131 23.5677 135.117 23.6408H134.337L134.34 23.6961Z" fill="white"/>
<path d="M138.301 22.6799H139.111V24.1801L140.581 22.6799H141.601L140.161 24.0594L141.722 26.4028H140.732L139.591 24.6027L139.112 25.0827V26.4028H138.301V22.6799Z" fill="white"/>
<path d="M142.17 22.6799H142.98V25.2296L144.6 22.6799H145.621V26.4028H144.816V23.8199L143.135 26.3998H142.14V22.6799H142.17Z" fill="white"/>
<path d="M148.561 22.6798H150.511C150.798 22.6734 151.08 22.7576 151.316 22.9203C151.42 23.0013 151.501 23.1068 151.554 23.2273C151.607 23.3478 151.629 23.4795 151.618 23.6106C151.619 23.7822 151.566 23.9499 151.468 24.0905C151.373 24.2296 151.236 24.3351 151.078 24.3924V24.3924C151.18 24.41 151.279 24.4483 151.366 24.505C151.454 24.5618 151.529 24.6357 151.588 24.7224C151.71 24.9094 151.773 25.129 151.768 25.3523C151.767 25.4968 151.736 25.6396 151.678 25.7719C151.626 25.8997 151.544 26.013 151.439 26.102C151.319 26.2069 151.175 26.2793 151.019 26.3122C150.812 26.361 150.601 26.391 150.389 26.4018H148.531V22.6798H148.561ZM149.401 24.2103H150.271C150.412 24.2216 150.552 24.1788 150.662 24.0905C150.709 24.0498 150.748 23.9991 150.773 23.9421C150.799 23.8851 150.812 23.8231 150.812 23.7605C150.819 23.6927 150.809 23.6243 150.783 23.5614C150.756 23.4985 150.715 23.4431 150.662 23.4003C150.533 23.3325 150.388 23.3016 150.242 23.3107H149.402L149.401 24.2103ZM149.401 25.8001H150.361C150.525 25.8116 150.687 25.7577 150.811 25.6502C150.867 25.6033 150.91 25.5428 150.937 25.4745C150.963 25.4061 150.971 25.3322 150.961 25.2598C150.964 25.1878 150.953 25.116 150.927 25.0488C150.901 24.9815 150.862 24.9204 150.811 24.8694C150.678 24.781 150.52 24.7389 150.361 24.7496H149.401V25.8001Z" fill="white"/>
<path d="M132.48 48.2969C131.904 48.2917 131.335 48.1798 130.8 47.9668C130.29 47.7295 129.846 47.3684 129.51 46.9163H129.42C129.48 47.434 129.51 47.9548 129.51 48.476V52.3458H128.071V38.6957H129.241L129.451 39.9856H129.511C129.837 39.5098 130.282 39.1281 130.801 38.8788C131.327 38.6375 131.903 38.5244 132.481 38.5488C133.033 38.5167 133.586 38.617 134.092 38.8413C134.598 39.0657 135.043 39.4076 135.391 39.8387C136.134 40.886 136.495 42.1573 136.411 43.4389C136.491 44.7245 136.12 45.9978 135.362 47.0391C135.013 47.4589 134.57 47.7915 134.07 48.0102C133.57 48.2289 133.026 48.3278 132.481 48.2989L132.48 48.2969ZM132.27 39.7441C131.882 39.7106 131.491 39.7661 131.127 39.9065C130.763 40.0469 130.436 40.2683 130.171 40.5541C129.664 41.3029 129.431 42.2033 129.51 43.1038V43.4339C129.421 44.4298 129.652 45.4282 130.171 46.2835C130.431 46.5867 130.76 46.8237 131.131 46.975C131.501 47.1263 131.902 47.1876 132.3 47.1538C132.678 47.1665 133.054 47.0822 133.39 46.9089C133.726 46.7355 134.012 46.479 134.22 46.1637C134.72 45.3441 134.961 44.3926 134.911 43.4339C134.965 42.4843 134.724 41.5411 134.22 40.7342C134.013 40.4108 133.723 40.1486 133.38 39.9746C133.037 39.8006 132.654 39.721 132.27 39.7441V39.7441ZM139.71 48.1137H138.27V34.7312H139.71V48.1137ZM147.93 48.1137L147.66 46.7634H147.6C147.242 47.2782 146.756 47.6916 146.191 47.9638C145.642 48.1968 145.047 48.3001 144.452 48.2657C143.655 48.3233 142.868 48.0644 142.261 47.5452C141.992 47.274 141.782 46.9503 141.643 46.5942C141.505 46.2381 141.441 45.8572 141.456 45.4755C141.456 43.5858 142.987 42.5656 146.016 42.476L147.606 42.4156V41.8119C147.66 41.221 147.488 40.6318 147.126 40.1617C146.924 39.9686 146.683 39.8206 146.419 39.7275C146.155 39.6343 145.875 39.5981 145.596 39.6214C144.662 39.6473 143.746 39.8942 142.926 40.3418L142.476 39.2622C142.96 38.9992 143.474 38.7965 144.007 38.6585C144.555 38.513 145.12 38.4422 145.687 38.4482C146.582 38.3725 147.472 38.6406 148.177 39.1978C148.471 39.5194 148.696 39.899 148.835 40.3122C148.975 40.7254 149.026 41.1633 148.986 41.5976V48.0473L147.937 48.1077L147.93 48.1137ZM144.69 47.1236C145.457 47.1666 146.211 46.9081 146.79 46.4032C147.055 46.1377 147.26 45.8179 147.389 45.4658C147.519 45.1136 147.571 44.7376 147.541 44.3636V43.5235L146.101 43.5838C145.248 43.546 144.399 43.7323 143.64 44.1242C143.392 44.2768 143.192 44.4946 143.059 44.7539C142.927 45.0132 142.868 45.3039 142.89 45.5942C142.876 45.813 142.912 46.0321 142.995 46.2349C143.079 46.4377 143.207 46.6188 143.371 46.7644C143.765 47.0148 144.225 47.1404 144.691 47.1247L144.69 47.1236ZM149.822 38.6936H151.352L153.422 44.0638C153.76 44.9345 154.041 45.8266 154.261 46.7343H154.322C154.382 46.4324 154.562 45.9544 154.803 45.234C155.043 44.5135 155.823 42.3542 157.142 38.6936H158.673L154.623 49.4339C154.36 50.295 153.874 51.0712 153.215 51.6838C152.656 52.135 151.953 52.3694 151.235 52.3439C150.801 52.3385 150.368 52.2882 149.944 52.1939V51.0539C150.289 51.1283 150.642 51.1584 150.994 51.1435C151.478 51.1431 151.949 50.9803 152.329 50.6811C152.71 50.3819 152.979 49.9637 153.094 49.4933L153.634 48.1429L149.822 38.6936ZM106.021 39.564C106.451 39.8661 106.802 40.2657 107.047 40.7299C107.292 41.1941 107.423 41.7097 107.43 42.2345C107.417 42.8021 107.259 43.3568 106.97 43.8455C106.681 44.3341 106.271 44.7402 105.78 45.0247C105.628 45.1386 105.502 45.2828 105.409 45.448C105.316 45.6133 105.259 45.796 105.241 45.9846C105.251 46.1556 105.303 46.3215 105.392 46.468C105.48 46.6144 105.604 46.7369 105.751 46.8248L106.47 47.3652C106.95 47.6547 107.352 48.0579 107.64 48.5391C107.928 49.0204 108.093 49.5651 108.12 50.1252C108.12 51.9856 106.32 53.8481 102.93 53.8481C100.081 53.8481 98.7043 52.4978 98.7043 51.0308C98.724 50.5311 98.8761 50.0456 99.145 49.6239C99.4139 49.2023 99.79 48.8596 100.235 48.631C101.409 48.0434 102.702 47.7354 104.015 47.7314C103.655 47.3706 103.44 46.89 103.411 46.3811C103.406 46.1066 103.479 45.8363 103.62 45.6012C103.411 45.6263 103.201 45.6364 102.991 45.6314C102.57 45.6532 102.151 45.5896 101.756 45.4443C101.361 45.2991 101 45.0752 100.694 44.7863C100.388 44.4975 100.145 44.1495 99.9773 43.7637C99.8099 43.3778 99.7224 42.962 99.7204 42.5414C99.7331 42.0374 99.8519 41.5418 100.069 41.0868C100.286 40.6319 100.597 40.2278 100.981 39.9011C101.996 39.1336 103.25 38.7511 104.521 38.8214H108.571L107.311 39.5419L106.021 39.5721V39.564ZM104.613 48.3241C104.464 48.2991 104.313 48.289 104.163 48.2939C103.46 48.2985 102.762 48.4098 102.092 48.6239C101.626 48.7355 101.208 48.994 100.9 49.3612C100.592 49.7285 100.41 50.185 100.382 50.6635C100.382 52.0721 101.732 53.0633 103.861 53.0633C105.752 53.0633 106.772 52.1637 106.772 50.9331C106.772 49.943 106.112 49.4027 104.612 48.323L104.613 48.3241ZM105.183 44.5739C105.357 44.3792 105.489 44.1511 105.572 43.9035C105.654 43.6559 105.686 43.3941 105.663 43.1341C105.663 41.7254 104.824 39.5036 103.173 39.5036C102.908 39.5021 102.646 39.5607 102.407 39.675C102.168 39.7894 101.958 39.9564 101.793 40.1637C101.489 40.5912 101.341 41.1101 101.374 41.6338C101.374 42.9539 102.154 45.1435 103.834 45.1435C104.339 45.1267 104.82 44.9235 105.184 44.5729L105.183 44.5739ZM93.6025 48.0242C92.9913 48.0461 92.3819 47.9468 91.8092 47.7322C91.2365 47.5175 90.7122 47.1917 90.266 46.7734C89.8198 46.3552 89.4604 45.8528 89.2092 45.2952C88.958 44.7376 88.8195 44.1358 88.8019 43.5245V43.3745C88.813 42.7219 88.955 42.0781 89.219 41.4811C89.483 40.8841 89.8639 40.346 90.3392 39.8986C90.8145 39.4513 91.3747 39.1036 91.9866 38.8763C92.5985 38.6489 93.2496 38.5465 93.9017 38.5749C94.5067 38.56 95.1084 38.6646 95.6729 38.8829C96.2374 39.1011 96.7535 39.4286 97.1911 39.8467C97.6287 40.2648 97.9795 40.7651 98.2233 41.319C98.4671 41.873 98.5988 42.4696 98.6115 43.0747V43.2246C98.6091 43.8721 98.4766 44.5126 98.2214 45.1076C97.9661 45.7027 97.5933 46.2403 97.1257 46.6883C96.6581 47.1362 96.1054 47.4854 95.5 47.7149C94.8945 47.9444 94.2486 48.0496 93.6015 48.0242H93.6025ZM96.063 46.4344C96.4841 45.7838 96.695 45.0194 96.6668 44.2449C96.6668 42.5052 95.8266 39.2048 93.3966 39.2048C92.7463 39.2038 92.1173 39.4382 91.6264 39.8649C91.3048 40.1709 91.0567 40.5458 90.9008 40.9614C90.7448 41.377 90.685 41.8226 90.7259 42.2647C90.7259 44.2147 91.6861 47.4245 94.086 47.4245C94.4697 47.4214 94.8472 47.3306 95.1904 47.159C95.5337 46.9874 95.8333 46.7395 96.066 46.4344H96.063ZM82.9228 48.0242C82.3117 48.0459 81.7021 47.9466 81.1295 47.7319C80.5569 47.5172 80.0325 47.1914 79.5863 46.7731C79.1401 46.3549 78.7813 45.8526 78.53 45.295C78.2787 44.7375 78.14 44.1357 78.1222 43.5245V43.3745C78.1333 42.7219 78.2749 42.0781 78.5388 41.4811C78.8028 40.8841 79.1837 40.346 79.659 39.8986C80.1343 39.4513 80.6945 39.1036 81.3064 38.8763C81.9183 38.6489 82.5694 38.5465 83.2215 38.5749C83.8266 38.56 84.4287 38.6646 84.9932 38.8828C85.5578 39.101 86.0737 39.4286 86.5114 39.8466C86.9491 40.2647 87.3002 40.765 87.5441 41.319C87.788 41.8729 87.92 42.4695 87.9327 43.0747V43.2246C87.9304 43.8721 87.7974 44.5126 87.5422 45.1076C87.2869 45.7027 86.9146 46.2403 86.447 46.6883C85.9794 47.1362 85.4262 47.4854 84.8208 47.7149C84.2153 47.9444 83.5699 48.0496 82.9228 48.0242V48.0242ZM85.3828 46.4344C85.8042 45.7839 86.0151 45.0194 85.9867 44.2449C85.9867 42.5052 85.1475 39.2048 82.7165 39.2048C82.0662 39.204 81.4377 39.4384 80.9468 39.8649C80.6252 40.1709 80.3771 40.5458 80.2211 40.9614C80.0651 41.377 80.0053 41.8226 80.0462 42.2647C80.0462 44.2147 81.0059 47.4245 83.4068 47.4245C83.7903 47.4213 84.1682 47.3304 84.5112 47.1588C84.8543 46.9872 85.1532 46.7394 85.3858 46.4344H85.3828ZM76.6227 47.6942L73.8055 48.3542C72.7265 48.5546 71.6326 48.665 70.5353 48.6843C65.0756 48.6843 62.9745 44.6595 62.9745 41.5141C62.9745 37.6744 65.9151 34.1044 70.9854 34.1044C72.0097 34.1091 73.0286 34.2502 74.0158 34.5239C74.9553 34.7664 75.841 35.1835 76.6261 35.7535L74.9758 37.3131L74.2855 37.4631L74.7655 36.6833C74.2346 36.0896 73.5827 35.6165 72.8538 35.2956C72.1249 34.9747 71.3356 34.8135 70.5392 34.8228C67.42 34.8228 65.0493 37.1924 65.0493 40.6729C65.0203 41.6125 65.1806 42.5484 65.5205 43.4248C65.8604 44.3013 66.3729 45.1005 67.0278 45.775C67.6827 46.4494 68.4669 46.9853 69.3331 47.3507C70.1992 47.7162 71.1296 47.9039 72.0697 47.9025C72.9362 47.9271 73.7968 47.7526 74.5852 47.3923V44.2127L71.5857 44.3626L73.1756 43.5224H77.3754L76.8654 44.0326C76.807 44.0673 76.7575 44.1153 76.721 44.1726C76.6844 44.2299 76.6619 44.295 76.6551 44.3626C76.6259 44.5427 76.6261 45.1122 76.6261 45.3225V47.6921L76.6227 47.6942Z" fill="#F9F9F9"/>
<path d="M112.29 47.1296C111.63 47.0693 111.51 46.9495 111.51 46.1697V34.8298C111.6 34.1395 111.78 34.0249 112.41 33.6596H109.592L108.092 34.3801H109.592V46.6195C109.592 47.0099 109.503 47.0693 109.052 47.67H112.562L113.282 47.2504C112.95 47.189 112.618 47.189 112.29 47.1296ZM120.331 47.34C120.121 47.4777 119.9 47.5982 119.671 47.7002C119.068 47.9688 118.41 48.0922 117.751 48.0604C116.819 48.094 115.902 47.8199 115.141 47.2806C114.501 46.7994 113.985 46.1731 113.635 45.4534C113.286 44.7337 113.112 43.9411 113.128 43.141C113.117 42.5457 113.225 41.9542 113.447 41.4016C113.669 40.849 114 40.3467 114.42 39.9244C114.839 39.502 115.339 39.1683 115.891 38.943C116.442 38.7178 117.032 38.6056 117.628 38.6131C118.343 38.6108 119.047 38.7972 119.668 39.1534C120.356 39.6071 120.849 40.3032 121.048 41.1035L116.429 42.964L114.929 43.0837C115.409 45.574 117.118 47.0441 118.978 47.0441C119.823 47.0134 120.646 46.7764 121.378 46.3539L120.329 47.344L120.331 47.34ZM118.5 41.4597C118.861 41.3098 119.07 41.19 119.07 40.9193C119.007 40.4491 118.774 40.0182 118.415 39.7084C118.056 39.3987 117.595 39.2316 117.121 39.239C116.789 39.2588 116.466 39.3467 116.17 39.4972C115.874 39.6477 115.612 39.8575 115.401 40.1137C115.19 40.3699 115.034 40.6669 114.943 40.986C114.852 41.3052 114.827 41.6398 114.871 41.9688C114.871 42.2989 114.901 42.6591 114.932 43.0193L118.5 41.4597ZM122.251 38.7299V40.0198H122.101V38.7299H121.68V38.6101H122.7V38.7299H122.251ZM124.02 40.0198V38.6997L123.63 40.0198H123.51L123.12 38.6997V40.0198H122.97V38.58H123.211L123.571 39.7501L123.93 38.58H124.17V40.0198H124.02Z" fill="#F9F9F9"/>
<path d="M45.6668 40.2039L51.4344 37.0414C52.0864 36.6842 52.7707 35.7736 51.4344 35.0451L45.6598 31.8957L41.5262 36.0614L45.6668 40.2039Z" fill="url(#paint0_linear)"/>
<path d="M41.5262 36.0634L28.3046 49.3855C28.6807 49.4109 29.0552 49.3172 29.3752 49.1179L45.6637 40.2019L41.5262 36.0624V36.0634Z" fill="url(#paint1_linear)"/>
<path d="M41.5252 36.0644L45.6587 31.8987L29.3712 23.0149C29.0461 22.8262 28.664 22.7605 28.2946 22.8298L41.5252 36.0644Z" fill="url(#paint2_linear)"/>
<path d="M41.5262 36.0623L28.2946 22.8297C27.7482 22.9524 27.3004 23.4253 27.3004 24.3752V47.7986C27.3004 48.6941 27.6526 49.324 28.3066 49.3864L41.5262 36.0623Z" fill="url(#paint3_linear)"/>
</g>
<defs>
<linearGradient id="paint0_linear" x1="52.8414" y1="37.7447" x2="47.3214" y2="30.498" gradientUnits="userSpaceOnUse">
<stop stop-color="#FACF87"/>
<stop offset="1" stop-color="#F3986D"/>
</linearGradient>
<linearGradient id="paint1_linear" x1="42.6606" y1="38.4213" x2="32.7735" y2="51.6327" gradientUnits="userSpaceOnUse">
<stop stop-color="#DE4246"/>
<stop offset="1" stop-color="#7F50A3"/>
</linearGradient>
<linearGradient id="paint2_linear" x1="43.1757" y1="34.778" x2="33.8321" y2="21.6395" gradientUnits="userSpaceOnUse">
<stop stop-color="#E6FFAB"/>
<stop offset="1" stop-color="#58C0BB"/>
</linearGradient>
<linearGradient id="paint3_linear" x1="30.2594" y1="48.8553" x2="24.4891" y2="24.5615" gradientUnits="userSpaceOnUse">
<stop stop-color="#8AE6D8"/>
<stop offset="1" stop-color="#257595"/>
</linearGradient>
<clipPath id="clip0">
<rect width="162" height="48" fill="white" transform="translate(12 12)"/>
</clipPath>
</defs>
</svg>
