<svg width="253" height="288" viewBox="0 0 253 288" fill="none" xmlns="http://www.w3.org/2000/svg">
<path d="M226.743 97.4168C241.946 116.324 251.461 141.253 251.548 172.281V172.708C251.548 235.551 202.701 286.422 142.535 286.422H142.472H142.41H142.347H142.284H142.221H142.158H142.095H142.032H141.97H141.907H141.844H141.781H141.718H141.655H141.592H141.53H141.467H141.404H141.341H141.278H141.216H141.153H141.09H141.027H140.964H140.901H140.839H140.776H140.713H140.65H140.587H140.525H140.462H140.399H140.336H140.274H140.211H140.148H140.085H140.022H139.96H139.897H139.834H139.771H139.709H139.646H139.583H139.52H139.458H139.395H139.332H139.269H139.207H139.144H139.081H139.018H138.956H138.893H138.83H138.767H138.705H138.642H138.579H138.517H138.454H138.391H138.328H138.266H138.203H138.14H138.078H138.015H137.952H137.889H137.827H137.764H137.701H137.639H137.576H137.513H137.451H137.388H137.325H137.263H137.2H137.137H137.074H137.012H136.949H136.886H136.824H136.761H136.698H136.636H136.573H136.51H136.448H136.385H136.323H136.26H136.197H136.135H136.072H136.009H135.947H135.884H135.821H135.759H135.696H135.633H135.571H135.508H135.446H135.383H135.32H135.258H135.195H135.132H135.07H135.007H134.945H134.882H134.819H134.757H134.694H134.631H134.569H134.506H134.444H134.381H134.318H134.256H134.193H134.131H134.068H134.005H133.943H133.88H133.818H133.755H133.692H133.63H133.567H133.505H133.442H133.379H133.317H133.254H133.192H133.129H133.067H133.004H132.941H132.879H132.816H132.754H132.691H132.628H132.566H132.503H132.441H132.378H132.316H132.253H132.19H132.128H132.065H132.003H131.94H131.878H131.815H131.753H131.69H131.627H131.565H131.502H131.44H131.377H131.315H131.252H131.19H131.127H131.064H131.002H130.939H130.877H130.814H130.752H130.689H130.627H130.564H130.502H130.439H130.376H130.314H130.251H130.189H130.126H130.064H130.001H129.939H129.876H129.814H129.751H129.689H129.626H129.563H129.501H129.438H129.376H129.313H129.251H129.188H129.126H129.063H129.001H128.938H128.876H128.813H128.751H128.688H128.626H128.563H128.5H128.438H128.375H128.313H128.25H128.188H128.125H128.063H128H127.938H127.875H127.813H127.75H127.688H127.625H127.563H127.5H127.438H127.375H127.312H127.25H127.187H127.125H127.062H127H126.937H126.875H126.812H126.75H126.687H126.625H126.562H126.5H126.437H126.375H126.312H126.25H126.187H126.125H126.062H126H125.937H125.874H125.812H125.749H125.687H125.624H125.562H125.499H125.437H125.374H125.312H125.249H125.187H125.124H125.062H124.999H124.937H124.874H124.812H124.749H124.687H124.624H124.561H124.499H124.436H124.374H124.311H124.249H124.186H124.124H124.061H123.999H123.936H123.874H123.811H123.749H123.686H123.624H123.561H123.498H123.436H123.373H123.311H123.248H123.186H123.123H123.061H122.998H122.936H122.873H122.811H122.748H122.685H122.623H122.56H122.498H122.435H122.373H122.31H122.248H122.185H122.123H122.06H121.997H121.935H121.872H121.81H121.747H121.685H121.622H121.56H121.497H121.435H121.372H121.309H121.247H121.184H121.122H121.059H120.997H120.934H120.871H120.809H120.746H120.684H120.621H120.559H120.496H120.433H120.371H120.308H120.246H120.183H120.121H120.058H119.995H119.933H119.87H119.808H119.745H119.683H119.62H119.557H119.495H119.432H119.37H119.307H119.244H119.182H119.119H119.057H118.994H118.931H118.869H118.806H118.744H118.681H118.618H118.556H118.493H118.431H118.368H118.305H118.243H118.18H118.118H118.055H117.992H117.93H117.867H117.804H117.742H117.679H117.617H117.554H117.491H117.429H117.366H117.303H117.241H117.178H117.115H117.053H116.99H116.927H116.865H116.802H116.74H116.677H116.614H116.552H116.489H116.426H116.364H116.301H116.238H116.176H116.113H116.05H115.988H115.925H115.862H115.8H115.737H115.674H115.612H115.549H115.486H115.423H115.361H115.298H115.235H115.173H115.11H115.047H114.985H114.922H114.859H114.796H114.734H114.671H114.608H114.546H114.483H114.42H114.357H114.295H114.232H114.169H114.107H114.044H113.981H113.918H113.856H113.793H113.73H113.667H113.605H113.542H113.479H113.416H113.354H113.291H113.228H113.165H113.103H113.04H112.977H112.914H112.851H112.789H112.726H112.663H112.6H112.538H112.475H112.412H112.349H112.286H112.224H112.161H112.098H112.035H111.972H111.91H111.847H111.784H111.721H111.658H111.595H111.533H111.47H111.407H111.344H111.281H111.218H111.156H111.093H111.03H110.967H110.904H110.841H110.778H110.716H110.653H110.59H110.527H110.464C50.2984 286.422 1.4521 235.551 1.4521 172.708C1.4521 141.481 10.9612 116.403 26.22 97.4087L27.2281 96.1539L25.6565 95.806C11.881 92.7571 1.57472 78.3487 1.03565 60.7705L1.03565 60.7704C0.00823187 27.3508 21.3568 6.29496 43.1182 2.20079C53.9993 0.153639 64.953 2.34604 73.3289 9.2984C81.6988 16.2457 87.6262 28.0568 88.2309 45.503V45.5032C88.3663 49.3929 87.9161 53.1366 86.9806 56.6376L86.5299 58.3246L88.213 57.8596C112.999 51.0126 140.006 51.0159 164.792 57.8783L166.477 58.3447L166.025 56.6562C165.087 53.1472 164.634 49.401 164.769 45.503C165.374 28.0567 171.301 16.2455 179.671 9.29823C188.047 2.34586 199.001 0.153468 209.882 2.20065C231.643 6.29486 252.992 27.3508 251.964 60.7704C251.425 78.3644 241.102 92.784 227.308 95.8135L225.733 96.1595L226.743 97.4168ZM75.4861 62.0546L75.9541 61.8734L76.0885 61.3899C76.7972 58.8408 77.1407 56.1097 77.0442 53.2739V53.273L77.0436 53.2563V53.2557C76.631 41.3445 72.5655 33.0244 66.5724 28.0498C60.5855 23.0803 52.8063 21.5602 45.19 22.9931C29.9566 25.8589 15.2522 40.5331 15.9575 63.4787L15.9575 63.4787C16.3354 75.7504 23.6155 86.1976 33.8115 88.3114L34.3348 88.4198L34.7158 88.045C46.3313 76.6173 60.2881 67.939 75.4861 62.0546ZM176.916 61.4018L177.051 61.8845L177.519 62.0656C192.711 67.95 206.66 76.6283 218.272 88.0484L218.652 88.4228L219.175 88.3148C229.377 86.2079 236.665 75.757 237.042 63.4787C237.747 40.5334 223.043 25.8593 207.81 22.9934C200.194 21.5605 192.414 23.0806 186.427 28.0502C180.434 33.0248 176.369 41.345 175.956 53.2563V53.2566C175.858 56.104 176.203 58.8426 176.916 61.4018ZM22.6317 195.788C22.6314 221.077 35.7204 240.007 55.2366 252.566C74.7237 265.107 100.642 271.322 126.501 271.298C152.361 271.273 178.278 265.008 197.764 252.456C217.279 239.885 230.369 220.98 230.369 195.788C230.369 171.312 215.902 153.317 194.793 141.786C196.043 137.842 196.728 133.595 196.728 129.033C196.728 115.903 189.763 104.086 178.638 95.5837C167.515 87.0822 152.192 81.8528 135.308 81.8528H135.273H135.239H135.204H135.169H135.135H135.1H135.066H135.031H134.997H134.962H134.928H134.893H134.859H134.824H134.79H134.755H134.721H134.686H134.652H134.617H134.583H134.548H134.514H134.479H134.445H134.41H134.376H134.341H134.307H134.272H134.238H134.203H134.169H134.134H134.1H134.065H134.031H133.996H133.962H133.927H133.893H133.858H133.824H133.789H133.755H133.72H133.686H133.652H133.617H133.583H133.548H133.514H133.479H133.445H133.41H133.376H133.341H133.307H133.272H133.238H133.204H133.169H133.135H133.1H133.066H133.031H132.997H132.962H132.928H132.893H132.859H132.825H132.79H132.756H132.721H132.687H132.652H132.618H132.584H132.549H132.515H132.48H132.446H132.411H132.377H132.343H132.308H132.274H132.239H132.205H132.17H132.136H132.102H132.067H132.033H131.998H131.964H131.93H131.895H131.861H131.826H131.792H131.757H131.723H131.689H131.654H131.62H131.585H131.551H131.517H131.482H131.448H131.413H131.379H131.345H131.31H131.276H131.241H131.207H131.173H131.138H131.104H131.069H131.035H131.001H130.966H130.932H130.897H130.863H130.829H130.794H130.76H130.726H130.691H130.657H130.622H130.588H130.554H130.519H130.485H130.451H130.416H130.382H130.347H130.313H130.279H130.244H130.21H130.176H130.141H130.107H130.072H130.038H130.004H129.969H129.935H129.901H129.866H129.832H129.797H129.763H129.729H129.694H129.66H129.626H129.591H129.557H129.523H129.488H129.454H129.419H129.385H129.351H129.316H129.282H129.248H129.213H129.179H129.145H129.11H129.076H129.042H129.007H128.973H128.938H128.904H128.87H128.835H128.801H128.767H128.732H128.698H128.664H128.629H128.595H128.561H128.526H128.492H128.458H128.423H128.389H128.355H128.32H128.286H128.252H128.217H128.183H128.148H128.114H128.08H128.045H128.011H127.977H127.942H127.908H127.874H127.839H127.805H127.771H127.736H127.702H127.668H127.633H127.599H127.565H127.53H127.496H127.462H127.427H127.393H127.359H127.324H127.29H127.256H127.221H127.187H127.153H127.118H127.084H127.05H127.015H126.981H126.947H126.912H126.878H126.844H126.809H126.775H126.741H126.706H126.672H126.638H126.603H126.569H126.535H126.5H126.466H126.432H126.397H126.363H126.329H126.294H126.26H126.226H126.191H126.157H126.123H126.088H126.054H126.02H125.985H125.951H125.917H125.882H125.848H125.813H125.779H125.745H125.71H125.676H125.642H125.607H125.573H125.539H125.504H125.47H125.436H125.401H125.367H125.333H125.298H125.264H125.23H125.195H125.161H125.127H125.092H125.058H125.024H124.989H124.955H124.921H124.886H124.852H124.818H124.783H124.749H124.715H124.68H124.646H124.612H124.577H124.543H124.509H124.474H124.44H124.406H124.371H124.337H124.302H124.268H124.234H124.199H124.165H124.131H124.096H124.062H124.028H123.993H123.959H123.925H123.89H123.856H123.822H123.787H123.753H123.719H123.684H123.65H123.615H123.581H123.547H123.512H123.478H123.444H123.409H123.375H123.341H123.306H123.272H123.238H123.203H123.169H123.134H123.1H123.066H123.031H122.997H122.963H122.928H122.894H122.86H122.825H122.791H122.756H122.722H122.688H122.653H122.619H122.585H122.55H122.516H122.481H122.447H122.413H122.378H122.344H122.31H122.275H122.241H122.206H122.172H122.138H122.103H122.069H122.035H122H121.966H121.931H121.897H121.863H121.828H121.794H121.759H121.725H121.691H121.656H121.622H121.587H121.553H121.519H121.484H121.45H121.415H121.381H121.347H121.312H121.278H121.243H121.209H121.175H121.14H121.106H121.071H121.037H121.003H120.968H120.934H120.899H120.865H120.831H120.796H120.762H120.727H120.693H120.658H120.624H120.59H120.555H120.521H120.486H120.452H120.418H120.383H120.349H120.314H120.28H120.245H120.211H120.177H120.142H120.108H120.073H120.039H120.004H119.97H119.935H119.901H119.867H119.832H119.798H119.763H119.729H119.694H119.66H119.625H119.591H119.557H119.522H119.488H119.453H119.419H119.384H119.35H119.315H119.281H119.246H119.212H119.177H119.143H119.109H119.074H119.04H119.005H118.971H118.936H118.902H118.867H118.833H118.798H118.764H118.729H118.695H118.66H118.626H118.591H118.557H118.522H118.488H118.453H118.419H118.384H118.35H118.315H118.281H118.246H118.212H118.177H118.143H118.108H118.074H118.039H118.005H117.97H117.936H117.901H117.867H117.832H117.798H117.763H117.729H117.694C100.809 81.8528 85.486 87.0822 74.3628 95.5837C63.2387 104.086 56.2736 115.903 56.2736 129.033C56.2736 133.593 56.9563 137.836 58.2042 141.78C37.0957 153.309 22.6317 171.304 22.6317 195.788Z" stroke="#C7D7E3" stroke-opacity="0.5" stroke-width="2"/>
</svg>
