<svg width="46" height="46" viewBox="0 0 46 46" fill="none" xmlns="http://www.w3.org/2000/svg">
<g filter="url(#filter0_d)">
<path d="M4 0H27.314C35.4249 0 42 6.57514 42 14.686V38H18.686C10.5751 38 4 31.4249 4 23.314V0Z" fill="#F2F2F2"/>
<g clip-path="url(#clip0)">
<path d="M30.0739 20.8998L30.9184 15.3984H25.6393V11.8283C25.6393 10.3235 26.3765 8.85573 28.741 8.85573H31.1407V4.17223C31.1407 4.17223 28.9633 3.80078 26.8809 3.80078C22.5337 3.80078 19.6923 6.43608 19.6923 11.206V15.3993H14.8596V20.9008H19.6923V34.2008H25.6393V20.9008L30.0739 20.8998Z" fill="url(#paint0_linear)"/>
</g>
</g>
<defs>
<filter id="filter0_d" x="0" y="0" width="46" height="46" filterUnits="userSpaceOnUse" color-interpolation-filters="sRGB">
<feFlood flood-opacity="0" result="BackgroundImageFix"/>
<feColorMatrix in="SourceAlpha" type="matrix" values="0 0 0 0 0 0 0 0 0 0 0 0 0 0 0 0 0 0 127 0"/>
<feOffset dy="4"/>
<feGaussianBlur stdDeviation="2"/>
<feColorMatrix type="matrix" values="0 0 0 0 0 0 0 0 0 0 0 0 0 0 0 0 0 0 0.25 0"/>
<feBlend mode="normal" in2="BackgroundImageFix" result="effect1_dropShadow"/>
<feBlend mode="normal" in="SourceGraphic" in2="effect1_dropShadow" result="shape"/>
</filter>
<linearGradient id="paint0_linear" x1="14.6411" y1="11.4932" x2="22.1517" y2="33.8856" gradientUnits="userSpaceOnUse">
<stop offset="0.252" stop-color="#0064B2"/>
<stop offset="1" stop-color="#00477F"/>
</linearGradient>
<clipPath id="clip0">
<rect width="30.4" height="30.4" fill="white" transform="translate(7.80005 3.7998)"/>
</clipPath>
</defs>
</svg>
