<svg width="46" height="46" viewBox="0 0 46 46" fill="none" xmlns="http://www.w3.org/2000/svg">
<g filter="url(#filter0_d)">
<path d="M4 0H27.314C35.4249 0 42 6.57514 42 14.686V38H18.686C10.5751 38 4 31.4249 4 23.314V0Z" fill="#F2F2F2"/>
<path fill-rule="evenodd" clip-rule="evenodd" d="M36.5791 11.6372C36.7904 10.9675 36.5791 10.4806 35.6439 10.4806H32.5344C31.7501 10.4806 31.3879 10.9069 31.1765 11.3629C31.1765 11.3629 29.577 15.2579 27.3433 17.7831C26.6189 18.5134 26.287 18.7569 25.8945 18.7569C25.6832 18.7569 25.4112 18.5134 25.4112 17.8443V11.6057C25.4112 10.8149 25.1702 10.4497 24.5057 10.4497H19.6156C19.1323 10.4497 18.8307 10.8149 18.8307 11.18C18.8307 11.9406 19.9475 12.1235 20.0681 14.2533V18.881C20.0681 19.885 19.8899 20.0685 19.4945 20.0685C18.4382 20.0685 15.8726 16.1432 14.3336 11.6705C14.0344 10.7846 13.7304 10.4497 12.9454 10.4497H9.80628C8.90081 10.4497 8.75 10.8754 8.75 11.332C8.75 12.1538 9.80628 16.2916 13.6698 21.7684C16.2354 25.509 19.8876 27.5194 23.1775 27.5194C25.1702 27.5194 25.4112 27.0628 25.4112 26.3022V23.4724C25.4112 22.5598 25.5923 22.4078 26.2264 22.4078C26.6789 22.4078 27.4941 22.6507 29.3353 24.4462C31.4479 26.576 31.8101 27.5497 32.9875 27.5497H36.0963C37.0018 27.5497 37.4246 27.0931 37.1829 26.2108C36.9116 25.3285 35.885 24.0507 34.5568 22.5296C33.8324 21.6781 32.7458 20.7346 32.4139 20.2781C31.9615 19.6695 32.082 19.426 32.4139 18.8786C32.3836 18.8786 36.1872 13.4624 36.5791 11.6348" fill="url(#paint0_linear)"/>
</g>
<defs>
<filter id="filter0_d" x="0" y="0" width="46" height="46" filterUnits="userSpaceOnUse" color-interpolation-filters="sRGB">
<feFlood flood-opacity="0" result="BackgroundImageFix"/>
<feColorMatrix in="SourceAlpha" type="matrix" values="0 0 0 0 0 0 0 0 0 0 0 0 0 0 0 0 0 0 127 0"/>
<feOffset dy="4"/>
<feGaussianBlur stdDeviation="2"/>
<feColorMatrix type="matrix" values="0 0 0 0 0 0 0 0 0 0 0 0 0 0 0 0 0 0 0.25 0"/>
<feBlend mode="normal" in2="BackgroundImageFix" result="effect1_dropShadow"/>
<feBlend mode="normal" in="SourceGraphic" in2="effect1_dropShadow" result="shape"/>
</filter>
<linearGradient id="paint0_linear" x1="8.36744" y1="14.7767" x2="9.86039" y2="28.6285" gradientUnits="userSpaceOnUse">
<stop offset="0.252" stop-color="#0064B2"/>
<stop offset="1" stop-color="#00477F"/>
</linearGradient>
</defs>
</svg>
