<svg width="165" height="171" viewBox="0 0 165 171" fill="none" xmlns="http://www.w3.org/2000/svg">
<path fill-rule="evenodd" clip-rule="evenodd" d="M77.6618 5.33528L77.5598 10.6709L76.1227 11.1988C74.2233 11.8966 72.9976 13.266 72.5899 15.1467C72.4072 15.9901 72.2535 23.1991 72.2487 31.1671L72.2399 45.654L73.1469 47.3095C74.537 49.8476 75.8681 50.251 84.1638 50.6514C93.4068 51.0976 124.322 51.0909 132.41 50.6412C139.105 50.2691 140.822 49.8982 142.259 48.514C144.142 46.7 144.15 46.6262 144.15 30.6199C144.15 14.7845 144.077 14.0305 142.391 12.4237C141.973 12.0254 141 11.4681 140.23 11.1851L138.83 10.6709L138.728 5.33528L138.626 0H135.713H132.799L132.696 4.80779L132.593 9.61558L130.076 9.91308C128.691 10.0767 117.711 10.165 105.677 10.1093L83.7969 10.0081L83.6942 5.00403L83.5915 0H80.6776H77.7638L77.6618 5.33528ZM33.0625 23.8195C31.4177 24.2363 28.1777 26.5967 26.7461 28.4209C24.7605 30.9508 24.1782 33.2075 24.1779 38.372C24.1775 43.8168 24.5697 44.9244 27.7312 48.4028C30.2792 51.2063 31.9589 52.1184 35.0646 52.3849C37.1353 52.5627 37.6405 52.45 39.742 51.3437C41.3875 50.4771 42.6416 49.4252 43.9007 47.8557C46.6946 44.3726 46.9246 43.6437 46.9246 38.2763C46.9246 33.8802 46.8622 33.4834 45.8265 31.2891C44.2595 27.9676 42.8584 26.4397 39.9123 24.8384C37.2534 23.3937 35.6707 23.1582 33.0625 23.8195ZM23.8084 58.3293C20.943 59.2893 19.6281 60.6798 16.9072 65.6246C16.0759 67.1356 15.2548 68.5512 15.0831 68.7706C14.911 68.9896 14.2957 70.0493 13.7157 71.1255C12.7489 72.9187 9.06683 79.3851 7.12672 82.6971C0.0468663 94.7826 -0.642884 96.3988 0.373765 98.5201C1.10277 100.041 2.99519 101.902 4.27122 102.352C7.33328 103.433 9.48288 101.82 12.8359 95.9223C20.4899 82.4605 20.4308 82.5138 20.5879 88.8786L20.6921 93.0977L23.3858 93.0419C24.8673 93.0113 26.2273 92.828 26.4082 92.6345C26.5891 92.4411 26.7802 84.6069 26.833 75.2252L26.9292 58.1676L25.8285 58.0942C25.2231 58.0538 24.314 58.1597 23.8084 58.3293ZM30.9033 58.5903C30.5933 59.4545 31.0813 69.4382 31.4525 69.8354C31.614 70.0081 33.3039 70.2573 35.208 70.3892C40.0609 70.7251 40.1016 70.6682 40.1218 63.5409L40.1372 58.1676L35.6354 58.0573C31.7424 57.9619 31.1029 58.0341 30.9033 58.5903ZM44.115 58.5805C43.9946 58.9156 43.9704 66.289 44.0607 74.9662C44.2599 94.0816 44.1131 93.3936 47.9515 93.2134L50.4101 93.0977L50.5935 88.2235C50.7109 85.1057 50.9266 83.2961 51.1919 83.2023C51.4205 83.1214 52.1502 83.8137 52.8139 84.7403C54.6729 87.3358 56.9099 89.766 58.0087 90.3841C58.8874 90.8782 59.8578 90.8315 66.3128 89.9846C70.3328 89.4571 74.1855 88.7738 74.8742 88.4657C76.4933 87.742 78.0166 85.7883 78.3229 84.0421C78.6462 82.1975 77.6537 79.4844 76.1653 78.1448C75.0243 77.1177 74.9446 77.1052 70.7801 77.303C68.4555 77.4133 65.7471 77.7276 64.7624 78.0012C62.6322 78.5934 63.6067 79.6814 56.4553 68.7239C53.6233 64.3844 50.9373 60.4635 50.4867 60.0106C49.7614 59.2818 46.1193 57.9713 44.8183 57.9713C44.5516 57.9713 44.235 58.2453 44.115 58.5805ZM20.7698 97.4628C20.4044 97.8533 20.4756 148.715 20.8542 158.141C21.1125 164.568 21.2809 166.095 21.8459 167.127C22.9095 169.071 24.1889 169.866 26.6298 170.103C30.4777 170.476 32.9553 168.457 33.754 164.297C34.001 163.01 34.2548 154.206 34.3979 141.961L34.6338 121.748H35.5246C36.196 121.748 36.4973 122.038 36.7478 122.926C36.9306 123.573 37.1668 133.64 37.2729 145.297C37.4636 166.265 37.4739 166.5 38.251 167.409C39.9005 169.338 42.4145 171.004 43.6718 171C45.3804 170.995 48.5954 168.945 49.3651 167.37C50.2772 165.505 50.6188 151.942 50.5047 122.121L50.4101 97.4149H48.3922H46.3743L46.171 102.909C45.9626 108.541 45.6581 109.817 44.3421 110.571C43.9308 110.806 40.1166 111.094 35.6204 111.228L27.6296 111.467C27.6296 111.467 26.2349 111.231 25.6834 110.571C25.0619 109.827 25.127 108.087 25.127 108.087L24.9274 102.751L24.7278 97.4149L22.8795 97.2991C21.8624 97.2355 20.9133 97.3089 20.7698 97.4628ZM68.3876 97.6111C68.2629 97.827 67.878 98.0036 67.5324 98.0036C67.1868 98.0036 66.2743 98.5585 65.505 99.2371C64.3988 100.212 63.3073 102.189 60.2849 108.686C58.1833 113.204 56.4637 117.159 56.4637 117.476C56.4637 118.303 57.7673 120.917 58.5091 121.578C58.9575 121.977 60.5358 122.198 63.9479 122.337L68.7545 122.533L69.0385 145.689L69.3224 168.845L70.4921 169.924C72.0304 171.343 73.0086 171.286 74.5987 169.682L75.9088 168.36L75.9594 163.108C75.9873 160.219 76.1113 149.908 76.2346 140.194L76.4592 122.533H110.763H145.067L145.292 140.194C145.415 149.908 145.539 160.219 145.567 163.108L145.618 168.36L146.928 169.682C148.518 171.286 149.497 171.344 151.031 169.924L152.197 168.845L152.485 145.689L152.772 122.533L157.358 122.313C159.88 122.192 162.225 121.956 162.567 121.789C164.166 121.006 165.659 117.675 164.696 117.039C164.494 116.905 164.329 116.467 164.329 116.066C164.329 114.652 157.493 100.55 156.277 99.4549C154.91 98.2241 151.984 97.2186 149.77 97.2186C147.856 97.2186 147.819 97.4659 149.287 100.491C149.892 101.739 150.387 103.181 150.387 103.695C150.798 105.478 150.596 106.914 150.798 107.048C150.798 109.403 147.828 112.861 144.651 113.577C143.871 113.753 137.537 113.897 130.575 113.898C115.983 113.899 116.279 113.963 112.363 109.938C111.091 108.631 109.975 107.815 109.458 107.815C108.996 107.815 107.861 108.434 106.936 109.189C106.011 109.945 105.041 110.563 104.78 110.563C104.519 110.563 104.129 110.752 103.913 110.983C103.655 111.259 98.7986 111.482 89.8058 111.631C76.2728 111.856 76.0717 111.847 74.5429 111.012C70.2165 108.648 68.4947 103.897 70.4198 99.6343C70.8311 98.7234 71.0692 97.8073 70.9485 97.5985C70.6597 97.0985 68.6782 97.1083 68.3876 97.6111Z" fill="url(#paint0_linear)"/>
<path d="M130.69 84.3509L130.689 84.3503C130.561 83.9872 130.476 83.5876 130.437 83.2268C130.403 82.9018 130.392 82.4788 130.514 82.1365L130.514 82.1363C130.636 81.7956 130.886 81.5824 131.114 81.4571C131.337 81.3342 131.584 81.268 131.814 81.2307C132.274 81.1556 132.828 81.1704 133.398 81.2397C134.546 81.3793 135.944 81.7642 137.16 82.3435L130.69 84.3509ZM130.69 84.3509C130.758 84.5448 130.848 85.0379 130.918 85.7422C130.984 86.4172 131.026 87.2079 131.026 87.9453C131.026 88.1727 131.024 88.3818 131.019 88.5733L130.69 84.3509ZM123.178 91.8097C123.093 91.757 122.977 91.678 122.835 91.5726C122.63 91.4219 122.39 91.2314 122.136 91.0165C122.21 91.2631 122.27 91.4842 122.315 91.6779L123.178 91.8097ZM123.178 91.8097C123.18 91.8192 123.181 91.8287 123.183 91.8381L123.178 91.8097ZM140.887 87.5218C140.968 87.3712 141.08 87.213 141.232 87.0849C141.241 87.0628 141.253 87.0313 141.265 86.9896C141.309 86.8433 141.34 86.6452 141.34 86.4466C141.34 86.2381 141.351 86.0311 141.388 85.839C141.423 85.651 141.491 85.4261 141.639 85.2228C141.802 84.9987 142.031 84.844 142.301 84.7776C142.545 84.7174 142.776 84.7407 142.956 84.778L140.887 87.5218ZM140.887 87.5218C140.733 87.1919 140.563 86.8036 140.377 86.3559C139.865 85.1231 139.491 84.2931 139.021 83.694C138.513 83.0453 137.928 82.7092 137.16 82.3436L140.887 87.5218ZM148.219 96.0592L148.219 96.0593C147.91 96.873 147.555 97.6107 146.937 98.2407C146.318 98.8726 145.498 99.3338 144.361 99.7239C142.134 100.488 138.408 101.067 131.861 101.969C127.944 102.508 124.5 102.833 121.836 102.929C120.505 102.977 119.354 102.968 118.429 102.897C117.537 102.829 116.75 102.697 116.221 102.438C115.733 102.198 115.311 101.771 114.973 101.329C114.626 100.874 114.318 100.336 114.078 99.7951C113.839 99.256 113.654 98.6834 113.571 98.1537C113.494 97.6636 113.478 97.0451 113.768 96.5457L148.219 96.0592ZM148.219 96.0592C148.539 95.2175 148.772 94.5971 148.782 93.9508C148.791 93.3013 148.574 92.6829 148.279 91.8506M148.219 96.0592L148.279 91.8506M102.154 93.5088L102.154 93.5087C102.224 93.0592 102.307 92.6138 102.384 92.2554C102.422 92.0769 102.461 91.9134 102.497 91.7786C102.526 91.6736 102.574 91.5027 102.645 91.3686L102.645 91.3683C102.775 91.1244 102.973 90.979 103.13 90.8948C103.29 90.809 103.459 90.7574 103.612 90.7243C103.918 90.6582 104.273 90.6414 104.634 90.6537C105.362 90.6785 106.256 90.8275 107.124 91.087L107.124 91.087C108.296 91.4373 109.082 92.0815 109.601 93.1625L109.601 93.1628C109.994 93.9798 110.195 95.2697 110.26 96.6192C110.313 97.7432 110.275 98.9881 110.135 100.186L110.537 99.4526L111.087 98.4488L111.86 99.2931L114.771 102.473L117.396 105.341L119.135 105.124L119.236 105.937L119.135 105.124C119.795 105.042 120.384 104.991 120.884 105.033C121.401 105.076 121.905 105.223 122.314 105.606C122.708 105.975 122.915 106.47 123.049 106.993C123.182 107.517 123.265 108.168 123.338 108.935C123.598 111.644 123.043 113.927 121.519 115.465L121.519 115.465C121.06 115.927 120.616 116.274 119.928 116.457C119.312 116.621 118.54 116.641 117.473 116.628C115.771 116.608 114.413 116.389 113.556 115.785L113.556 115.785C113.343 115.635 113.092 115.495 112.867 115.395C112.754 115.346 112.659 115.311 112.586 115.289C112.538 115.275 112.512 115.271 112.507 115.27C112.327 115.266 112.149 115.209 112.068 115.183L112.068 115.183C111.946 115.143 111.802 115.09 111.646 115.027C111.331 114.901 110.925 114.724 110.459 114.509C109.525 114.08 108.321 113.491 107.07 112.845L107.07 112.845C104.588 111.562 100.845 109.645 98.7537 108.586L98.7536 108.586C95.686 107.031 94.3781 106.102 92.7095 104.219C91.9738 103.39 91.4335 102.704 91.076 102.1C90.7138 101.487 90.5093 100.908 90.5101 100.305L102.154 93.5088ZM102.154 93.5088C102.017 94.3838 101.726 95.5391 101.417 96.5393C101.397 96.4248 101.377 96.3076 101.357 96.1884M102.154 93.5088L101.357 96.1884M134.747 103.304L134.747 103.304C135.098 103.243 135.438 103.161 135.696 103.081C135.826 103.041 135.923 103.005 135.984 102.978C135.987 102.977 135.99 102.976 135.993 102.975C136.225 102.763 136.505 102.659 136.737 102.605C137.008 102.542 137.298 102.529 137.577 102.547C138.13 102.582 138.752 102.747 139.276 103.049L138.867 103.759L139.276 103.049C139.67 103.276 140.007 103.657 140.284 104.05C140.572 104.458 140.844 104.952 141.085 105.482C141.483 106.357 141.82 107.382 142.01 108.379C142.053 108.175 142.076 107.999 142.076 107.872C142.076 107.505 142.166 107.141 142.314 106.836C142.451 106.555 142.701 106.196 143.112 106.027C143.968 105.673 144.776 106.181 145.288 106.644C145.856 107.158 146.405 107.914 146.887 108.763C147.851 110.463 148.661 112.744 148.795 114.755M134.747 103.304L120.247 118.211C119.881 118.297 119.528 118.429 119.247 118.587C119.109 118.665 118.957 118.767 118.828 118.896C118.723 119.002 118.503 119.257 118.503 119.636C118.503 120.074 118.816 120.295 118.884 120.341C118.987 120.41 119.087 120.445 119.136 120.461C119.246 120.497 119.366 120.52 119.466 120.535C119.679 120.569 119.967 120.596 120.304 120.62C120.986 120.669 121.95 120.707 123.098 120.737C125.397 120.798 128.476 120.824 131.604 120.819C134.733 120.813 137.919 120.775 140.434 120.706C141.69 120.671 142.785 120.629 143.623 120.578C144.041 120.553 144.403 120.526 144.692 120.495C144.959 120.467 145.226 120.431 145.416 120.374L145.416 120.374C146.62 120.014 147.562 119.385 148.148 118.382C148.721 117.403 148.889 116.179 148.795 114.755M134.747 103.304L133.362 103.546L132.761 103.652L132.689 104.258L132.321 107.392C132.321 107.392 132.321 107.392 132.321 107.392C132.298 107.584 132.275 107.77 132.25 107.948C132.189 107.857 132.108 107.759 132.001 107.674C131.996 107.663 131.989 107.648 131.981 107.629C131.948 107.544 131.928 107.439 131.928 107.352C131.928 106.369 131.397 105.584 130.609 105.078C129.841 104.584 128.818 104.339 127.686 104.33L127.686 104.33L125.774 104.314L124.992 104.308M134.747 103.304L124.992 104.308M148.795 114.755L147.977 114.809L148.794 114.755C148.794 114.755 148.795 114.755 148.795 114.755ZM135.916 103.051C135.916 103.05 135.917 103.05 135.917 103.049C135.917 103.05 135.916 103.05 135.916 103.051ZM135.916 103.051L136.514 103.608L135.915 103.052C135.915 103.052 135.915 103.051 135.916 103.051ZM80.1359 106.4L80.7599 105.869C80.8726 106.002 80.9824 106.134 81.0875 106.265C80.8719 104.648 80.7709 103.397 80.8016 102.485C80.8178 102.006 80.8712 101.574 80.9884 101.214C81.1038 100.859 81.3177 100.467 81.7308 100.245C81.7309 100.245 81.7309 100.245 81.731 100.245L80.1359 106.4ZM80.1359 106.4L80.7599 105.869C79.8841 104.84 78.9583 104.116 77.8894 104.116C77.0436 104.116 76.2546 104.637 75.6281 105.226C74.9706 105.843 74.3438 106.674 73.814 107.572C73.2823 108.474 72.8304 109.474 72.5379 110.448C72.2493 111.41 72.0967 112.409 72.2286 113.283L80.1359 106.4ZM124.992 104.308L124.95 105.089L124.992 104.308ZM148.279 91.8506C147.864 90.679 146.857 89.0143 145.873 87.6496M148.279 91.8506L145.873 87.6496M145.873 87.6496C145.375 86.9585 144.862 86.3158 144.405 85.8256M145.873 87.6496L144.405 85.8256M144.405 85.8256C144.177 85.5816 143.95 85.3615 143.735 85.1895M144.405 85.8256L143.735 85.1895M143.735 85.1895C143.548 85.0394 143.272 84.8438 142.956 84.7781L143.735 85.1895ZM97.4563 92.0819C98.4065 91.7612 99.6258 91.672 100.378 92.6469L97.4563 92.0819ZM97.4563 92.0819C96.4566 92.4193 95.3681 93.117 94.3782 93.9606M97.4563 92.0819L94.3782 93.9606M94.3782 93.9606C93.3805 94.8109 92.4315 95.8533 91.7252 96.9329M94.3782 93.9606L91.7252 96.9329M91.7252 96.9329C91.0312 97.9936 90.5115 99.1816 90.5101 100.305L91.7252 96.9329ZM101.357 96.1884C101.235 95.4323 101.079 94.6835 100.923 94.0815M101.357 96.1884L100.923 94.0815M100.923 94.0815C100.846 93.7814 100.766 93.5077 100.687 93.2832M100.923 94.0815L100.687 93.2832M100.687 93.2832C100.622 93.0953 100.522 92.8346 100.378 92.6472L100.687 93.2832ZM83.6184 99.3302L83.6183 99.3302L104.042 116.867L104.395 117.607C104.395 117.607 104.395 117.607 104.395 117.607C104.772 117.427 105.12 117.247 105.41 117.06C105.692 116.878 105.979 116.653 106.179 116.363C106.401 116.043 106.513 115.644 106.41 115.208C106.317 114.819 106.075 114.5 105.816 114.243C105.302 113.732 104.431 113.185 103.242 112.541C102.03 111.886 100.404 111.087 98.3116 110.086C96.8003 109.364 95.1141 108.398 94.5628 107.964L94.5625 107.963C93.8592 107.41 93.1446 106.987 92.4453 106.934C92.0644 106.906 91.6905 106.987 91.358 107.202C91.2024 107.303 91.0685 107.424 90.9528 107.559C90.904 107.458 90.8565 107.343 90.8146 107.221C90.7265 106.964 90.6873 106.747 90.6857 106.623L90.6857 106.623C90.6803 106.221 90.5356 105.717 90.3661 105.244C90.1863 104.742 89.9398 104.173 89.6616 103.602C89.1119 102.473 88.3985 101.258 87.7643 100.505L87.7643 100.505C87.1643 99.793 86.5838 99.2062 85.8591 98.9875C85.0845 98.7538 84.3497 98.9933 83.6184 99.3302ZM120.436 119.008C120.458 119.003 120.48 118.997 120.503 118.991L119.976 119.149C120.117 119.095 120.272 119.047 120.436 119.008ZM120.576 119.817C120.411 119.807 120.26 119.796 120.125 119.785C120.109 119.858 120.083 119.914 120.063 119.951C120.031 120.01 120 120.042 119.991 120.051C119.987 120.055 119.985 120.057 119.985 120.057C119.985 120.057 120.004 120.042 120.052 120.015C120.166 119.95 120.351 119.874 120.576 119.817ZM123.784 115.006L124.494 115.414L123.784 115.006C123.784 115.006 123.784 115.006 123.784 115.006Z" fill="white" stroke="#C7D7E3" stroke-width="1.63866"/>
<path d="M92.9586 26.0211C93.0847 26.206 93.1477 26.3867 93.1477 26.5632C93.1477 26.7985 93.051 26.9917 92.8578 27.143C92.6729 27.2943 92.4544 27.3699 92.2023 27.3699C92.0426 27.3699 91.8872 27.3321 91.7359 27.2564C91.5847 27.1808 91.4586 27.0632 91.3578 26.9035L89.6939 24.4329C89.551 24.2144 89.3998 24.059 89.2401 23.9665C89.0805 23.8657 88.8788 23.8153 88.6351 23.8153H87.6141V26.3615C87.6141 26.664 87.5258 26.9035 87.3494 27.08C87.1813 27.2564 86.9502 27.3447 86.6561 27.3447C86.3536 27.3447 86.1141 27.2564 85.9376 27.08C85.7611 26.9035 85.6729 26.664 85.6729 26.3615V19.3027C85.6729 19.0085 85.7527 18.7816 85.9124 18.622C86.0721 18.4623 86.2989 18.3825 86.5931 18.3825H89.7569C90.7989 18.3825 91.5847 18.6136 92.1141 19.0758C92.6519 19.5295 92.9208 20.1892 92.9208 21.0548C92.9208 21.7354 92.7317 22.3027 92.3536 22.7564C91.9754 23.2102 91.4418 23.5085 90.7527 23.6514C91.0048 23.7018 91.2275 23.8027 91.4208 23.9539C91.6225 24.0968 91.8157 24.3069 92.0006 24.5842L92.9586 26.0211ZM89.467 22.3279C90.03 22.3279 90.4376 22.2312 90.6897 22.0379C90.9418 21.8363 91.0679 21.5253 91.0679 21.1052C91.0679 20.6766 90.9418 20.3657 90.6897 20.1724C90.4376 19.9791 90.03 19.8825 89.467 19.8825H87.5889V22.3279H89.467ZM99.3641 20.9539C99.6583 20.9539 99.8893 21.0337 100.057 21.1934C100.234 21.3531 100.322 21.5716 100.322 21.8489V26.4749C100.322 26.7354 100.23 26.9455 100.045 27.1052C99.8683 27.2648 99.6372 27.3447 99.3515 27.3447C99.0826 27.3447 98.8683 27.269 98.7087 27.1178C98.549 26.9665 98.4692 26.7648 98.4692 26.5127V26.3867C98.2759 26.706 98.0196 26.9497 97.7003 27.1178C97.3893 27.2858 97.0364 27.3699 96.6414 27.3699C95.8599 27.3699 95.2759 27.1556 94.8893 26.727C94.5112 26.2901 94.3221 25.6346 94.3221 24.7606V21.8489C94.3221 21.5716 94.4062 21.3531 94.5742 21.1934C94.7507 21.0337 94.986 20.9539 95.2801 20.9539C95.5742 20.9539 95.8053 21.0337 95.9734 21.1934C96.1414 21.3531 96.2255 21.5716 96.2255 21.8489V24.7985C96.2255 25.1682 96.3011 25.4413 96.4524 25.6178C96.612 25.7943 96.8515 25.8825 97.1709 25.8825C97.5406 25.8825 97.8389 25.7564 98.0658 25.5043C98.3011 25.2522 98.4188 24.9203 98.4188 24.5085V21.8489C98.4188 21.5716 98.5028 21.3531 98.6709 21.1934C98.8389 21.0337 99.07 20.9539 99.3641 20.9539ZM104.127 27.3699C103.615 27.3699 103.169 27.3279 102.791 27.2438C102.413 27.1598 102.081 27.0253 101.795 26.8405C101.669 26.7648 101.573 26.664 101.505 26.538C101.438 26.4119 101.404 26.269 101.404 26.1094C101.404 25.9161 101.459 25.7564 101.568 25.6304C101.678 25.4959 101.812 25.4287 101.972 25.4287C102.081 25.4287 102.19 25.4497 102.299 25.4917C102.409 25.5253 102.522 25.5674 102.64 25.6178C102.875 25.727 103.106 25.8153 103.333 25.8825C103.56 25.9413 103.841 25.9707 104.178 25.9707C104.472 25.9707 104.699 25.9245 104.858 25.8321C105.026 25.7396 105.11 25.6136 105.11 25.4539C105.11 25.3363 105.073 25.2438 104.997 25.1766C104.93 25.101 104.799 25.0337 104.606 24.9749C104.413 24.9161 104.106 24.8447 103.686 24.7606C102.938 24.6178 102.4 24.4035 102.073 24.1178C101.745 23.8321 101.581 23.4329 101.581 22.9203C101.581 22.5422 101.694 22.2018 101.921 21.8993C102.157 21.5968 102.476 21.3615 102.879 21.1934C103.283 21.0169 103.736 20.9287 104.241 20.9287C104.602 20.9287 104.955 20.9749 105.299 21.0674C105.644 21.1598 105.951 21.2901 106.22 21.4581C106.48 21.6178 106.61 21.8531 106.61 22.164C106.61 22.3657 106.556 22.5337 106.446 22.6682C106.337 22.8027 106.203 22.8699 106.043 22.8699C105.85 22.8699 105.619 22.7943 105.35 22.643C105.14 22.5337 104.946 22.4539 104.77 22.4035C104.602 22.3447 104.4 22.3153 104.165 22.3153C103.904 22.3153 103.699 22.3657 103.547 22.4665C103.396 22.559 103.32 22.6892 103.32 22.8573C103.32 23.0337 103.409 23.1682 103.585 23.2606C103.762 23.3531 104.102 23.4455 104.606 23.538C105.169 23.6472 105.61 23.7816 105.93 23.9413C106.249 24.0926 106.48 24.2858 106.623 24.5211C106.766 24.7564 106.837 25.0548 106.837 25.4161C106.837 26.0127 106.589 26.4875 106.094 26.8405C105.606 27.1934 104.951 27.3699 104.127 27.3699ZM110.27 27.3699C109.757 27.3699 109.312 27.3279 108.934 27.2438C108.555 27.1598 108.223 27.0253 107.938 26.8405C107.812 26.7648 107.715 26.664 107.648 26.538C107.581 26.4119 107.547 26.269 107.547 26.1094C107.547 25.9161 107.602 25.7564 107.711 25.6304C107.82 25.4959 107.955 25.4287 108.114 25.4287C108.223 25.4287 108.333 25.4497 108.442 25.4917C108.551 25.5253 108.665 25.5674 108.782 25.6178C109.018 25.727 109.249 25.8153 109.476 25.8825C109.702 25.9413 109.984 25.9707 110.32 25.9707C110.614 25.9707 110.841 25.9245 111.001 25.8321C111.169 25.7396 111.253 25.6136 111.253 25.4539C111.253 25.3363 111.215 25.2438 111.139 25.1766C111.072 25.101 110.942 25.0337 110.749 24.9749C110.555 24.9161 110.249 24.8447 109.828 24.7606C109.081 24.6178 108.543 24.4035 108.215 24.1178C107.887 23.8321 107.723 23.4329 107.723 22.9203C107.723 22.5422 107.837 22.2018 108.064 21.8993C108.299 21.5968 108.618 21.3615 109.022 21.1934C109.425 21.0169 109.879 20.9287 110.383 20.9287C110.744 20.9287 111.097 20.9749 111.442 21.0674C111.786 21.1598 112.093 21.2901 112.362 21.4581C112.623 21.6178 112.753 21.8531 112.753 22.164C112.753 22.3657 112.698 22.5337 112.589 22.6682C112.48 22.8027 112.345 22.8699 112.186 22.8699C111.992 22.8699 111.761 22.7943 111.492 22.643C111.282 22.5337 111.089 22.4539 110.913 22.4035C110.744 22.3447 110.543 22.3153 110.307 22.3153C110.047 22.3153 109.841 22.3657 109.69 22.4665C109.539 22.559 109.463 22.6892 109.463 22.8573C109.463 23.0337 109.551 23.1682 109.728 23.2606C109.904 23.3531 110.244 23.4455 110.749 23.538C111.312 23.6472 111.753 23.7816 112.072 23.9413C112.392 24.0926 112.623 24.2858 112.765 24.5211C112.908 24.7564 112.98 25.0548 112.98 25.4161C112.98 26.0127 112.732 26.4875 112.236 26.8405C111.749 27.1934 111.093 27.3699 110.27 27.3699ZM115.026 27.3447C114.748 27.3447 114.517 27.269 114.332 27.1178C114.156 26.9665 114.068 26.7438 114.068 26.4497V21.8489C114.068 21.5548 114.16 21.3321 114.345 21.1808C114.53 21.0295 114.757 20.9539 115.026 20.9539C115.295 20.9539 115.517 21.0295 115.694 21.1808C115.879 21.3321 115.971 21.5548 115.971 21.8489V26.4497C115.971 26.7438 115.879 26.9665 115.694 27.1178C115.517 27.269 115.295 27.3447 115.026 27.3447ZM115.026 19.9455C114.689 19.9455 114.425 19.8615 114.231 19.6934C114.038 19.5169 113.942 19.2816 113.942 18.9875C113.942 18.6934 114.038 18.4623 114.231 18.2943C114.425 18.1262 114.689 18.0422 115.026 18.0422C115.353 18.0422 115.614 18.1304 115.807 18.3069C116.009 18.4749 116.11 18.7018 116.11 18.9875C116.11 19.2816 116.013 19.5169 115.82 19.6934C115.626 19.8615 115.362 19.9455 115.026 19.9455ZM120.214 20.9287C121.121 20.9287 121.794 21.1514 122.231 21.5968C122.668 22.0337 122.886 22.706 122.886 23.6136V26.4623C122.886 26.7396 122.806 26.9581 122.647 27.1178C122.487 27.269 122.264 27.3447 121.979 27.3447C121.71 27.3447 121.491 27.2648 121.323 27.1052C121.163 26.9371 121.084 26.7228 121.084 26.4623V26.3741C120.958 26.685 120.747 26.9287 120.453 27.1052C120.159 27.2816 119.815 27.3699 119.42 27.3699C119 27.3699 118.617 27.2858 118.273 27.1178C117.937 26.9497 117.668 26.7144 117.466 26.4119C117.273 26.1094 117.176 25.7732 117.176 25.4035C117.176 24.9497 117.289 24.5926 117.516 24.3321C117.752 24.0716 118.126 23.8825 118.638 23.7648C119.151 23.6472 119.853 23.5884 120.743 23.5884H121.071V23.3615C121.071 23.0085 120.991 22.7522 120.832 22.5926C120.68 22.4329 120.424 22.3531 120.063 22.3531C119.701 22.3531 119.18 22.4791 118.5 22.7312C118.306 22.8237 118.142 22.8699 118.008 22.8699C117.823 22.8699 117.676 22.8069 117.567 22.6808C117.458 22.5464 117.403 22.3741 117.403 22.164C117.403 21.9959 117.441 21.8573 117.516 21.748C117.592 21.6388 117.714 21.5379 117.882 21.4455C118.176 21.2858 118.533 21.1598 118.953 21.0674C119.382 20.9749 119.802 20.9287 120.214 20.9287ZM119.836 26.059C120.205 26.059 120.504 25.9371 120.731 25.6934C120.958 25.4413 121.071 25.1178 121.071 24.7228V24.5085H120.857C120.176 24.5085 119.697 24.5632 119.42 24.6724C119.151 24.7816 119.016 24.9791 119.016 25.2648C119.016 25.5001 119.092 25.6934 119.243 25.8447C119.403 25.9875 119.6 26.059 119.836 26.059ZM128.192 20.9287C128.931 20.9287 129.481 21.1472 129.843 21.5842C130.204 22.0127 130.385 22.664 130.385 23.538V26.4497C130.385 26.727 130.297 26.9455 130.12 27.1052C129.952 27.2648 129.721 27.3447 129.427 27.3447C129.133 27.3447 128.902 27.2648 128.734 27.1052C128.566 26.9455 128.481 26.727 128.481 26.4497V23.6262C128.481 23.206 128.402 22.8993 128.242 22.706C128.091 22.5127 127.851 22.4161 127.524 22.4161C127.129 22.4161 126.809 22.5422 126.566 22.7943C126.33 23.0464 126.213 23.3825 126.213 23.8027V26.4497C126.213 26.727 126.129 26.9455 125.96 27.1052C125.792 27.2648 125.561 27.3447 125.267 27.3447C124.973 27.3447 124.738 27.2648 124.561 27.1052C124.393 26.9455 124.309 26.727 124.309 26.4497V21.8237C124.309 21.5632 124.397 21.3531 124.574 21.1934C124.759 21.0337 124.994 20.9539 125.28 20.9539C125.54 20.9539 125.75 21.0337 125.91 21.1934C126.078 21.3447 126.162 21.5422 126.162 21.7858V21.9623C126.381 21.6262 126.662 21.3699 127.007 21.1934C127.36 21.0169 127.755 20.9287 128.192 20.9287ZM95.9967 40.3699C95.4841 40.3699 95.0387 40.3279 94.6605 40.2438C94.2824 40.1598 93.9504 40.0253 93.6647 39.8405C93.5387 39.7648 93.442 39.664 93.3748 39.538C93.3076 39.4119 93.274 39.269 93.274 39.1094C93.274 38.9161 93.3286 38.7564 93.4378 38.6304C93.5471 38.4959 93.6815 38.4287 93.8412 38.4287C93.9504 38.4287 94.0597 38.4497 94.1689 38.4917C94.2782 38.5253 94.3916 38.5674 94.5093 38.6178C94.7446 38.727 94.9757 38.8153 95.2025 38.8825C95.4294 38.9413 95.711 38.9707 96.0471 38.9707C96.3412 38.9707 96.5681 38.9245 96.7278 38.8321C96.8958 38.7396 96.9799 38.6136 96.9799 38.4539C96.9799 38.3363 96.942 38.2438 96.8664 38.1766C96.7992 38.101 96.6689 38.0337 96.4757 37.9749C96.2824 37.9161 95.9757 37.8447 95.5555 37.7606C94.8076 37.6178 94.2698 37.4035 93.942 37.1178C93.6143 36.8321 93.4504 36.4329 93.4504 35.9203C93.4504 35.5422 93.5639 35.2018 93.7908 34.8993C94.0261 34.5968 94.3454 34.3615 94.7488 34.1934C95.1521 34.0169 95.6059 33.9287 96.1101 33.9287C96.4715 33.9287 96.8244 33.9749 97.1689 34.0674C97.5135 34.1598 97.8202 34.2901 98.0891 34.4581C98.3496 34.6178 98.4799 34.8531 98.4799 35.164C98.4799 35.3657 98.4252 35.5337 98.316 35.6682C98.2068 35.8027 98.0723 35.8699 97.9126 35.8699C97.7194 35.8699 97.4883 35.7943 97.2194 35.643C97.0093 35.5337 96.816 35.4539 96.6395 35.4035C96.4715 35.3447 96.2698 35.3153 96.0345 35.3153C95.774 35.3153 95.5681 35.3657 95.4168 35.4665C95.2656 35.559 95.1899 35.6892 95.1899 35.8573C95.1899 36.0337 95.2782 36.1682 95.4547 36.2606C95.6311 36.3531 95.9715 36.4455 96.4757 36.538C97.0387 36.6472 97.4799 36.7816 97.7992 36.9413C98.1185 37.0926 98.3496 37.2858 98.4925 37.5211C98.6353 37.7564 98.7068 38.0548 98.7068 38.4161C98.7068 39.0127 98.4589 39.4875 97.9631 39.8405C97.4757 40.1934 96.8202 40.3699 95.9967 40.3699ZM103.174 38.9581C103.426 38.9749 103.611 39.038 103.729 39.1472C103.847 39.2564 103.905 39.4161 103.905 39.6262C103.905 39.8699 103.809 40.0548 103.615 40.1808C103.422 40.3069 103.145 40.3573 102.783 40.3321L102.431 40.3069C100.96 40.1892 100.225 39.4203 100.225 38.0001V35.5043H99.7205C99.4432 35.5043 99.2331 35.4455 99.0902 35.3279C98.9474 35.2018 98.8759 35.0253 98.8759 34.7985C98.8759 34.5632 98.9474 34.3867 99.0902 34.269C99.2331 34.143 99.4432 34.08 99.7205 34.08H100.225V33.0968C100.225 32.8195 100.309 32.601 100.477 32.4413C100.653 32.2816 100.889 32.2018 101.183 32.2018C101.477 32.2018 101.708 32.2816 101.876 32.4413C102.044 32.601 102.128 32.8195 102.128 33.0968V34.08H103.01C103.582 34.08 103.868 34.3195 103.868 34.7985C103.868 35.0253 103.796 35.2018 103.653 35.3279C103.51 35.4455 103.296 35.5043 103.01 35.5043H102.128V38.1388C102.128 38.3909 102.187 38.5842 102.305 38.7186C102.422 38.8447 102.594 38.9161 102.821 38.9329L103.174 38.9581ZM107.582 40.3699C106.927 40.3699 106.351 40.2396 105.856 39.9791C105.36 39.7102 104.977 39.3363 104.709 38.8573C104.44 38.3699 104.305 37.7985 104.305 37.143C104.305 36.4875 104.44 35.9203 104.709 35.4413C104.977 34.9539 105.36 34.58 105.856 34.3195C106.351 34.059 106.927 33.9287 107.582 33.9287C108.238 33.9287 108.814 34.059 109.309 34.3195C109.805 34.58 110.188 34.9539 110.456 35.4413C110.725 35.9203 110.86 36.4875 110.86 37.143C110.86 37.7985 110.725 38.3699 110.456 38.8573C110.188 39.3363 109.805 39.7102 109.309 39.9791C108.814 40.2396 108.238 40.3699 107.582 40.3699ZM107.582 38.9203C108.507 38.9203 108.969 38.3279 108.969 37.143C108.969 36.5464 108.847 36.101 108.603 35.8069C108.368 35.5127 108.028 35.3657 107.582 35.3657C106.658 35.3657 106.196 35.9581 106.196 37.143C106.196 38.3279 106.658 38.9203 107.582 38.9203ZM115.711 33.9539C115.963 33.9371 116.161 33.9959 116.304 34.1304C116.455 34.2564 116.531 34.4497 116.531 34.7102C116.531 34.9875 116.463 35.1934 116.329 35.3279C116.195 35.4623 115.955 35.5464 115.611 35.58L115.232 35.6178C114.77 35.6682 114.434 35.8195 114.224 36.0716C114.022 36.3237 113.921 36.6472 113.921 37.0422V39.4497C113.921 39.7438 113.829 39.9665 113.644 40.1178C113.468 40.269 113.245 40.3447 112.976 40.3447C112.699 40.3447 112.468 40.269 112.283 40.1178C112.106 39.9665 112.018 39.7438 112.018 39.4497V34.8237C112.018 34.5464 112.111 34.3321 112.295 34.1808C112.48 34.0295 112.703 33.9539 112.963 33.9539C113.216 33.9539 113.426 34.0295 113.594 34.1808C113.762 34.3237 113.846 34.5253 113.846 34.7858V35.1262C113.997 34.7648 114.224 34.4875 114.526 34.2943C114.837 34.101 115.174 33.9917 115.535 33.9665L115.711 33.9539ZM121.921 38.4287C122.089 38.4287 122.223 38.4959 122.324 38.6304C122.433 38.7648 122.488 38.9371 122.488 39.1472C122.488 39.2901 122.446 39.4245 122.362 39.5506C122.278 39.6682 122.16 39.769 122.009 39.8531C121.723 40.0043 121.391 40.1304 121.013 40.2312C120.635 40.3237 120.286 40.3699 119.967 40.3699C119.295 40.3699 118.706 40.2396 118.202 39.9791C117.706 39.7186 117.324 39.3489 117.055 38.8699C116.786 38.3825 116.652 37.8111 116.652 37.1556C116.652 36.5253 116.782 35.9665 117.042 35.4791C117.303 34.9917 117.664 34.6136 118.126 34.3447C118.589 34.0674 119.114 33.9287 119.702 33.9287C120.265 33.9287 120.757 34.0548 121.177 34.3069C121.605 34.5506 121.937 34.9035 122.173 35.3657C122.408 35.8195 122.526 36.3531 122.526 36.9665C122.526 37.1514 122.479 37.2943 122.387 37.3951C122.303 37.4875 122.181 37.5337 122.021 37.5337H118.492C118.551 38.0295 118.702 38.3909 118.946 38.6178C119.19 38.8363 119.538 38.9455 119.992 38.9455C120.236 38.9455 120.454 38.9161 120.648 38.8573C120.841 38.7985 121.055 38.7186 121.29 38.6178C121.408 38.5674 121.521 38.5253 121.631 38.4917C121.74 38.4497 121.837 38.4287 121.921 38.4287ZM119.753 35.2396C119.391 35.2396 119.101 35.3573 118.883 35.5926C118.664 35.8195 118.534 36.1514 118.492 36.5884H120.925C120.9 36.143 120.786 35.8069 120.584 35.58C120.391 35.3531 120.114 35.2396 119.753 35.2396Z" fill="white"/>
<defs>
<linearGradient id="paint0_linear" x1="-2.2148" y1="43.27" x2="22.9982" y2="178.703" gradientUnits="userSpaceOnUse">
<stop offset="0.252" stop-color="#0064B2"/>
<stop offset="1" stop-color="#00477F"/>
</linearGradient>
</defs>
</svg>
